<?xml version="1.0" encoding="utf-8"?>
<!-- Generator: Adobe Illustrator 18.1.0, SVG Export Plug-In . SVG Version: 6.00 Build 0)  -->
<!DOCTYPE svg PUBLIC "-//W3C//DTD SVG 1.1//EN" "http://www.w3.org/Graphics/SVG/1.1/DTD/svg11.dtd">
<svg version="1.1" id="Layer_1" xmlns="http://www.w3.org/2000/svg" xmlns:xlink="http://www.w3.org/1999/xlink" x="0px" y="0px"
	 viewBox="0 0 1440.2 574.6" enable-background="new 0 0 1440.2 574.6" xml:space="preserve">
<g>
	<g>
		<path fill="#FAFEFE" d="M677.9,400.7c2.5-20.7,7.2-38.1,19.8-47.4c12.4-9.4,25.1-13.2,36.8,1.7c3.6,4.4,5.1,2.5,7.5-1.4
			c5.8-9.7,13-14.1,21.9-9.7c9,4.4,11.5,15.4,11.7,27.3c0.2,8,2.3,6.9,5.7,5.2c1.1-0.6,2.5-1.1,3.6-1.4c16.8-5,27.7,10.2,25.1,35
			c-0.6,6.1,16.4,38.6,20,41.1c9.8,7.2,18.8,9.4,28.6,0.6c2.1-1.9,6.2-1.7,8.1,0.3c9.6,10.2,19.4,3.6,29.2,1.9
			c3.2-0.6,4.9-3.6,7.2-6.1c17.9-18.5,36.9-7.4,41.1,24c0.8,6.3,2.3,9.7,7.2,9.9c3.4,0,7.5,0.6,9.8,3.6c6.2,7.4,13.2,6.9,20.4,7.4
			c14.7,0.8,25.8,19.6,21.7,37.2c-2.6,11-7.4,22.1-14.7,25.7c-10.6,5.2-20.4,13.8-31.5,17.4c-12.6,3.9-23.4,0.6-33.9-12.7
			c-5.3-6.6-13.6-14.3-23-7.2c-7.4,5.8-15.5,3.9-22.2-3c-3.8-3.9-6.8-4.1-11.1-1.7c-6.8,3.9-14.3,3.6-21.3,0
			c-5.7-3-9.4-2.8-13.8,4.4c-8.3,13.5-20.9,15.7-31.7,6.3c-4.1-3.6-7.4-4.1-12.1-1.9c-13.4,6.3-27.5-1.4-36.2-17.4
			c-5.8-10.8-15.8-9.7-23-16.3c-0.4-0.3-2.3,1.4-3,2.8c-7,12.1-16.4,14.6-26.6,13c-3.4-0.6-6,0.6-8.7,3.9
			c-7.7,9.4-16.6,10.2-25.6,4.7c-2.8-1.7-5.1-3.3-7.2,1.7c-12.1,28.1-51.6,25.9-64.8,6.9c-4-5.8-6.8-5-11.3-1.4
			c-16.6,13.2-33,13.5-48.1-5.5c-3.2-4.1-5.1-3-8.1,0c-13,12.4-26.4,17.7-39.8,1.4c-1.7-1.9-3.2-2.2-5.3-1.1c-1.5,0.8-3,2.2-4.5,1.9
			c-12.4-0.6-23.7,5.5-35.6,11c-11.7,5.5-23.9,1.4-32-14.9c-2.6-5.2-5.7-6.3-9.6-5.8c-12.1,1.4-23.4-1.7-30.7-17.7
			c-1.9-4.1-4.1-2.8-6.6-2.2c-9.2,1.4-17.5-2.5-24.7-10.8c-8.5-9.9-7.4-26.5,2.1-33.9c4.3-3.3,9.4-6.6,13.4-4.7c11.1,5.2,20,0,29-8
			c0.8-0.8,1.9-1.4,2.6-1.1c11.7,1.1,23.4,3.3,30.3-15.4c0.4-1.1,2.3-2.2,3.4-1.9c11.5,3.3,18.8-8.3,27.7-15.2
			c18.3-14.1,37.7-16,56.7-1.4c6.4,5,8.5,17.7,14.1,21.2c5.1,3.3,10.9-8.3,17.9-7.7c7.2,0.6,13.8,2.8,18.7,10.8c3,5,5.7,6.1,9.2,0.8
			c4.5-6.6,10.2-6.3,15.8-3c3.6,2.2,5.5,2.2,6.2-5c2.1-19,4.9-22.3,18.7-22.9c4.1-0.3,6.6-0.8,7.7-8.3c2.8-20.1,10.9-29,25.1-30.6
			C650.9,382.8,664.7,387.2,677.9,400.7z"/>
		<linearGradient id="SVGID_1_" gradientUnits="userSpaceOnUse" x1="12.3211" y1="365.8607" x2="933.0377" y2="365.8607">
			<stop  offset="0.6067" style="stop-color:#FFFFFF"/>
			<stop  offset="1" style="stop-color:#9CCDE9"/>
		</linearGradient>
		<path fill="url(#SVGID_1_)" d="M512.1,543.6c-7.8-5.1-11.8-4.1-18.6,1c-22.3,15.9-62.5,11.2-75.7-11.8
			c-9.8-16.6-16.2-26.7-37.9-21.3c-8.1,2-12.5,2.4-17.2,9.8c-16.9,26.7-54.4,36.2-73.4,8.5c-2.4-3.7-5.1-6.1-9.8-3.7
			c-8.8,4.4-17.6,1.7-26.4-0.7c-5.4-1.7-8.1-3-9.5,5.4c-4.4,28.4-15.2,36.5-44.6,36.5c-21.6-0.3-43.6-13.9-64.9,1.4
			c-16.9-8.5-34.1-2-51.4-3c-10.8-0.7-22-4.4-33.8-4.1C34,561.9,11.3,535.2,12.4,521c1.7-28.1,39.2-50.4,64.6-38.2
			c5.7,2.7,9.1,1.4,14.5,0c13.5-3,19.9-12.2,26.4-22.7c5.1-8.1,13.2-11.8,23-12.2c11.2-0.7,21.3,1.4,31.1,6.4
			c14.9,7.8,25.7,3.7,31.8-10.8c10.1-23.7,36.2-25.4,53.1-39.6c0.3,0,1,0,1.7,0c12.2,2,16.9-3,20.3-15.2
			c10.8-38.5,40.2-49.4,73.7-27.7c11.5,7.4,18.3-7.4,29.4-4.4c3.4,1,1.7-8.5,2-13.2c1-20.6,8.8-32.5,28.1-39.6
			c11.2-4.1,25-3.7,23.7-22c-0.3-4.7,5.4-8.1,9.8-8.1c11.8-0.7,12.5-7.4,12.8-16.9c1.4-28.1,21-41.9,47.3-33.5
			c7.4,2.4,11.5,2.4,15.2-4.4c2-3.7,6.1-5.1,10.1-4.7c8.8,1,10.8-4.1,13.5-11.2c13.2-35.8,50.7-50,82.5-32.8
			c27,14.5,46.7,51.1,40.2,81.1c-3,15.6-2.4,19.9,15.2,21c27,1.7,53.1,42.9,38.2,60.5c-11.2,13.2-6.8,21.6-3,33.5
			c2.4,7.1,4.1,8.1,11.5,7.4c28.4-3.4,52.7,14.5,60.2,42.6c1,3,29.4,25,32.5,24c1.7-0.7,3-2.7,4.7-4.4c24.7-24,68-12.8,76.1,20.3
			c2.4,9.1,5.7,14.5,13.5,19.3c13.9,8.5,20.6,30.1,14.9,45.3c-5.1,14.2-16.6,18.9-31.1,17.2c-6.4-0.7-10.1,1.7-13.9,7.1
			c-15.9,24-44.3,28.1-68.6,10.5c-8.8-6.1-22-8.1-32.8-5.1c-3.7,1-9.1,2.4-11.5,0.7c-14.9-11.5-25.7-3.4-37.2,5.4
			c-1.7,1.4-4.4,1.4-6.4,2c-25,7.1-46.3-0.3-65.6-16.6c-4.4-3.7-7.1-6.8-13.9-2c-35.8,25-65.9,21.3-95.7-9.8
			C539.1,546.3,525.6,550.7,512.1,543.6z"/>
		<path fill="#FFFFFF" d="M603.8,373.2c-45.9,31.1-92.4,34.8-147.7,9.8c-10.4-4.7-14.6-1.7-21.4,2c-29.7,16.2-62.6,23.7-101.2,16.6
			c-3.1-0.7-7.3-0.7-9.9-2c-17.7-8.8-34.4-16.9-57.4-5.4c-3.7,1.7-12,0.3-17.7-0.7c-16.7-3-37-1-50.6,5.1
			c-37.6,17.6-81.4,13.5-105.9-10.5c-5.7-5.4-11.5-7.8-21.4-7.1c-22.4,1.7-40.2-3-48-17.2c-8.9-15.2,1.6-36.9,23-45.3
			c12-4.7,17.2-10.1,20.9-19.3c12.5-33.1,79.3-44.3,117.4-20.3c2.6,1.7,4.7,3.7,7.3,4.4c4.7,1,48.5-21,50.1-24
			c11.5-28.1,49-46,92.9-42.6c11.5,0.7,14.1-0.3,17.7-7.4c5.7-11.8,12.5-20.3-4.7-33.5c-23-17.6,17.2-58.8,59-60.5
			c27.1-1,28.2-5.4,23.5-21c-9.9-30.1,20.3-66.6,62.1-81.1c49-17.2,107-3,127.3,32.8c4.2,7.1,7.3,12.2,20.9,11.2
			c6.3-0.3,12.5,1,15.7,4.7c5.7,6.8,12,6.8,23.5,4.4c40.7-8.5,71,5.4,73,33.5c0.5,9.5,1.6,16.2,19.8,16.9c6.8,0,15.7,3.4,15.1,8.1
			c-2.1,18.3,19.3,17.9,36.5,22c29.7,7.1,41.7,18.9,43.3,39.6c0.5,4.7-2.1,14.2,3.1,13.2c17.2-3,27.7,11.8,45.4,4.4
			c51.7-21.6,97-10.8,113.7,27.7c5.2,12.2,12.5,17.2,31.3,15.2c1,0,2.1,0,2.6,0c26.1,14.2,66.3,15.9,81.9,39.6
			c9.4,14.5,26.1,18.6,49,10.8c15.1-5.1,30.8-7.1,48-6.4c15.1,0.3,27.7,4.1,35.5,12.2c9.9,10.5,19.8,19.6,40.7,22.7
			c8.3,1.4,13.6,2.7,22.4,0c39.1-12.2,97,10.1,99.7,38.2c1.6,14.2-33.4,40.9-56.4,40.6c-18.3-0.3-35.5,3.4-52.2,4.1
			c-26.6,1-53.2-5.4-79.3,3c-32.9-15.2-66.8-1.7-100.2-1.4c-45.4,0-62.1-8.1-68.9-36.5c-2.1-8.5-6.3-7.1-14.6-5.4
			c-13.6,2.4-27.1,5.1-40.7,0.7c-7.3-2.4-11.5,0-15.1,3.7c-29.2,27.7-87.1,18.3-113.2-8.5c-7.3-7.4-14.1-7.8-26.6-9.8
			c-33.4-5.4-43.3,4.7-58.4,21.3c-20.3,23-82.4,27.7-116.9,11.8c-10.4-5.1-16.7-6.1-28.7-1C648.1,393.5,627.2,389.1,603.8,373.2z"/>
	</g>
	<path fill="#FAFEFE" d="M854.2,220.6c-90.5,0-181.2,0-271.7,0c-14.6,0-15.1-1.1-10.1-15.1c17.5-46.2,66.9-68.2,112.8-49.4
		c9.3,4,13.3,2.9,18.8-5.8c20.2-33.4,50.7-50.9,89.9-51.2c9.8,0,13.5-3.4,16.5-12.5C825.5,37,874.1-4.9,943.8,0.4
		c50.4,3.7,98.2,47.5,108.3,100c2.4,12.7,4,25.7,1.6,38.2c-2.7,12.7,2.4,13.5,12.7,13.5c33.7-0.3,62.1,22,70,53.9
		c3.7,14.6,3.4,14.9-11.4,14.9C1034.3,220.6,944.1,220.6,854.2,220.6z"/>
</g>
</svg>
