<?xml version="1.0" encoding="utf-8"?>
<!-- Generator: Adobe Illustrator 18.1.0, SVG Export Plug-In . SVG Version: 6.00 Build 0)  -->
<!DOCTYPE svg PUBLIC "-//W3C//DTD SVG 1.1//EN" "http://www.w3.org/Graphics/SVG/1.1/DTD/svg11.dtd">
<svg version="1.1" id="Layer_1" xmlns="http://www.w3.org/2000/svg" xmlns:xlink="http://www.w3.org/1999/xlink" x="0px" y="0px"
	 viewBox="0 0 1337.7 574.6" enable-background="new 0 0 1337.7 574.6" xml:space="preserve">
<linearGradient id="SVGID_1_" gradientUnits="userSpaceOnUse" x1="-2.535215e-05" y1="287.3222" x2="1337.6738" y2="287.3222">
	<stop  offset="0" style="stop-color:#9CCDE9"/>
	<stop  offset="0.3933" style="stop-color:#FFFFFF"/>
	<stop  offset="0.4782" style="stop-color:#F9FAFC"/>
	<stop  offset="0.5933" style="stop-color:#E8EDF3"/>
	<stop  offset="0.7258" style="stop-color:#CBD8E4"/>
	<stop  offset="0.8699" style="stop-color:#A4BAD0"/>
	<stop  offset="1" style="stop-color:#7A9ABB"/>
</linearGradient>
<path fill="url(#SVGID_1_)" d="M324,513.1c-30.6,41.7-56.7,48.3-103.7,24.8c-8-4-12.4-1.8-17.7,1.8c-17.3,10.2-34.1,6.6-47-5.8
	c-9.8-9.8-16.4-7.1-26.6-2.7c-26.6,12.4-54.1,14.2-81.6,1.3C29.7,524.2,20,510.4,23.1,490c0.9-5.8,3.1-11.5-4.4-15.1
	c-14.2-6.6-23-16.8-16.4-33.2c7.1-16.8,22.6-16.4,37.7-15.1c4.4,0.4,8.4,1.3,12.9,1.8c1.8-55,40.3-80.2,94-59.4
	c26.6,10.6,49.6-2.2,74.5-2.7c5.3,0,11.5-4.4,16.8-2.7c16.8,5.8,31.5,4.9,48.8-3.1c12.4-5.3,18.2-8,17.3-21.7
	c-0.9-8.9,1.3-18.6,8.4-24.4c10.6-8.4,15.1-19.1,20.4-30.6c7.5-17.3,22.6-26.6,42.1-34.1c-14.2-10.2-26.6-19.9-35.5-31.9
	c-21.7-28.8-16.8-57.6,12.4-77.1c17.3-11.5,17.7-23.9,1.8-37.7c-6.2-5.3-12-11.1-17.3-17.3c-26.6-33.7-14.6-70.5,26.2-82.4
	c25.7-7.5,49.6-1.8,72.2,11.1c8,4.4,11.5,5.8,20.4-0.9c18.2-14.2,32.4-0.4,42.5,13.3c10.2,13.7,19.5,20.4,39,19.9
	c37.7-0.4,57.6,28.8,56.3,72.2c-0.4,14.2-6.6,29.3,11.5,37.7c2.2,0.9,4.4,5.8,4,7.5c-7.5,23.9,12,25.7,25.7,32.8
	c39.4,20.8,51,51.4,33.7,91.7c-6.2,14.6,2.7,16.8,11.5,15.5c22.6-3.5,43.4-1.8,63.8,10.6c10.6,6.6,14.2-7.1,21.3-10.6
	c7.5-4,6.6-8.9,4-16.4c-13.3-34.6-9.8-43.4,24.8-58.5c8-3.5,8-9.8,9.8-16c11.1-39,27.5-51.9,66.9-51.4c6.6,0,8.4-2.2,10.6-8
	c17.7-50.1,39.9-66.5,88.2-66c43,0.4,77.1,25.3,90.4,68.3c5.3,17.7,9.3,31,30.6,39c23,8.4,27.9,34.1,24.8,58.9
	c-0.9,5.8-4,11.5-3.5,17.3c0.4,8.9,1.8,17.7,5.8,25.7c6.6,13.3,15.5,0.9,22.6-0.4c42.1-7.5,73.1,14.2,78,57.2
	c1.3,9.8,0.9,17.7,14.6,14.2c8-2.2,17.7,1.3,22.2,8c11.1,16.8,27.9,22.2,45.2,29.3c26.6,11.1,40.8,32.4,37.7,51.4
	c-3.1,20.8-26.6,43-55.8,42.1c-27-0.9-44.8,21.7-70.5,19.9c-1.8,0-4,2.2-4.9,4c-17.3,27-41.7,23.9-66.5,13.7
	c-10.2-4-15.1-2.2-22.2,5.8c-32.4,39-88.6,43.4-128.1,9.3c-10.2-8.9-18.2-10.6-31-8c-20.4,4.4-41.7,2.7-58.1-13.3
	c-6.2-6.2-10.6-6.6-18.6-1.8c-41.2,25.7-72.2,20.4-105.5-17.7c-3.5-4-6.2-5.8-11.1-3.1c-9.3,5.3-19.5,7.1-29.7,3.5
	c-7.5-2.7-9.8,3.1-13.7,7.5c-27.9,35.9-73.6,49.6-117,35.5c-7.1-2.2-12.4-4.4-19.9,0.9c-22.6,16-45.2,15.5-66.9-1.3
	c-9.3-7.1-14.6-7.5-24.4-0.9c-18.2,12-36.8,6.6-49.2-12.4c-3.5-4.9-4.4-9.8-12.9-8C369.7,546.8,369.7,546.8,324,513.1z"/>
</svg>
