<?xml version="1.0" encoding="utf-8"?>
<!-- Generator: Adobe Illustrator 18.1.0, SVG Export Plug-In . SVG Version: 6.00 Build 0)  -->
<!DOCTYPE svg PUBLIC "-//W3C//DTD SVG 1.1//EN" "http://www.w3.org/Graphics/SVG/1.1/DTD/svg11.dtd">
<svg version="1.1" xmlns="http://www.w3.org/2000/svg" xmlns:xlink="http://www.w3.org/1999/xlink" x="0px" y="0px"
	 viewBox="0 0 1932.3 1458.9" enable-background="new 0 0 1932.3 1458.9" xml:space="preserve">
<g id="Layer_1">
	<g>
		<linearGradient id="SVGID_1_" gradientUnits="userSpaceOnUse" x1="966.4462" y1="1449.4338" x2="966.4462" y2="-1">
			<stop  offset="0.4924" style="stop-color:#FFF1DB"/>
			<stop  offset="0.7478" style="stop-color:#FDDECE"/>
			<stop  offset="0.7869" style="stop-color:#F5DACF"/>
			<stop  offset="0.8488" style="stop-color:#DECFD1"/>
			<stop  offset="0.9253" style="stop-color:#B9BED5"/>
			<stop  offset="1" style="stop-color:#8EAAD9"/>
		</linearGradient>
		<rect x="0" y="-1" fill="url(#SVGID_1_)" width="1932.9" height="1450.4"/>
		<g>
			<linearGradient id="SVGID_2_" gradientUnits="userSpaceOnUse" x1="966.1856" y1="1465.0398" x2="966.1856" y2="622.7365">
				<stop  offset="0.8326" style="stop-color:#EC7D4C"/>
				<stop  offset="0.9666" style="stop-color:#F6B744"/>
				<stop  offset="1" style="stop-color:#F8C642"/>
			</linearGradient>
			<rect x="0.1" y="622.7" fill="url(#SVGID_2_)" width="1932.3" height="842.3"/>
			<g>
				<path fill="#ECAC09" d="M1932.3,1190.2c0,19.3,0,38.7,0,58c-13.9,2.3-25.3,16.8-39.7,16.6c-32.9,5.3-64.8,17-96.7,29
					c-2.8,0-5.6,0-8.5,0.1c-5.3-2.7-11.2-9.8-14.2,4.1c-4.7,1.4-9.5,2.7-14.2,4.1c-7.5-7-13.5,0-19.9,4.2c-6.5,1.4-13,3.1-19.5,4.1
					c-46.8,6.7-93.5,15.2-140.3,22c-54,7.8-108.1,12.6-162.1,14.5c-81.3,3-162.7,1.8-244,0.1c-22.5-0.5-45.2-2.1-67.8-4
					c-50.3-4.1-100.3-14-150.7-16.2c-4-10.8-11-7.7-17.2-7.9c-7.5-0.1-15.1-0.2-22.6-0.3c-29.3-12.6-60-14.4-89.7-24.2
					c-21.3-7-42.6-13.3-63.7-21.4c15.4-13.8,33.2-5.8,48.8-10.4c35.4-10.5,70.2-8.3,105.5-6.8c17.3,0.8,34.7-7.7,51.9-7.1
					c48.8,1.5,97.3-6.7,146.1-4.9c23.7,0.9,47.4,0.3,71,0.1c4.7,0,9.6-0.2,14-2.1c17.8-7.6,36.1-10.8,54.5-10.1
					c23,0.8,45.8,2.7,69.1,1c72.1-5.1,144.1-10.9,216.2-16.6c40.9-3.2,82.1-5.1,123.3-5.4c45.1-0.4,90.7,5.2,134.3-19.5
					c4.2-2.4,9.4-1.1,14.1-1.1C1850.9,1190.2,1891.6,1190.2,1932.3,1190.2z"/>
				<path fill="#EFB51D" d="M1932.3,1190.2c-40.7,0-81.5,0-122.2,0.1c-4.7,0-9.9-1.3-14.1,1.1c-43.6,24.6-89.2,19.1-134.3,19.5
					c-41.1,0.3-82.3,2.2-123.3,5.4c-72.1,5.7-144.1,11.6-216.2,16.6c-23.2,1.6-46-0.2-69.1-1c-18.5-0.7-36.7,2.6-54.5,10.1
					c-4.4,1.9-9.3,2-14,2.1c-23.7,0.2-47.4,0.8-71-0.1c-48.7-1.8-97.3,6.3-146.1,4.9c-17.3-0.5-34.7,7.9-51.9,7.1
					c-35.4-1.5-70.1-3.7-105.5,6.8c-15.6,4.6-33.3-3.3-48.8,10.4c-11.8-9.7-25.7-6-38-13.1c-17.3-10.1-35.5-17.7-52-30
					c-12.1-9-26.6-13.6-35.1-31.5c20,2.9,38.9-9.9,57.8-11c66.9-4,133.9-5.5,200.8-12.7c54.5-5.9,109.4-3.4,164.2-8.3
					c48-4.2,96.3-3,144.5-5.3c9.9-0.5,19.8-2.8,29.5-3.3c20.3-1,40.8-11.4,61.1,1.1c2.8,1.7,3.8-2.6,4.4-6.1
					c28.5,15.1,58,22.8,88.2,24.8c5.5,6,11.1,5.8,16.8,0.4c103.8,2,207.5-2.5,310.7-20.9c57-10.1,114-20,170.2-38.4
					c16-5.3,32.1-10.5,48.1-15.7C1932.3,1132.1,1932.3,1161.2,1932.3,1190.2z"/>
				<path fill="#F8B814" d="M0,1455.6c0-13.8,0-27.6,0-41.4c49.2,1.7,98.2-7.4,147.4-4.2c11.9,0.8,23.6-0.5,35.1-4.6
					c14.5-5.3,28.9-5.1,43.4,0c12.9,4.6,26.7,9,39.2,3.4c22.5-10.2,45.2-10.6,68.3-11.4c23.6-0.8,47,7.4,70.7,4
					c48.8-7,97.7-12.7,146.8-4.4c10.7,1.8,23,4.5,32.3-1c16.8-9.9,33.5-4.8,50.3-6.7c6.3-0.7,11.5,1.2,11.5,12.7l-0.1-0.1
					c-1.8,0.3-4,0.5-4.2,3.7c-0.2,3.4,1.9,3.8,3.7,4.3c1.1,18.2,12.1,20.6,20.5,24.1c26.8,11.3,54.2,17.6,82.3,17.5
					c80.4-0.4,160.8,3.3,241.1-4.2c58.4-5.5,116.8-10.7,175.1-16.9c32.9-3.5,65.8-8.3,98.6-13.2c40.8-6.1,81.5-12.6,122.2-19.6
					c41.6-7.1,83.2-14.9,124.7-22.8c38.8-7.4,77.5-15.3,116.3-22.9c12.3,5.1,24.7,10.7,34.2-8.6c1.9-1,3.9-2.1,5.8-3.1
					c0.1,6-0.1,13.6,5.2,13.8c6.4,0.3,5.7-8.3,6.1-14.7c5.7-1.4,11.3-2.8,17-4.2c0.4,5.2-0.3,13.1,5.7,10.3c23-10.8,46.8-2.8,70-4
					c54.3-3,108.7-8.7,163.1-5.9c0,29,0,58,0,87.1c-106.5-3-212.9,3.2-319.4,5c-24.7,0.4-49.6,7.2-74.6,9.3
					c-40.6,3.3-81.2,3.9-121.8-0.2c-16.8-1.7-34.7-8.3-50,4.3c-10.4,8.5-20.1,5.3-30.1,6.1c-5.5,0.5-6-4.4-3.5-11
					c4.3-11-0.4-12.9-6.6-13.5c-25.6-2.9-50.6,2.6-75.2,12.6c-9.1,3.7-18,13.2-26.9-2.4c-2.7-4.7-9.1-3-13.2,1.5
					c-3.2,3.6-6.7,5.1-10.6,4.7c-47.1-4.2-93.6,14.5-140.8,8.4c-2.8-0.4-5.7,0.1-8.5,0.3c-3.3,0.3-4.9,3.5-5.7,7.9l0,0
					c-39.8,0-79.5,0-119.3,0c-8.5,0-16.4,1.3-24.8,5.8c-9.9,5.3-21.2,4.9-31.8-1.1c-16-9.1-33.5-8.9-48.5-1.9
					c-17.2,8-34.6,9.1-50,3.5c-31.1-11.3-61.9-4.9-92.7-4.5c-8.9,0.1-14.1,0.3-20.1-11.2c-4.1-7.8-13.1-23.9-20.9-8.9
					c-6,11.6-12.4,12.3-20.2,14.2c-15.6,3.9-29.4-8.1-44.7-8.9c-21.5-1.2-41.5,10.9-63.2,9.6c-25-1.5-49.9-4.1-74.9-4.7
					c-30.1-0.7-60.1,4.3-90,6.3c-42.5,2.9-85.6,8.9-128.3-5.9c-23.7-8.2-47,9.6-71.4,8.3C96.6,1453.8,48.3,1455.6,0,1455.6z"/>
				<path fill="#F9B50B" d="M0,1455.6c48.3,0,96.6-1.8,144.8,0.7c24.4,1.2,47.7-16.6,71.4-8.3c42.7,14.8,85.8,8.8,128.3,5.9
					c29.9-2,59.9-7.1,90-6.3c25,0.6,50,3.3,74.9,4.7c21.6,1.3,41.7-10.9,63.2-9.6c15.2,0.9,29.1,12.8,44.7,8.9
					c7.8-1.9,14.2-2.7,20.2-14.2c7.8-15,16.8,1.1,20.9,8.9c6,11.4,11.2,11.3,20.1,11.2c30.9-0.4,61.6-6.8,92.7,4.5
					c15.4,5.6,32.8,4.5,50-3.5c15.1-7,32.5-7.2,48.5,1.9c10.6,6,21.9,6.4,31.8,1.1c8.4-4.5,16.3-5.8,24.8-5.8c39.8,0,79.5,0,119.3,0
					c7.3,10.3,25.7,11.9,38.2,2.3c-13.3-4.6-25.9-1.3-38.2-2.3c0.7-4.4,2.4-7.6,5.7-7.9c2.8-0.3,5.7-0.7,8.5-0.3
					c47.2,6.1,93.7-12.6,140.8-8.4c3.9,0.3,7.3-1.2,10.6-4.7c4.1-4.5,10.6-6.2,13.2-1.5c8.9,15.6,17.8,6.1,26.9,2.4
					c24.6-10.1,49.5-15.5,75.2-12.6c6.2,0.7,10.9,2.5,6.6,13.5c-2.5,6.5-2,11.4,3.5,11c10-0.8,19.7,2.4,30.1-6.1
					c15.3-12.6,33.2-6,50-4.3c40.6,4,81.2,3.5,121.8,0.2c25-2,49.8-8.8,74.6-9.3c106.5-1.8,212.9-8,319.4-5c0,18-0.3,36,0.2,53.9
					c0.2,7.2-0.9,9.7-5.9,8.4c-2.3-0.6-4.7-0.1-7.1-0.1c-640,0-1280,0-1920,0C-0.3,1474.9-0.1,1465.2,0,1455.6z M1179.3,1459.7
					c-11.8-6.3-31.2-5.8-40.2,1C1151.9,1465.5,1169.3,1465,1179.3,1459.7z M1222.6,1459.3c-0.7-3-2.3-3.5-4.2-3.2
					c-1.9,0.3-3.7,1.5-3,4.7c0.3,1.2,2.1,2.1,3.3,2.3C1220.6,1463.4,1222.4,1462.9,1222.6,1459.3z"/>
				<path fill="#F8BC24" d="M1932.3,821.2c0,8.3,0,16.6,0,24.9c-4.6,1.1-9.6,1.1-13.9,3.4c-18.8,10.3-38.1,11.5-58,9.7
					c-7.6-0.7-15.7,2.1-22.2,10.9c-5.7,7.8-14.5,9.3-18.6-0.4c-6.2-14.5-14.3-12.6-22.2-9.4c-9.4,3.8-21-2.2-28.3,13.3
					c-1.8,3.9-7.1,0.9-10.8-0.8c-4.5-2.1-9.1-5.6-13.6-5.4c-45.9,1.1-91.7-3.6-137.6,2.5c-20.6,2.7-41.6,0.8-62.4-0.3
					c-21.2-1.1-42.3-0.2-63.1,4.8c-25,6-49.1,20.7-75.2,7.7c-6.5-3.3-14.3,0.2-20.6,4.5c-7.2,4.9-14.6,5.4-22.1,5.3
					c-14.5-3.5-26.8-13.7-38.9-25.2c-6.5-6.1-13-17.3-22.4-7.8c-6.4-8.4-11.9-2-17.9,1.8c-18.6,12-36.8,25.7-57.2,31
					c-0.3-0.2-0.6-0.5-0.9-0.7c0.3,0.2,0.6,0.5,0.8,0.7c-14.3,11.7-29.1,21-45.4,24.9c7.8-16.1,22.8-15.9,31.8-29.2
					c-2-5.2-5.2-3.8-7.8-3.8c-21.7,0.3-42.9,4-62.1,20.3c-2.6,2.2-5.2,4.1-7.8,1.1c-6.8-7.5-14.6-5.4-22-4.8
					c-25.9,2.2-51.7,5.9-77.5,7.9c-47.5,3.7-94.9,0.2-142.6,6.5c-60.8,8.1-122.4,3.3-183.6,13.2c-39.2,6.3-79.2,0.9-118.9,4.8
					c-26.2,2.6-52.5,0.5-78.8,0.5c-6.2,0-13-1.4-12.9,12.5c-5.9,1.7-9-7.1-14.1-8.2c-5.9-12.2-16.7-14.9-23-26.9
					c-4.5-8.7-6.7-12.4,3.2-15.3c28-8.2,56.4-1.3,84.6-7.1c34.9-7.2,70.3-9.6,105.4-13.9c43.6-5.4,87.3-10.5,130.9-15.8
					c8.9,12.6,12.4,11.8,17-3.9c1.9-0.1,3.8-0.1,5.7-0.2c-0.3,12.2,5.4,11.9,11.4,12.6c20.2,2.3,40.2-1.5,60.4-1.3
					c28.3,0.2,56.5,1.7,85.2-5.2c33.1-7.9,67.5-7.5,101.6-6.5c21.6,0.7,43.3-2.8,64.9-4.4c58-4.3,116.2-5.3,173.9-15.9
					c31.2-5.8,63.4,0.7,93.7-16.5c10,13.8,22.5,20.5,35.5,24.2c44.2,12.6,88.6,2.8,132.8-0.3c56.5-4.1,112.7-13.6,169.1-19.4
					c44.3-4.6,88.8-5.7,133.3-4.6c5,0.1,10.5,2.1,15-3.6C1901.7,815.9,1917,818.5,1932.3,821.2z"/>
				<path fill="#D08B08" d="M1386.6,1177.8c-30.2-2.1-59.7-9.8-88.2-24.8c-5.7-4.5-9-11.2-8.8-20.9c0.7-6.2,5-7.6,7.2-11.6
					c7.6-13.6,20.2-16.3,28-29.2c2.8-0.5,5.7-0.7,8.4-1.6c29.4-10.3,55.9-32.8,85.6-41.8c11.1-3.3,22.2-7.1,30.7-19.2
					c5.2,1.6,5.3,6.5,3.9,12.5c-1.2,5-1.2,11.2,3.1,11.2c14.4,0,28.8,4.7,43.1-3.7c20.8-12.2,42.1-16,64.4-7.2
					c13.3,5.2,27,10.9,41.3,3.5c7-3.6,9.5-15.8,17.3-16.9c19.8,4.4,39.7,8.8,59.5,13.3c4.9,2.5,9.7,6,14.7,7.2
					c45.4,11.2,91.2,19.1,137.2,20.8c32.8,1.2,65.8-1.6,98.2-11.7c0,15.2,0,30.4,0,45.6c-16,5.2-32.1,10.5-48.1,15.7
					c-56.1,18.4-113.2,28.3-170.2,38.4c-103.2,18.4-206.8,22.9-310.7,20.9C1397.8,1178,1392.2,1177.9,1386.6,1177.8z"/>
				<path fill="#F8B814" d="M1363.8,891.7c7.6,0.1,14.9-0.4,22.1-5.3c6.3-4.3,14.1-7.8,20.6-4.5c26,13,50.2-1.6,75.2-7.7
					c20.8-5,41.9-5.9,63.1-4.8c20.8,1.1,41.8,3,62.4,0.3c45.9-6.1,91.7-1.4,137.6-2.5c4.5-0.1,9.1,3.4,13.6,5.4
					c3.7,1.7,9,4.7,10.8,0.8c7.3-15.5,18.9-9.6,28.3-13.3c8-3.2,16.1-5.1,22.2,9.4c4.1,9.7,12.8,8.1,18.6,0.4
					c6.5-8.8,14.5-11.5,22.2-10.9c19.8,1.8,39.1,0.6,58-9.7c4.3-2.4,9.2-2.4,13.9-3.4c0,8.3,0,16.6,0,24.9
					c-13.2,4.2-26.5,8.4-39.7,12.6c-15.3-0.7-30.8-2.2-42.7,16.4c-0.9,0.1-1.9,0.1-2.8,0.1c-6.1,0-12.3,0.1-18.4-0.2
					c-6-0.3-10.3,1.9-10.2,12.3c-1.2,1.1-2.3,2.9-3.5,3.2c-44.3,11.5-88.5,22.9-132.8,34.3c-11-1.2-21.5,2.4-32.3,4.9
					c-19.5,4.5-38.5,14.1-58.7,11.7c-5.9,0-11.9-0.7-17.8,0.1c-5.7,0.8-13.4-5-16.3,8.1c-7.8-3.3-12.6,9.2-19.9,8.2
					c-4.5-5.9-7.2-4.1-8.5,4.1c-54.2-22.9-106.6-53.1-158.3-85.9C1367.3,899,1364.3,897.4,1363.8,891.7z"/>
				<path fill="#F9CD3D" d="M1932.3,821.2c-15.3-2.7-30.6-5.3-45.9-8c-16.4-1.5-32.9-4.1-49.3-4.2c-65.2-0.4-130.4-0.7-195.5,0.2
					c-29.3,0.4-58.5-1.5-87.6-5.5c-22.3-3-45-7.5-65.2-24.1c2.6-3.8,5.8-4.1,9.2-4.1c37.7-0.2,75.3,0.7,113-3.7
					c25.6-3,51.2,6.6,77.4,1.6c11.4-2.2,26.1-3.4,37.3,5.2c11.6,8.9,14.2,1.4,16.4-12c12.6,1.6,25.2,3.8,37.8,4.5
					c51.4,3.2,102.1-5.1,152.3-20.5C1932.3,774.2,1932.3,797.7,1932.3,821.2z"/>
				<path fill="#F9CD3D" d="M1682.2,949.8c44.3-11.4,88.6-22.8,132.8-34.3c1.3-0.3,2.4-2.1,3.5-3.2c9.6-3.6,20.4-1.2,28.6-12.1
					c0.9,0,1.9,0,2.8-0.1c14.9-1.6,29.6-4.5,42.7-16.4c13.2-4.2,26.5-8.4,39.7-12.6c0,31.8,0,63.6,0,95.4
					c-23.2-0.2-46.5,2.3-69.4-1.1c-35.9-5.4-71.7-2.1-107.5-2.4c-21-0.2-42,2-63,3.6C1683.9,967,1681.6,960.5,1682.2,949.8z"/>
				<path fill="#F9C330" d="M1682.2,949.8c-0.6,10.7,1.7,17.2,10.2,16.6c21-1.5,42-3.7,63-3.6c35.8,0.3,71.6-3.1,107.5,2.4
					c22.9,3.5,46.3,1,69.4,1.1c0,11.1,0,22.1,0,33.2c-52.4,1.7-104.7-2.8-157-3.8c-29-0.6-58.6,8.4-86.8,2.3
					c-42.3-9.1-84.4-3.3-126.5-6.8c-3.8-0.3-7.6-0.5-10.6,4c-3.8-1.4-7.6-2.7-11.4-4.1c-1-2.8-1.9-5.5-2.9-8.3
					c7.4,0.9,12.1-11.6,19.9-8.2c5.7,0,11.4,0.8,17-0.2c6-1,13.8,5.4,17.1-8c20.1,2.4,39.2-7.2,58.7-11.7
					C1660.7,952.2,1671.2,948.6,1682.2,949.8z"/>
				<path fill="#F8BC24" d="M1551.4,995.2c3-4.5,6.9-4.3,10.6-4c42.1,3.4,84.2-2.3,126.5,6.8c28.2,6.1,57.8-2.9,86.8-2.3
					c52.3,1,104.6,5.6,157,3.8c0,11.1,0,22.1,0,33.2c-7.1,0.3-14-1.7-21-3.3c-14.2-3.3-28.7-6.1-43.1-3.3
					c-17.9,3.5-35.7,4.7-53.4-0.3c-12.8-3.6-25.5-0.1-37.4,3c-16.3,4.3-31.9,6.9-47-2.8c-14.2-9.1-27.8-0.1-41.7-0.5
					c-5.8-0.2-6.6,8.5-6.5,15.8c-19.8-4.4-39.7-8.8-59.5-13.3c-2.8-6.9-7.6-6.5-12.2-8.3C1590.7,1012,1569.9,1009.6,1551.4,995.2z"
					/>
				<path fill="#EFB51D" d="M1682.2,1041.2c-0.1-7.3,0.7-15.9,6.5-15.8c13.9,0.5,27.5-8.6,41.7,0.5c15.1,9.7,30.7,7.1,47,2.8
					c11.9-3.2,24.6-6.6,37.4-3c17.7,5,35.5,3.8,53.4,0.3c14.4-2.8,28.9,0,43.1,3.3c7,1.6,13.9,3.6,21,3.3c0,8.3,0,16.6,0,24.9
					c-32.4,10.1-65.4,12.8-98.2,11.7c-46-1.7-91.8-9.6-137.2-20.8C1691.9,1047.1,1687.1,1043.6,1682.2,1041.2z"/>
				<path fill="#F9CD3D" d="M1756.1,709.5c5.5-0.2,11.1-0.4,16.6-0.6c21.3,1.1,41.9,13.2,63.6,8.9c2.1-0.4,4.6,1.2,6.7,2.6
					c14.2,9.1,28.5,10.7,43.1,2.1c15.4,2.5,30.8,5,46.2,7.5c0,4.1,0,8.3,0,12.4c-27.5,4.9-54.9,10.5-82.4,14.4
					c-38.3,5.4-76.2,5.3-111.7-21.2c-5.1-3.8-10.3-6.8-16.2-5.7c3.8-12,11-12.4,18.8-12.7C1746.2,717.1,1753.3,721.6,1756.1,709.5z"
					/>
				<path fill="#F8BC24" d="M1932.3,1335.3c-54.4-2.8-108.8,2.9-163.1,5.9c-23.2,1.3-46.9-6.8-70,4c-6,2.8-5.3-5-5.7-10.3
					c21-6.7,42-13.5,62.9-20.2c13.1-4.2,26.2-8.6,39.3-12.8c7.6-1.3,15.3-2.6,22.9-3.9c3.3,3.6,4.6,10.8,9.3,11.8
					c15.7,3.4,31.9,9.5,47.3,3.3c19-7.6,38-6.5,57.1-6.8C1932.3,1315.9,1932.3,1325.6,1932.3,1335.3z"/>
				<path fill="#F9C330" d="M1932.3,1306.3c-19.1,0.4-38.1-0.7-57.1,6.8c-15.4,6.1-31.6,0.1-47.3-3.3c-4.7-1-6-8.2-9.3-11.8
					c24.4-12.1,50.5-16.7,74-33.1c14.4,0.2,25.8-14.4,39.7-16.6C1932.3,1267.6,1932.3,1286.9,1932.3,1306.3z"/>
				<path fill="#ECAC09" d="M1722,729.9c5.9-1.1,11.1,1.9,16.2,5.7c35.5,26.5,73.5,26.6,111.7,21.2c27.5-3.9,54.9-9.5,82.4-14.4
					c0,2.8,0,5.5,0,8.3c-50.2,15.4-100.9,23.7-152.3,20.5c-12.6-0.8-25.2-3-37.8-4.5c-2.9-1.4-5.8-2.8-8.7-4.2
					c-1.9-1.2-3.9-2.4-5.8-3.7C1719.6,751.8,1722.2,740.3,1722,729.9z"/>
				<path fill="#EFB51D" d="M1932.3,730c-15.4-2.5-30.8-5-46.2-7.6c-5.4-1.7-11.4-1.8-16.1-5.4c-6.6-5-19.6-3.4-14.2-23.9
					c18.5,1.1,34.8,15.6,53.1,19c7.7,1.5,15.6,3.9,23.5,5.3C1932.3,721.7,1932.3,725.8,1932.3,730z"/>
				<path fill="#ECAC09" d="M0,1119.3c0-27.5,0-54.9,0.1-82.4c112.4,0,224.8-0.1,337.2-0.1c15.7,0,31.8-2.7,47.1,0.9
					c13.5,3.2,24.8,0.4,35.9-9.3c1.9,0.1,3.8,0.2,5.6,0.2c0.1,5.7,0.8,11.9,5.7,11.7c15.1-0.7,30.5,4.9,45.3-3.4
					c8.3-2.8,15.1,3.9,22.4,7.6c2.5,1.5,5,4.1,7.6,4.4c14.9,1.3,29.6-0.6,44.4,7.3c8.5,4.5,20.6,4.3,27.8-10.6
					c3.8,1.1,7.6,2.3,11.4,3.4c0.8,4.3,2.3,7.9,5.6,8c13.3,0.2,26.5,0.2,39.8,0.1c3.3,0,5.1-3.1,5.8-7.6c5.8,0.1,11.5,0.1,17.3,0.2
					c2.9,12.5,10.3,7.6,15.7,7.6c57.6,0.4,115.3,0.1,172.9,0.4c5.4,0,12.8-4.9,15.7,7.7c-27.4,11.2-54.8,22.5-82.2,33.7
					c-47.6,16.8-95.2,33.6-142.2,53.6c-5.7,1.5-11.4,3.1-17,4.6c-4.7,1.2-9.4,2.5-14.2,3.7c-3.7-5.2-7.7-2.6-11.9-1.8
					c-36.9,6.5-74.2,11.1-111.2,9.2c-42.6-2.2-85.6-3-127.8-15.2c-41.1-11.9-81.9-24.1-121.9-43.1c-22.7-10.8-43.3-29.6-67.1-35.6
					c-3.7-5.9-8.6-4.7-13.2-4.8c-21.7-0.3-41.4,11.3-61.6,20.6C62.7,1104.5,32.9,1122.5,0,1119.3z"/>
				<path fill="#F9CD3D" d="M1400.7,817c-30.3,17.2-62.5,10.7-93.7,16.5c-1.5-9.8-7.5-11.7-12.2-10.3c-17.7,5.3-35.9,3.7-53.6,4.9
					c-63.2,4.2-126.6,7.8-189.9,5.4c-4.7-0.2-11,0.2-12-7.4c-1-7.3,5.6-9.8,9-14.2c1.6-2,4.4-2.1,6.6-3.1c22-10.4,44.7-8.3,67.4-8.6
					c4,0,9.1,2.6,13.3-8.7c-154.4,0-306.8,0-459.2,0c0-1.7-0.1-3.4-0.1-5.2c2.7-2.2,5.4-4.4,8.1-6.6c18.9-1.6,37.7-3.3,56.6-4.9
					c39.5-5.1,79-10.2,118.4-15.3c-39.8-6.3-78.9,3.5-118.4,3.9c-120.5,8.9-240.5,4.2-359.9-22c16.6-6.9,33.7,1.8,50.1-6.7
					c7.6,0.1,15.2,0.1,22.9,0.2c2.4,10.1,8.4,7.3,13.2,7.3c76.5,0.2,153,0.2,229.5,0.1c4.8,0,10.8,2.7,13.2-7.3
					c36.8,0.6,73.1-9,109.8-10.8c24.6-1.2,49-9.7,73.4-15c22.8,11.2,45.7,21.5,69.7,25.2c-13.4,12.1-28.9,10.1-43.5,14.9
					c-3.2,1-9.1-0.6-8.7,7.2c0.3,6.6,5.9,8,9.1,6.2c12.4-7,25.1-1.5,37.4-1.7c13.4-0.2,27.6-7.7,40.2,0c10.7,6.6,15.7,2.2,19.7-11.1
					c59.5,12.7,119.3,14.3,179.2,12.2c25.4-0.9,50.8-4,76.3-2.9c2.8,12.6,10.2,6.7,15.7,7.9c9,1.9,18.7-3.3,27.2,3.5
					c-0.1,2-0.1,4-0.2,6c-28.6,0-57.2,0-85.8,0c0,2-0.1,4.1-0.1,6.1c17.2,3.5,35.4-3.5,51.7,8.7c0.9,0.7,2.9-0.5,3.9-1.8
					c5.5-7.4,12.3-5.6,18.8-5.8c14.9-0.3,29.9,3.1,43.3-11.7c4.7-5.2,11.6-5.1,17.8-5c14.6,0.3,29.3,0,43.9,0
					c-2.9,8.3-5.7,16.6-8.6,24.9c-0.3,0.4-0.9,0.9-0.8,1.2c0.1,1.1,0.4,2.1,0.6,3.1C1400.5,803.3,1400.6,810.2,1400.7,817z"/>
				<path fill="#F8BC24" d="M645,1401.9c0-11.6-5.2-13.4-11.5-12.7c-16.7,1.9-33.4-3.2-50.3,6.7c-9.4,5.5-21.6,2.8-32.3,1
					c-49.1-8.3-98-2.6-146.8,4.4c-23.7,3.4-47-4.8-70.7-4c-23,0.8-45.8,1.2-68.3,11.4c-12.5,5.7-26.3,1.2-39.2-3.4
					c-14.5-5.1-28.9-5.3-43.4,0c-11.5,4.2-23.3,5.4-35.1,4.6c-49.2-3.2-98.2,5.9-147.4,4.2c0-19.3,0-38.7,0-58
					c51.3-3.2,102.7-3.1,154.1-6.2c115.2-7,230.8-1,346.2-6.3c12.8-0.6,25.6,0.8,38.3-1c43.2-5.9,86.4-12.2,129.8-3.8
					c5.5,1.1,10.5,0.4,13.4-7.9c2.9,1.3,5.8,2.7,8.8,4c4.8,4.9,12.8,6.8,12.5,17.2c-0.3,10.7-8.3,11.4-13.7,14.7
					C673.7,1376.3,659.1,1388.3,645,1401.9z"/>
				<path fill="#F9CD3D" d="M0,1323c0-8.4-0.1-16.8-0.1-25.2c79,3.6,157.6-6.1,236.1-17.3c20.1-2.9,40.7-3.8,60.4-9.7
					c22.2-6.7,44.5-10.1,66.9-14.3c2.2,11.7,8.9,8.2,14.1,8.3c21.3,0.3,43.2,4.9,63.7-1.2c21.8-6.5,42,4.1,63.1,1.9
					c24.3-2.6,48.8-0.8,73.2-0.4c6.5,0.1,12.2-1.1,16.5-8.7c11.5,19.4,27.7,28.9,42.2,42c0.7,11-1.9,16.4-10.2,16.4
					c-23.1,0-46.2,2.1-69.2,3.1c-62.3,2.7-124.6,1-186.9,4.3c-27.1,1.5-54.4,2.9-81.7,1.7c-17.3-0.7-35.1,13-52.4,6.4
					c-14.9-5.7-29.8-10.6-44.3-6.7c-22.5,6.1-45.3-0.8-67.6,7.2c-16.2,5.8-31.3-7.5-47.3-7.8C51.1,1322.6,25.6,1322.9,0,1323z"/>
				<path fill="#F8BC24" d="M0,999.6c0-33.1,0-66.3,0-99.4c16.6-0.1,33.2-2,49.6,0.2c30.3,4,59.6-7.5,89.5-9.1
					c3.3-0.2,4.8-3.8,5.5-8.1c5.7,0.2,11.5-0.9,17,0.8c47.8,14.8,96.7,9,144.9,16.1c-0.7,4.3-2.4,7.8-5.6,7.7
					c-18.4-0.3-35.5,10.5-53.5,13.7c-7,1.2-16.3-1.6-20.7,11.6c-22.2-2.6-43.9,2.3-65.3,10.4c-6.8,2.6-13.8,4.4-20.7,6.7
					c-3.7,1.2-6.1,4.9-6,10.1c0.1,7.2,4.4,5.7,7.5,6c3.3,0.3,6.6,0,9.9,0.1c34.4,1.8,68.9-2,103.4,3.2c20.4,3.1,41.6,5,62-3.3
					c0.1,14.7,7.6,21.4,14.4,28.9c-10.6,6.1-21.6,8.1-32.8,8.5c-38.2,1.3-76.3-3.1-114.4-3.7c-36.7-0.6-73.4-1.5-110.2,2.4
					C50.2,1005,25,998.4,0,999.6z M122.2,961.8c-6.2-3.5-12.5-6.9-19.6,1.9C110.4,966.9,116.4,967.7,122.2,961.8z"/>
				<path fill="#F9CD3D" d="M0,812.7c-0.1-27.5-0.1-55.1-0.6-82.6c-0.2-9.6,2.2-11.7,8.6-13.8c25.3-8.3,51.2-8.4,76.5-15.7
					c21.9-6.4,43.7-14.1,65.5-21.4c3.4-1.1,6.4-2.1,9.1,2.1c-0.8,11.7,4.1,16.6,10.7,20.4c5.9,3.4,12.8,4,17.4,11.6
					c0,6-0.4,11.5-5.6,12.5c-5.9-15.7-15.8-6.1-23.9-7.4c-4-0.6-9.8,2.3-9.1,9.5c1,9.5,8,7.8,11.4,5c6.9-5.5,13.7-7.8,21.3-6.8
					c2.3,11.6,9,8,14.2,8.1c23.2,0.3,46.4-1.4,69.5,0.7c12.6,1.2,24.9,11.5,37.3-1.1c15.7,18.3,34.2,27.9,52.9,36.9
					c-0.5,6.4-1.2,12.6-7,13c-12.6,0.9-25.3,3.2-37.9,2.4c-28.6-1.7-57.2-6.8-85.9-6.4c-18.4,0.3-36.8-0.2-55.2,0.1
					c-8.9,0.2-17.7-8.6-26.4-2.3c-7.1,5.2-13.1,4.5-20-0.6c-11.1-8.3-17.8-1.5-21,15c-0.9,0.1-1.7,0.2-2.6,0.3
					c-15.1-10.3-29.6,0.1-44.2,3C36.4,798.9,18.9,810.4,0,812.7z"/>
				<path fill="#F9C330" d="M0,1323c25.5,0,51.1-0.4,76.6,0c15.9,0.2,31,13.6,47.3,7.8c22.3-8,45.1-1.1,67.6-7.2
					c14.5-3.9,29.4,0.9,44.3,6.7c17.3,6.7,35.2-7.1,52.4-6.4c27.3,1.2,54.5-0.3,81.7-1.7c62.3-3.4,124.6-1.7,186.9-4.3
					c23-1,46.1-3.1,69.2-3.1c8.3,0,11-5.5,10.2-16.4c16.9,5.9,29.9,23.2,45.6,32.7c-2.9,8.3-7.9,9-13.4,7.9
					c-43.4-8.4-86.6-2.1-129.8,3.8c-12.7,1.7-25.5,0.4-38.3,1c-115.4,5.3-230.9-0.8-346.2,6.3c-51.4,3.1-102.8,3-154.1,6.2
					C0,1345.1,0,1334,0,1323z"/>
				<path fill="#EFB51D" d="M363.3,1256.4c-22.3,4.1-44.7,7.6-66.9,14.3c-19.7,5.9-40.2,6.8-60.4,9.7
					c-78.5,11.2-157.1,21-236.1,17.3c0-16.5,0.1-32.9,0.1-49.4c28.8-0.1,57.6,2.2,86.2-0.9c32.5-3.5,64.7-5.7,97,0.3
					c6.3,1.2,11.4-0.8,12.4-11.8c12.2,1.3,24.4,3.4,36.6,3.7c61.4,1.9,122.1-8.9,182.5-23.5c1.4,9.7-4.5,15.5-5.8,23.7
					C393.7,1245.5,378.5,1251,363.3,1256.4z"/>
				<path fill="#EB9E0C" d="M1400.6,792.1c2.9-8.3,5.7-16.6,8.6-24.9c7.6-10.9,15.1-21.8,22.7-32.7c0.9-0.3,1.9-0.2,2.8,0.2
					c15.7,21,33.1,37.6,54.1,44.8c20.2,16.6,42.8,21.1,65.2,24.1c29.1,3.9,58.3,5.9,87.6,5.5c65.2-0.9,130.4-0.6,195.5-0.2
					c16.4,0.1,32.9,2.7,49.3,4.2c-4.5,5.7-9.9,3.8-15,3.6c-44.5-1.1-88.9,0.1-133.3,4.6c-56.4,5.8-112.7,15.3-169.1,19.4
					c-44.2,3.2-88.6,12.9-132.8,0.3c-13-3.7-25.5-10.3-35.5-24.2c-0.1-6.8-0.2-13.7-0.3-20.5C1400.5,795,1400.6,793.5,1400.6,792.1z
					"/>
				<path fill="#EFB51D" d="M0,999.6c25-1.2,50.1,5.4,74.7,2.8c36.8-3.9,73.5-3,110.2-2.4c38.1,0.6,76.2,5,114.4,3.7
					c11.3-0.4,22.3-2.4,32.8-8.5c5.7,3.1,11.3,6.3,17,9.2c23.1,11.7,47.3,16.8,71.1,24.1c-11.2,9.7-22.5,12.4-35.9,9.3
					c-15.3-3.6-31.4-0.9-47.1-0.9c-112.4,0-224.8,0.1-337.2,0.1C0,1024.5,0,1012,0,999.6z"/>
				<path fill="#F7D459" d="M1488.9,779.6c-21-7.3-38.4-23.9-54.1-44.8c57.9,0.9,115.5-13.3,173.5-9.1c8.8,12.7,21.5,12,28.2-1.4
					c4.6-12.4,12.5-5.3,18.8-6.3c7.9-1.3,16,0.1,23.9,0.3c-1.2,1-2.3,2.3-3.6,2.9c-3.7,1.7-10.1,1-7.9,9.5c1.5,6,8.2,4.9,11.2,1.6
					c7.6-8.1,15.9-5.9,24.2-6.7c3.7-0.4,8.5,3,11.5-6.3c-5.5-0.7-10.5-1.3-15.4-1.9c4-9.7,10.7-6.8,16.4-7.1
					c13.5-0.8,27-0.6,40.5-0.8c-2.8,12.1-9.9,7.5-15.4,7.7c-7.7,0.3-14.9,0.7-18.8,12.7c0.3,10.3-2.4,21.8,5.7,28.9
					c0.7,5.4,1.6,10,5.8,3.7c2.9,1.4,5.8,2.8,8.7,4.2c-2.2,13.4-4.8,20.9-16.4,12c-11.2-8.6-25.9-7.4-37.3-5.2
					c-26.2,5-51.8-4.6-77.4-1.6c-37.7,4.4-75.3,3.5-113,3.7C1494.7,775.5,1491.4,775.9,1488.9,779.6z"/>
				<path fill="#F9CD3D" d="M0,1119.3c32.9,3.2,62.7-14.8,93-28.9c20.2-9.4,39.9-20.9,61.6-20.6c4.7,0.1,9.6-1.1,13.2,4.8
					c-13.6,25.2-27.6,50.1-32.7,82.4c-3.5,1.2-4.7,4.5-4.4,9.5c0.2,1.1,0.2,2.2,0.2,3.3c-6.5-0.9-13-2.6-19.6-2.6
					c-37.3-0.2-74.1,11.3-111.4,10.8C0,1158.3,0,1138.8,0,1119.3z"/>
				<path fill="#EB9E0C" d="M355.2,770.6c-18.7-9-37.2-18.6-52.9-36.9c3.6-10.2,2.7-26.3,15.3-24.4c9.7,9.8,20,16,32.2,17.7
					c27.2,3.8,54.3,7.3,81.6,7.8c-16.4,8.5-33.5-0.3-50.1,6.7c119.4,26.2,239.5,30.9,359.9,22c0,3.8-0.1,7.6-0.1,11.4
					c-18.9,1.6-37.7,3.3-56.6,4.9c-29.4-1.6-58.6,6.7-88.1,4.2c-38.9,0.1-77.7,0.2-116.6,0.2c-9.3,0.2-18.7,1.5-27.9,0.3
					C419.7,780.4,387.4,775.3,355.2,770.6z"/>
				<path fill="#F7D459" d="M0,812.7c18.9-2.3,36.4-13.8,55-17.5c14.6-2.9,29.1-13.3,44.2-3c-9.6,17.1-15.8,35.3-8.7,57.7
					c0.2,13.8-5.3,16.9-13.6,16.9c-25.7-0.2-51.4,0-77.1,0.1C0,848.9,0,830.8,0,812.7z"/>
				<path fill="#F9C330" d="M0,1177.8c37.3,0.5,74.1-11,111.4-10.8c6.5,0,13,1.7,19.6,2.6c6.4,11.1,4.9,28.1,13.5,37.6
					c-5.1,13.7-12.7,2.5-18.8,3.1c-41.8,3.9-83.7,6.2-125.6,9C0,1205.5,0,1191.6,0,1177.8z"/>
				<path fill="#F8BC24" d="M0,1219.3c41.9-2.8,83.8-5,125.6-9c6.1-0.6,13.7,10.6,18.8-3.1c15.7,14.6,32.7,24.5,51.2,28.7
					c-1,10.9-6.1,12.9-12.4,11.8c-32.3-6-64.5-3.8-97-0.3c-28.6,3.1-57.5,0.8-86.2,0.9C0,1238.7,0,1229,0,1219.3z"/>
				<path fill="#F9CD3D" d="M-0.1,866.9c25.7-0.1,51.4-0.4,77.1-0.1c8.2,0.1,13.8-3.1,13.6-16.9c16.8,15.3,34.3,28.1,54,33.2
					c-0.7,4.4-2.1,8-5.5,8.1c-29.9,1.6-59.2,13.1-89.5,9.1c-16.4-2.2-33.1-0.3-49.6-0.2C0,889.1,0,878-0.1,866.9z"/>
				<path fill="#ECAC09" d="M1273,759.3c-25.5-1.1-50.9,2-76.3,2.9c-59.9,2.1-119.7,0.4-179.2-12.2c-7.9-5.1-8.5-14.3-6.4-24.9
					c7-9.9,14-5.3,21.6-1.3c18.7,9.8,38.3,11.5,58,11.5c0.9,4.6,3.2,6.8,6.3,6.8c23.6-0.1,46.6,8.1,70.3,9.2
					c42.9,2,85.8,4.1,128.7,3.8c3.7,0,7.6-0.7,10.6,3.9C1295.4,758.9,1284.2,759.1,1273,759.3z"/>
				<path fill="#F7D459" d="M1273,759.3c11.2-0.2,22.4-0.4,33.6-0.5c18.8,0.7,37.8,3.3,55.7-12.8c-7.5-5.7-14.7-1.6-21.4-3.7
					c30-9.9,60.6-6.2,91-7.7c-7.6,10.9-15.1,21.8-22.7,32.7c-14.6,0-29.3,0.3-43.9,0c-6.3-0.1-13.1-0.3-17.8,5
					c-13.3,14.8-28.4,11.4-43.3,11.7c-6.5,0.1-13.3-1.7-18.8,5.8c-0.9,1.3-3,2.5-3.9,1.8c-16.3-12.2-34.5-5.2-51.7-8.7
					c0-2,0.1-4.1,0.1-6.1c28.6,0,57.2,0,85.8,0c0.1-2,0.1-4,0.2-6c-8.5-6.8-18.2-1.6-27.2-3.5C1283.2,766,1275.8,771.9,1273,759.3z"
					/>
				<path fill="#F9CD3D" d="M1340.9,742.3c6.7,2,14-2.1,21.4,3.7c-17.9,16.1-36.9,13.6-55.7,12.8c-3-4.6-6.9-3.9-10.6-3.9
					c-42.9,0.3-85.8-1.8-128.7-3.8c-23.6-1.1-46.7-9.3-70.3-9.2c-3.1,0-5.4-2.2-6.3-6.8c40.6-2.7,80.9,7.1,121.4,6.9
					C1255.1,741.6,1298,742.1,1340.9,742.3z"/>
				<path fill="#F7D459" d="M317.6,709.3c-12.6-1.9-11.7,14.2-15.3,24.4c-12.3,12.5-24.7,2.2-37.3,1.1c-23.1-2.2-46.3-0.4-69.5-0.7
					c-5.2-0.1-11.9,3.5-14.2-8.1l0.2-0.3c5.2-1,5.6-6.5,5.6-12.5c3.7,0.3,7.5,0.6,11.2,0.9c2,1,4,2.1,6,3.1c2.7-0.1,5.4-0.1,8-0.2
					c1.1-1,2.2-2,3.2-3c6.8,2.3,13.4,1.8,19.4-3.9c23.6,2.6,46.4-9.9,69.9-8C309.5,702.4,316,697.5,317.6,709.3z"/>
				<path fill="#F7D459" d="M1011.1,725c-2.2,10.6-1.6,19.8,6.4,24.9c-4,13.3-8.9,17.7-19.7,11.1c-12.6-7.7-26.8-0.2-40.2,0
					c-12.3,0.2-25-5.3-37.4,1.7c-3.2,1.8-8.7,0.4-9.1-6.2c-0.4-7.8,5.5-6.1,8.7-7.2c14.5-4.8,30.1-2.8,43.5-14.9
					c10.6,0,21.2-0.6,30.9-8.1C999.8,725.9,1005.5,725.5,1011.1,725z"/>
				<path fill="#F7D459" d="M710.2,735c-2.4,10.1-8.4,7.3-13.2,7.3c-76.5,0.1-153,0.1-229.5-0.1c-4.8,0-10.8,2.9-13.2-7.3
					C539.6,735,624.9,735,710.2,735z"/>
				<path fill="#F7D459" d="M1855.7,693.1c-5.3,20.5,7.7,18.9,14.2,23.9c4.7,3.6,10.7,3.7,16.1,5.4c-14.6,8.6-28.9,7-43.1-2.1
					c-2.1-1.3-4.6-3-6.7-2.6c-21.7,4.3-42.3-7.8-63.6-8.9c1.2-3,2.5-6.3,5.1-6.2C1804.1,704.3,1829.6,693.9,1855.7,693.1z"/>
				<path fill="#EFB51D" d="M994.1,726.4c-9.7,7.4-20.2,8.1-30.9,8.1c-24-3.7-47-14-69.7-25.2c10.3-14.6,21.1-0.7,30,2.1
					C946.9,718.6,971.3,715.1,994.1,726.4z"/>
				<path fill="#EFB51D" d="M235.1,710.1c-6,5.8-12.6,6.3-19.4,3.9c-1.1,1-2.2,2-3.2,3c-2.7,0.1-5.4,0.1-8,0.2c-2-1-4-2.1-6-3.1
					c-3.7-0.3-7.5-0.6-11.2-0.9c-4.6-7.6-11.5-8.2-17.4-11.6c-6.6-3.8-11.5-8.7-10.7-20.4c2.5-4.3,4.7-2,7.4,0
					C188,697.1,211.7,703.1,235.1,710.1z"/>
				<path fill="#F9CD3D" d="M1699.2,717.4c4.9,0.6,9.8,1.2,15.4,1.9c-3.1,9.3-7.8,5.9-11.5,6.3c-8.3,0.8-16.6-1.4-24.2,6.7
					c-3,3.2-9.7,4.4-11.2-1.6c-2.2-8.5,4.3-7.8,7.9-9.5c1.3-0.6,2.4-1.9,3.6-2.9C1685.9,718,1692.6,717.7,1699.2,717.4z"/>
				<path fill="#F9CD3D" d="M1636.5,724.3c-6.7,13.4-19.4,14-28.2,1.4C1617.7,725.2,1627.1,724.8,1636.5,724.3z"/>
				<path fill="#D08B08" d="M645,1401.9c14-13.6,28.6-25.7,44.3-35c5.5-3.2,13.4-4,13.7-14.7c0.3-10.5-7.7-12.3-12.5-17.2
					c2.1-1.2,4.9-4.2,6.3-3.2c17.9,13.2,36.3,3,54.4,3.3c28.9,0.4,57.8-0.5,86.7,0.4c10.4,0.3,20.1-7.3,30.9-2.9
					c13,5.4,26-3.7,39.3-2.5c4.2,0.4,6.2-5.5,6.7-11.6c7.5,0.1,15.1,0.2,22.6,0.3c1.5,22.1,11.6,4.7,17.2,7.9
					c50.4,2.2,100.4,12.1,150.7,16.2c22.6,1.8,45.3,3.5,67.8,4c81.3,1.7,162.7,2.9,244-0.1c54.1-2,108.1-6.7,162.1-14.5
					c46.8-6.8,93.5-15.3,140.3-22c6.5-0.9,13-2.7,19.5-4.1c7.6,8.4,13.6,0.7,19.9-4.2c4.7-1.4,9.5-2.7,14.2-4.1
					c4.9-0.6,10.1,1.9,14.2-4.1c2.8,0,5.6,0,8.5-0.1c0,2.7-0.1,5.3-0.1,8c-13.1,4.3-26.2,8.6-39.3,12.9c-21,6.8-42,13.5-62.9,20.2
					c-5.7,1.4-11.3,2.8-17,4.2c-3.8,0.3-7.6,0.6-11.3,0.9c-1.9,1-3.9,2.1-5.8,3.1c-11.1,5.3-23.3,1.4-34.2,8.6
					c-38.7,7.7-77.5,15.6-116.3,22.9c-41.6,7.9-83.1,15.6-124.7,22.8c-40.7,7-81.4,13.5-122.2,19.6c-32.8,4.9-65.7,9.7-98.6,13.2
					c-58.3,6.2-116.7,11.4-175.1,16.9c-80.3,7.5-160.7,3.8-241.1,4.2c-28,0.1-55.5-6.2-82.3-17.5c-8.3-3.5-19.3-5.9-20.5-24.1
					C644.7,1407.2,644.8,1404.5,645,1401.9L645,1401.9z"/>
				<path fill="#EB9E0C" d="M914.7,1318.7c-0.5,6.1-2.5,12-6.7,11.6c-13.2-1.3-26.2,7.8-39.3,2.5c-10.8-4.4-20.5,3.2-30.9,2.9
					c-28.9-0.9-57.8,0-86.7-0.4c-18.1-0.3-36.6,9.9-54.4-3.3c-1.4-1-4.1,2-6.3,3.2c-2.9-1.3-5.8-2.7-8.8-4
					c-15.7-9.5-28.7-26.8-45.6-32.7c-14.5-13-30.7-22.6-42.2-42c-7.5-23.1-7-43.9,7.5-61.6c2.1-2.6,2.5-8.3,3.7-12.6l-0.1,0
					c2,0,4,0.1,6.1,0.1c11.7-5.4,16.4,12.1,25.1,16.4c8.5,17.9,23,22.5,35.1,31.5c16.5,12.3,34.7,19.9,52,30
					c12.3,7.1,26.2,3.4,38,13.1c21.1,8.1,42.5,14.4,63.7,21.4C854.8,1304.3,885.4,1306.1,914.7,1318.7z"/>
				<path fill="#EB9E0C" d="M1795.7,1301.9c0-2.7,0.1-5.3,0.1-8c31.9-12.1,63.9-23.7,96.7-29c-23.5,16.4-49.6,21-74,33.1
					C1811,1299.3,1803.4,1300.6,1795.7,1301.9z"/>
				<path fill="#EB9E0C" d="M1758.9,1302.1c-6.3,4.9-12.3,12.6-19.9,4.2C1745.4,1302.1,1751.5,1295.2,1758.9,1302.1z"/>
				<path fill="#EB9E0C" d="M954.6,1326.9c-5.6-3.2-15.7,14.2-17.2-7.9C943.6,1319.1,950.6,1316.1,954.6,1326.9z"/>
				<path fill="#EB9E0C" d="M1787.4,1293.9c-4.1,6-9.4,3.5-14.2,4.1C1776.2,1284.1,1782.1,1291.3,1787.4,1293.9z"/>
				<path fill="#F8BC24" d="M636.2,1198.5c-8.7-4.3-13.4-21.7-25.1-16.4c-1.1-1.6-2.1-3.2-3.2-4.8c5.4-5.7,17-2.1,14.1-20.1
					c5.7-1.5,11.4-3.1,17-4.6c0.2,5.7,0.7,11.4,5.7,12.2c9.3,1.4,18.9,5,28,3.3c44-8.4,88.2-11.5,132.6-11.1
					c50.1,0.5,100-7.2,150.2-4.3c1.9,0.1,3.8-0.2,5.7-0.4c38.9-4,77.7-10.5,116.6-11.3c39.2-0.8,78.3-7.6,117.5-5
					c3.2,0.2,6.5-1.6,9.8-2c28.2-3.7,56.4-1.6,84.6-2.1c-0.1,9.7,3.2,16.4,8.8,20.9c-0.5,3.5-1.6,7.8-4.4,6.1
					c-20.3-12.5-40.8-2.1-61.1-1.1c-9.7,0.5-19.6,2.8-29.5,3.3c-48.2,2.3-96.5,1.1-144.5,5.3c-54.8,4.8-109.7,2.4-164.2,8.3
					c-66.9,7.2-133.9,8.8-200.8,12.7C675.1,1188.7,656.1,1201.4,636.2,1198.5z"/>
				<path fill="#F8BC24" d="M1386.6,1177.8c5.6,0.1,11.2,0.2,16.8,0.4C1397.8,1183.6,1392.2,1183.8,1386.6,1177.8z"/>
				<path fill="#F8BC24" d="M1625.2,1351.8c10.9-7.2,23.1-3.3,34.2-8.6C1650,1362.5,1637.6,1356.9,1625.2,1351.8z"/>
				<path fill="#F8BC24" d="M1665.2,1340.1c3.8-0.3,7.6-0.6,11.3-0.9c-0.4,6.4,0.3,15-6.1,14.7
					C1665.2,1353.6,1665.3,1346.1,1665.2,1340.1z"/>
				<path fill="#F8BC24" d="M644.9,1401.9c-0.1,2.6-0.3,5.3-0.4,7.9c-1.8-0.5-3.9-0.9-3.7-4.3C641,1402.3,643.2,1402.2,644.9,1401.9
					z"/>
				<path fill="#F8B814" d="M1179.3,1459.7c-10,5.3-27.4,5.8-40.2,1C1148.1,1453.8,1167.5,1453.4,1179.3,1459.7z"/>
				<path fill="#F8B814" d="M1045.5,1455.5c12.4,1.1,24.9-2.3,38.2,2.3C1071.2,1467.4,1052.9,1465.8,1045.5,1455.5L1045.5,1455.5z"
					/>
				<path fill="#F8B814" d="M1222.6,1459.4c-0.2,3.6-2,4-3.8,3.8c-1.2-0.2-3.1-1.1-3.3-2.3c-0.7-3.2,1.1-4.4,3-4.7
					C1220.3,1455.8,1221.9,1456.3,1222.6,1459.4z"/>
				<path fill="#F8B814" d="M499.7,945.6c-0.2-13.9,6.7-12.5,12.9-12.5c26.3,0,52.7,2.1,78.8-0.5c39.7-3.9,79.7,1.5,118.9-4.8
					c61.2-9.9,122.8-5.1,183.6-13.2c47.7-6.4,95.1-2.8,142.6-6.5c25.9-2,51.7-5.7,77.5-7.9c7.4-0.6,15.2-2.7,22,4.8
					c2.7,3,5.2,1.1,7.8-1.1c19.2-16.4,40.4-20.1,62.1-20.3c2.6,0,5.8-1.4,7.8,3.8c-9.1,13.3-24,13.1-31.8,29.2
					c-35.3,18.7-70.4,38.1-105.9,55.8c-25.3,12.6-51.2,22.7-76.8,34.1c-22.5,10-44.9,20.2-67.4,30.3c-3.4-5.1-7.9-3.9-12.1-3.9
					c-44.4,0.4-88.6-3.4-132.8-8c-67.2-7-134.2-16.1-200-38.1C557.1,976.7,527.2,966.4,499.7,945.6z"/>
				<path fill="#F9C330" d="M596.4,784c29.5,2.6,58.7-5.8,88.1-4.2c-2.7,2.2-5.4,4.4-8.2,6.6c0,1.7,0.1,3.4,0.1,5.2
					c152.4,0,304.8,0,459.2,0c-4.2,11.4-9.3,8.7-13.3,8.7c-22.6,0.2-45.4-1.8-67.4,8.6c-2.2,1-5,1.1-6.6,3.1
					c-3.4,4.3-9.9,6.9-9,14.2c1,7.7,7.3,7.3,12,7.4c63.4,2.4,126.7-1.2,189.9-5.4c17.7-1.2,35.8,0.4,53.6-4.9
					c4.7-1.4,10.6,0.6,12.2,10.3c-57.7,10.6-115.9,11.6-173.9,15.9c-21.6,1.6-43.3,5.1-64.9,4.4c-34-1.1-68.5-1.4-101.6,6.5
					c-28.8,6.9-56.9,5.5-85.2,5.2c-20.2-0.2-40.2,3.6-60.4,1.3c-6-0.7-11.7-0.4-11.4-12.6c10.3-3.3,20.6-5.1,31.2-4.3
					c36.7-5.7,73.4-11.4,110.1-17.1c-3.8-3.5-7.5-3.8-11.1-3.4c-27.6,3.4-55.2,8.2-82.9,9c-5.3,0.2-11.3,1.7-15.9,7.1
					c-13.4-0.2-26.8,2.6-39.9-3.4c-0.8-8.6-4.5-5.9-8.4-5.5c-17.4,1.9-34.8,9.1-52.2,4.6c-21.7-5.6-43.4-1.9-65.1-3.8
					c-10.1-0.9-20,6.4-29.5,3.6c-24.8-7.3-49.7,2.8-74.5-3.2c-13.8-3.4-28.4,0.8-41.9-1.8c-34.4-6.7-68.9-1.5-103.3-4.7
					c-26.2-2.4-53.3,2.9-80,2.4c-48.2-0.8-96.3-3.4-144.3-8.2c-6.8-0.7-14.3-3.7-20.5,4.1c-28.7-2.8-54.1-20.3-79.5-37.8
					c3.2-16.4,9.9-23.2,21-15c6.9,5.1,12.8,5.8,20,0.6c8.7-6.4,17.5,2.4,26.4,2.3c18.4-0.3,36.8,0.2,55.2-0.1
					c28.7-0.5,57.3,4.7,85.9,6.4c12.6,0.7,25.3-1.5,37.9-2.4c5.8-0.4,6.4-6.6,7-13c32.2,4.7,64.5,9.8,96.7,13.9
					c9.2,1.2,18.6-0.1,27.9-0.3c2.6,11.4,9.1,8.7,14.1,6.7c7.9-3.1,15.8-2.5,23.8-3c22.1-1.1,43.8,6.9,66,4.1
					C588.6,791.5,594.5,794.5,596.4,784z M1008.9,830.3c5.5,3.5,9,4.7,12.6-1.1C1017.3,824.3,1014,824.4,1008.9,830.3z"/>
				<path fill="#F7D459" d="M931.8,1036.6c22.5-10.1,44.9-20.3,67.4-30.3c25.6-11.4,51.5-21.5,76.8-34.1
					c35.5-17.7,70.6-37.1,105.9-55.8c16.3-3.9,31.2-13.2,45.4-24.9l0,0c20.3-5.3,38.5-19,57.2-31c6-3.8,11.5-10.2,17.9-1.8
					c-4.1,9.4-3.4,18.2,1.8,26.2c6.1,9.6,12.2,18.9,20.2,25.7c25.8,21.7,53.1,38.6,80.5,55.4c16.5,10.1,31.6,23.5,44.9,41.1
					c-11,14.1-24.5,17.6-38.3,17.1c-43-1.4-85.9,1.7-128.9,4.5c-57.9,3.8-115.8,8.4-173.7,12c-25.9,1.6-52-2.2-77.8,4.2
					c-8.3,2.1-18.2,9.8-24.9,3.2c-17.9-17.7-34.2,0.1-50,4.3c-14.8,3.9-26.5,1.8-38.8-7.7C922.1,1042,926.9,1039.3,931.8,1036.6z"/>
				<path fill="#D08B08" d="M931.8,1036.6c-4.8,2.7-9.6,5.4-14.4,8.1c-2.7,0.5-5.4,1-8,1.5c-5.5-0.6-11.4-3.9-15,5.9
					c-1.7,0.1-3.4,0.3-5.1,0.4c-3.7-4.3-8-3.3-12.2-3.3c-72.6,0.1-145.2,0.3-217.8,0.5c-5.8-0.1-11.5-0.1-17.3-0.2
					c-17.1-0.1-34.1-0.3-51.2-0.4c-3.8-1.1-7.6-2.3-11.4-3.4c-18.8-1.5-37.7,0.7-56.4-4c-7.5-1.9-16-3.9-23.5,2.9
					c-7.3-3.7-14.1-10.4-22.4-7.6c-17.2-0.3-34.1-3.9-51-8.3c-1.9-0.1-3.8-0.2-5.6-0.2c-23.8-7.3-48-12.3-71.1-24.1
					c-5.7-2.9-11.3-6.1-17-9.2c-6.9-7.5-14.3-14.2-14.4-28.9c0-12.2,5.6-18.8,11.8-24.7c10.4,11.8,21.9,9.4,34.2,8.8
					c33.5-1.8,67.1-0.7,100.7-0.6c8.3,0,16.2-0.8,21.2-12.3c5.2,1,8.2,9.9,14.1,8.2c27.5,20.7,57.4,31.1,87.2,41
					c65.8,21.9,132.8,31.1,200,38.1c44.2,4.6,88.5,8.4,132.8,8C923.9,1032.7,928.3,1031.6,931.8,1036.6z"/>
				<path fill="#EB9E0C" d="M1449.8,1007.1c-13.3-17.6-28.3-31-44.9-41.1c-27.4-16.7-54.7-33.7-80.5-55.4
					c-8-6.7-14.1-16.1-20.2-25.7c-5.2-8.1-5.9-16.8-1.8-26.2c9.4-9.5,15.9,1.7,22.4,7.8c12.2,11.5,24.4,21.8,38.9,25.2
					c0.5,5.7,3.5,7.3,6.7,9.3c51.7,32.8,104.1,63,158.3,85.9c3.5,2.8,7.2,4.7,11.4,4.2c3.8,1.4,7.6,2.7,11.4,4.1
					c18.5,14.4,39.3,16.8,59.1,24.4c4.5,1.8,9.4,1.4,12.2,8.3c-7.8,1.1-10.2,13.2-17.3,16.9c-14.3,7.5-28,1.8-41.3-3.5
					c-22.3-8.8-43.7-4.9-64.4,7.2c-14.3,8.4-28.7,3.8-43.1,3.7c-4.3,0-4.3-6.2-3.1-11.2c1.4-6,1.3-10.9-3.9-12.5
					C1450.7,1021.4,1460,1014.5,1449.8,1007.1z"/>
				<path fill="#EB9E0C" d="M485.6,937.4c-5.1,11.5-13,12.4-21.2,12.3c-33.6-0.1-67.1-1.2-100.7,0.6c-12.3,0.7-23.8,3-34.2-8.8
					c-0.1-1.4-0.2-2.9-0.3-4.3c30.7-25.8,63.5-44.5,96.6-62.2c9.7-2.7,18.6-8.5,28.9-8.7c34.4-0.7,68.8-1.3,103.2-2.4
					c62.7-1.9,125.3-6,187.9-10.6c18.2-1.3,37.8,3.4,55.1-11.1c13.1,6,26.6,3.2,39.9,3.4c-0.1,1.5-0.1,2.9-0.2,4.4
					c-10.5-0.8-20.9,1.1-31.2,4.3c-1.9,0.1-3.8,0.1-5.7,0.2c-5.7,1.3-11.3,2.6-17,3.9c-43.6,5.3-87.3,10.4-130.9,15.8
					c-35.2,4.3-70.5,6.7-105.4,13.9c-28.2,5.8-56.6-1.1-84.6,7.1c-9.9,2.9-7.8,6.6-3.2,15.3C468.9,922.5,479.7,925.3,485.6,937.4z"
					/>
				<path fill="#F9C330" d="M786.8,858.4c5.7-1.3,11.3-2.6,17-3.9C799.3,870.2,795.7,871.1,786.8,858.4z"/>
				<path fill="#F8B814" d="M1227.3,891.6c-0.3-0.2-0.6-0.5-0.8-0.7C1226.8,891.1,1227.1,891.3,1227.3,891.6
					C1227.4,891.5,1227.3,891.6,1227.3,891.6z"/>
				<path fill="#F9CD3D" d="M1449.8,1007.1c10.3,7.4,0.9,14.4-0.2,21.6c-8.5,12.2-19.7,15.9-30.7,19.2c-29.7,9-56.2,31.5-85.6,41.8
					c-2.7,1-5.6,1.1-8.4,1.6c-18.3,2.6-36.5,6-54.8,7.5c-49.4,4.1-98.9,2.2-148.5,6c-72.5,5.6-145.4,8-218.1,11.2
					c-24,1-47.8-7.4-71.9-0.8c-10.9,3-20.9,11.6-32.9,9.3c-10-1.9-20.4-2.5-30.2,6.2c-4.4,3.9-11.6,4.5-17.1-2.6
					c3.7-7.1,7.8-11.3,13.3-12.3c7.3-1.4,13-6.7,16.6-16.4c27.4-11.2,54.8-22.5,82.2-33.7c9.9,1.2,18.1-4.7,25.8-12.9
					c1.7-0.1,3.4-0.3,5.1-0.4c5.5,0.6,11.7,5,15-5.9c2.7-0.5,5.4-1,8-1.5c12.3,9.5,24,11.6,38.8,7.7c15.8-4.2,32.1-22,50-4.3
					c6.7,6.6,16.6-1.1,24.9-3.2c25.8-6.5,51.9-2.6,77.8-4.2c57.9-3.6,115.8-8.2,173.7-12c42.9-2.8,85.9-6,128.9-4.5
					C1425.3,1024.7,1438.8,1021.2,1449.8,1007.1z"/>
				<path fill="#F9C330" d="M781.2,1099.2c-3.5,9.8-9.2,15-16.6,16.4c-5.5,1.1-9.6,5.3-13.3,12.3c5.4,7.1,12.7,6.5,17.1,2.6
					c9.8-8.7,20.2-8.1,30.2-6.2c12,2.3,22-6.3,32.9-9.3c24.1-6.6,47.9,1.9,71.9,0.8c72.7-3.1,145.6-5.6,218.1-11.2
					c49.6-3.8,99.1-1.8,148.5-6c18.3-1.5,36.5-5,54.8-7.5c-7.7,12.9-20.4,15.6-28,29.2c-2.2,3.9-6.5,5.4-7.2,11.6
					c-28.2,0.5-56.4-1.6-84.6,2.1c-3.3,0.4-6.5,2.2-9.8,2c-39.2-2.6-78.3,4.2-117.5,5c-38.9,0.8-77.7,7.3-116.6,11.3
					c-1.9,0.2-3.8,0.5-5.7,0.4c-50.1-3-100.1,4.8-150.2,4.3c-44.3-0.4-88.5,2.7-132.6,11.1c-9.1,1.7-18.7-1.9-28-3.3
					c-5-0.7-5.5-6.4-5.7-12.2C686,1132.8,733.6,1116,781.2,1099.2z"/>
				<path fill="#F8BC24" d="M1892.6,883.6c-13.1,12-27.8,14.8-42.7,16.4C1861.8,881.4,1877.3,882.9,1892.6,883.6z"/>
				<path fill="#F8BC24" d="M1591.3,966.4c-3.3,13.4-11.2,7-17.1,8c-5.6,0.9-11.4,0.2-17,0.2c3-13.1,10.6-7.2,16.3-8.1
					C1579.4,965.7,1585.3,966.4,1591.3,966.4z"/>
				<path fill="#F8BC24" d="M1847.1,900.1c-8.2,10.9-19,8.5-28.6,12.1c-0.2-10.3,4.1-12.6,10.2-12.3
					C1834.9,900.2,1841,900.1,1847.1,900.1z"/>
				<path fill="#F8BC24" d="M1540.1,991.1c-4.1,0.5-7.8-1.4-11.4-4.2c1.3-8.2,4-10,8.5-4.1C1538.2,985.6,1539.1,988.3,1540.1,991.1z
					"/>
				<path fill="#F9CD3D" d="M1733.5,762.5c-4.2,6.3-5.1,1.7-5.8-3.7C1729.6,760,1731.6,761.2,1733.5,762.5z"/>
				<path fill="#D08B08" d="M195.6,1236c-18.5-4.2-35.4-14.2-51.2-28.7c-8.5-9.4-7.1-26.5-13.5-37.6c0-1.1-0.1-2.2-0.2-3.3
					c3.1-1.5,5-4.2,4.4-9.5c5.2-32.3,19.2-57.2,32.7-82.4c23.8,5.9,44.4,24.8,67.1,35.6c40,18.9,80.8,31.2,121.9,43.1
					c42.3,12.2,85.2,12.9,127.8,15.2c37,1.9,74.3-2.7,111.2-9.2c4.2-0.7,8.3-3.3,11.9,1.8c-1.9,1.4-3.9,2.8-5.8,4.2
					c-4.8,0.7-10.1-2.3-14.1,4.3c-17.8,0.6-33.4,15.5-51.1,16.8c-5.1,0.8-10.3,1.1-15.3,2.4c-35.6,9.1-71.2,18.4-106.8,27.6
					c-60.4,14.5-121.1,25.4-182.5,23.5C220,1239.3,207.8,1237.3,195.6,1236z"/>
				<path fill="#EFB51D" d="M889.2,1052.5c-7.6,8.3-15.9,14.2-25.8,12.9c-2.9-12.6-10.2-7.6-15.7-7.7c-57.6-0.4-115.3-0.1-172.9-0.4
					c-5.5,0-12.8,4.9-15.7-7.6c72.6-0.2,145.2-0.4,217.9-0.5C881.2,1049.1,885.5,1048.2,889.2,1052.5z"/>
				<path fill="#F9C330" d="M536.8,1186.3c17.7-1.3,33.3-16.2,51.1-16.8c5.3,2.9,11.6,12.9,14.1-4.3c1.9-1.4,3.9-2.8,5.8-4.2
					c4.7-1.2,9.4-2.5,14.2-3.7c2.9,18-8.7,14.5-14.1,20.1c-0.9,1.6-1.9,3.1-2.8,4.7c0,0,0.1,0,0.1,0c-21-2.9-40,10.2-59.9,15.9
					C545.1,1190,539.1,1190.9,536.8,1186.3z"/>
				<path fill="#EFB51D" d="M499.3,1044.6c7.5-6.8,16-4.7,23.5-2.9c18.8,4.6,37.7,2.5,56.4,4c-7.2,14.8-19.3,15.1-27.8,10.6
					c-14.9-7.9-29.6-6-44.4-7.3C504.4,1048.7,501.9,1046.1,499.3,1044.6z"/>
				<path fill="#EFB51D" d="M590.6,1049.1c17.1,0.1,34.1,0.3,51.2,0.4c-0.7,4.6-2.5,7.6-5.8,7.6c-13.3,0.1-26.5,0.1-39.8-0.1
					C592.9,1057,591.4,1053.4,590.6,1049.1z"/>
				<path fill="#EFB51D" d="M425.9,1028.7c16.9,4.4,33.8,8.1,51,8.3c-14.9,8.2-30.2,2.7-45.3,3.4
					C426.7,1040.6,426,1034.4,425.9,1028.7z"/>
				<path fill="#EFB51D" d="M741.1,774.9c0-3.8,0.1-7.6,0.1-11.4c39.4-0.3,78.6-10.2,118.4-3.9C820.1,764.7,780.6,769.8,741.1,774.9
					z"/>
				<path fill="#F8BC24" d="M1400.6,792.1c-0.1,1.5-0.1,2.9-0.2,4.4c-0.2-1-0.6-2.1-0.6-3.1C1399.8,793,1400.3,792.5,1400.6,792.1z"
					/>
				<path fill="#F7D459" d="M545.1,1198c19.9-5.8,38.9-18.8,59.9-15.9c-1.2,4.3-1.5,10-3.7,12.6c-14.5,17.7-15,38.5-7.5,61.6
					c-4.4,7.6-10.1,8.8-16.5,8.7c-24.4-0.4-48.9-2.1-73.2,0.4c-21.1,2.2-41.3-8.4-63.1-1.9c-20.4,6.1-42.4,1.5-63.7,1.2
					c-5.2-0.1-11.9,3.4-14.1-8.3c15.2-5.5,30.4-11,45.6-16.5c24.1-6.2,48.5-10.3,72-19.1C502.3,1212.8,523.4,1203.8,545.1,1198z"/>
				<path fill="#EB9E0C" d="M101.8,791.9c25.4,17.5,50.8,35,79.5,37.8c5.1,5.6,11.4,6.6,17.3,7.9c66.8,15,133.9,26.1,201.7,25.1
					c8.9-0.1,18-0.9,25.5,8.3c-3.7,0.7-7.5,1.2-11.2,2c-36.2,8.1-71,27.4-108.2,27c-48.2-7.2-97.1-1.4-144.9-16.1
					c-5.5-1.7-11.3-0.6-17-0.8c-19.7-5.1-37.3-17.8-54-33.2c-7.2-22.5-1-40.7,8.7-57.8C100.1,792.2,101,792.1,101.8,791.9z"/>
				<path fill="#F9C330" d="M329.2,937.3c0.1,1.4,0.2,2.9,0.3,4.3c-6.2,5.9-11.8,12.5-11.8,24.7c-20.5,8.3-41.7,6.4-62,3.3
					c-34.5-5.2-69-1.4-103.4-3.2c-3.3-0.2-6.6,0.2-9.9-0.1c-3.1-0.3-7.4,1.2-7.5-6c-0.1-5.2,2.3-8.9,6-10.1
					c6.9-2.3,13.9-4.1,20.7-6.7c21.4-8.1,43.1-13,65.3-10.4c14.8,6.5,29.6,10.3,45.3,6.7C291,935.4,310.2,936.3,329.2,937.3z"/>
				<path fill="#F9CD3D" d="M329.2,937.3c-19.1-0.9-38.2-1.9-57.1,2.5c-15.7,3.6-30.5-0.2-45.3-6.7c4.3-13.2,13.7-10.4,20.7-11.6
					c18-3.2,35.1-14,53.5-13.7c3.2,0.1,4.9-3.4,5.6-7.7c37.2,0.4,72-18.9,108.2-27c3.7-0.8,7.4-1.3,11.2-2c0,1.4,0,2.7,0,4.1
					C392.7,892.8,359.9,911.4,329.2,937.3z"/>
				<path fill="#F9C330" d="M122.2,961.8c-5.8,6-11.8,5.1-19.6,1.9C109.7,954.8,116,958.3,122.2,961.8z"/>
				<path fill="#F7D459" d="M181.3,726c-7.6-1-14.5,1.3-21.3,6.8c-3.4,2.8-10.4,4.5-11.4-5c-0.7-7.2,5.1-10.1,9.1-9.5
					c8.1,1.2,17.9-8.3,23.9,7.4C181.5,725.6,181.3,726,181.3,726z"/>
				<path fill="#F8BC24" d="M545.1,1198c-21.7,5.8-42.9,14.9-64.2,22.9c-23.6,8.9-48,13-72,19.1c1.4-8.2,7.3-14.1,5.8-23.7
					c35.6-9.2,71.2-18.5,106.8-27.6c5.1-1.3,10.2-1.6,15.3-2.4C539.1,1190.9,545.1,1190,545.1,1198z"/>
				<path fill="#F9C330" d="M135.1,1156.9c0.6,5.2-1.3,7.9-4.4,9.5C130.3,1161.4,131.6,1158.1,135.1,1156.9z"/>
				<path fill="#F8BC24" d="M596.4,784c-1.9,10.5-7.9,7.5-12.7,8.1c-22.1,2.8-43.9-5.3-66-4.1c-8,0.4-15.8-0.2-23.8,3
					c-5,2-11.5,4.7-14.1-6.7C518.7,784.1,557.6,784.1,596.4,784z"/>
				<path fill="#F9CD3D" d="M198.4,714.1c2,1,4,2.1,6,3.1C202.4,716.2,200.4,715.1,198.4,714.1z"/>
				<path fill="#F9CD3D" d="M212.4,717c1.1-1,2.2-2,3.2-3C214.6,715,213.5,716,212.4,717z"/>
				<path fill="#F7D459" d="M605,1182.1c0.9-1.6,1.9-3.1,2.8-4.7c1.1,1.6,2.1,3.2,3.2,4.8C609,1182.2,607,1182.1,605,1182.1z"/>
				<path fill="#F8BC24" d="M425.9,875.1c0-1.4,0-2.7,0-4.1c-7.5-9.2-16.6-8.4-25.5-8.3c-67.8,0.9-134.9-10.1-201.7-25.1
					c-5.9-1.3-12.2-2.3-17.3-7.9c6.2-7.8,13.7-4.7,20.5-4.1c48.1,4.8,96.1,7.4,144.3,8.2c26.8,0.4,53.8-4.9,80-2.4
					c34.4,3.2,68.9-1.9,103.3,4.7c13.5,2.6,28.1-1.5,41.9,1.8c24.8,6,49.7-4.1,74.5,3.2c9.5,2.8,19.4-4.5,29.5-3.6
					c21.7,1.9,43.4-1.8,65.1,3.8c17.3,4.5,34.8-2.8,52.2-4.6c3.9-0.4,7.6-3.1,8.4,5.5c-17.3,14.5-36.9,9.8-55.1,11.1
					C683.3,858,620.7,862.1,558,864c-34.4,1.1-68.8,1.6-103.2,2.4C444.5,866.6,435.5,872.3,425.9,875.1z"/>
				<path fill="#EFB51D" d="M840.8,850c0-1.5,0.1-2.9,0.2-4.4c4.7-5.4,10.7-6.9,15.9-7.1c27.8-0.9,55.3-5.6,82.9-9
					c3.6-0.5,7.3-0.1,11.1,3.4C914.2,838.6,877.5,844.3,840.8,850z"/>
				<path fill="#F9CD3D" d="M1008.9,830.3c5.1-6,8.4-6,12.6-1.1C1017.9,835,1014.4,833.8,1008.9,830.3z"/>
				<path fill="#EFB51D" d="M909.3,1046.2c-3.3,10.9-9.5,6.5-15,5.9C897.9,1042.3,903.8,1045.5,909.3,1046.2z"/>
				<path fill="#F8BC24" d="M602,1165.2c-2.4,17.2-8.8,7.2-14.1,4.3C591.9,1162.9,597.2,1165.9,602,1165.2z"/>
			</g>
		</g>
	</g>
	<g>
		<g>
			<path fill="#222700" d="M-896.1,46.8c0.3,0,0.7,0,1,0C-895.5,47.7-895.8,47.7-896.1,46.8z"/>
			<path fill="#222700" d="M-721.1,41.8c-0.7,0-1.4,0.1-2.1,0.1c-1,0-2,0-2.9,0l0,0C-724.5,40.3-722.8,40.6-721.1,41.8z"/>
			<path fill="#222700" d="M-728.1,42.9c-0.3,0-0.7,0-1,0c0.7-1.3,1.9-1,3-1l0,0C-726.5,42.8-727.3,42.8-728.1,42.9z"/>
			<path fill="#222700" d="M-728.1,42.9c0.8,0,1.6-0.1,2-1c1,0,2,0,2.9,0c0.4,1.3,2.2,0.5,2.7,2C-723.3,44.8-725.9,46.3-728.1,42.9z
				"/>
		</g>
	</g>
</g>
<g id="Layer_2">
</g>
</svg>
