<?xml version="1.0" encoding="utf-8"?>
<!-- Generator: Adobe Illustrator 18.1.0, SVG Export Plug-In . SVG Version: 6.00 Build 0)  -->
<!DOCTYPE svg PUBLIC "-//W3C//DTD SVG 1.1//EN" "http://www.w3.org/Graphics/SVG/1.1/DTD/svg11.dtd">
<svg version="1.1" id="Layer_1" xmlns="http://www.w3.org/2000/svg" xmlns:xlink="http://www.w3.org/1999/xlink" x="0px" y="0px"
	 viewBox="0 0 100.2 75" enable-background="new 0 0 100.2 75" xml:space="preserve">
<g>
	<path fill="#222700" d="M18.5,22.9c-0.3,0.4-0.6,0.9-0.9,1.3c4.4,2.6,9.2,4.4,12.9,8.1c0.1-0.8,0.3-1.6,0.1-2.3
		c-2.1-7.2-0.7-9.5,6.8-10.4c4.5-0.5,8.8-0.5,12,3.6c0.5-0.9,1.2-1.7,2.3-1.2c0.3,0.1,0.6,0.9,0.5,1.3c-0.4,1.1-1.5,1.2-2.5,1.2
		c-0.2,1-0.4,2-0.6,2.9c4.8-0.3,5.7,2.5,5.1,6.5c0.5,0.1,1.1,0.1,1.6,0.2c3-1.5,5.9-3.4,9.5-3.2l0,0.1c0.2-0.9,0.7-1.5,1.7-1.5
		c0.5-0.5,1-1.1,1.5-1.6c-0.1-2.4,1.2-3.8,3.4-4.6l0-0.1c1.4-2.9,2.3-6.1,6.3-6.4c0-0.5,0-1,0.1-1.5c0-1.1-0.1-2.1-0.1-3.2
		c-0.6-1-1.2-2.1-1.7-3.1c-1-0.6-1.9-1.2-2.9-1.8c-0.5,0-1.1,0-1.6,0c-3.5,5.4-7.7,3-12.1,1.5c0.8-2.4,3.7-1.1,4.3-3.2
		c-1.1-0.1-2.3-0.1-3.4-0.2c-14.1,2.4-27.1,7.7-38.9,15.7C20.9,21.8,19.9,22.7,18.5,22.9z"/>
	<path fill="#222700" d="M73.1,49.6c-6.3,1.3-12.4,4.2-19.1,2.2c0.1,1.5-0.3,3.8,1.4,4c3.7,0.4,7.1,3.5,11.1,1.4
		c3.3-1.7,5.4-0.3,6.8,2.8c4,0.1,7.3-2.2,11-3.3c2-1.4,4-2.7,5.9-4.1c0.2-1.8,0.4-3.7,0.6-5.5c-0.2-0.8-0.3-1.6-0.5-2.5
		c-0.4-0.1-0.7-0.2-1-0.3c-2.4,1.4-5.3,1.1-7.9,1.8c-1.4,1.4-3.2,2-5,2.6C75.6,50.2,74.4,50.1,73.1,49.6z"/>
	<path fill="#222700" d="M36.9,42c1.5-0.7,3-1.4,4.5-2.1c3.4-4,9.4-2.2,12.9-5.9c0.6-4-0.3-6.8-5.1-6.5c-1,1-2,1.9-3,2.9
		c0.1,1.2,0.5,2.6-1,3.1c-1.3,0.5-1.6-0.7-2-1.5c-2.6,0.5-5,2.1-7.8,1.9C35.7,36.6,33.8,39.8,36.9,42z"/>
	<path fill="#222700" d="M71.9,23.2c-2.2,0.8-3.5,2.2-3.4,4.6c0.6,0,1.1,0,1.7,0.1l0,0C70.9,26.4,72.2,25.1,71.9,23.2z"/>
	<path fill="#222700" d="M70.3,27.9c0.1,0.7,0.3,1.4,0.4,2.1c0.3-0.2,0.8-0.3,0.8-0.5C71.5,28.6,71,28.2,70.3,27.9L70.3,27.9z"/>
	<path fill="#222700" d="M67.1,29.4c-1,0-1.5,0.6-1.7,1.5C66.2,30.8,66.8,30.3,67.1,29.4z"/>
	<path fill="#222700" d="M89.3,44.4c0.3,0.1,0.7,0.2,1,0.3c-0.1-0.5-0.2-1-0.2-1.5C89.5,43.4,89.2,43.7,89.3,44.4z"/>
	<path fill="#222700" d="M5.2,41.6c-0.2,3.9,1.2,7.3,3,10.6c0.6,0.1,1.3,0.2,1.9,0.3c1.3-6.1,2.7-12.1,8.8-15.4
		c0.4-0.2,0.3-1.5,0.5-2.2c-2.4-2.7-3.9-5.7-3.1-9.4C10.9,29.6,7.5,35.2,5.2,41.6z"/>
	<path fill="#222700" d="M31.9,41.4c-2.9,0.9-5-0.6-6.8-2.5c-1.6-1.7-3.3-3.3-5.6-4.1c-0.1,0.8,0,2-0.5,2.2
		c-6.1,3.3-7.5,9.3-8.8,15.4c-0.1,0.4-0.1,0.8,0.1,1.1c4.3,2.4,8.5,4.9,13.7,4l-0.1,0.1c-0.3-2,0.7-3,2.6-3.3
		c1.9-2.4,4.7-4.1,5.8-7.2C32.1,45.2,32,43.3,31.9,41.4z"/>
	<path fill="#222700" d="M49.5,23.2c0,0.5,0.1,0.9,0.3,1.3c1-0.1,2.1-0.1,2.5-1.2c0.1-0.3-0.2-1.1-0.5-1.3
		C50.6,21.4,50,22.2,49.5,23.2z"/>
	<path fill="#222700" d="M23.9,57.6c-3.9,5.9-3.7,6.9,1.9,12.3c3.1,1.1,6.8-0.4,9.4,2.4c5.6-0.1,11-0.9,16.2-3.2
		c7.2-3.2,14.6-6,21.9-9c-1.4-3-3.4-4.4-6.8-2.8c-4,2-7.4-1-11.1-1.4c-1.7-0.2-1.3-2.5-1.4-4c-8.6-1.3-16.6,1.7-24.9,3.2
		C27.7,56.6,26.1,57.9,23.9,57.6L23.9,57.6z"/>
	<path fill="#222700" d="M35.2,33.8c-1.5-0.7-2.8-2.2-4.8-1.6c2.1,2.8,1.9,6,1.5,9.2c0.1,1.9,0.2,3.8,0.3,5.6
		c1.9-1.4,3.6-2.9,4.7-5.1C33.8,39.8,35.7,36.6,35.2,33.8z"/>
	<path fill="#222700" d="M23.8,57.6c2.3,0.3,3.9-1.1,5.4-2.5c-0.9-0.3-1.9-0.5-2.8-0.8C24.6,54.7,23.5,55.6,23.8,57.6z"/>
	<path fill="#222700" d="M73.1,49.6c1.3,0.5,2.5,0.6,3.3-0.8C74.6,46.1,73.7,47.2,73.1,49.6z"/>
	<path fill="#222700" d="M46.1,30.3c-1.1,0.3-2.3,0.5-3.1,1.6c0.4,0.9,0.8,2,2,1.5C46.6,32.9,46.2,31.5,46.1,30.3z"/>
	<path fill="#222700" d="M46.7,74.6c0.4,0.1,0.8,0.3,1.2,0.4c0.1,0,0.3-0.3,0.4-0.5c-0.4-0.1-0.8-0.3-1.2-0.4
		C47,74.1,46.9,74.4,46.7,74.6z"/>
</g>
</svg>
