<?xml version="1.0" encoding="utf-8"?>
<!-- Generator: Adobe Illustrator 18.1.0, SVG Export Plug-In . SVG Version: 6.00 Build 0)  -->
<!DOCTYPE svg PUBLIC "-//W3C//DTD SVG 1.1//EN" "http://www.w3.org/Graphics/SVG/1.1/DTD/svg11.dtd">
<svg version="1.1" id="Layer_1" xmlns="http://www.w3.org/2000/svg" xmlns:xlink="http://www.w3.org/1999/xlink" x="0px" y="0px"
	 viewBox="0 0 467.9 272.9" enable-background="new 0 0 467.9 272.9" xml:space="preserve">
<g>
	<path fill="#222700" d="M133.6,156c0.2,1,0.4,2,0.5,3c4-1.4,6.2-4.7,7.5-8.3c3.6-10.3,11-17.1,19.5-23.1c3.3-5,9-7.1,13.5-10.6
		c2.3-1.8,4-1.4,5.3,1.6c2.7,6.8,6.4,13.2,7.7,20.5c3.7,5.6,5.5,12.3,9.8,17.6c1.8,0.1,3.1-0.5,3.9-2.1c-1.3-2.6-3.6-4.5-4-7.5
		c-3.5-7.1-5.6-14.6-7.5-22.2c-0.8-0.4-1.2-1-1.1-2c0-1.5,0-3,0-4.5c-0.3-1.6-0.6-3.2-0.9-4.8c-1.5-1.5-1.4-3-0.2-4.6
		c0.8-2.7,2.8-5.8,2.1-8.1c-1.4-4.4-4.7,0.8-7.1-0.5c-0.2-0.1-0.5-0.2-0.7-0.2c-8.3-1.3-8.3-1.3-12.7,6.8c-2.6,2.6-2.8,7.6-7.6,8
		l0,0c-0.8,4.1-3.9,6.4-6.8,8.9c-5.9,7.5-12.3,14.5-17.5,22.4l-0.6,0.4c-0.8,1.5-1.5,3-2.3,4.4C134.1,152.9,133.9,154.5,133.6,156z"
		/>
	<path fill="#222700" d="M203.5,167.9c2,3,5.8,2.4,8.3,4.2c1.1,0.5,1.9,1.8,3.4,0.6c2.7-2.3,6-1.7,8.9-1.1
		c6.9,1.5,13.9,1.3,20.8,1.2c0-0.7,0-1.4,0-2.2c-6.7-1.1-13.4-2.5-20.2-2.3c-4.6,0.2-8.7-1.9-13.1-2.3c-2.4-0.2-4.4-2.9-4.8-5.6
		c-0.5-3.5-3.2-4.5-5.7-5.9c-0.8,1.7-2.1,2.3-3.9,2.1c0.1,3,2.4,4.5,4.1,6.4C202.8,164.5,204.1,165.8,203.5,167.9z"/>
	<path fill="#222700" d="M195.4,179.3c-5.8-1.4-11.3-3.6-16.6-6.4c-5.5-1.5-11-3-16.5-4.5c0,0.6,0.1,1.3,0.1,1.9
		c8.2,3.8,17.2,5.8,25.2,10.1c12.2,3.4,23.8,8.5,34.8,14.7c0.4-0.1,0.8,0,1.3,0c0.6-2.6,0.7-5.2-0.1-7.8c-0.4,0.1-0.8,0-1.2-0.2
		c-0.5,0-1-0.1-1.6-0.1C211.9,186.4,203.7,182.8,195.4,179.3z"/>
	<path fill="#222700" d="M245,170.7c0,0.7,0,1.4,0,2.2c15.8,2.3,32,1.7,47.4,6.7c2.4,0.8,4.9,1,4.9-2.8l0.1,0.1
		c-1.6-3.1-3.2-5.5-7.6-3.7c-2.2,0.9-5.2,0.6-7.8,0.2C269.7,171.4,257.3,172,245,170.7z"/>
	<path fill="#222700" d="M317.9,192.8c4.7,6.5,12.6,9.7,16.6,16.9c0.6,1.1,2.5,1.7,3.3,0.2c0.8-1.6,3.1-3.5,1-5.6
		c-1.3-1.2-3-2-4.6-3c0-2.7,3.7-1.1,3.6-3.1c-0.2-2.9-2.7-1.7-4.3-2c-4.8-1-9.9-1.4-13.7-5C319,191.7,318.5,192.2,317.9,192.8z"/>
	<path fill="#222700" d="M198.6,211.1c-1.5,1-3.1,1.9-4.6,2.9c-2.2,2.3-5.1,3.9-8.1,4.2c-4.6,0.4-5.3,2.9-5.1,6.6l0,0
		c3.7,0.3,6.6-0.5,9.8-3c5.9-4.7,12.5-8.5,18.9-12.7c0-0.8,0-1.5-0.1-2.3C205.8,208.2,202.2,209.7,198.6,211.1z"/>
	<path fill="#222700" d="M209.4,206.8c0,0.8,0,1.5,0.1,2.3c7.1-3.5,13.5-8.3,21.2-10.7c-1.5-2.9-4-3.4-6.9-3.2
		c-0.4-0.1-0.8-0.1-1.3,0c0.2,4-3.1,4.8-5.6,6.6C214.5,203.4,210.9,203.6,209.4,206.8z"/>
	<path fill="#222700" d="M180.9,224.8c-3.9,0.8-6.2,2.3-2.7,6.3c2.2,2.5,2.9,5.5,2.5,8.9c-0.3,2,0.3,4.1,2.8,3.7
		c2.6-0.4,2-2.8,1.6-4.5C183.7,234.3,182.3,229.6,180.9,224.8L180.9,224.8z"/>
	<path fill="#222700" d="M317.9,192.8c0.6-0.6,1.2-1.1,1.7-1.7c-3.9-5.1-9.3-8.3-15-10.9C307.8,185.9,313.3,188.8,317.9,192.8z"/>
	<path fill="#222700" d="M177.7,248.5c2,2.1,3.3,4.6,3,7.6c-0.4,3.6,2.1,3.4,4.4,3.7c0.6-4.7-1.8-8.5-3.8-12.3
		C180.1,245.4,177.9,244.6,177.7,248.5z"/>
	<path fill="#222700" d="M349.5,216.4c0.1-2.8-1.4-5-2.9-7.1c-1-1.4-2.9-2.8-4.5-0.7c-1.2,1.6-1.2,4,0.9,4.6c2.5,0.7,3.3,3.3,5.5,4
		C349.1,217.2,349.4,216.9,349.5,216.4z"/>
	<path fill="#222700" d="M344.8,233c-0.3,0.4-0.5,0.9-0.8,1.3c-1.3,1.8-2.4,3.9,0.5,4.9c2.3,0.8,2.9-1.3,3.1-3.2c0.1-1,0.3-2,0.4-3
		c0.4-1.2,0.9-2.4,1.1-3.7c0.2-1.1-0.1-2.2-1.3-2.4c-1.4-0.3-1.7,0.8-1.8,1.8C345.8,230.2,346.2,231.9,344.8,233z"/>
	<path fill="#222700" d="M194.2,234.6c0.1-4.3-4-5-6.5-9.1c-0.6,6.3,1.9,8.5,5.9,9.7C193.6,234.9,193.8,234.7,194.2,234.6z"/>
	<path fill="#222700" d="M191,266c1.8,0.5,3.4,2.9,5.5,0.7c1.6-1.7,2.2-3.5-0.2-5.1c-1.1,1.9-3.3,2.3-5,3.2
		C191.2,265.2,191.1,265.6,191,266z"/>
	<path fill="#222700" d="M297.3,176.7c1.4,0.5,2.9,1.3,4.3,1.3c0.8,0,0.6-1.7,0.3-2.7c-0.6-1.4-1.3-3.2-3.1-2.5
		c-1.6,0.6-1.2,2.6-1.3,4L297.3,176.7z"/>
	<path fill="#222700" d="M191.3,264.7c1.8-0.9,3.9-1.3,5-3.2c0-0.5,0-1.1,0-1.6c-1.1,0-2.1,0-3.2,0l0,0c-0.2,0.8-0.8,1.4-1.6,1.6
		c-0.7,0.1-1.4,0.1-2.1,0.2C190.1,262.7,190.7,263.7,191.3,264.7z"/>
	<path fill="#222700" d="M194.2,234.6c-0.3,0.1-0.5,0.3-0.6,0.6c0,2,0.1,4,2.4,5.2C197.1,237.7,197.1,235.7,194.2,234.6z"/>
	<path fill="#222700" d="M348.5,217.2c1.1,1.9-0.7,4.8,2.2,6c0.3,0.1,1.1-0.1,1.3-0.4c1.4-2.9-0.8-4.6-2.4-6.5
		C349.4,216.9,349.1,217.2,348.5,217.2z"/>
	<path fill="#222700" d="M191.3,264.7c-0.6-1-1.2-2-1.8-3c-0.9-0.2-1.8-0.5-2.8-0.7c-0.5,2.7,1,4.1,3.2,5.1c0.3-0.1,0.7-0.1,1-0.1
		C191.1,265.6,191.2,265.2,191.3,264.7z"/>
	<path fill="#222700" d="M348.2,195.6c-1.2-1.1-3.4-1.6-3.8-0.4c-0.6,1.9,1.5,0.9,2.4,1C347.3,196.3,347.7,195.9,348.2,195.6z"/>
	<path fill="#222700" d="M191.5,261.5c0.9-0.2,1.4-0.7,1.6-1.6C192.3,260.1,191.8,260.7,191.5,261.5z"/>
	<path fill="#222700" d="M220.9,185.5c0,0.5,0,1,0,1.5c0.5,0,1,0.1,1.6,0.1C222.3,186.3,221.8,185.8,220.9,185.5z"/>
	<path fill="#222700" d="M20,18.5c-0.3,0.4-0.6,0.9-0.9,1.3c4.4,2.6,9.2,4.4,12.9,8.1c0.1-0.8,0.3-1.6,0.1-2.3
		c-2.1-7.2-0.7-9.5,6.8-10.4c4.5-0.5,8.8-0.5,12,3.6c0.5-0.9,1.2-1.7,2.3-1.2c0.3,0.1,0.6,0.9,0.5,1.3c-0.4,1.1-1.5,1.2-2.5,1.2
		c-0.2,1-0.4,2-0.6,2.9c4.8-0.3,5.7,2.5,5.1,6.5c0.5,0.1,1.1,0.1,1.6,0.2c3-1.5,5.9-3.4,9.5-3.2l0,0.1c0.2-0.9,0.7-1.5,1.7-1.5
		c0.5-0.5,1-1.1,1.5-1.6c-0.1-2.4,1.2-3.8,3.4-4.6l0-0.1c1.4-2.9,2.3-6.1,6.3-6.4c0-0.5,0-1,0.1-1.5c0-1.1-0.1-2.1-0.1-3.2
		c-0.6-1-1.2-2.1-1.7-3.1c-1-0.6-1.9-1.2-2.9-1.8c-0.5,0-1.1,0-1.6,0c-3.5,5.4-7.7,3-12.1,1.5c0.8-2.4,3.7-1.1,4.3-3.2
		c-1.1-0.1-2.3-0.1-3.4-0.2C48.2,3.4,35.2,8.7,23.4,16.7C22.3,17.4,21.3,18.3,20,18.5z"/>
	<path fill="#222700" d="M74.6,45.2c-6.3,1.3-12.4,4.2-19.1,2.2c0.1,1.5-0.3,3.8,1.4,4c3.7,0.4,7.1,3.5,11.1,1.4
		c3.3-1.7,5.4-0.3,6.8,2.8c4,0.1,7.3-2.2,11-3.3c2-1.4,4-2.7,5.9-4.1c0.2-1.8,0.4-3.7,0.6-5.5c-0.2-0.8-0.3-1.6-0.5-2.5
		c-0.4-0.1-0.7-0.2-1-0.3c-2.4,1.4-5.3,1.1-7.9,1.8c-1.4,1.4-3.2,2-5,2.6C77.1,45.8,75.8,45.7,74.6,45.2z"/>
	<path fill="#222700" d="M38.4,37.6c1.5-0.7,3-1.4,4.5-2.1c3.4-4,9.4-2.2,12.9-5.9c0.6-4-0.3-6.8-5.1-6.5c-1,1-2,1.9-3,2.9
		c0.1,1.2,0.5,2.6-1,3.1c-1.3,0.5-1.6-0.7-2-1.5c-2.6,0.5-5,2.1-7.8,1.9C37.2,32.1,35.2,35.4,38.4,37.6z"/>
	<path fill="#222700" d="M378,51.9c3.2,0.4,6.3,0.6,9.2-1.2c1.2-0.7,2.2-1.5,1.8-3c-0.6-1.9-2.1-2.1-3.8-1.8c-3,0.6-5.1,2.5-7.1,4.6
		C378.1,51,378,51.4,378,51.9z"/>
	<path fill="#222700" d="M459.9,45.3c-3-3.1-6.2-5.6-10.6-4.9c-0.9,0.1-1.1,1.4-0.7,1.8C451.8,45,455.8,45.2,459.9,45.3z"/>
	<path fill="#222700" d="M355.7,59.9c3.7,0.5,6.6-1,9.4-3.2c-3-5.8-6.3-2-9.5-0.2C355.6,57.6,355.7,58.8,355.7,59.9z"/>
	<path fill="#222700" d="M355.7,59.9c0-1.1-0.1-2.3-0.1-3.4c-5.1-1-5.1-1-7.9,3.6c0.1,1.2,0.3,2.3,1.5,2.8
		C350.5,60.1,354.3,62.5,355.7,59.9z"/>
	<path fill="#222700" d="M397.2,41.2c-1.5-0.1-3.4-0.8-3.6,1.5c-0.1,1.8,1.7,1.7,2.9,1.6c1.5-0.1,3.1-0.1,4.5-0.6
		c1-0.4,1.1-1.7,0.5-2.7c-1-1.6-2-1-3,0.1c-0.2,0.4-0.4,0.9-0.6,1.3C397.8,42.1,397.5,41.6,397.2,41.2z"/>
	<path fill="#222700" d="M349.2,62.9c-1.2-0.6-1.4-1.7-1.5-2.8c-0.9-0.1-1.8-0.2-2.7-0.3c-0.3,2.1-1.7,4.6,1.5,5.6
		C348.1,66,349.2,64.8,349.2,62.9z"/>
	<path fill="#222700" d="M410.1,40.7c0.2,1.5,1,2.3,2.6,2.2c1.3-0.1,1.8-1.1,1.7-2.2c-0.1-1.4-0.9-2.4-2.5-2.2
		C410.7,38.7,410.4,39.7,410.1,40.7z"/>
	<path fill="#222700" d="M368.7,56.7c1.5,0,3,0.1,4.6,0.1c0-1.9,0.5-4.6-2.3-4.6C368.1,52.1,368.6,54.7,368.7,56.7z"/>
	<path fill="#222700" d="M378,51.9c0-0.5,0-1,0.1-1.4c-0.3-1.2-0.4-2.8-2.3-2.2c-0.5,0.2-1.1,1.2-1.1,1.8
		C374.9,52.1,376.2,52.5,378,51.9z"/>
	<path fill="#222700" d="M418.6,39.3c-0.2,1,0.3,1.6,1.1,1.9c1.1,0.5,2.1,0.1,2.5-1c0.3-0.8-0.3-1.5-1-1.8
		C420,37.8,419.2,38.5,418.6,39.3z"/>
	<path fill="#222700" d="M433.9,40c-0.1-1.3-0.1-2.7-1.9-2.8c-0.8,0-1.4,0.6-1.4,1.5c-0.2,2.1,1.1,2.6,2.8,2.7
		C433.6,40.9,433.7,40.4,433.9,40z"/>
	<path fill="#222700" d="M445.1,39.7c0.8-0.3,1.3-0.9,1.1-1.7c-0.3-1-0.9-1.9-2.1-1.6c-0.3,0.1-0.6,1.3-0.5,2
		C443.6,39.2,444.1,39.8,445.1,39.7z"/>
	<path fill="#222700" d="M73.4,18.8c-2.2,0.8-3.5,2.2-3.4,4.6c0.6,0,1.1,0,1.7,0.1l0,0C72.3,22,73.6,20.7,73.4,18.8z"/>
	<path fill="#222700" d="M71.7,23.5c0.1,0.7,0.3,1.4,0.4,2.1c0.3-0.2,0.8-0.3,0.8-0.5C73,24.2,72.4,23.8,71.7,23.5L71.7,23.5z"/>
	<path fill="#222700" d="M68.5,25c-1,0-1.5,0.6-1.7,1.5C67.7,26.4,68.2,25.9,68.5,25z"/>
	<path fill="#222700" d="M309.5,65.7c0.5,1.3,1.1,1.5,1.7,0C310.6,65.7,310.1,65.7,309.5,65.7z"/>
	<path fill="#222700" d="M90.7,40c0.3,0.1,0.7,0.2,1,0.3c-0.1-0.5-0.2-1-0.2-1.5C90.9,38.9,90.6,39.3,90.7,40z"/>
	<path fill="#222700" d="M397.2,41.2c0.3,0.4,0.5,0.8,0.8,1.3c0.2-0.4,0.4-0.9,0.6-1.3C398.2,41.2,397.7,41.2,397.2,41.2z"/>
	<path fill="#222700" d="M433.9,40c-0.2,0.4-0.3,0.9-0.5,1.4C434.7,41.3,435.3,41,433.9,40z"/>
	<path fill="#222700" d="M188.7,122.9c-0.2,0.9,0.2,1.6,1.1,2C189.4,124.2,189,123.6,188.7,122.9z"/>
	<path fill="#222700" d="M333.9,239.4c0.5,1.2,1.5,1.3,2.6,1c1-0.3,2.4-0.8,2.2-1.9c-0.2-1.1-1.6-1-2.6-0.9
		C335,237.7,333.9,238,333.9,239.4z"/>
	<path fill="#222700" d="M325.5,67.7c-2.6-1.4-2.9,1.9-4.9,2.3c-5.6,1.1-5.6,1.3-1.6,5.8c2.7-1.2,5.3-2.5,8-3.7
		C327.2,70.4,326.1,69.1,325.5,67.7z"/>
	<path fill="#222700" d="M325.5,67.7c0.7,1.4,1.8,2.7,1.5,4.4c1.1-0.4,2.2-0.8,3.2-1.2c3.2-0.4,4.1-2.4,2.8-4.9
		c-1.3-2.5-3.3-2-5.1-0.2C327.3,66.6,326.3,67.1,325.5,67.7z"/>
	<path fill="#222700" d="M323.7,80.1c-0.1,2.2,0.9,3.3,3.1,3.3C327,81.2,325.9,80.1,323.7,80.1z"/>
	<path fill="#222700" d="M320.5,78.5c0.6,0,1.2,0,1.7,0c-0.6-0.6-1.2-1.1-1.8-1.7C320.5,77.5,320.5,78,320.5,78.5z"/>
	<path fill="#222700" d="M160.1,78.4c-2.4,1.2-3.7,3.6-5.8,5.7c-0.7-4.9-2.4-7.9-7.5-4.7c-1.8,1.1-2.9-0.4-4.3-0.9
		c-2-0.7-3.5,0.1-4.7,1.8c-1.2,1.7-1.4,3.2-0.3,5.1c1.2,1.9,3.1,2.7,4.7,1.8c4.4-2.3,9.2,2.6,13.6-0.9c0.6-0.5,2.8,1.1,4.2,1.7
		C164.5,85,164.5,82.9,160.1,78.4z"/>
	<path fill="#222700" d="M182.6,85.2c-1.3,4.6,0.7,7.4,5.3,7.4c3,0,5.5,2,8.4,1.5c0.2-1.1,0.5-2.2,1.8-2.6c0.4-4,0.4-7.7-5.4-6.3
		c-2.4,0.6-3.8-1.3-5.6-2.1C185.6,83.9,184.1,84.5,182.6,85.2z"/>
	<path fill="#222700" d="M287.6,83.2c-1.6,2.1-2.2,4.6,0,6.3c2.3,1.9,3.6-0.3,4.9-2.1c1.1-1.6,3.1-0.4,4.4-1.1
		c2.9-1.8,7.8-1.1,7.9-6.3c-5-5.5-8.6,0.1-12.4,1.9C290.7,82.6,289.3,83.1,287.6,83.2z"/>
	<path fill="#222700" d="M173.4,92.6c6.9,0.3,6.9,0.3,7.1-7.5c-2.3-1.6-4.5-2.1-6.9,0C170.7,87.5,172,90,173.4,92.6z"/>
	<path fill="#222700" d="M304.6,80c2.3-0.2,4.9,0.9,6.7-1.6c-1.4-1.6-1.3-5.1-4.5-4.4C303.7,74.8,305.2,77.9,304.6,80z"/>
	<path fill="#222700" d="M161.6,94.6c0,0.4,0,0.9-0.2,1.3c1.2,2.6,3.1,4.9,3.6,7.8c0.5,0.1,1.1,0.1,1.6,0.2
		c-0.1-2.1-0.2-4.2,0.7-6.2c-0.3-0.5-0.2-1,0.1-1.5l-0.4,0.1C165.5,95.1,163.8,94.1,161.6,94.6z"/>
	<path fill="#222700" d="M310.4,69.7c0.4,0.2,0.8,0.4,1.2,0.4c0.1,0,0.3-0.3,0.4-0.5c-0.4-0.2-0.8-0.4-1.2-0.4
		C310.7,69.2,310.5,69.5,310.4,69.7z"/>
	<path fill="#222700" d="M6.7,37.2c-0.2,3.9,1.2,7.3,3,10.6c0.6,0.1,1.3,0.2,1.9,0.3c1.3-6.1,2.7-12.1,8.8-15.4
		c0.4-0.2,0.3-1.5,0.5-2.2c-2.4-2.7-3.9-5.7-3.1-9.4C12.3,25.2,8.9,30.8,6.7,37.2z"/>
	<path fill="#222700" d="M33.3,37c-2.9,0.9-5-0.6-6.8-2.5c-1.6-1.7-3.3-3.3-5.6-4.1c-0.1,0.8,0,2-0.5,2.2c-6.1,3.3-7.5,9.3-8.8,15.4
		c-0.1,0.4-0.1,0.8,0.1,1.1c4.3,2.4,8.5,4.9,13.7,4l-0.1,0.1c-0.3-2,0.7-3,2.6-3.3c1.9-2.4,4.7-4.1,5.8-7.2
		C33.5,40.8,33.4,38.9,33.3,37z"/>
	<path fill="#222700" d="M12.4,72.1c2.9,3.5,5.1,7.2,3.8,12c1.3,0,2.6-0.2,3.6,0.8c3.8,3.6,7.6,7.3,11.3,11c5.4,1.5,5.4-3.1,6.7-6.1
		c-0.4-1.2-0.7-2.4-1.9-3.1c-2.3-0.2-4.3,0.7-6.4,1.4c-0.3,0.4,0,1.9-1.2,0.6c0.4-0.2,0.8-0.4,1.2-0.5c0.1-3.1-0.1-5.3-2.8-8.1
		c-2.9-2.9-6.2-7.2-5.1-12.5c-2.4-1.8-4.6-3.8-7.9-3.6C12.1,66.5,12.4,69.3,12.4,72.1z"/>
	<path fill="#222700" d="M13.9,63.2c0.2-0.1,0.5-0.2,0.7-0.3c2.4-0.8,6.8-0.2,5-4.7c-1.5-3.6-4.7-4.7-8.2-1.7
		C11.4,59.1,9.5,62.3,13.9,63.2z"/>
	<path fill="#222700" d="M54.5,156.7L54.5,156.7c-0.1,0.4-0.1,1-0.1,1.5c-1.9,0.8-1.6,2.1-1.1,3.7c1,2.6,1.8,5.2,2.6,7.7
		c-2.6,0.2-4.6-0.3-4.8-3.5c-0.1-0.8,0.5-2.3-1.2-2.1c-1,0.1-1.8,1-2,2.1c-0.1,1,0.1,2,0.1,3.1c-0.2,0.2-0.5,0.5-0.7,0.7
		c-0.6-0.4-1.7-0.7-1.9-1.3c-2-7.5,0-14.4,3.9-20.9c0.2-0.4,1.5-0.3,2.2-0.4c1,1.1,2.1,2.3,3.1,3.4c-0.1,1-0.3,2-0.4,2.9
		C52.5,154.8,52.7,155.8,54.5,156.7z M49.2,161.4c0.3-2.6,0.4-4.4,0.6-6.1c0.3-0.3,0.7-0.5,1-0.8c-0.9-1.1-0.9,0.1-1.3,0.5
		C47.6,156.7,47.8,158.6,49.2,161.4z"/>
	<path fill="#222700" d="M48.3,126.3c-2.8,0.2-5.4-0.7-8-1.7l0.2,0.4c-0.6,0.4-1.1,0.9-1.7,1.3c-8,3.5-12.4,10.2-12.7,19.5
		c2.5-0.1,0.6-3.4,3.1-4c2.5-0.6,1.1-3.7,2-5.5c2.6-5.1,7.7-4.6,12.1-5.8c1.2-1.7,3-2.3,5-2.6C48.3,127.5,48.3,126.9,48.3,126.3z"/>
	<path fill="#222700" d="M162.3,168.4c-3.2-2.5-7.1-3.2-10.8-4.2c-2.8-0.8-5.4-1.9-7.9-3.3c-4.8-2.8-4.7-2.8-4.9,3.1
		c0.5,0,1,0.1,1.4,0.2c4.1-0.3,7.6,1.5,11.1,3.1c4.1-0.5,7.2,3.2,11.2,3C162.4,169.7,162.3,169,162.3,168.4z"/>
	<path fill="#222700" d="M48.3,128c3.7,0.1,7.4,0.3,11.2,0.4c1.5-0.3,3.4-0.5,2.3-2.9c-0.6-1.4-1-3-3.3-2.4c-3.3,0.9-6.4,2.5-10,1.9
		c-0.1,0.4-0.1,0.9-0.2,1.3C48.3,126.9,48.3,127.5,48.3,128z"/>
	<path fill="#222700" d="M60.9,144.1c3.9-1.2,7.8-2.3,11.7-3.6c1.2-0.4,1-1.6,1.1-2.6l0.1,0.1c-0.8-0.3-1.6-0.7-1.6-1.7l0.1,0.1
		c-0.5-0.1-1.1-0.1-1.6-0.2c-0.6,0-1.2,0-1.8,0C65.8,138.4,62.3,140.2,60.9,144.1z"/>
	<path fill="#222700" d="M68.8,136.1c0.6,0,1.2,0,1.8,0c0.1-1.6-0.6-3.5,1.5-4.5c0.1-1.6,0.1-3.3,0.2-4.9l0,0
		c-1.1,0.1-1.6-0.6-1.6-1.6l0,0c-1-0.6-2.1-1.1-3.1-1.7C63.4,128.2,68.4,131.9,68.8,136.1z"/>
	<path fill="#222700" d="M54.5,158.2c-1.9,0.8-1.6,2.1-1.1,3.7c1,2.6,1.8,5.2,2.6,7.7c4.1,0,2.4-3.3,3.1-5.3c0-0.4,0-0.7,0-1.1
		c0-1.1,0-2.2,0-3.3C57.2,160.3,55.6,160,54.5,158.2z"/>
	<path fill="#222700" d="M88.1,122.2c-2.1-4.9-5.3-8.2-11-8.1c0,1,0,2.1,0,3.1c1.3,0.1,2.7,0.1,3.5,1.5
		C83.4,119.3,84.9,122.7,88.1,122.2z"/>
	<path fill="#222700" d="M73.7,137.9c1.9-1,7.4,2,4.7-4.1c-1.5-1.4-3-2.7-4.5-4.1c-0.2,0.8-0.4,1.6-0.6,2.4c0.2,1.6,0.3,3.1-1.1,4.3
		l-0.1-0.1C73.4,136.1,73.7,136.9,73.7,137.9L73.7,137.9z"/>
	<path fill="#222700" d="M151.2,167.3c-3.5-1.6-7-3.4-11.1-3.1C142.8,169.5,147.5,170.8,151.2,167.3z"/>
	<path fill="#222700" d="M51.6,147.3c1,1.1,2.1,2.3,3.1,3.4c1.2-1.1,2.3-2.3,3.5-3.4c0.9-1.1,1.8-2.2,2.7-3.2
		C57.7,144.9,53.1,141.7,51.6,147.3z"/>
	<path fill="#222700" d="M67.6,123.5c1,0.6,2.1,1.1,3.1,1.7c0.1-1.1,0.3-2.1,0.4-3.2c-0.1-0.7-0.4-1.5-0.4-2.2
		c0-4.5-1.5-5.1-4.5-1.9c-0.7,0.7-1.2,1.6-1.8,2.4C65.6,121.3,67.1,121.9,67.6,123.5z"/>
	<path fill="#222700" d="M119.7,135.2c-0.5,4,0.6,7.6,2.9,10.8c0.1-1.5,0.2-2.9,0.3-4.4C122.2,139.4,122.2,136.7,119.7,135.2z"/>
	<path fill="#222700" d="M92.9,133.1c2.7-4.2,0.6-6.3-3.2-7.8C90.7,127.9,91.8,130.5,92.9,133.1z"/>
	<path fill="#222700" d="M133.6,156c0.2-1.6,0.5-3.1,0.7-4.7c-2.2-0.1-4.5,0.3-4.6,2.7C129.5,156.7,132.1,155.7,133.6,156z"/>
	<path fill="#222700" d="M41.9,147.2c0.6-0.1,2.1,0.4,1.9-1.2c-0.1-1-1.3-1.6-2.3-1.8c-1.1-0.2-2.2,0-2.1,1.4
		C39.5,146.8,40.6,147.1,41.9,147.2z"/>
	<path fill="#222700" d="M54.5,158.2c1.1,1.8,2.8,2.1,4.7,1.8c-0.4-2.8-2-3.8-4.6-3.4C54.4,157.2,54.4,157.7,54.5,158.2z"/>
	<path fill="#222700" d="M130.8,144.9c-0.3-2.2,1.1-4.8-1.6-6.5c-0.1,1.6-0.1,3.2-0.2,4.8C129.4,144.1,129.8,144.9,130.8,144.9z"/>
	<path fill="#222700" d="M38.5,151.9c-0.3-1.3-1-2.3-2.4-2.4c-0.1,0-0.6,0.8-0.5,1.1C36,152.3,37.4,151.9,38.5,151.9L38.5,151.9z"/>
	<path fill="#222700" d="M73.3,132c0.2-0.8,0.4-1.6,0.6-2.4c0.1-1.3-0.3-2.4-1.6-2.9c-0.1,1.6-0.1,3.3-0.2,4.9
		C72.5,131.8,72.9,131.9,73.3,132z"/>
	<path fill="#222700" d="M59.1,163.3c0,0.4,0,0.7,0,1.1c1.4,0.5,3.6,1.2,3.8-0.4C63.1,162.8,60.6,162.8,59.1,163.3z"/>
	<path fill="#222700" d="M89.7,125.4c0.4-1.6,0.3-2.9-1.6-3.3C87.5,123.8,88.4,124.7,89.7,125.4z"/>
	<path fill="#222700" d="M132.1,147.9c0.2-1.3,0.1-2.5-1.3-3C130.7,146.1,130.7,147.3,132.1,147.9z"/>
	<path fill="#222700" d="M54.3,153.7c-1.8,1.2-1.5,2.2,0.2,3.1C55.2,155.7,54.6,154.7,54.3,153.7z"/>
	<path fill="#222700" d="M38.6,151.8c0.2,0.3,0.5,0.6,0.7,0.8c0-0.2,0-0.4-0.1-0.5C39,152,38.7,152,38.6,151.8L38.6,151.8z"/>
	<path fill="#222700" d="M80.2,122.1c0.3,0.3,0.5,0.5,0.8,0.8c0-0.2,0-0.4-0.1-0.5C80.7,122.2,80.4,122.2,80.2,122.1
		C80.2,122.1,80.2,122.1,80.2,122.1z"/>
	<path fill="#222700" d="M70.7,125.1c0,1.1,0.4,1.7,1.6,1.6C72.2,125.8,71.9,125,70.7,125.1z"/>
	<path fill="#222700" d="M38.8,126.4c0.6-0.4,1.1-0.9,1.7-1.3C39.5,125,39,125.5,38.8,126.4z"/>
	<path fill="#222700" d="M196.9,207.5c-0.3-0.3-0.5-0.5-0.8-0.8c0,0.2,0,0.4,0.1,0.5C196.4,207.4,196.7,207.5,196.9,207.5
		L196.9,207.5z"/>
	<path fill="#222700" d="M47.4,169.9c0.5,0.6,1,1.2,1.7,0.3c0-0.1-0.6-0.7-1-1C47.9,169.4,47.7,169.7,47.4,169.9z"/>
	<path fill="#222700" d="M187.8,113.6c0.4-1.6,0.5-3.1-0.2-4.6C186.4,110.6,186.3,112.2,187.8,113.6z"/>
	<path fill="#222700" d="M50.9,18.7c0,0.5,0.1,0.9,0.3,1.3c1-0.1,2.1-0.1,2.5-1.2c0.1-0.3-0.2-1.1-0.5-1.3
		C52.1,17,51.4,17.8,50.9,18.7z"/>
	<path fill="#222700" d="M25.3,53.2c-3.9,5.9-3.7,6.9,1.9,12.3c3.1,1.1,6.8-0.4,9.4,2.4c5.6-0.1,11-0.9,16.2-3.2
		c7.2-3.2,14.6-6,21.9-9c-1.4-3-3.4-4.4-6.8-2.8c-4,2-7.4-1-11.1-1.4c-1.7-0.2-1.3-2.5-1.4-4c-8.6-1.3-16.6,1.7-24.9,3.2
		C29.1,52.2,27.6,53.5,25.3,53.2L25.3,53.2z"/>
	<path fill="#222700" d="M36.7,29.4c-1.5-0.7-2.8-2.2-4.8-1.6c2.1,2.8,1.9,6,1.5,9.2c0.1,1.9,0.2,3.8,0.3,5.6
		c1.9-1.4,3.6-2.9,4.7-5.1C35.2,35.4,37.2,32.1,36.7,29.4z"/>
	<path fill="#222700" d="M25.3,53.2c2.3,0.3,3.9-1.1,5.4-2.5c-0.9-0.3-1.9-0.5-2.8-0.8C26,50.2,24.9,51.2,25.3,53.2z"/>
	<path fill="#222700" d="M74.6,45.2c1.3,0.5,2.5,0.6,3.3-0.8C76,41.7,75.1,42.8,74.6,45.2z"/>
	<path fill="#222700" d="M47.5,25.9c-1.1,0.3-2.3,0.5-3.1,1.6c0.4,0.9,0.8,2,2,1.5C48,28.5,47.6,27.1,47.5,25.9z"/>
	<path fill="#222700" d="M198.2,94.7c2.7,6.6,9.5,3.5,14,5.9c1.3,0.6,1.7-1.6,1.8-2.8c0.1-2,0.3-5.8-1.4-5.3
		c-4.6,1.4-8.5-4.6-12.8-0.7C199.7,93,199.5,94.2,198.2,94.7z"/>
	<path fill="#222700" d="M239.3,96.8c-3.3-2.5-7.2,0.4-10.8-1.4c-1.1-0.6-3.2,1.5-3.4,3.6c-0.2,1.3-0.2,2.7,1.1,3.5
		c1.3,0.8,3,2.1,4.3,1.2c3-2,7.4,3.7,9.5-1.9C239.7,100.1,239.5,98.5,239.3,96.8z"/>
	<path fill="#222700" d="M242.8,101.2c7,0.5,8.2-0.5,6.1-5.2c-1.6-3.6-3.8-2.9-6.2-0.7C242.8,97.3,242.8,99.3,242.8,101.2z"/>
	<path fill="#222700" d="M257,96.4c0.6,2.2,1.9,3.7,4.4,3.3c1.4-0.3,3.4-0.9,2.9-2.9c-0.5-1.8-0.6-4.5-3.4-4.5
		C258.3,92.2,257.3,94,257,96.4z"/>
	<path fill="#222700" d="M278,91c0.5,2.1,1.7,3.3,3.9,3.1c1.6-0.1,3.5-0.4,3-2.6c-0.5-1.8-1.1-4.4-4.1-3.8C279,88,278.2,89.3,278,91
		z"/>
	<path fill="#222700" d="M242.8,101.2c0-2-0.1-3.9-0.1-5.9c-1.4-0.1-2.7,0-3.4,1.5c0.2,1.6,0.4,3.3,0.6,4.9
		C240.9,101.6,241.8,101.4,242.8,101.2z"/>
	<path fill="#222700" d="M198.2,94.7c1.4-0.5,1.5-1.7,1.6-2.9c-0.5-0.1-1.1-0.1-1.6-0.2c-1.2,0.4-1.6,1.4-1.8,2.6
		C196.9,94.3,197.5,94.5,198.2,94.7z"/>
	<path fill="#222700" d="M165,103.7c0.1,2,1.1,3.1,3.1,3.4c-0.5-1.1-0.1-2.5-1.5-3.2C166.1,103.9,165.6,103.8,165,103.7z"/>
	<path fill="#222700" d="M167.5,96.3c-0.4,0.5-0.4,1-0.1,1.5c0.5-0.2,1.3-0.2,1.2-1C168.5,96.5,167.8,96.4,167.5,96.3z"/>
	<path fill="#222700" d="M77.5,106.1c1.9,0.9,4.2,2.6,5.7,0.5c2.2-3.4,6.1-4.1,8.7-6.4c4.1-3.7,8.8-5.5,13.9-6.4
		c3.3-0.6,3.7-2.3,3.4-4.9c-4.5-4.2-5.2-4.5-7.7,0.4c-1.6,3.1-1.6,1.1-2.6,0c-2.9-3.3-5-1.4-6.9,1.2c-0.8,5.1-4.2,0.4-6.1,1.6
		c-1.7,2.6-2,6-6.6,6.5C75.8,99.2,77.4,103.4,77.5,106.1z"/>
	<path fill="#222700" d="M109.1,89.1c1.9,1.6,3.4,3.9,6.4,3.4c3.1-1.2,3.2-3.2,2-6.1c-0.7-1.8-1.2-3.7-3.4-3.3
		C110.9,83.6,109.7,86.2,109.1,89.1z"/>
	<path fill="#222700" d="M134.8,84c0-2.6-0.7-4.8-3.9-4.3c-2.2,0.4-4,1.8-3.7,4.3c0.3,3,2.1,5,5.2,4.8
		C135.2,88.7,135.2,86.3,134.8,84z"/>
	<path fill="#222700" d="M112.1,108.1c0.8-3.1-2.6-4-3.3-6.3c-0.5-0.5-1-1.1-1.5-1.6c-1.5,0-3.4-0.6-4.1,1.1
		c-0.8,1.9,0.9,2.9,2.3,3.4C107.9,105.5,109.1,108.5,112.1,108.1z"/>
	<path fill="#222700" d="M148.8,102.1c0.1-3-3.2-4.4-3.4-7.3c-3.8-1.4-5,0.2-4.4,3.8c3.3-0.4,4.4,3.7,7.5,3.8L148.8,102.1z"/>
	<path fill="#222700" d="M121.9,98.5c2.6,1.7,5.2,3.4,7.8,5.1c0.6-3.3-1.4-5.3-3.6-6.9C123.9,94.9,122.3,95.7,121.9,98.5z"/>
	<path fill="#222700" d="M131.2,105.1c-0.3,1.9,1.3,3.1,1.7,4.8c1.9,0.6,1.8,4.1,4.6,3.3c0.3-1.9-1.2-3.2-1.6-4.8
		C134.6,106.9,133.9,104.6,131.2,105.1z"/>
	<path fill="#222700" d="M150.7,93.3c0.1,4,3.7,5.1,6,7.4l0.2-0.2c-0.2-1.5-0.3-2.9-0.5-4.4C154.5,95.1,153.5,92.4,150.7,93.3z"/>
	<path fill="#222700" d="M112.3,98.6c0.1,4.2,3.3,4.3,6.2,4.8C118.1,99.8,115.9,98.3,112.3,98.6z"/>
	<path fill="#222700" d="M48.2,70.2c0.4,0.1,0.8,0.3,1.2,0.4c0.1,0,0.3-0.3,0.4-0.5c-0.4-0.1-0.8-0.3-1.2-0.4
		C48.5,69.7,48.3,70,48.2,70.2z"/>
	<path fill="#222700" d="M129.6,103.5c0.2,0.9,0.7,1.5,1.7,1.7C131.3,104,130.8,103.4,129.6,103.5z"/>
	<path fill="#222700" d="M120.1,105.1c0.1-0.6,0.2-1.2,0.3-1.7c-0.6,0-1.3,0-1.9,0C118.4,104.5,119,105.1,120.1,105.1z"/>
	<path fill="#222700" d="M29.7,88.2c-0.4,0.2-0.8,0.4-1.2,0.5C29.6,90,29.4,88.5,29.7,88.2L29.7,88.2z"/>
	<path fill="#222700" d="M72.1,109.1c-1.2-2.6-1.1-6.8-4.2-7.1c-3.3-0.3-6.8,0.2-10.3-0.1c-1.9-0.1-3.7,2.2-3.8,4.5
		c-0.1,2.8,2.6,3.7,4.3,3.8C62.8,110.4,67.6,111.2,72.1,109.1L72.1,109.1z"/>
	<path fill="#222700" d="M42.3,96.6c-0.4,0.4-0.9,0.8-1.3,1.2c-0.1,1.3-0.4,2.7-0.1,3.9c0.7,2.7,3.1,3.9,5.4,3.8
		c3.2-0.2,2.8-3.7,3.1-5.7c0.5-3.1-2-3.9-4.7-3.6C43.9,96.4,43.1,96.5,42.3,96.6z"/>
	<path fill="#222700" d="M129.3,138.5c-0.2-4.9,0.3-10.2-5.4-12.8C125.4,130.1,125.8,135,129.3,138.5z"/>
	<path fill="#222700" d="M96.2,112.8c0.6-2.5-1.5-3.9-2.6-5.7c-1.4-0.8-2.8-1.3-4.8-0.1C90.7,109.8,93.8,110.9,96.2,112.8z"/>
	<path fill="#222700" d="M115.2,125.7c-0.2,0.6-0.4,1.1-0.5,1.7c1.5,2.8,1.7,6.4,5.1,7.9C120.1,131.2,118.9,127.8,115.2,125.7z"/>
	<path fill="#222700" d="M96.3,106.4c2.1,1.1,4.2,2.2,6.3,3.3c0.7-3.2-1.7-4.7-3.8-5.8C96.8,102.9,96.3,104.6,96.3,106.4z"/>
	<path fill="#222700" d="M116.8,113c-0.2-3-1.4-4.9-4.7-4.8C112.3,111.1,113.6,113,116.8,113z"/>
	<path fill="#222700" d="M121.5,116.2c-1-0.6-2.1-1.1-3.1-1.7c0,2.6-1.2,5.8,3.1,6.4C122.2,119.3,121.7,117.8,121.5,116.2z"/>
	<path fill="#222700" d="M110.3,128.8c-1.3-0.1-1.7-1.9-3.2-1.6c0,3.1,0.9,5.9,3.2,8.1C110.3,133.1,110.3,130.9,110.3,128.8z"/>
	<path fill="#222700" d="M108.8,116c0.1,2.3,1.1,3.9,3.2,4.9C112.2,118.4,112.1,116.2,108.8,116z"/>
	<path fill="#222700" d="M107.2,127.2c0.3-2.5,0.4-4.9-3.2-4.9C104.2,124.5,105.2,126.2,107.2,127.2z"/>
	<path fill="#222700" d="M104,122.4c0.4-2.6,0-4.7-3.2-4.9C101,119.7,102.1,121.4,104,122.4z"/>
	<path fill="#222700" d="M100.9,117.6c0.2-2.3-0.8-3.5-3.2-3.3C98.3,115.8,99.2,117.2,100.9,117.6z"/>
	<path fill="#222700" d="M110.2,140.1c2.2-1.7,2.1-3.3,0-5C110.2,136.7,110.2,138.4,110.2,140.1z"/>
	<path fill="#222700" d="M105.7,111.2c-0.4,1.6,0.1,2.7,1.6,3.3C107.7,113,107.4,111.7,105.7,111.2z"/>
	<path fill="#222700" d="M102.5,109.6c0.7,1.4,1.7,2.1,3.3,1.7C105.3,109.4,104.1,109.2,102.5,109.6z"/>
	<path fill="#222700" d="M112,120.8c-0.2,1.4,0.4,2.5,1.6,3.3C113.9,122.6,114.1,121.1,112,120.8z"/>
	<path fill="#222700" d="M123.1,123.3c0.7-0.3,1-1,0.7-1.6c-0.4-0.9-1.3-1.2-2.3-0.7C121.5,122.1,122.1,122.8,123.1,123.3z"/>
	<path fill="#222700" d="M97.8,114.4c0-1.1-0.5-1.7-1.7-1.7C96.3,113.6,96.9,114.1,97.8,114.4z"/>
	<path fill="#222700" d="M107.2,114.4c0.2,0.9,0.7,1.5,1.7,1.7C109,114.9,108.4,114.3,107.2,114.4z"/>
	<path fill="#222700" d="M113.6,124c0.1,1,0.5,1.6,1.5,1.6C115.2,124.5,114.8,123.8,113.6,124z"/>
	<path fill="#222700" d="M118.4,114.6c-0.1-1-0.6-1.5-1.6-1.6C116.8,114,117.3,114.6,118.4,114.6z"/>
	<path fill="#222700" d="M128.2,111.5c-1.1-0.5-2.3-1-3.4-1.6c0.1,2,0.2,4.1,0.4,6.1c0.5,0.4,0.9,0.9,1.4,1.3
		c3.3,1.1,4.1,3.9,4.5,6.9c2.5,1.5,1.7,5.4,4.6,6.5C136.4,123,131.1,117.7,128.2,111.5z"/>
	<path fill="#222700" d="M135.7,139.9c1,0,2.7-0.2,2.4-1c-1-2.7,0.3-6.2-2.5-8.3C135.7,133.7,135.7,136.8,135.7,139.9z"/>
	<path fill="#222700" d="M49.6,155.1c-1.9,1.6-1.7,3.5-0.4,6.4c0.3-2.6,0.4-4.4,0.6-6.1C49.8,155.3,49.6,155.1,49.6,155.1z"/>
	<path fill="#222700" d="M49.8,155.3c0.3-0.3,0.7-0.5,1-0.8c-0.9-1.1-0.9,0.1-1.3,0.5L49.8,155.3z"/>
	<path fill="#222700" d="M73.3,132c-0.4-0.1-0.8-0.3-1.2-0.4c-2.1,1-1.4,2.9-1.5,4.5c0.5,0.1,1.1,0.1,1.6,0.2
		C73.5,135.1,73.4,133.6,73.3,132z"/>
	<path fill="#222700" d="M73.7,138c-0.1-1-0.3-1.9-1.6-1.7C72.2,137.3,72.9,137.7,73.7,138z"/>
	<path fill="#222700" d="M137.4,113.1c-1.1,5.1,4.3,8.3,3.5,13.3c2-2.3,0.9-4.7,0.7-7C140.4,117.2,140.2,114.3,137.4,113.1z"/>
	<path fill="#222700" d="M158.4,108.3c-0.5,2.9-0.2,5.5,3,6.8l0,0c0.2-2.4-0.5-4.6-1.7-6.6l-0.7,0L158.4,108.3z"/>
	<path fill="#222700" d="M152,114.7c0,0.3-0.1,0.5-0.1,0.8c-0.1,1.3-0.3,2.7,0.9,3.5c0.3,0.2,1.1,0.1,1.4-0.2
		c1.2-1.5,0.9-2.8-0.7-3.9C152.9,114.9,152.4,114.8,152,114.7z"/>
	<path fill="#222700" d="M148.5,102.4c0,2.2,0.4,4.2,2.5,5.8c1.5-3,0-4.6-2.2-6.1L148.5,102.4z"/>
	<path fill="#222700" d="M158.4,108.3l0.6,0.2l0.7,0c-0.3-1.3,0.9-3.3-0.9-3.6C158,104.8,158.5,107.1,158.4,108.3z"/>
	<path fill="#222700" d="M152,114.7c0.5,0.1,1,0.2,1.5,0.3c-0.4-1.3,0.9-3.5-1-3.8C151.5,111,152.1,113.4,152,114.7z"/>
	<path fill="#222700" d="M156.6,100.7c0.3,0.4,0.5,0.9,0.8,1.3c0.9-0.9,0.4-1.3-0.6-1.5L156.6,100.7z"/>
	<path fill="#222700" d="M142.3,131c0.2,0.2,0.4,0.3,0.5,0.5c0.2-0.4,0.4-0.8,0.5-1.3c0-0.1-0.3-0.4-0.5-0.5
		C142.7,130.1,142.5,130.6,142.3,131z"/>
	<path fill="#222700" d="M124.8,109.9c-0.2-1.3-1.1-1.7-2.3-1.6C123.1,109,123.6,109.9,124.8,109.9z"/>
</g>
</svg>
