<?xml version="1.0" encoding="utf-8"?>
<!-- Generator: Adobe Illustrator 18.1.0, SVG Export Plug-In . SVG Version: 6.00 Build 0)  -->
<!DOCTYPE svg PUBLIC "-//W3C//DTD SVG 1.1//EN" "http://www.w3.org/Graphics/SVG/1.1/DTD/svg11.dtd">
<svg version="1.1" id="Layer_1" xmlns="http://www.w3.org/2000/svg" xmlns:xlink="http://www.w3.org/1999/xlink" x="0px" y="0px"
	 viewBox="-655 274 174.7 248" enable-background="new -655 274 174.7 248" xml:space="preserve">
<g transform="translate(0.000000,300.000000) scale(0.100000,-0.100000)">
	<path d="M-5525,191c-47-23-85-55-85-70c0-6-3-11-7-11c-5,0-22-13-39-29c-33-31-85-61-107-61c-8,0-34-13-58-30c-27-18-52-27-64-24
		c-42,10-215-26-215-46c0-4-27-28-61-54c-38-30-59-52-55-61c3-8-12-43-33-77c-21-35-48-90-60-123c-13-33-32-77-43-99
		c-14-26-17-41-9-45c7-5-1-34-24-86c-26-63-37-107-49-205c-8-69-22-152-30-185c-21-78-20-107,3-158c24-50,78-95,135-112
		c41-12,132-13,143-1c11,11-30,46-53,46c-26,0-71,54-54,65c6,4,15,18,21,32c12,32,26,22,39-28c13-46,30-47,42-3c9,31-11,98-42,144
		c-15,22-16,31-6,71c10,39,62,118,102,154c16,14,38,119,31,146c-4,15,1,27,16,40c28,23,41,24,32,2c-19-50-24-119-14-189
		c8-63,8-84-5-122c-23-66-20-118,9-167c13-24,31-45,38-48c8-3,17-25,21-49c6-40,57-233,71-269c5-13-4-19-41-28c-71-18-152-59-159-81
		c-3-10-12-21-20-24s-27-33-44-68c-36-79-77-121-186-193c-48-32-92-70-100-86c-21-40-19-112,3-131c20-19,85-38,125-38
		c16,0,60-16,99-35c81-40,140-51,192-36c24,6,47,6,62,1c50-19,76,15,44,59c-10,16-49,43-84,61c-36,19-77,43-92,55l-27,21l59,42
		c32,22,80,56,107,74c94,65,183,133,232,175c27,24,55,43,61,43c30,0,88,209,68,241c-12,20,16,6,92-44c90-60,91-61,93-203
		c1-120,35-230,78-257c22-14,51-80,57-132c14-102,17-115,42-145c22-25,33-30,72-30c28,0,67,10,97,23c38,18,63,23,102,20
		c38-3,59,0,79,13c15,10,33,19,41,20c8,2,16,4,17,6c19,30,57,116,62,143c7,41-13,55-51,35c-27-14-185-4-185,12c0,5-17,8-37,6l-38-3
		l-8,70c-15,131-56,364-67,385c-7,14-7,20,0,20c18,0-29,78-76,128c-26,26-53,58-62,72c-43,67-135,180-181,222c-28,26-51,50-51,54
		c0,3,9,17,20,31s20,34,20,44c0,23,13,24,30,4c7-8,19-15,27-15s47-15,86-34c93-44,152-98,161-150c8-43,50-116,67-116c8,0,10,12,6,33
		c-8,53,4,63,49,41c48-24,64-64,40-104c-9-16-16-35-16-44c0-20,24-21,40-1c7,8,20,15,30,15s30,14,45,31c23,28,25,37,19,78
		c-3,25-17,63-30,83c-13,21-24,42-24,48c0,5-5,10-10,10c-6,0-13,6-16,14c-8,20-278,286-314,309c-22,14-29,24-24,36c4,9,18,57,31,106
		c31,120,27,199-11,250c-32,42-29,54,8,29c15-9,29-14,32-11c10,10,27,81,27,115c0,17,4,32,8,32c19,0,18,35-3,57c-22,23-22,25-5,37
		c20,16,22,43,4,65c-7,9-19,34-26,56C-5332,181-5430,237-5525,191z"/>
</g>
</svg>
