<?xml version="1.0" encoding="utf-8"?>
<!-- Generator: Adobe Illustrator 18.1.0, SVG Export Plug-In . SVG Version: 6.00 Build 0)  -->
<!DOCTYPE svg PUBLIC "-//W3C//DTD SVG 1.1//EN" "http://www.w3.org/Graphics/SVG/1.1/DTD/svg11.dtd">
<svg version="1.1" id="Layer_1" xmlns="http://www.w3.org/2000/svg" xmlns:xlink="http://www.w3.org/1999/xlink" x="0px" y="0px"
	 viewBox="-1342.2 227.8 1823 568.2" enable-background="new -1342.2 227.8 1823 568.2" xml:space="preserve">
<title>Layer 1</title>
<g>
	<ellipse id="svg_3" fill="#0000FF" cx="-182.6" cy="551.1" rx="0" ry="11.5"/>
	<ellipse id="svg_4" fill="#0000FF" cx="-181.5" cy="552.2" rx="0" ry="5.2"/>
	<g>
		<g>
			
				<linearGradient id="path6712_8_" gradientUnits="userSpaceOnUse" x1="-1263.7312" y1="302.3815" x2="-947.0059" y2="302.3815" gradientTransform="matrix(1.0496 0 0 -1.0496 62.4922 971.701)">
				<stop  offset="0" style="stop-color:#77B2C6"/>
				<stop  offset="0.5" style="stop-color:#349AB4"/>
				<stop  offset="1" style="stop-color:#0089A6"/>
			</linearGradient>
			<path id="path6712" fill="url(#path6712_8_)" d="M-941.1,692.9c-12.1,18.4-28.3,25.7-46.4,25.7c-22.9,0-43.7-14.8-55.7-42.6
				c-11.9,28.5-32.8,42.6-56,42.6c-22.9,0-43.6-15-55.6-42.9c-11.9,28.7-32.8,42.9-56.3,42.9c-17,0-32.5-6.1-44.1-22.4l-8.8-100.3
				c12.1,25.3,31.4,41.8,53,41.8c23.5,0,44.4-18.2,56.3-46.9c12,27.9,32.6,46.9,55.6,46.9c23.1,0,44.1-18.2,56-46.6
				c12,27.9,32.8,46.6,55.7,46.6c23.4,0,44.1-19,55.8-47.7L-941.1,692.9z"/>
			
				<linearGradient id="svg_1_8_" gradientUnits="userSpaceOnUse" x1="-1051.0812" y1="303.0737" x2="-734.3558" y2="303.0737" gradientTransform="matrix(1.0496 0 0 -1.0496 62.4922 971.701)">
				<stop  offset="0" style="stop-color:#77B2C6"/>
				<stop  offset="0.5" style="stop-color:#349AB4"/>
				<stop  offset="1" style="stop-color:#0089A6"/>
			</linearGradient>
			<path id="svg_1" fill="url(#svg_1_8_)" d="M-717.9,692.2c-12.1,18.4-28.3,25.7-46.4,25.7c-22.9,0-43.7-14.8-55.7-42.6
				c-11.9,28.5-32.8,42.6-56,42.6c-22.9,0-43.6-15-55.6-42.9c-11.9,28.7-32.8,42.9-56.3,42.9c-17,0-32.5-6.1-44.1-22.4l-8.8-100.3
				c12.1,25.3,31.4,41.8,53,41.8c23.5,0,44.4-18.2,56.3-46.9c12,27.9,32.6,46.9,55.6,46.9c23.1,0,44.1-18.2,56-46.6
				c12,27.9,32.8,46.6,55.7,46.6c23.4,0,44.1-19,55.8-47.7L-717.9,692.2z"/>
		</g>
		<g>
			
				<linearGradient id="path6712_9_" gradientUnits="userSpaceOnUse" x1="-837.8539" y1="301.9199" x2="-521.1287" y2="301.9199" gradientTransform="matrix(1.0496 0 0 -1.0496 62.4922 971.701)">
				<stop  offset="0" style="stop-color:#77B2C6"/>
				<stop  offset="0.5" style="stop-color:#349AB4"/>
				<stop  offset="1" style="stop-color:#0089A6"/>
			</linearGradient>
			<path id="path6712_1_" fill="url(#path6712_9_)" d="M-494.1,693.4c-12.1,18.4-28.3,25.7-46.4,25.7c-22.9,0-43.7-14.8-55.7-42.6
				c-11.9,28.5-32.8,42.6-56,42.6c-22.9,0-43.6-15-55.6-42.9c-11.9,28.7-32.8,42.9-56.3,42.9c-17,0-32.5-6.1-44.1-22.4l-8.8-100.3
				c12.1,25.3,31.4,41.8,53,41.8c23.5,0,44.4-18.2,56.3-46.9c12,27.9,32.6,46.9,55.6,46.9c23.1,0,44.1-18.2,56-46.6
				c12,27.9,32.8,46.6,55.7,46.6c23.4,0,44.1-19,55.8-47.7L-494.1,693.4z"/>
			
				<linearGradient id="svg_1_9_" gradientUnits="userSpaceOnUse" x1="-625.3192" y1="302.7276" x2="-308.5939" y2="302.7276" gradientTransform="matrix(1.0496 0 0 -1.0496 62.4922 971.701)">
				<stop  offset="0" style="stop-color:#77B2C6"/>
				<stop  offset="0.5" style="stop-color:#349AB4"/>
				<stop  offset="1" style="stop-color:#0089A6"/>
			</linearGradient>
			<path id="svg_1_1_" fill="url(#svg_1_9_)" d="M-271,692.6c-12.1,18.4-28.3,25.7-46.4,25.7c-22.9,0-43.7-14.8-55.7-42.6
				c-11.9,28.5-32.8,42.6-56,42.6c-22.9,0-43.6-15-55.6-42.9c-11.9,28.7-32.8,42.9-56.3,42.9c-17,0-32.5-6.1-44.1-22.4l-8.8-100.3
				c12.1,25.3,31.4,41.8,53,41.8c23.5,0,44.4-18.2,56.3-46.9c12,27.9,32.6,46.9,55.6,46.9c23.1,0,44.1-18.2,56-46.6
				c12,27.9,32.8,46.6,55.7,46.6c23.4,0,44.1-19,55.8-47.7L-271,692.6z"/>
		</g>
		<g>
			
				<linearGradient id="path6712_10_" gradientUnits="userSpaceOnUse" x1="-408.6306" y1="301.5738" x2="-91.9054" y2="301.5738" gradientTransform="matrix(1.0496 0 0 -1.0496 62.4922 971.701)">
				<stop  offset="0" style="stop-color:#77B2C6"/>
				<stop  offset="0.5" style="stop-color:#349AB4"/>
				<stop  offset="1" style="stop-color:#0089A6"/>
			</linearGradient>
			<path id="path6712_2_" fill="url(#path6712_10_)" d="M-43.5,693.8c-12.1,18.4-28.3,25.7-46.4,25.7c-22.9,0-43.7-14.8-55.7-42.6
				c-11.9,28.5-32.8,42.6-56,42.6c-22.9,0-43.6-15-55.6-42.9c-11.9,28.7-32.8,42.9-56.3,42.9c-17,0-32.5-6.1-44.1-22.4l-8.8-100.3
				c12.1,25.3,31.4,41.8,53,41.8c23.5,0,44.4-18.2,56.3-46.9c12,27.9,32.6,46.9,55.6,46.9c23.1,0,44.1-18.2,56-46.6
				c12,27.9,32.8,46.6,55.7,46.6c23.4,0,44.1-19,55.8-47.7L-43.5,693.8z"/>
			
				<linearGradient id="svg_1_10_" gradientUnits="userSpaceOnUse" x1="-195.9805" y1="302.3815" x2="120.7447" y2="302.3815" gradientTransform="matrix(1.0496 0 0 -1.0496 62.4922 971.701)">
				<stop  offset="0" style="stop-color:#77B2C6"/>
				<stop  offset="0.5" style="stop-color:#349AB4"/>
				<stop  offset="1" style="stop-color:#0089A6"/>
			</linearGradient>
			<path id="svg_1_2_" fill="url(#svg_1_10_)" d="M179.7,692.9c-12.1,18.4-28.3,25.7-46.4,25.7c-22.9,0-43.7-14.8-55.7-42.6
				c-11.9,28.5-32.8,42.6-56,42.6c-22.9,0-43.6-15-55.6-42.9c-11.9,28.7-32.8,42.9-56.3,42.9c-17,0-32.5-6.1-44.1-22.4l-8.8-100.3
				c12.1,25.3,31.4,41.8,53,41.8c23.5,0,44.4-18.2,56.3-46.9c12,27.9,32.6,46.9,55.6,46.9c23.1,0,44.1-18.2,56-46.6
				c12,27.9,32.8,46.6,55.7,46.6c23.4,0,44.1-19,55.8-47.7L179.7,692.9z"/>
		</g>
		<g>
			
				<linearGradient id="path6712_11_" gradientUnits="userSpaceOnUse" x1="10.3236" y1="301.1123" x2="327.0488" y2="301.1123" gradientTransform="matrix(1.0496 0 0 -1.0496 62.4922 971.701)">
				<stop  offset="0" style="stop-color:#77B2C6"/>
				<stop  offset="0.5" style="stop-color:#349AB4"/>
				<stop  offset="1" style="stop-color:#0089A6"/>
			</linearGradient>
			<path id="path6712_3_" fill="url(#path6712_11_)" d="M396.2,694.3c-12.1,18.4-28.3,25.7-46.4,25.7c-22.9,0-43.7-14.8-55.7-42.6
				c-11.9,28.5-32.8,42.6-56,42.6c-22.9,0-43.6-15-55.6-42.9c-11.9,28.7-32.8,42.9-56.3,42.9c-17,0-32.5-6.1-44.1-22.4l-8.8-100.3
				c12.1,25.3,31.4,41.8,53,41.8c23.5,0,44.4-18.2,56.3-46.9c12,27.9,32.6,46.9,55.6,46.9c23.1,0,44.1-18.2,56-46.6
				c12,27.9,32.8,46.6,55.7,46.6c23.4,0,44.1-19,55.8-47.7L396.2,694.3z"/>
			
				<linearGradient id="svg_1_11_" gradientUnits="userSpaceOnUse" x1="222.743" y1="301.9199" x2="539.4682" y2="301.9199" gradientTransform="matrix(1.0496 0 0 -1.0496 62.4922 971.701)">
				<stop  offset="0" style="stop-color:#77B2C6"/>
				<stop  offset="0.5" style="stop-color:#349AB4"/>
				<stop  offset="1" style="stop-color:#0089A6"/>
			</linearGradient>
			<path id="svg_1_3_" fill="url(#svg_1_11_)" d="M619.3,693.4c-12.1,18.4-28.3,25.7-46.4,25.7c-22.9,0-43.7-14.8-55.7-42.6
				c-11.9,28.5-32.8,42.6-56,42.6c-22.9,0-43.6-15-55.6-42.9c-11.9,28.7-32.8,42.9-56.3,42.9c-17,0-32.5-6.1-44.1-22.4l-9-100.3
				c12.1,25.3,31.4,41.8,53,41.8c23.5,0,44.4-18.2,56.3-46.9c12,27.9,32.6,46.9,55.6,46.9c23.1,0,44.1-18.2,56-46.6
				c12,27.9,32.8,46.6,55.7,46.6c23.4,0,44.1-19,55.8-47.7L619.3,693.4z"/>
		</g>
	</g>
	<g>
		
			<linearGradient id="SVGID_1_" gradientUnits="userSpaceOnUse" x1="-1280.432" y1="500.1111" x2="456.4224" y2="500.1111" gradientTransform="matrix(-1.0496 0 0 -1.0496 -863.1628 971.701)">
			<stop  offset="0" style="stop-color:#326E84"/>
			<stop  offset="0.3146" style="stop-color:#627091"/>
			<stop  offset="0.7036" style="stop-color:#A4ACC3"/>
			<stop  offset="0.9783" style="stop-color:#ABA97F"/>
		</linearGradient>
		<rect x="-1342.2" y="227.8" fill="url(#SVGID_1_)" width="1823" height="437.9"/>
		<g>
			<g>
				<path fill="#787574" d="M-1161.5,591.9c-2.2,0.2-3.3-0.3-5.2-2.3c-3-3.2-6.3-8.4-12.4-7c-1.7,0-3.5-0.1-5.1,0.2
					c-4.6,0.6-6.6-1-6.2-5.9c0.4-4.6,0.1-9.2,0.1-13.7c-3.9,0.9-2.1,4.4-2.9,6.7c-1.4,3.9,1.5,9.4-1.6,12c-3.2,2.7-8.5,0.2-12.9,1.1
					c-0.3,5.2,4.1,9.3,3.6,14.5c14.2,0.1,28.5,0.1,42.7,0.2C-1161.5,595.7-1161.5,593.8-1161.5,591.9z"/>
				<path fill="#A6A6A6" d="M-1225,273.1c0-6.6,0-13.1,0-19.7c-0.8,0-1.5,0-2.3,0c0,6.8,0,13.6,0,20.4c0,2-0.7,4.3,2,5.3
					C-1225.3,277.1-1225.2,275.1-1225,273.1z"/>
				<path fill="#EF9696" d="M-1265.4,507.7c-1.2,25-2.3,49.9-3.5,74.9c2.7,0.1,5.3,0.1,8,0.2c4.2-0.1,8.5-0.1,12.7-0.2
					c0-24.6,0.1-49.2,0.1-73.7c-1.2-0.4-2.7,0.2-3.6-1.3C-1256.2,507.7-1260.8,507.7-1265.4,507.7z"/>
				<path fill="#EFEEEE" d="M-1265.4,507.7c4.6,0,9.2-0.1,13.8-0.1c1.3-1.7,3.2-1.4,4.8-1.1c5,0.7,6.7-2.1,6.7-6.3
					c-0.1-15.7,2.9-31.3,2.4-47c-3.4-0.2-6.8-0.4-10.2-0.6c-5,0.9-9.9,0.5-14.9,0.2C-1264.4,471.1-1265.4,489.4-1265.4,507.7z"/>
				<path fill="#EFEEEE" d="M-1253.8,331.8c-3.5,4-3.5,13.4-0.1,17.5c-0.1,1.9,0.3,3.3,2.7,3.4c3.4,0.2,6.7,0.7,10.1,1
					c1.9-0.3,3.7-0.6,5.6-1c0.9,15.1-2.5,29.9-2.2,45c-2.4,0.3-4.8,0.6-7.1,0.9c-5.2-1.5-10.4-0.8-15.6-0.4c-0.1-1.3-0.6-2.7-0.3-4
					c2.4-10.9-0.1-22.1,2.1-33.1c1.4-7,0.4-8.1-6.2-8.4c-2.9-0.1-4.1-1.1-4-4.1c0.1-5.6,0-11.1,0.1-16.7c0-1.3-0.1-3.3,1.5-3.2
					c4.5,0.2,8.9-3.1,13.4-0.4C-1253.9,329.6-1253.9,330.7-1253.8,331.8z M-1266.5,346.1c0.1,2,1.4,3.1,3.4,3.1
					c1.7,0,3.1-0.9,3.2-2.6c0.2-4,0.3-8,0-12c-0.1-2-1.7-3.6-3.9-3.5c-2.5,0.1-2.8,2.2-2.8,4.2c0,1.7,0,3.4,0,5.1c0,0,0,0,0.1,0
					C-1266.6,342.3-1266.7,344.2-1266.5,346.1z"/>
				<path fill="#EF9696" d="M-1244.9,398.7c-5.2-1.5-10.4-0.8-15.6-0.4c-0.8,18.2-1.6,36.4-2.4,54.5c5,0.2,10,0.7,14.9-0.2
					C-1245.9,434.7-1246.3,416.7-1244.9,398.7z"/>
				<path fill="#979393" d="M-1204.2,597.5c0.5-5.3-3.8-9.3-3.6-14.5c-3.8-0.1-7.6-0.2-11.4-0.4c-3.9,0-7.7,0-11.6,0
					c-2,0.1-3.9,0.2-5.9,0.3c-0.3,4.9-3,9.5-2.2,14.6C-1227.3,597.5-1215.7,597.5-1204.2,597.5z"/>
				<path fill="#A6A6A6" d="M-1238.9,597.5c-0.8-5.1,1.9-9.7,2.2-14.6c-3.8-0.1-7.7-0.1-11.5-0.2c-4.2,0.1-8.5,0.1-12.7,0.2
					c-0.5,5.7-6,9.2-6.9,14.7C-1258.1,597.5-1248.5,597.5-1238.9,597.5z"/>
				<path fill="#B95252" d="M-1212.3,285.1c-2.9-2-6.7,1-9.5-1.6c-1.1,0-2.2,0-3.3,0c-1.2,0.3-2.4,0.6-3.6,0.9
					c0.1,4.6,0.1,9.3,0.2,13.9c3.7,0.1,7.5,0.3,11.2,0.2c2.7-0.1,3.4,1,2.4,3.3c1.5,1,1.8,2.1,0.5,3.5l-0.2,0.4l0,0.5
					c0.1,0.5,0.2,1,0.3,1.6c0.1,0.1,0.2,0.2,0.2,0.3c0,0.2-0.1,0.4-0.2,0.7c0,0.8,0,1.6,0,2.4c1,4.3,1.4,8.6-0.3,12.8
					c-0.1,0.8-0.1,1.7-0.2,2.5c0.7,0.2,0.8,0.7,0.6,1.3l-0.2,0.4c0.6,0,1.2,0.1,1.8,0.1c0.1-0.9,0.4-1.7,1.4-2.1
					c-2.4-8-1.1-16.2-0.8-24.3c-0.2-1.1-0.3-2.1-0.5-3.2C-1212.4,294.1-1210.4,289.6-1212.3,285.1z"/>
				<path fill="#BDBDBD" d="M-1267.7,597.5c0.9-5.5,6.4-9,6.9-14.7c-2.7-0.1-5.3-0.1-8-0.2c-6.2-1.1-9,4-12.7,7.3
					c-0.4,0.3-0.4,1.3-0.8,1.4c-2.5,0.8-5.1,1.7-3.6,4.9c1.2,2.6,4.1,1.3,6.2,1.4C-1275.8,597.8-1271.7,597.6-1267.7,597.5z"/>
				<path fill="#D5D4D4" d="M-1254,328.5c0.1,1.1,0.1,2.2,0.2,3.4c4.7,5,1.4,11,1.8,16.5c0,0.3-1.2,0.7-1.8,1
					c-0.1,1.9,0.3,3.3,2.7,3.4c3.4,0.2,6.7,0.7,10.1,1c0-1.5-0.1-2.9-0.1-4.4c-3.1,0-4.6-1.4-4.5-4.5c0.1-2.3,0.2-4.6,0-6.9
					c-0.5-4.5,1.4-6.5,5.9-6c-0.4-1.2-0.8-2.3-1.3-3.5c-2.8,0-5.5-0.1-8.3-0.1c-0.6,0-1.1,0-1.7-0.1
					C-1252.1,328.4-1253,328.4-1254,328.5z"/>
				<path fill="#EF9696" d="M-1251.2,328.4c0.6,0,1.1,0,1.7,0.1c0-6.1,0.1-12.3,0.1-18.4c0-11,0-11,10.6-12
					c-1.9-3.6-0.9-7.6-1.4-11.4c-5,0-7.5,4.2-11,6.6c-0.7,0.5-1.3,1.8-1.1,2.5C-1250,306.6-1252.2,317.5-1251.2,328.4z"/>
				<path fill="#D47272" d="M-1240.3,286.6c0.6,3.8-0.5,7.8,1.4,11.4c1.2,0.1,2.3,0.2,3.5,0.4c0.8,0.1,1.5,0.1,2.3,0.2
					c1.5-0.1,3-0.2,4.6-0.3c-0.1-4.6-0.1-9.3-0.2-13.9C-1232.7,284.2-1236.6,284.8-1240.3,286.6z"/>
				<path fill="#787574" d="M-1225,283.5c1.1,0,2.2,0,3.3,0c0.1-2.5,0.1-5,0.2-7.4c0.2-2.8-1.4-3.2-3.6-2.9c-0.1,2-0.2,4-0.3,6
					C-1225.3,280.6-1225.1,282-1225,283.5z"/>
				<path fill="#8A1111" d="M-1190.4,563.1c0,4.6,0.3,9.2-0.1,13.7c-0.4,4.9,1.6,6.6,6.2,5.9c1.7-0.2,3.4-0.1,5.1-0.2
					c-1.1-25-2.2-50-3.3-75c-4.2-0.1-8.4-0.2-12.6-0.3c-0.4,0.1-0.7,0.3-1.1,0.4c0,6.7,0.2,13.5-0.1,20.2c-0.2,4.7,1.2,9.6-1.1,14.2
					C-1190.4,547.6-1189.5,555-1190.4,563.1z"/>
				<path fill="#979393" d="M-1198.3,398.6c-0.8-0.2-1.6-0.5-2.5-0.7c1.1-12.7,2.1-25.4,3.2-38c0.3-3.6,1-7.2-4.5-7.2
					c-2.1,0-2.2-1.7-2.3-3.3c2.6-4.6,1.1-9.6,1.3-14.5c0.1-2.5-2.6-1.7-3.7-2.8c2.1-0.2,2.6-1.6,2.5-3.4c1.9-0.1,3.8-0.2,5.7-0.4
					c0.9,0,1.8-0.1,2.3-0.9c4.8,0.1,9.6,0.3,14.3,0.2c3.4,0,4.9,1.4,4.8,4.8c-0.2,4.8-0.3,9.6,0,14.4c0.3,4.6-1,7-6,6.2
					c-4.1-0.7-5.3,1.1-5.1,5.1c0.6,13.2,1,26.4,1.4,39.6C-1190.6,398-1194.4,398.3-1198.3,398.6z M-1191.5,345.9
					c0.4-3.6,0.4-7.3,0-10.9c-0.3-3.2-1.9-4.7-4.8-1.8c-3.1,3.1-3.1,11.7,0,15C-1193.2,350.9-1191.8,348.8-1191.5,345.9z
					 M-1182.6,349.9c4.4-0.1,4-5.3,3.7-8.8c-0.3-3.5,2.2-9.4-4-9.3c-5.9,0-3,5.8-3.8,8.4C-1186.7,344.5-1187.8,349.9-1182.6,349.9z"
					/>
				<path fill="#8A1111" d="M-1186.7,397.7c-3.9,0.3-7.7,0.6-11.6,0.9c-0.4,9-1.4,18.1-1.2,27.1c0.2,9-2.2,17.8-1.1,26.8
					c2.6,0.2,5.3,0.5,7.9,0.7c2.6-0.1,5.3-0.1,7.9-0.2c0.7-8.4-0.3-16.8-0.5-25.2c-0.2-8.2-0.3-16.5-0.5-24.7
					C-1185.8,401.3-1185,399.3-1186.7,397.7z"/>
				<path fill="#979393" d="M-1184.8,453.1c-2.6,0.1-5.3,0.1-7.9,0.2c0.6,18.1-3.6,36-2.4,54.1c4.2,0.1,8.4,0.2,12.6,0.3
					C-1182.5,489.4-1183.2,471.2-1184.8,453.1z"/>
				<path fill="#9F2B2B" d="M-1212.3,285.1c1.8,4.5-0.1,9,0,13.6c2.7-0.2,5.4-0.4,8.1-0.6c-0.2-3.3-0.1-6.7,1.1-9.9
					C-1205.8,286.1-1209.1,285.7-1212.3,285.1z"/>
				<path fill="#8A1111" d="M-1203.1,288.2c-1.3,3.2-1.3,6.5-1.1,9.9c1.9,0.2,3.7,0.4,5.6,0.6c0.9-0.4,1.7-0.8,2.6-1.2
					C-1195.2,293.1-1196.9,290.9-1203.1,288.2z"/>
				<path fill="#B95252" d="M-1196,297.4c-0.9,0.4-1.7,0.8-2.6,1.2c0,9.9,0.1,19.8,0.1,29.8c0.9,0,1.8-0.1,2.3-0.9
					C-1196.1,317.4-1196.1,307.4-1196,297.4z"/>
				<path fill="#6A3A13" d="M-1190.4,563.1c1-8.1,0.1-15.5-6.9-21c-4.2-0.9-8.1-3-12.6-2.1c-6.7,4-9.5,10-9.3,17.8
					c0.2,8.2,0,16.5,0,24.7c3.8,0.1,7.6,0.2,11.4,0.4c4.3-0.9,9.7,1.6,12.9-1.1c3.1-2.6,0.2-8.1,1.6-12
					C-1192.5,567.5-1194.3,564-1190.4,563.1z"/>
				<path fill="#D47272" d="M-1248.2,582.6c3.8,0.1,7.7,0.1,11.5,0.2c2-0.1,3.9-0.2,5.9-0.3c-0.6-2.4-1.3-4.8-1.2-7.3
					c0.1-22.5,0.1-45,0.1-67.5c-5.5-0.9-10.7,1.8-16.1,1.1C-1248.1,533.5-1248.1,558-1248.2,582.6z"/>
				<path fill="#D5D4D4" d="M-1248,508.9c5.5,0.7,10.7-2.1,16.1-1.1c2.7-0.1,5.3-0.2,8-0.3c-0.8-10.6,1-21.1,1.4-31.6
					c0.3-7.5,0.1-15.2,2.1-22.6c-3.8-0.2-7.6-0.5-11.4-0.7c-2,0.2-3.9,0.4-5.9,0.6c0.5,15.7-2.5,31.3-2.4,47c0,4.2-1.7,7-6.7,6.3
					c-1.6-0.2-3.5-0.5-4.8,1.1C-1250.8,509.1-1249.2,508.5-1248,508.9z"/>
				<path fill="#D47272" d="M-1237.7,453.2c2-0.2,3.9-0.4,5.9-0.6c-0.8-9.1,0.7-18,1.6-27c0.1-5.5,0.3-11.1,0.4-16.6
					c0.1-3.2,0.1-6.5,0.2-9.7c-2.7-0.4-5.4-0.9-8.1-1.3c-2.4,0.3-4.8,0.6-7.1,0.9c-1.4,18-1,36-3.1,53.9
					C-1244.6,452.8-1241.1,453-1237.7,453.2z"/>
				<path fill="#BDBDBD" d="M-1241.2,328.5c0.4,1.2,0.8,2.3,1.3,3.5c2.4,3,3.3,13.6,1.2,16.3c-0.5,0.6-1.6,0.8-2.5,1.1
					c0,1.5,0.1,2.9,0.1,4.4c1.9-0.3,3.7-0.6,5.6-1c3.7-1.4,7.2-0.5,10.7,1c1.5,0.7,2,1.4,2.1,2.9c0.1,2.3-1,3.1-3.1,2.8
					c0.2,5.2,0.4,10.5,0.6,15.7c1,2.1,1.5,4.3,1.4,6.6c-0.4,5.7-0.8,11.3-1.2,17c4.3,0.1,8.5,0.2,12.8,0.3c0.8-0.4,1.5-0.8,2.3-1.2
					c0.3-4.7,0.7-9.3,0.9-14c0.3-8.9,1.7-17.7,1.4-26.7c-0.1-3.1-1.3-4.6-4.5-4.5c-2.2,0-4.9,0.7-4.9-3c-5.3-1.9-6.6-12.5-2.2-17.9
					c0.8-1.1,2.5-1.6,2.1-3.4c-3-0.5-5.9-1.5-8.9-0.1c-2.2,0.2-2.7,1.6-2.5,3.5c4.1,4.8,1.9,10.4,1.6,15.6c-0.1,1.3-1.7,1.9-3.2,1.8
					c-1.5-0.1-2.8-0.9-2.8-2.3c0-5-1.4-10.1,0.9-15c0.9-1.8,1.5-3.3-1.5-3.5c-1.8-0.1-3.9,0.7-5.4-1.1
					C-1239.7,327.8-1240.4,328.1-1241.2,328.5z"/>
				<path fill="#D5D4D4" d="M-1225.9,359.6c2.1,0.2,3.2-0.6,3.1-2.8c-0.1-1.5-0.6-2.2-2.1-2.9c-3.5-1.6-6.9-2.4-10.7-1
					c0.9,15.1-2.5,29.9-2.2,45c2.7,0.4,5.4,0.9,8.1,1.3c1.5-0.1,3-0.2,4.5-0.3c0.4-5.7,0.8-11.3,1.2-17c0.2-2.3-0.3-4.5-1.4-6.6
					c-2.6,1.4-5.1,0.9-4.2-2.3C-1228.2,368.5-1234,362.1-1225.9,359.6z"/>
				<path fill="#FDFDFD" d="M-1266.6,340.4c0,1.9-0.1,3.8,0,5.7c0.1,2,1.4,3.1,3.4,3.1c1.7,0,3.1-0.9,3.2-2.6c0.2-4,0.3-8,0-12
					c-0.1-2-1.7-3.6-3.9-3.5c-2.5,0.1-2.8,2.2-2.8,4.2C-1266.6,337-1266.6,338.7-1266.6,340.4
					C-1266.6,340.4-1266.6,340.4-1266.6,340.4z"/>
				<path fill="#FEFEFE" d="M-1253.9,349.3c0.6-0.3,1.8-0.7,1.8-1c-0.3-5.5,3-11.4-1.8-16.5
					C-1257.3,335.9-1257.3,345.3-1253.9,349.3z"/>
				<path fill="#B95252" d="M-1223.9,507.4c-2.7,0.1-5.3,0.2-8,0.3c0,22.5,0,45-0.1,67.5c0,2.6,0.6,4.9,1.2,7.3c3.9,0,7.7,0,11.6,0
					c0-8.2,0.2-16.5,0-24.7c-0.2-7.8,2.6-13.8,9.3-17.8c0-7.9-0.2-15.8,0-23.7c0-2.6-1.1-5.4,1.2-7.7c0-0.4-0.1-0.8-0.1-1.2
					C-1213.9,507.5-1218.9,507.5-1223.9,507.4z"/>
				<path fill="#A6A6A6" d="M-1217,349.7c-0.1,3.7,2.7,3.1,4.9,3c3.2,0,4.4,1.5,4.5,4.5c0.3,8.9-1.1,17.8-1.4,26.7
					c-0.2,4.7-0.6,9.3-0.9,14c3.1,0,6.1,0,9.2,0c1.1-12.7,2.1-25.4,3.2-38c0.3-3.6,1-7.2-4.5-7.2c-2.1,0-2.2-1.7-2.3-3.3
					c-2.7,0.2-5.2-0.1-5.4-3.5c-0.2-3.6-0.1-7.3,0-10.9c0-1.8,1.1-2.8,3-2.8c2.1-0.2,2.6-1.6,2.5-3.4c-1.1-0.5-2.3-0.9-3.4-1.4
					c-1.3,1.7-3.1,1.2-4.8,1c-0.6,0-1.2-0.1-1.8-0.1c-1,0.1-1.9,0.2-2.9,0.2c0.4,1.8-1.3,2.3-2.1,3.4c1.4,0.3,3.1-0.2,4.2,1.3
					C-1213.4,335.4-1214.8,347.1-1217,349.7z"/>
				<path fill="#FDED67" d="M-1217.1,328.4c1-0.1,1.9-0.1,2.9-0.2c0,0,0.2-0.4,0.2-0.4c-0.2-0.4-0.4-0.9-0.6-1.3
					c0.1-0.8,0.1-1.7,0.2-2.5c-0.7-4.3,0-8.5,0.3-12.8c0-0.8,0-1.6,0-2.4c-0.2-0.3-0.2-0.6,0-1c-0.1-0.5-0.2-1-0.3-1.6
					c-0.3-0.1-0.5-0.2-0.8-0.2c0.2-0.1,0.5-0.2,0.7-0.3c0,0,0.2-0.4,0.2-0.4c-0.6-0.7-1.1-1.5-1.7-2.2c-5.3-1.2-10.6,0.1-15.9,0
					c-0.4,8-4,16.7,5,22.6c0.6,0.4,0.6,1.7,0.9,2.6C-1223,326.9-1220,327.9-1217.1,328.4z"/>
				<path fill="#FDFDFD" d="M-1207.6,327.3c1.1,0.5,2.3,0.9,3.4,1.4c1.9-0.1,3.8-0.2,5.7-0.4c0-9.9-0.1-19.8-0.1-29.8
					c-1.9-0.2-3.7-0.4-5.6-0.6c-2.7,0.2-5.4,0.4-8.1,0.6c0.2,1.1,0.3,2.1,0.5,3.2c2.5,0.7,3,2.7,3,4.8c-0.1,6.5,1.5,13-1,19.3
					C-1208.9,326.2-1208,326.3-1207.6,327.3z"/>
				<path fill="#FDED67" d="M-1209.8,326c2.5-6.3,0.9-12.9,1-19.3c0-2.2-0.4-4.2-3-4.8c-0.4,8.1-1.6,16.3,0.8,24.3
					C-1210.6,326.1-1210.2,326.1-1209.8,326z"/>
				<path fill="#FDFDFD" d="M-1231.9,303.1c5.3,0.1,10.6-1.2,15.9,0c0.4-0.4,0.8-0.8,1.1-1.3c1-2.4,0.3-3.4-2.4-3.3
					c-3.7,0.1-7.5-0.1-11.2-0.2c-1.5,0.1-3,0.2-4.6,0.3C-1233.6,300.3-1232.5,301.7-1231.9,303.1z"/>
				<path fill="#D47272" d="M-1214.2,311.2c-0.3,4.3-1,8.5-0.3,12.8C-1212.8,319.7-1213.2,315.5-1214.2,311.2z"/>
				<path fill="#D47272" d="M-1209.8,326c-0.4,0-0.8,0.1-1.2,0.1c-0.9,0.4-1.2,1.2-1.4,2.1c1.7,0.2,3.5,0.7,4.8-1
					C-1208,326.3-1208.9,326.2-1209.8,326z"/>
				<path fill="#D47272" d="M-1214.8,301.8c-0.4,0.4-0.8,0.8-1.1,1.3c0.5,0.7,1.1,1.5,1.7,2.2
					C-1213,303.9-1213.3,302.8-1214.8,301.8z"/>
				<path fill="#D47272" d="M-1214.5,305.7c-0.2,0.1-0.5,0.2-0.7,0.3c0.3,0.1,0.5,0.2,0.8,0.2
					C-1214.5,306.2-1214.5,305.7-1214.5,305.7z"/>
				<path fill="#D47272" d="M-1214.2,307.8c-0.2,0.3-0.2,0.6,0,1c0.1-0.2,0.2-0.4,0.2-0.7C-1213.9,308-1214.1,307.9-1214.2,307.8z"
					/>
				<path fill="#D47272" d="M-1214.6,326.5c0.2,0.4,0.4,0.9,0.6,1.3C-1213.8,327.1-1213.9,326.7-1214.6,326.5z"/>
				<path fill="#FDFDFD" d="M-1241.2,328.5c0.8-0.4,1.5-0.8,2.3-1.1c3.5-2.3,1.9-5.5,1.7-8.5c-3.4-2.6-2.3-13.2,1.6-15.8
					c0.1-1.6,0.2-3.1,0.3-4.7c-1.2-0.1-2.3-0.2-3.5-0.4c-10.6,1-10.6,1-10.6,12c0,6.1-0.1,12.3-0.1,18.4
					C-1246.7,328.5-1244,328.5-1241.2,328.5z"/>
				<path fill="#EF9696" d="M-1241.3,349.4c0.8-0.4,2-0.5,2.5-1.1c2.1-2.6,1.2-13.3-1.2-16.3c-4.5-0.5-6.3,1.5-5.8,6
					c0.2,2.3,0.1,4.6,0,6.9C-1245.9,348-1244.3,349.4-1241.3,349.4z"/>
				<path fill="#EF9696" d="M-1235.3,298.4c-0.1,1.6-0.2,3.1-0.3,4.7c-0.4,5.3,1.7,10.8-1.6,15.8c0.2,3,1.8,6.2-1.7,8.5
					c1.5,1.7,3.6,1,5.4,1.1c3,0.2,2.4,1.7,1.5,3.5c1.2,0,2.4-0.1,3.5-0.1c-0.2-1.9,0.2-3.3,2.5-3.5c-0.3-0.9-0.3-2.2-0.9-2.6
					c-9-5.9-5.5-14.6-5-22.6c-0.6-1.5-1.7-2.8-1.1-4.6C-1233.8,298.5-1234.5,298.4-1235.3,298.4z"/>
				<path fill="#A6A6A6" d="M-1195,507.3c-1.2-18.1,2.9-36,2.4-54.1c-2.6-0.2-5.3-0.5-7.9-0.7c-1.6,0.2-3.2,0.5-4.8,0.7
					c-1.1,17.7-2.3,35.5-3.4,53.2c2.3,0.4,4.9-1,6.9,1.2c1.9,0,3.9,0.1,5.8,0.1C-1195.8,507.6-1195.4,507.4-1195,507.3z"/>
				<path fill="#9F2B2B" d="M-1196.1,507.7c-1.9,0-3.9-0.1-5.8-0.1c-2,2.1-4.6,0.8-6.9,1c-2.3,2.2-1.2,5.1-1.2,7.7
					c-0.1,7.9,0,15.8,0,23.7c4.5-0.9,8.4,1.2,12.6,2.1c2.3-4.6,0.9-9.5,1.1-14.2C-1196,521.2-1196.1,514.5-1196.1,507.7z"/>
				<path fill="#9F2B2B" d="M-1205.4,453.2c1.6-0.2,3.2-0.5,4.8-0.7c-1-9,1.3-17.8,1.1-26.8c-0.2-9,0.7-18.1,1.2-27.1
					c-0.8-0.2-1.6-0.5-2.5-0.7c-3.1,0-6.1,0-9.2,0c-0.8,0.4-1.5,0.8-2.3,1.2c-0.8,17.9-1.5,35.7-2.3,53.6
					C-1211.5,452.9-1208.5,453-1205.4,453.2z"/>
				<path fill="#EFEEEE" d="M-1186.8,340.1c0.1,4.5-1,9.8,4.1,9.8c4.4-0.1,4-5.3,3.7-8.8c-0.3-3.5,2.2-9.4-4-9.3
					C-1188.8,331.7-1185.9,337.5-1186.8,340.1z"/>
				<path fill="#9F2B2B" d="M-1206.7,332.1c-1.8,0.1-2.9,1-3,2.8c-0.1,3.6-0.2,7.3,0,10.9c0.2,3.4,2.7,3.7,5.4,3.5
					c2.6-4.6,1.1-9.6,1.3-14.5C-1202.9,332.5-1205.6,333.2-1206.7,332.1z"/>
				<path fill="#FDFDFD" d="M-1196.4,348.1c3.2,2.8,4.6,0.7,4.9-2.2c0.4-3.6,0.4-7.3,0-10.9c-0.3-3.2-1.9-4.7-4.8-1.8
					C-1196.3,338.1-1196.4,343.1-1196.4,348.1z"/>
				<path fill="#B95252" d="M-1196.4,348.1c0-5,0-10,0-15C-1199.4,336.2-1199.5,344.8-1196.4,348.1z"/>
				<path fill="#B95252" d="M-1214.6,452.7c0.8-17.9,1.5-35.7,2.3-53.6c-4.3-0.1-8.5-0.2-12.8-0.3c-1.5,0.1-3,0.2-4.5,0.3
					c-0.1,3.2-0.1,6.5-0.2,9.7c3.2-0.1,4.2,1.8,3.6,4.4c-1,4.1,2.8,9.1-2.3,12.4c-0.4,0.2-1.1-0.1-1.7-0.2c-0.9,9-2.4,17.9-1.6,27
					c3.8,0.2,7.6,0.5,11.4,0.7C-1218.5,453-1216.5,452.9-1214.6,452.7z"/>
				<path fill="#BDBDBD" d="M-1214.6,452.7c-1.9,0.2-3.9,0.4-5.8,0.6c-2,7.4-1.8,15.1-2.1,22.6c-0.4,10.5-2.2,21-1.4,31.6
					c5,0,10,0,15,0.1c0-0.4,0-0.7,0-1.1c1.1-17.7,2.3-35.5,3.4-53.2C-1208.5,453-1211.5,452.9-1214.6,452.7z"/>
				<path fill="#6A3A13" d="M-1230.2,425.5c0.6,0.1,1.3,0.4,1.7,0.2c5.1-3.3,1.3-8.3,2.3-12.4c0.6-2.6-0.4-4.6-3.6-4.4
					C-1229.9,414.4-1230,420-1230.2,425.5z"/>
				<path fill="#B95252" d="M-1217,349.7c2.2-2.6,3.6-14.4,2-16.6c-1.1-1.5-2.8-0.9-4.2-1.3C-1223.6,337.3-1222.3,347.8-1217,349.7z
					"/>
				<path fill="#D47272" d="M-1228.4,331.8c-1.2,0-2.4,0.1-3.5,0.1c-2.3,4.9-0.9,10-0.9,15c0,1.4,1.4,2.2,2.8,2.3
					c1.5,0.1,3.1-0.5,3.2-1.8C-1226.5,342.2-1224.3,336.6-1228.4,331.8z"/>
				<path fill="#787574" d="M-1225.9,359.6c-8.1,2.5-2.4,8.9-3.6,13.4c-0.9,3.2,1.6,3.7,4.2,2.3
					C-1225.4,370-1225.6,364.8-1225.9,359.6z"/>
				<path fill="#979393" d="M-1208.8,506.4c0,0.4-0.1,0.7,0,1.1c0,0.4,0.1,0.8,0.1,1.2c2.3-0.2,4.8,1,6.9-1
					C-1203.9,505.4-1206.5,506.8-1208.8,506.4z"/>
				<path fill="#FDED67" d="M-1237.2,318.9c3.3-5,1.2-10.5,1.6-15.8C-1239.5,305.6-1240.6,316.2-1237.2,318.9z"/>
			</g>
			<g>
				<g>
					
						<linearGradient id="path6712_12_" gradientUnits="userSpaceOnUse" x1="-1289.6626" y1="431.1123" x2="-972.9374" y2="431.1123" gradientTransform="matrix(-1.0496 0 0 -1.0496 -863.1628 971.701)">
						<stop  offset="0" style="stop-color:#5080B1"/>
						<stop  offset="0.1178" style="stop-color:#477DAE"/>
						<stop  offset="0.3137" style="stop-color:#2D73A7"/>
						<stop  offset="0.5621" style="stop-color:#04649C"/>
						<stop  offset="0.5843" style="stop-color:#00639B"/>
						<stop  offset="1" style="stop-color:#004E8C"/>
					</linearGradient>
					<path id="path6712_7_" fill="url(#path6712_12_)" d="M158.1,454.9c11.7,28.7,32.5,47.7,55.8,47.7c22.9,0,43.7-18.8,55.7-46.6
						c11.9,28.5,32.8,46.6,56,46.6c23,0,43.6-19,55.6-46.9c11.9,28.7,32.8,46.9,56.3,46.9c21.7,0,40.9-16.5,53-41.8l-8.8,100.3
						c-11.6,16.3-27.1,22.4-44.1,22.4c-23.5,0-44.4-14.2-56.3-42.9c-12,27.9-32.7,42.9-55.6,42.9c-23.1,0-44.1-14.2-56-42.6
						c-12,27.9-32.8,42.6-55.7,42.6c-18,0-34.3-7.3-46.4-25.7L158.1,454.9z"/>
					
						<linearGradient id="svg_1_12_" gradientUnits="userSpaceOnUse" x1="-1077.0126" y1="431.92" x2="-760.2872" y2="431.92" gradientTransform="matrix(-1.0496 0 0 -1.0496 -863.1628 971.701)">
						<stop  offset="0" style="stop-color:#5080B1"/>
						<stop  offset="0.1178" style="stop-color:#477DAE"/>
						<stop  offset="0.3137" style="stop-color:#2D73A7"/>
						<stop  offset="0.5621" style="stop-color:#04649C"/>
						<stop  offset="0.5843" style="stop-color:#00639B"/>
						<stop  offset="1" style="stop-color:#004E8C"/>
					</linearGradient>
					<path id="svg_1_7_" fill="url(#svg_1_12_)" d="M-65.1,454c11.7,28.7,32.5,47.7,55.8,47.7c22.9,0,43.7-18.8,55.7-46.6
						c11.9,28.5,32.8,46.6,56,46.6c23,0,43.6-19,55.6-46.9c11.9,28.7,32.8,46.9,56.3,46.9c21.7,0,40.9-16.5,53-41.8l-8.8,100.3
						c-11.6,16.3-27.1,22.4-44.1,22.4c-23.5,0-44.4-14.2-56.3-42.9c-12,27.9-32.7,42.9-55.6,42.9c-23.1,0-44.1-14.2-56-42.6
						c-12,27.9-32.8,42.6-55.7,42.6c-18,0-34.3-7.3-46.4-25.7L-65.1,454z"/>
				</g>
				<g>
					
						<linearGradient id="path6712_13_" gradientUnits="userSpaceOnUse" x1="-863.7854" y1="430.6508" x2="-547.0601" y2="430.6508" gradientTransform="matrix(-1.0496 0 0 -1.0496 -863.1628 971.701)">
						<stop  offset="0" style="stop-color:#5080B1"/>
						<stop  offset="0.1178" style="stop-color:#477DAE"/>
						<stop  offset="0.3137" style="stop-color:#2D73A7"/>
						<stop  offset="0.5621" style="stop-color:#04649C"/>
						<stop  offset="0.5843" style="stop-color:#00639B"/>
						<stop  offset="1" style="stop-color:#004E8C"/>
					</linearGradient>
					<path id="path6712_6_" fill="url(#path6712_13_)" d="M-289,455.4c11.7,28.7,32.5,47.7,55.8,47.7c22.9,0,43.7-18.8,55.7-46.6
						c11.9,28.5,32.8,46.6,56,46.6c23,0,43.6-19,55.6-46.9c11.9,28.7,32.8,46.9,56.3,46.9c21.7,0,40.9-16.5,53-41.8l-8.8,100.3
						C23,577.9,7.5,584-9.4,584c-23.5,0-44.4-14.2-56.3-42.9c-12,27.9-32.7,42.9-55.6,42.9c-23.1,0-44.1-14.2-56-42.6
						c-12,27.9-32.8,42.6-55.7,42.6c-18,0-34.3-7.3-46.4-25.7L-289,455.4z"/>
					
						<linearGradient id="svg_1_13_" gradientUnits="userSpaceOnUse" x1="-651.2506" y1="431.4584" x2="-334.5253" y2="431.4584" gradientTransform="matrix(-1.0496 0 0 -1.0496 -863.1628 971.701)">
						<stop  offset="0" style="stop-color:#5080B1"/>
						<stop  offset="0.1178" style="stop-color:#477DAE"/>
						<stop  offset="0.3137" style="stop-color:#2D73A7"/>
						<stop  offset="0.5621" style="stop-color:#04649C"/>
						<stop  offset="0.5843" style="stop-color:#00639B"/>
						<stop  offset="1" style="stop-color:#004E8C"/>
					</linearGradient>
					<path id="svg_1_6_" fill="url(#svg_1_13_)" d="M-512,454.5c11.7,28.7,32.5,47.7,55.8,47.7c22.9,0,43.7-18.8,55.7-46.6
						c11.9,28.5,32.8,46.6,56,46.6c23,0,43.6-19,55.6-46.9c11.9,28.7,32.8,46.9,56.3,46.9c21.7,0,40.9-16.5,53-41.8l-8.8,100.3
						c-11.6,16.3-27.1,22.4-44.1,22.4c-23.5,0-44.4-14.2-56.3-42.9c-12,27.9-32.7,42.9-55.6,42.9c-23.1,0-44.1-14.2-56-42.6
						c-12,27.9-32.8,42.6-55.7,42.6c-18,0-34.3-7.3-46.4-25.7L-512,454.5z"/>
				</g>
				<g>
					
						<linearGradient id="path6712_14_" gradientUnits="userSpaceOnUse" x1="-434.5621" y1="430.3046" x2="-117.8369" y2="430.3046" gradientTransform="matrix(-1.0496 0 0 -1.0496 -863.1628 971.701)">
						<stop  offset="0" style="stop-color:#5080B1"/>
						<stop  offset="0.1178" style="stop-color:#477DAE"/>
						<stop  offset="0.3137" style="stop-color:#2D73A7"/>
						<stop  offset="0.5621" style="stop-color:#04649C"/>
						<stop  offset="0.5843" style="stop-color:#00639B"/>
						<stop  offset="1" style="stop-color:#004E8C"/>
					</linearGradient>
					<path id="path6712_5_" fill="url(#path6712_14_)" d="M-739.5,455.7c11.7,28.7,32.5,47.7,55.8,47.7c22.9,0,43.7-18.8,55.7-46.6
						c11.9,28.5,32.8,46.6,56,46.6c23,0,43.6-19,55.6-46.9c11.9,28.7,32.8,46.9,56.3,46.9c21.7,0,40.9-16.5,53-41.8l-8.8,100.3
						c-11.6,16.3-27.1,22.4-44.1,22.4c-23.5,0-44.4-14.2-56.3-42.9c-12,27.9-32.7,42.9-55.6,42.9c-23.1,0-44.1-14.2-56-42.6
						c-12,27.9-32.8,42.6-55.7,42.6c-18,0-34.3-7.3-46.4-25.7L-739.5,455.7z"/>
					
						<linearGradient id="svg_1_14_" gradientUnits="userSpaceOnUse" x1="-221.9119" y1="431.1123" x2="94.8133" y2="431.1123" gradientTransform="matrix(-1.0496 0 0 -1.0496 -863.1628 971.701)">
						<stop  offset="0" style="stop-color:#5080B1"/>
						<stop  offset="0.1178" style="stop-color:#477DAE"/>
						<stop  offset="0.3137" style="stop-color:#2D73A7"/>
						<stop  offset="0.5621" style="stop-color:#04649C"/>
						<stop  offset="0.5843" style="stop-color:#00639B"/>
						<stop  offset="1" style="stop-color:#004E8C"/>
					</linearGradient>
					<path id="svg_1_5_" fill="url(#svg_1_14_)" d="M-962.7,454.9c11.7,28.7,32.5,47.7,55.8,47.7c22.9,0,43.7-18.8,55.7-46.6
						c11.9,28.5,32.8,46.6,56,46.6c23,0,43.6-19,55.6-46.9c11.9,28.7,32.8,46.9,56.3,46.9c21.7,0,40.9-16.5,53-41.8l-8.8,100.3
						c-11.6,16.3-27.1,22.4-44.1,22.4c-23.5,0-44.4-14.2-56.3-42.9c-12,27.9-32.7,42.9-55.6,42.9c-23.1,0-44.1-14.2-56-42.6
						c-12,27.9-32.8,42.6-55.7,42.6c-18,0-34.3-7.3-46.4-25.7L-962.7,454.9z"/>
				</g>
				<g>
					
						<linearGradient id="path6712_15_" gradientUnits="userSpaceOnUse" x1="-15.6079" y1="429.8431" x2="301.1174" y2="429.8431" gradientTransform="matrix(-1.0496 0 0 -1.0496 -863.1628 971.701)">
						<stop  offset="0" style="stop-color:#5080B1"/>
						<stop  offset="0.1178" style="stop-color:#477DAE"/>
						<stop  offset="0.3137" style="stop-color:#2D73A7"/>
						<stop  offset="0.5621" style="stop-color:#04649C"/>
						<stop  offset="0.5843" style="stop-color:#00639B"/>
						<stop  offset="1" style="stop-color:#004E8C"/>
					</linearGradient>
					<path id="path6712_4_" fill="url(#path6712_15_)" d="M-1179.2,456.2c11.7,28.7,32.5,47.7,55.8,47.7c22.9,0,43.7-18.8,55.7-46.6
						c11.9,28.5,32.8,46.6,56,46.6c23,0,43.6-19,55.6-46.9c11.9,28.7,32.8,46.9,56.3,46.9c21.7,0,40.9-16.5,53-41.8l-8.8,100.3
						c-11.6,16.3-27.1,22.4-44.1,22.4c-23.5,0-44.4-14.2-56.3-42.9c-12,27.9-32.7,42.9-55.6,42.9c-23.1,0-44.1-14.2-56-42.6
						c-12,27.9-32.8,42.6-55.7,42.6c-18,0-34.3-7.3-46.4-25.7L-1179.2,456.2z"/>
					
						<linearGradient id="svg_1_15_" gradientUnits="userSpaceOnUse" x1="196.8115" y1="430.6508" x2="513.5368" y2="430.6508" gradientTransform="matrix(-1.0496 0 0 -1.0496 -863.1628 971.701)">
						<stop  offset="0" style="stop-color:#5080B1"/>
						<stop  offset="0.1178" style="stop-color:#477DAE"/>
						<stop  offset="0.3137" style="stop-color:#2D73A7"/>
						<stop  offset="0.5621" style="stop-color:#04649C"/>
						<stop  offset="0.5843" style="stop-color:#00639B"/>
						<stop  offset="1" style="stop-color:#004E8C"/>
					</linearGradient>
					<path id="svg_1_4_" fill="url(#svg_1_15_)" d="M-1402.2,455.4c11.7,28.7,32.5,47.7,55.8,47.7c22.9,0,43.7-18.8,55.7-46.6
						c11.9,28.5,32.8,46.6,56,46.6c23,0,43.6-19,55.6-46.9c11.9,28.7,32.8,46.9,56.3,46.9c21.7,0,40.9-16.5,53-41.8l-9,100.3
						c-11.6,16.3-27.1,22.4-44.1,22.4c-23.5,0-44.4-14.2-56.3-42.9c-12,27.9-32.7,42.9-55.6,42.9c-23.1,0-44.1-14.2-56-42.6
						c-12,27.9-32.8,42.6-55.7,42.6c-18,0-34.3-7.3-46.4-25.7L-1402.2,455.4z"/>
				</g>
			</g>
			<g>
				<g>
					
						<linearGradient id="svg_2_8_" gradientUnits="userSpaceOnUse" x1="-1299.3549" y1="388.1323" x2="-983.8987" y2="388.1323" gradientTransform="matrix(-1.0496 0 0 -1.0496 -863.1628 971.701)">
						<stop  offset="0" style="stop-color:#8AB1D5"/>
						<stop  offset="0.5" style="stop-color:#70A3CD"/>
						<stop  offset="0.5132" style="stop-color:#6EA2CC"/>
						<stop  offset="0.7127" style="stop-color:#4F97C5"/>
						<stop  offset="0.882" style="stop-color:#3C90C1"/>
						<stop  offset="1" style="stop-color:#358DBF"/>
					</linearGradient>
					<path id="svg_2_7_" fill="url(#svg_2_8_)" d="M169.6,496.9c11.7,30.2,32.3,50,55.6,50c22.8,0,43.6-19.6,55.5-48.8
						c11.9,29.8,32.7,48.8,55.8,48.8c22.9,0,43.5-19.9,55.3-49c11.9,30,32.7,49,56.1,49c21.6,0,40.7-17.2,52.8-43.7l-8.8,105
						c-11.6,17.2-27.1,23.5-44,23.5c-23.4,0-44.2-14.8-56.1-44.9c-12,29.2-32.6,44.9-55.3,44.9c-23.1,0-44-14.8-55.8-44.6
						c-11.9,29.2-32.7,44.6-55.5,44.6c-18,0-34.3-7.6-46.3-26.9L169.6,496.9z"/>
					
						<linearGradient id="svg_5_8_" gradientUnits="userSpaceOnUse" x1="-1087.0508" y1="389.2861" x2="-771.5948" y2="389.2861" gradientTransform="matrix(-1.0496 0 0 -1.0496 -863.1628 971.701)">
						<stop  offset="0" style="stop-color:#8AB1D5"/>
						<stop  offset="0.5" style="stop-color:#70A3CD"/>
						<stop  offset="0.5132" style="stop-color:#6EA2CC"/>
						<stop  offset="0.7127" style="stop-color:#4F97C5"/>
						<stop  offset="0.882" style="stop-color:#3C90C1"/>
						<stop  offset="1" style="stop-color:#358DBF"/>
					</linearGradient>
					<path id="svg_5_7_" fill="url(#svg_5_8_)" d="M-53.3,495.7c11.7,30.2,32.3,50,55.6,50c22.8,0,43.6-19.6,55.5-48.8
						c11.9,29.8,32.7,48.8,55.8,48.8c22.9,0,43.5-19.9,55.3-49c11.9,30,32.7,49,56.1,49c21.6,0,40.7-17.2,52.8-43.7L269,607
						c-11.6,17.2-27.1,23.5-44,23.5c-23.4,0-44.2-14.8-56.1-44.9c-12,29.2-32.6,44.9-55.3,44.9c-23.1,0-44-14.8-55.8-44.6
						c-11.9,29.2-32.7,44.6-55.5,44.6c-18,0-34.3-7.6-46.3-26.9L-53.3,495.7z"/>
				</g>
				<g>
					
						<linearGradient id="svg_2_9_" gradientUnits="userSpaceOnUse" x1="-866.9007" y1="388.7092" x2="-551.4446" y2="388.7092" gradientTransform="matrix(-1.0496 0 0 -1.0496 -863.1628 971.701)">
						<stop  offset="0" style="stop-color:#8AB1D5"/>
						<stop  offset="0.5" style="stop-color:#70A3CD"/>
						<stop  offset="0.5132" style="stop-color:#6EA2CC"/>
						<stop  offset="0.7127" style="stop-color:#4F97C5"/>
						<stop  offset="0.882" style="stop-color:#3C90C1"/>
						<stop  offset="1" style="stop-color:#358DBF"/>
					</linearGradient>
					<path id="svg_2_6_" fill="url(#svg_2_9_)" d="M-284.4,496.3c11.7,30.2,32.3,50,55.6,50c22.8,0,43.6-19.6,55.5-48.8
						c11.9,29.8,32.7,48.8,55.8,48.8c22.9,0,43.5-19.9,55.3-49c11.9,30,32.7,49,56.1,49c21.6,0,40.7-17.2,52.8-43.7l-8.8,105
						c-11.6,17.2-27.1,23.5-44,23.5c-23.4,0-44.2-14.8-56.1-44.9c-12,29.2-32.6,44.9-55.3,44.9c-23.1,0-44-14.8-55.8-44.6
						c-11.9,29.2-32.7,44.6-55.5,44.6c-18,0-34.3-7.6-46.3-26.9L-284.4,496.3z"/>
					
						<linearGradient id="svg_5_9_" gradientUnits="userSpaceOnUse" x1="-654.5967" y1="389.863" x2="-339.1407" y2="389.863" gradientTransform="matrix(-1.0496 0 0 -1.0496 -863.1628 971.701)">
						<stop  offset="0" style="stop-color:#8AB1D5"/>
						<stop  offset="0.5" style="stop-color:#70A3CD"/>
						<stop  offset="0.5132" style="stop-color:#6EA2CC"/>
						<stop  offset="0.7127" style="stop-color:#4F97C5"/>
						<stop  offset="0.882" style="stop-color:#3C90C1"/>
						<stop  offset="1" style="stop-color:#358DBF"/>
					</linearGradient>
					<path id="svg_5_6_" fill="url(#svg_5_9_)" d="M-507.2,495.1c11.7,30.2,32.3,50,55.6,50c22.8,0,43.6-19.6,55.5-48.8
						c11.9,29.8,32.7,48.8,55.8,48.8c22.9,0,43.5-19.9,55.3-49c11.9,30,32.7,49,56.1,49c21.6,0,40.7-17.2,52.8-43.7l-8.8,105
						c-11.6,17.2-27.1,23.5-44,23.5c-23.4,0-44.2-14.8-56.1-44.9c-12,29.2-32.6,44.9-55.3,44.9c-23.1,0-44-14.8-55.8-44.6
						c-11.9,29.2-32.7,44.6-55.5,44.6c-18,0-34.3-7.6-46.3-26.9L-507.2,495.1z"/>
				</g>
				<g>
					
						<linearGradient id="svg_2_10_" gradientUnits="userSpaceOnUse" x1="-442.2928" y1="387.5554" x2="-126.8367" y2="387.5554" gradientTransform="matrix(-1.0496 0 0 -1.0496 -863.1628 971.701)">
						<stop  offset="0" style="stop-color:#8AB1D5"/>
						<stop  offset="0.5" style="stop-color:#70A3CD"/>
						<stop  offset="0.5132" style="stop-color:#6EA2CC"/>
						<stop  offset="0.7127" style="stop-color:#4F97C5"/>
						<stop  offset="0.882" style="stop-color:#3C90C1"/>
						<stop  offset="1" style="stop-color:#358DBF"/>
					</linearGradient>
					<path id="svg_2_5_" fill="url(#svg_2_10_)" d="M-730,497.5c11.7,30.2,32.3,50,55.6,50c22.8,0,43.6-19.6,55.5-48.8
						c11.9,29.8,32.7,48.8,55.8,48.8c22.9,0,43.5-19.9,55.3-49c11.9,30,32.7,49,56.1,49c21.6,0,40.7-17.2,52.8-43.7l-8.8,105
						c-11.6,17.2-27.1,23.5-44,23.5c-23.4,0-44.2-14.8-56.1-44.9c-12,29.2-32.6,44.9-55.3,44.9c-23.1,0-44-14.8-55.8-44.6
						c-11.9,29.2-32.7,44.6-55.5,44.6c-18,0-34.3-7.6-46.3-26.9L-730,497.5z"/>
					
						<linearGradient id="svg_5_10_" gradientUnits="userSpaceOnUse" x1="-229.9887" y1="388.7092" x2="85.4673" y2="388.7092" gradientTransform="matrix(-1.0496 0 0 -1.0496 -863.1628 971.701)">
						<stop  offset="0" style="stop-color:#8AB1D5"/>
						<stop  offset="0.5" style="stop-color:#70A3CD"/>
						<stop  offset="0.5132" style="stop-color:#6EA2CC"/>
						<stop  offset="0.7127" style="stop-color:#4F97C5"/>
						<stop  offset="0.882" style="stop-color:#3C90C1"/>
						<stop  offset="1" style="stop-color:#358DBF"/>
					</linearGradient>
					<path id="svg_5_5_" fill="url(#svg_5_10_)" d="M-952.9,496.3c11.7,30.2,32.3,50,55.6,50c22.8,0,43.6-19.6,55.5-48.8
						c11.9,29.8,32.7,48.8,55.8,48.8c22.9,0,43.5-19.9,55.3-49c11.9,30,32.7,49,56.1,49c21.6,0,40.7-17.2,52.8-43.7l-8.8,105
						c-11.6,17.2-27.1,23.5-44,23.5c-23.4,0-44.2-14.8-56.1-44.9c-12,29.2-32.6,44.9-55.3,44.9c-23.1,0-44-14.8-55.8-44.6
						c-11.9,29.2-32.7,44.6-55.5,44.6c-18,0-34.3-7.6-46.3-26.9L-952.9,496.3z"/>
				</g>
				<g>
					
						<linearGradient id="svg_2_11_" gradientUnits="userSpaceOnUse" x1="-19.9924" y1="386.9785" x2="295.4637" y2="386.9785" gradientTransform="matrix(-1.0496 0 0 -1.0496 -863.1628 971.701)">
						<stop  offset="0" style="stop-color:#8AB1D5"/>
						<stop  offset="0.5" style="stop-color:#70A3CD"/>
						<stop  offset="0.5132" style="stop-color:#6EA2CC"/>
						<stop  offset="0.7127" style="stop-color:#4F97C5"/>
						<stop  offset="0.882" style="stop-color:#3C90C1"/>
						<stop  offset="1" style="stop-color:#358DBF"/>
					</linearGradient>
					<path id="svg_2_4_" fill="url(#svg_2_11_)" d="M-1173.3,498.1c11.7,30.2,32.3,50,55.6,50c22.8,0,43.6-19.6,55.5-48.8
						c11.9,29.8,32.7,48.8,55.8,48.8c22.9,0,43.5-19.9,55.3-49c11.9,30,32.7,49,56.1,49c21.6,0,40.7-17.2,52.8-43.7l-8.8,105
						c-11.6,17.2-27.1,23.5-44,23.5c-23.4,0-44.2-14.8-56.1-44.9c-12,29.2-32.6,44.9-55.3,44.9c-23.1,0-44-14.8-55.8-44.6
						c-11.9,29.2-32.7,44.6-55.5,44.6c-18,0-34.3-7.6-46.3-26.9L-1173.3,498.1z"/>
					
						<linearGradient id="svg_5_11_" gradientUnits="userSpaceOnUse" x1="192.3116" y1="388.1323" x2="507.7676" y2="388.1323" gradientTransform="matrix(-1.0496 0 0 -1.0496 -863.1628 971.701)">
						<stop  offset="0" style="stop-color:#8AB1D5"/>
						<stop  offset="0.5" style="stop-color:#70A3CD"/>
						<stop  offset="0.5132" style="stop-color:#6EA2CC"/>
						<stop  offset="0.7127" style="stop-color:#4F97C5"/>
						<stop  offset="0.882" style="stop-color:#3C90C1"/>
						<stop  offset="1" style="stop-color:#358DBF"/>
					</linearGradient>
					<path id="svg_5_4_" fill="url(#svg_5_11_)" d="M-1396.1,496.9c11.7,30.2,32.3,50,55.6,50c22.8,0,43.6-19.6,55.5-48.8
						c11.9,29.8,32.7,48.8,55.8,48.8c22.9,0,43.5-19.9,55.3-49c11.9,30,32.7,49,56.1,49c21.6,0,40.7-17.2,52.8-43.7l-8.8,105
						c-11.6,17.2-27.1,23.5-44,23.5c-23.4,0-44.2-14.8-56.1-44.9c-12,29.2-32.6,44.9-55.3,44.9c-23.1,0-44-14.8-55.8-44.6
						c-11.9,29.2-32.7,44.6-55.5,44.6c-18,0-34.3-7.6-46.3-26.9L-1396.1,496.9z"/>
				</g>
			</g>
			<g>
				<g>
					
						<linearGradient id="svg_9_8_" gradientUnits="userSpaceOnUse" x1="-1290.9318" y1="329.8641" x2="-974.2065" y2="329.8641" gradientTransform="matrix(-1.0496 0 0 -1.0496 -863.1628 971.701)">
						<stop  offset="0" style="stop-color:#D0E7EA"/>
						<stop  offset="0.5" style="stop-color:#A9D7DE"/>
						<stop  offset="0.7293" style="stop-color:#9FD2DA"/>
						<stop  offset="1" style="stop-color:#98CFD8"/>
					</linearGradient>
					<path id="svg_9_7_" fill="url(#svg_9_8_)" d="M159.4,556.3c11.7,30.9,32.5,51.3,55.8,51.3c22.9,0,43.7-20.2,55.7-50.1
						c11.9,30.6,32.8,50.1,56,50.1c23,0,43.6-20.5,55.6-50.4c11.9,30.9,32.8,50.4,56.3,50.4c21.7,0,40.9-17.6,53-44.8L483,670.6
						c-11.6,17.6-27.1,24.1-44.1,24.1c-23.5,0-44.4-15.3-56.3-46.1c-12,29.9-32.7,46.1-55.6,46.1c-23.1,0-44.1-15.1-56-45.8
						c-12,29.9-32.8,45.8-55.7,45.8c-18,0-34.3-7.8-46.4-27.6L159.4,556.3z"/>
					
						<linearGradient id="svg_12_8_" gradientUnits="userSpaceOnUse" x1="-1079.2047" y1="329.8641" x2="-762.4794" y2="329.8641" gradientTransform="matrix(-1.0496 0 0 -1.0496 -863.1628 971.701)">
						<stop  offset="0" style="stop-color:#D0E7EA"/>
						<stop  offset="0.5" style="stop-color:#A9D7DE"/>
						<stop  offset="0.7293" style="stop-color:#9FD2DA"/>
						<stop  offset="1" style="stop-color:#98CFD8"/>
					</linearGradient>
					<path id="svg_12_7_" fill="url(#svg_12_8_)" d="M-62.8,556.3c11.7,30.9,32.5,51.3,55.8,51.3c22.9,0,43.7-20.2,55.7-50.1
						c11.9,30.6,32.8,50.1,56,50.1c23,0,43.6-20.5,55.6-50.4c11.9,30.9,32.8,50.4,56.3,50.4c21.7,0,40.9-17.6,53-44.8l-8.8,107.8
						c-11.6,17.6-27.1,24.1-44.1,24.1c-23.5,0-44.4-15.3-56.3-46.1c-12,29.9-32.7,46.1-55.6,46.1c-23.1,0-44.1-15.1-56-45.8
						c-12,29.9-32.8,45.8-55.7,45.8c-18,0-34.3-7.8-46.4-27.6L-62.8,556.3z"/>
				</g>
				<g>
					
						<linearGradient id="svg_9_9_" gradientUnits="userSpaceOnUse" x1="-868.6315" y1="329.8641" x2="-551.9062" y2="329.8641" gradientTransform="matrix(-1.0496 0 0 -1.0496 -863.1628 971.701)">
						<stop  offset="0" style="stop-color:#D0E7EA"/>
						<stop  offset="0.5" style="stop-color:#A9D7DE"/>
						<stop  offset="0.7293" style="stop-color:#9FD2DA"/>
						<stop  offset="1" style="stop-color:#98CFD8"/>
					</linearGradient>
					<path id="svg_9_6_" fill="url(#svg_9_9_)" d="M-283.9,556.3c11.7,30.9,32.5,51.3,55.8,51.3c22.9,0,43.7-20.2,55.7-50.1
						c11.9,30.6,32.8,50.1,56,50.1c23,0,43.6-20.5,55.6-50.4c11.9,30.9,32.8,50.4,56.3,50.4c21.7,0,40.9-17.6,53-44.8l-8.8,107.8
						c-11.6,17.6-27.1,24.1-44.1,24.1c-23.5,0-44.4-15.3-56.3-46.1c-12,29.9-32.7,46.1-55.6,46.1c-23.1,0-44.1-15.1-56-45.8
						c-12,29.9-32.8,45.8-55.7,45.8c-18,0-34.3-7.8-46.4-27.6L-283.9,556.3z"/>
					
						<linearGradient id="svg_12_9_" gradientUnits="userSpaceOnUse" x1="-656.9044" y1="329.8641" x2="-340.1791" y2="329.8641" gradientTransform="matrix(-1.0496 0 0 -1.0496 -863.1628 971.701)">
						<stop  offset="0" style="stop-color:#D0E7EA"/>
						<stop  offset="0.5" style="stop-color:#A9D7DE"/>
						<stop  offset="0.7293" style="stop-color:#9FD2DA"/>
						<stop  offset="1" style="stop-color:#98CFD8"/>
					</linearGradient>
					<path id="svg_12_6_" fill="url(#svg_12_9_)" d="M-506.1,556.3c11.7,30.9,32.5,51.3,55.8,51.3c22.9,0,43.7-20.2,55.7-50.1
						c11.9,30.6,32.8,50.1,56,50.1c23,0,43.6-20.5,55.6-50.4c11.9,30.9,32.8,50.4,56.3,50.4c21.7,0,40.9-17.6,53-44.8l-8.8,107.8
						c-11.6,17.6-27.1,24.1-44.1,24.1c-23.5,0-44.4-15.3-56.3-46.1c-12,29.9-32.7,46.1-55.6,46.1c-23.1,0-44.1-15.1-56-45.8
						c-12,29.9-32.8,45.8-55.7,45.8c-18,0-34.3-7.8-46.4-27.6L-506.1,556.3z"/>
				</g>
				<g>
					
						<linearGradient id="svg_9_10_" gradientUnits="userSpaceOnUse" x1="-445.0619" y1="328.7103" x2="-128.3366" y2="328.7103" gradientTransform="matrix(-1.0496 0 0 -1.0496 -863.1628 971.701)">
						<stop  offset="0" style="stop-color:#D0E7EA"/>
						<stop  offset="0.5" style="stop-color:#A9D7DE"/>
						<stop  offset="0.7293" style="stop-color:#9FD2DA"/>
						<stop  offset="1" style="stop-color:#98CFD8"/>
					</linearGradient>
					<path id="svg_9_5_" fill="url(#svg_9_10_)" d="M-728.5,557.5c11.7,30.9,32.5,51.3,55.8,51.3c22.9,0,43.7-20.2,55.7-50.1
						c11.9,30.6,32.8,50.1,56,50.1c23,0,43.6-20.5,55.6-50.4c11.9,30.9,32.8,50.4,56.3,50.4c21.7,0,40.9-17.6,53-44.8l-8.8,107.8
						c-11.6,17.6-27.1,24.1-44.1,24.1c-23.5,0-44.4-15.3-56.3-46.1c-12,29.9-32.7,46.1-55.6,46.1c-23.1,0-44.1-15.1-56-45.8
						c-12,29.9-32.8,45.8-55.7,45.8c-18,0-34.3-7.8-46.4-27.6L-728.5,557.5z"/>
					
						<linearGradient id="svg_12_10_" gradientUnits="userSpaceOnUse" x1="-233.3348" y1="328.7103" x2="83.3904" y2="328.7103" gradientTransform="matrix(-1.0496 0 0 -1.0496 -863.1628 971.701)">
						<stop  offset="0" style="stop-color:#D0E7EA"/>
						<stop  offset="0.5" style="stop-color:#A9D7DE"/>
						<stop  offset="0.7293" style="stop-color:#9FD2DA"/>
						<stop  offset="1" style="stop-color:#98CFD8"/>
					</linearGradient>
					<path id="svg_12_5_" fill="url(#svg_12_10_)" d="M-950.7,557.5c11.7,30.9,32.5,51.3,55.8,51.3c22.9,0,43.7-20.2,55.7-50.1
						c11.9,30.6,32.8,50.1,56,50.1c23,0,43.6-20.5,55.6-50.4c11.9,30.9,32.8,50.4,56.3,50.4c21.7,0,40.9-17.6,53-44.8l-8.8,107.8
						c-11.6,17.6-27.1,24.1-44.1,24.1c-23.5,0-44.4-15.3-56.3-46.1c-12,29.9-32.7,46.1-55.6,46.1c-23.1,0-44.1-15.1-56-45.8
						c-12,29.9-32.8,45.8-55.7,45.8c-18,0-34.3-7.8-46.4-27.6L-950.7,557.5z"/>
				</g>
				<g>
					
						<linearGradient id="svg_9_11_" gradientUnits="userSpaceOnUse" x1="-23.3385" y1="328.7103" x2="293.3868" y2="328.7103" gradientTransform="matrix(-1.0496 0 0 -1.0496 -863.1628 971.701)">
						<stop  offset="0" style="stop-color:#D0E7EA"/>
						<stop  offset="0.5" style="stop-color:#A9D7DE"/>
						<stop  offset="0.7293" style="stop-color:#9FD2DA"/>
						<stop  offset="1" style="stop-color:#98CFD8"/>
					</linearGradient>
					<path id="svg_9_4_" fill="url(#svg_9_11_)" d="M-1171.1,557.5c11.7,30.9,32.5,51.3,55.8,51.3c22.9,0,43.7-20.2,55.7-50.1
						c11.9,30.6,32.8,50.1,56,50.1c23,0,43.6-20.5,55.6-50.4c11.9,30.9,32.8,50.4,56.3,50.4c21.7,0,40.9-17.6,53-44.8l-8.8,107.8
						c-11.6,17.6-27.1,24.1-44.1,24.1c-23.5,0-44.4-15.3-56.3-46.1c-12,29.9-32.7,46.1-55.6,46.1c-23.1,0-44.1-15.1-56-45.8
						c-12,29.9-32.8,45.8-55.7,45.8c-18,0-34.3-7.8-46.4-27.6L-1171.1,557.5z"/>
					
						<linearGradient id="svg_12_11_" gradientUnits="userSpaceOnUse" x1="188.3886" y1="328.7103" x2="505.1138" y2="328.7103" gradientTransform="matrix(-1.0496 0 0 -1.0496 -863.1628 971.701)">
						<stop  offset="0" style="stop-color:#D0E7EA"/>
						<stop  offset="0.5" style="stop-color:#A9D7DE"/>
						<stop  offset="0.7293" style="stop-color:#9FD2DA"/>
						<stop  offset="1" style="stop-color:#98CFD8"/>
					</linearGradient>
					<path id="svg_12_4_" fill="url(#svg_12_11_)" d="M-1393.3,557.5c11.7,30.9,32.5,51.3,55.8,51.3c22.9,0,43.7-20.2,55.7-50.1
						c11.9,30.6,32.8,50.1,56,50.1c23,0,43.6-20.5,55.6-50.4c11.9,30.9,32.8,50.4,56.3,50.4c21.7,0,40.9-17.6,53-44.8l-8.8,107.8
						c-11.6,17.6-27.1,24.1-44.1,24.1c-23.5,0-44.4-15.3-56.3-46.1c-12,29.9-32.7,46.1-55.6,46.1c-23.1,0-44.1-15.1-56-45.8
						c-12,29.9-32.8,45.8-55.7,45.8c-18,0-34.3-7.8-46.4-27.6L-1393.3,557.5z"/>
				</g>
			</g>
			<g>
				<g>
					
						<linearGradient id="svg_2_12_" gradientUnits="userSpaceOnUse" x1="-1307.7778" y1="244.9425" x2="-992.3217" y2="244.9425" gradientTransform="matrix(-1.0496 0 0 -1.0496 -863.1628 971.701)">
						<stop  offset="0" style="stop-color:#5080B1"/>
						<stop  offset="0.1178" style="stop-color:#477DAE"/>
						<stop  offset="0.3137" style="stop-color:#2D73A7"/>
						<stop  offset="0.5621" style="stop-color:#04649C"/>
						<stop  offset="0.5843" style="stop-color:#00639B"/>
						<stop  offset="1" style="stop-color:#004E8C"/>
					</linearGradient>
					<path id="svg_2" fill="url(#svg_2_12_)" d="M178.4,647.2c11.7,30.2,32.3,50,55.6,50c22.8,0,43.6-19.6,55.5-48.8
						c11.9,29.8,32.7,48.8,55.8,48.8c22.9,0,43.5-19.9,55.3-49c11.9,30,32.7,49,56.1,49c21.6,0,40.7-17.2,52.8-43.7l-8.8,105
						c-11.6,17.2-27.1,23.5-44,23.5c-23.4,0-44.2-14.8-56.1-44.9c-12,29.2-32.6,44.9-55.3,44.9c-23.1,0-44-14.8-55.8-44.6
						C277.6,766.6,256.8,782,234,782c-18,0-34.3-7.6-46.3-26.9L178.4,647.2z"/>
					
						<linearGradient id="svg_5_12_" gradientUnits="userSpaceOnUse" x1="-1095.4738" y1="246.0963" x2="-780.0178" y2="246.0963" gradientTransform="matrix(-1.0496 0 0 -1.0496 -863.1628 971.701)">
						<stop  offset="0" style="stop-color:#5080B1"/>
						<stop  offset="0.1178" style="stop-color:#477DAE"/>
						<stop  offset="0.3137" style="stop-color:#2D73A7"/>
						<stop  offset="0.5621" style="stop-color:#04649C"/>
						<stop  offset="0.5843" style="stop-color:#00639B"/>
						<stop  offset="1" style="stop-color:#004E8C"/>
					</linearGradient>
					<path id="svg_5" fill="url(#svg_5_12_)" d="M-44.4,646c11.7,30.2,32.3,50,55.6,50c22.8,0,43.6-19.6,55.5-48.8
						C78.5,677,99.3,696,122.5,696c22.9,0,43.5-19.9,55.3-49c11.9,30,32.7,49,56.1,49c21.6,0,40.7-17.2,52.8-43.7l-8.8,105
						c-11.6,17.2-27.1,23.5-44,23.5c-23.4,0-44.2-14.8-56.1-44.9c-12,29.2-32.6,44.9-55.3,44.9c-23.1,0-44-14.8-55.8-44.6
						c-11.9,29.2-32.7,44.6-55.5,44.6c-18,0-34.3-7.6-46.3-26.9L-44.4,646z"/>
				</g>
				<g>
					
						<linearGradient id="svg_2_13_" gradientUnits="userSpaceOnUse" x1="-875.3236" y1="245.5194" x2="-559.8676" y2="245.5194" gradientTransform="matrix(-1.0496 0 0 -1.0496 -863.1628 971.701)">
						<stop  offset="0" style="stop-color:#5080B1"/>
						<stop  offset="0.1178" style="stop-color:#477DAE"/>
						<stop  offset="0.3137" style="stop-color:#2D73A7"/>
						<stop  offset="0.5621" style="stop-color:#04649C"/>
						<stop  offset="0.5843" style="stop-color:#00639B"/>
						<stop  offset="1" style="stop-color:#004E8C"/>
					</linearGradient>
					<path id="svg_2_1_" fill="url(#svg_2_13_)" d="M-275.5,646.6c11.7,30.2,32.3,50,55.6,50c22.8,0,43.6-19.6,55.5-48.8
						c11.9,29.8,32.7,48.8,55.8,48.8c22.9,0,43.5-19.9,55.3-49c11.9,30,32.7,49,56.1,49c21.6,0,40.7-17.2,52.8-43.7l-8.8,105
						c-11.6,17.2-27.1,23.5-44,23.5c-23.4,0-44.2-14.8-56.1-44.9c-12,29.2-32.6,44.9-55.3,44.9c-23.1,0-44-14.8-55.8-44.6
						c-11.9,29.2-32.7,44.6-55.5,44.6c-18,0-34.3-7.6-46.3-26.9L-275.5,646.6z"/>
					
						<linearGradient id="svg_5_13_" gradientUnits="userSpaceOnUse" x1="-663.0196" y1="246.6732" x2="-347.5636" y2="246.6732" gradientTransform="matrix(-1.0496 0 0 -1.0496 -863.1628 971.701)">
						<stop  offset="0" style="stop-color:#5080B1"/>
						<stop  offset="0.1178" style="stop-color:#477DAE"/>
						<stop  offset="0.3137" style="stop-color:#2D73A7"/>
						<stop  offset="0.5621" style="stop-color:#04649C"/>
						<stop  offset="0.5843" style="stop-color:#00639B"/>
						<stop  offset="1" style="stop-color:#004E8C"/>
					</linearGradient>
					<path id="svg_5_1_" fill="url(#svg_5_13_)" d="M-498.4,645.4c11.7,30.2,32.3,50,55.6,50c22.8,0,43.6-19.6,55.5-48.8
						c11.9,29.8,32.7,48.8,55.8,48.8c22.9,0,43.5-19.9,55.3-49c11.9,30,32.7,49,56.1,49c21.6,0,40.7-17.2,52.8-43.7l-8.8,105
						c-11.6,17.2-27.1,23.5-44,23.5c-23.4,0-44.2-14.8-56.1-44.9c-12,29.2-32.6,44.9-55.3,44.9c-23.1,0-44-14.8-55.8-44.6
						c-11.9,29.2-32.7,44.6-55.5,44.6c-18,0-34.3-7.6-46.3-26.9L-498.4,645.4z"/>
				</g>
				<g>
					
						<linearGradient id="svg_2_14_" gradientUnits="userSpaceOnUse" x1="-450.7157" y1="244.3656" x2="-135.2596" y2="244.3656" gradientTransform="matrix(-1.0496 0 0 -1.0496 -863.1628 971.701)">
						<stop  offset="0" style="stop-color:#5080B1"/>
						<stop  offset="0.1178" style="stop-color:#477DAE"/>
						<stop  offset="0.3137" style="stop-color:#2D73A7"/>
						<stop  offset="0.5621" style="stop-color:#04649C"/>
						<stop  offset="0.5843" style="stop-color:#00639B"/>
						<stop  offset="1" style="stop-color:#004E8C"/>
					</linearGradient>
					<path id="svg_2_2_" fill="url(#svg_2_14_)" d="M-721.2,647.8c11.7,30.2,32.3,50,55.6,50c22.8,0,43.6-19.6,55.5-48.8
						c11.9,29.8,32.7,48.8,55.8,48.8c22.9,0,43.5-19.9,55.3-49c11.9,30,32.7,49,56.1,49c21.6,0,40.7-17.2,52.8-43.7l-8.8,105
						c-11.6,17.2-27.1,23.5-44,23.5c-23.4,0-44.2-14.8-56.1-44.9c-12,29.2-32.6,44.9-55.3,44.9c-23.1,0-44-14.8-55.8-44.6
						c-11.9,29.2-32.7,44.6-55.5,44.6c-18,0-34.3-7.6-46.3-26.9L-721.2,647.8z"/>
					
						<linearGradient id="svg_5_14_" gradientUnits="userSpaceOnUse" x1="-238.4116" y1="245.5194" x2="77.0444" y2="245.5194" gradientTransform="matrix(-1.0496 0 0 -1.0496 -863.1628 971.701)">
						<stop  offset="0" style="stop-color:#5080B1"/>
						<stop  offset="0.1178" style="stop-color:#477DAE"/>
						<stop  offset="0.3137" style="stop-color:#2D73A7"/>
						<stop  offset="0.5621" style="stop-color:#04649C"/>
						<stop  offset="0.5843" style="stop-color:#00639B"/>
						<stop  offset="1" style="stop-color:#004E8C"/>
					</linearGradient>
					<path id="svg_5_2_" fill="url(#svg_5_14_)" d="M-944,646.6c11.7,30.2,32.3,50,55.6,50c22.8,0,43.6-19.6,55.5-48.8
						c11.9,29.8,32.7,48.8,55.8,48.8c22.9,0,43.5-19.9,55.3-49c11.9,30,32.7,49,56.1,49c21.6,0,40.7-17.2,52.8-43.7l-8.8,105
						c-11.6,17.2-27.1,23.5-44,23.5c-23.4,0-44.2-14.8-56.1-44.9c-12,29.2-32.6,44.9-55.3,44.9c-23.1,0-44-14.8-55.8-44.6
						c-11.9,29.2-32.7,44.6-55.5,44.6c-18,0-34.3-7.6-46.3-26.9L-944,646.6z"/>
				</g>
				<g>
					
						<linearGradient id="svg_2_15_" gradientUnits="userSpaceOnUse" x1="-28.4153" y1="243.7887" x2="287.0407" y2="243.7887" gradientTransform="matrix(-1.0496 0 0 -1.0496 -863.1628 971.701)">
						<stop  offset="0" style="stop-color:#5080B1"/>
						<stop  offset="0.1178" style="stop-color:#477DAE"/>
						<stop  offset="0.3137" style="stop-color:#2D73A7"/>
						<stop  offset="0.5621" style="stop-color:#04649C"/>
						<stop  offset="0.5843" style="stop-color:#00639B"/>
						<stop  offset="1" style="stop-color:#004E8C"/>
					</linearGradient>
					<path id="svg_2_3_" fill="url(#svg_2_15_)" d="M-1164.4,648.4c11.7,30.2,32.3,50,55.6,50c22.8,0,43.6-19.6,55.5-48.8
						c11.9,29.8,32.7,48.8,55.8,48.8c22.9,0,43.5-19.9,55.3-49c11.9,30,32.7,49,56.1,49c21.6,0,40.7-17.2,52.8-43.7l-8.8,105
						c-11.6,17.2-27.1,23.5-44,23.5c-23.4,0-44.2-14.8-56.1-44.9c-12,29.2-32.6,44.9-55.3,44.9c-23.1,0-44-14.8-55.8-44.6
						c-11.9,29.2-32.7,44.6-55.5,44.6c-18,0-34.3-7.6-46.3-26.9L-1164.4,648.4z"/>
					
						<linearGradient id="svg_5_15_" gradientUnits="userSpaceOnUse" x1="183.8887" y1="244.9425" x2="499.3447" y2="244.9425" gradientTransform="matrix(-1.0496 0 0 -1.0496 -863.1628 971.701)">
						<stop  offset="0" style="stop-color:#5080B1"/>
						<stop  offset="0.1178" style="stop-color:#477DAE"/>
						<stop  offset="0.3137" style="stop-color:#2D73A7"/>
						<stop  offset="0.5621" style="stop-color:#04649C"/>
						<stop  offset="0.5843" style="stop-color:#00639B"/>
						<stop  offset="1" style="stop-color:#004E8C"/>
					</linearGradient>
					<path id="svg_5_3_" fill="url(#svg_5_15_)" d="M-1387.3,647.2c11.7,30.2,32.3,50,55.6,50c22.8,0,43.6-19.6,55.5-48.8
						c11.9,29.8,32.7,48.8,55.8,48.8c22.9,0,43.5-19.9,55.3-49c11.9,30,32.7,49,56.1,49c21.6,0,40.7-17.2,52.8-43.7l-8.8,105
						c-11.6,17.2-27.1,23.5-44,23.5c-23.4,0-44.2-14.8-56.1-44.9c-12,29.2-32.6,44.9-55.3,44.9c-23.1,0-44-14.8-55.8-44.6
						c-11.9,29.2-32.7,44.6-55.5,44.6c-18,0-34.3-7.6-46.3-26.9L-1387.3,647.2z"/>
				</g>
			</g>
			<g>
				<g>
					
						<linearGradient id="svg_9_12_" gradientUnits="userSpaceOnUse" x1="-1299.3549" y1="179.8667" x2="-982.6296" y2="179.8667" gradientTransform="matrix(-1.0496 0 0 -1.0496 -863.1628 971.701)">
						<stop  offset="0" style="stop-color:#B1DAE0"/>
						<stop  offset="0.5" style="stop-color:#82C7D1"/>
						<stop  offset="0.6217" style="stop-color:#75C3CE"/>
						<stop  offset="0.8445" style="stop-color:#62BCC9"/>
						<stop  offset="1" style="stop-color:#5BBAC7"/>
					</linearGradient>
					<path id="svg_9" fill="url(#svg_9_12_)" d="M168.2,713.7c11.7,30.9,32.5,51.4,55.8,51.4c22.9,0,43.7-20.2,55.7-50.1
						c11.9,30.6,32.8,50.1,56,50.1c23,0,43.6-20.5,55.6-50.4c11.9,30.9,32.8,50.4,56.3,50.4c21.7,0,40.9-17.6,53-44.8L491.8,828
						c-11.6,17.6-27.1,24.1-44.1,24.1c-23.5,0-44.4-15.3-56.3-46.1c-12,29.9-32.7,46.1-55.6,46.1c-23.1,0-44.1-15.1-56-45.8
						c-12,29.9-32.8,45.8-55.7,45.8c-18,0-34.3-7.8-46.4-27.6L168.2,713.7z"/>
					
						<linearGradient id="svg_12_12_" gradientUnits="userSpaceOnUse" x1="-1087.6277" y1="179.8667" x2="-770.9024" y2="179.8667" gradientTransform="matrix(-1.0496 0 0 -1.0496 -863.1628 971.701)">
						<stop  offset="0" style="stop-color:#B1DAE0"/>
						<stop  offset="0.5" style="stop-color:#82C7D1"/>
						<stop  offset="0.6217" style="stop-color:#75C3CE"/>
						<stop  offset="0.8445" style="stop-color:#62BCC9"/>
						<stop  offset="1" style="stop-color:#5BBAC7"/>
					</linearGradient>
					<path id="svg_12" fill="url(#svg_12_12_)" d="M-54,713.7C-42.3,744.6-21.5,765,1.8,765c22.9,0,43.7-20.2,55.7-50.1
						c11.9,30.6,32.8,50.1,56,50.1c23,0,43.6-20.5,55.6-50.4c11.9,30.9,32.8,50.4,56.3,50.4c21.7,0,40.9-17.6,53-44.8L269.6,828
						c-11.6,17.6-27.1,24.1-44.1,24.1c-23.5,0-44.4-15.3-56.3-46.1c-12,29.9-32.7,46.1-55.6,46.1c-23.1,0-44.1-15.1-56-45.8
						c-12,29.9-32.8,45.8-55.7,45.8c-18,0-34.3-7.8-46.4-27.6L-54,713.7z"/>
				</g>
				<g>
					
						<linearGradient id="svg_9_13_" gradientUnits="userSpaceOnUse" x1="-877.0544" y1="179.8667" x2="-560.3292" y2="179.8667" gradientTransform="matrix(-1.0496 0 0 -1.0496 -863.1628 971.701)">
						<stop  offset="0" style="stop-color:#B1DAE0"/>
						<stop  offset="0.5" style="stop-color:#82C7D1"/>
						<stop  offset="0.6217" style="stop-color:#75C3CE"/>
						<stop  offset="0.8445" style="stop-color:#62BCC9"/>
						<stop  offset="1" style="stop-color:#5BBAC7"/>
					</linearGradient>
					<path id="svg_9_1_" fill="url(#svg_9_13_)" d="M-275,713.7c11.7,30.9,32.5,51.4,55.8,51.4c22.9,0,43.7-20.2,55.7-50.1
						c11.9,30.6,32.8,50.1,56,50.1c23,0,43.6-20.5,55.6-50.4C-40.1,745.5-19.1,765,4.4,765c21.7,0,40.9-17.6,53-44.8L48.6,828
						c-11.6,17.6-27.1,24.1-44.1,24.1c-23.5,0-44.4-15.3-56.3-46.1c-12,29.9-32.7,46.1-55.6,46.1c-23.1,0-44.1-15.1-56-45.8
						c-12,29.9-32.8,45.8-55.7,45.8c-18,0-34.3-7.8-46.4-27.6L-275,713.7z"/>
					
						<linearGradient id="svg_12_13_" gradientUnits="userSpaceOnUse" x1="-665.3274" y1="179.8667" x2="-348.6021" y2="179.8667" gradientTransform="matrix(-1.0496 0 0 -1.0496 -863.1628 971.701)">
						<stop  offset="0" style="stop-color:#B1DAE0"/>
						<stop  offset="0.5" style="stop-color:#82C7D1"/>
						<stop  offset="0.6217" style="stop-color:#75C3CE"/>
						<stop  offset="0.8445" style="stop-color:#62BCC9"/>
						<stop  offset="1" style="stop-color:#5BBAC7"/>
					</linearGradient>
					<path id="svg_12_1_" fill="url(#svg_12_13_)" d="M-497.3,713.7c11.7,30.9,32.5,51.4,55.8,51.4c22.9,0,43.7-20.2,55.7-50.1
						c11.9,30.6,32.8,50.1,56,50.1c23,0,43.6-20.5,55.6-50.4c11.9,30.9,32.8,50.4,56.3,50.4c21.7,0,40.9-17.6,53-44.8l-8.8,107.8
						c-11.6,17.6-27.1,24.1-44.1,24.1c-23.5,0-44.4-15.3-56.3-46.1c-12,29.9-32.7,46.1-55.6,46.1c-23.1,0-44.1-15.1-56-45.8
						c-12,29.9-32.8,45.8-55.7,45.8c-18,0-34.3-7.8-46.4-27.6L-497.3,713.7z"/>
				</g>
				<g>
					
						<linearGradient id="svg_9_14_" gradientUnits="userSpaceOnUse" x1="-453.4848" y1="178.7129" x2="-136.7596" y2="178.7129" gradientTransform="matrix(-1.0496 0 0 -1.0496 -863.1628 971.701)">
						<stop  offset="0" style="stop-color:#B1DAE0"/>
						<stop  offset="0.5" style="stop-color:#82C7D1"/>
						<stop  offset="0.6217" style="stop-color:#75C3CE"/>
						<stop  offset="0.8445" style="stop-color:#62BCC9"/>
						<stop  offset="1" style="stop-color:#5BBAC7"/>
					</linearGradient>
					<path id="svg_9_2_" fill="url(#svg_9_14_)" d="M-719.6,714.9c11.7,30.9,32.5,51.4,55.8,51.4c22.9,0,43.7-20.2,55.7-50.1
						c11.9,30.6,32.8,50.1,56,50.1c23,0,43.6-20.5,55.6-50.4c11.9,30.9,32.8,50.4,56.3,50.4c21.7,0,40.9-17.6,53-44.8l-8.8,107.8
						c-11.6,17.6-27.1,24.1-44.1,24.1c-23.5,0-44.4-15.3-56.3-46.1c-12,29.9-32.7,46.1-55.6,46.1c-23.1,0-44.1-15.1-56-45.8
						c-12,29.9-32.8,45.8-55.7,45.8c-18,0-34.3-7.8-46.4-27.6L-719.6,714.9z"/>
					
						<linearGradient id="svg_12_14_" gradientUnits="userSpaceOnUse" x1="-241.7577" y1="178.7129" x2="74.9675" y2="178.7129" gradientTransform="matrix(-1.0496 0 0 -1.0496 -863.1628 971.701)">
						<stop  offset="0" style="stop-color:#B1DAE0"/>
						<stop  offset="0.5" style="stop-color:#82C7D1"/>
						<stop  offset="0.6217" style="stop-color:#75C3CE"/>
						<stop  offset="0.8445" style="stop-color:#62BCC9"/>
						<stop  offset="1" style="stop-color:#5BBAC7"/>
					</linearGradient>
					<path id="svg_12_2_" fill="url(#svg_12_14_)" d="M-941.9,714.9c11.7,30.9,32.5,51.4,55.8,51.4c22.9,0,43.7-20.2,55.7-50.1
						c11.9,30.6,32.8,50.1,56,50.1c23,0,43.6-20.5,55.6-50.4c11.9,30.9,32.8,50.4,56.3,50.4c21.7,0,40.9-17.6,53-44.8l-8.8,107.8
						c-11.6,17.6-27.1,24.1-44.1,24.1c-23.5,0-44.4-15.3-56.3-46.1c-12,29.9-32.7,46.1-55.6,46.1c-23.1,0-44.1-15.1-56-45.8
						c-12,29.9-32.8,45.8-55.7,45.8c-18,0-34.3-7.8-46.4-27.6L-941.9,714.9z"/>
				</g>
				<g>
					
						<linearGradient id="svg_9_15_" gradientUnits="userSpaceOnUse" x1="-31.7614" y1="178.7129" x2="284.9638" y2="178.7129" gradientTransform="matrix(-1.0496 0 0 -1.0496 -863.1628 971.701)">
						<stop  offset="0" style="stop-color:#B1DAE0"/>
						<stop  offset="0.5" style="stop-color:#82C7D1"/>
						<stop  offset="0.6217" style="stop-color:#75C3CE"/>
						<stop  offset="0.8445" style="stop-color:#62BCC9"/>
						<stop  offset="1" style="stop-color:#5BBAC7"/>
					</linearGradient>
					<path id="svg_9_3_" fill="url(#svg_9_15_)" d="M-1162.3,714.9c11.7,30.9,32.5,51.4,55.8,51.4c22.9,0,43.7-20.2,55.7-50.1
						c11.9,30.6,32.8,50.1,56,50.1c23,0,43.6-20.5,55.6-50.4c11.9,30.9,32.8,50.4,56.3,50.4c21.7,0,40.9-17.6,53-44.8l-8.8,107.8
						c-11.6,17.6-27.1,24.1-44.1,24.1c-23.5,0-44.4-15.3-56.3-46.1c-12,29.9-32.7,46.1-55.6,46.1c-23.1,0-44.1-15.1-56-45.8
						c-12,29.9-32.8,45.8-55.7,45.8c-18,0-34.3-7.8-46.4-27.6L-1162.3,714.9z"/>
					
						<linearGradient id="svg_12_15_" gradientUnits="userSpaceOnUse" x1="179.9657" y1="178.7129" x2="496.6909" y2="178.7129" gradientTransform="matrix(-1.0496 0 0 -1.0496 -863.1628 971.701)">
						<stop  offset="0" style="stop-color:#B1DAE0"/>
						<stop  offset="0.5" style="stop-color:#82C7D1"/>
						<stop  offset="0.6217" style="stop-color:#75C3CE"/>
						<stop  offset="0.8445" style="stop-color:#62BCC9"/>
						<stop  offset="1" style="stop-color:#5BBAC7"/>
					</linearGradient>
					<path id="svg_12_3_" fill="url(#svg_12_15_)" d="M-1384.5,714.9c11.7,30.9,32.5,51.4,55.8,51.4c22.9,0,43.7-20.2,55.7-50.1
						c11.9,30.6,32.8,50.1,56,50.1c23,0,43.6-20.5,55.6-50.4c11.9,30.9,32.8,50.4,56.3,50.4c21.7,0,40.9-17.6,53-44.8l-8.8,107.8
						c-11.6,17.6-27.1,24.1-44.1,24.1c-23.5,0-44.4-15.3-56.3-46.1c-12,29.9-32.7,46.1-55.6,46.1c-23.1,0-44.1-15.1-56-45.8
						c-12,29.9-32.8,45.8-55.7,45.8c-18,0-34.3-7.8-46.4-27.6L-1384.5,714.9z"/>
				</g>
			</g>
		</g>
	</g>
</g>
</svg>
