<?xml version="1.0" encoding="utf-8"?>
<!-- Generator: Adobe Illustrator 18.1.0, SVG Export Plug-In . SVG Version: 6.00 Build 0)  -->
<!DOCTYPE svg PUBLIC "-//W3C//DTD SVG 1.1//EN" "http://www.w3.org/Graphics/SVG/1.1/DTD/svg11.dtd">
<svg version="1.1" id="Layer_1" xmlns="http://www.w3.org/2000/svg" xmlns:xlink="http://www.w3.org/1999/xlink" x="0px" y="0px"
	 viewBox="0 0 132.6 95.4" enable-background="new 0 0 132.6 95.4" xml:space="preserve">
<path fill="#DBF7F1" d="M0.5,46.1c-0.7,0.7-0.7,1.8,0,2.5c0,0,37.1,37.1,46,46c1,1,2.7,1,3.8,0c12.4-12.4,81.7-81.7,81.7-81.7
	c0.7-0.7,0.7-1.8,0-2.5l-8.9-8.9c-0.7-0.7-1.8-0.7-2.5,0L49.7,72.4c-0.7,0.7-1.8,0.7-2.5,0L11.9,37.2c-0.7-0.7-1.8-0.7-2.5,0
	L0.5,46.1z"/>
</svg>
