<?xml version="1.0" encoding="utf-8"?>
<!-- Generator: Adobe Illustrator 18.1.0, SVG Export Plug-In . SVG Version: 6.00 Build 0)  -->
<!DOCTYPE svg PUBLIC "-//W3C//DTD SVG 1.1//EN" "http://www.w3.org/Graphics/SVG/1.1/DTD/svg11.dtd">
<svg version="1.1" id="Layer_1" xmlns="http://www.w3.org/2000/svg" xmlns:xlink="http://www.w3.org/1999/xlink" x="0px" y="0px"
	 viewBox="0 0 1667.6 975.3" enable-background="new 0 0 1667.6 975.3" xml:space="preserve">
<g>
	
		<linearGradient id="SVGID_1_" gradientUnits="userSpaceOnUse" x1="-71.7846" y1="349.5236" x2="1555.4778" y2="349.5236" gradientTransform="matrix(-1 0 0 1 1595.8641 0)">
		<stop  offset="0" style="stop-color:#9CCDE9"/>
		<stop  offset="0.3933" style="stop-color:#FFFFFF"/>
		<stop  offset="0.4782" style="stop-color:#F9FAFC"/>
		<stop  offset="0.5933" style="stop-color:#E8EDF3"/>
		<stop  offset="0.7258" style="stop-color:#CBD8E4"/>
		<stop  offset="0.8699" style="stop-color:#A4BAD0"/>
		<stop  offset="1" style="stop-color:#7A9ABB"/>
	</linearGradient>
	<path fill="url(#SVGID_1_)" d="M1143,647.9c-10.2-2.2-11.3,3.8-15.6,9.7c-15.1,23.2-37.7,29.7-59.8,15.1
		c-11.9-8.1-18.3-7.5-29.7,1.1c-26.4,20.5-53.9,21-81.4,1.6c-9.2-6.5-15.6-3.8-24.3-1.1c-52.8,17.3-108.4,0.5-142.3-43.1
		c-4.9-5.4-7.5-12.4-16.7-9.2c-12.4,4.3-24.8,2.2-36.1-4.3c-5.9-3.2-9.2-1.1-13.5,3.8c-40.4,46.4-78.2,52.8-128.3,21.6
		c-9.7-5.9-15.1-5.4-22.6,2.2c-19.9,19.4-45.8,21.6-70.6,16.2c-15.6-3.2-25.3-1.1-37.7,9.7c-48,41.5-116.5,36.1-155.8-11.3
		c-8.6-9.7-14.6-11.9-27-7c-30.2,12.4-59.8,16.2-80.9-16.7c-1.1-2.2-3.8-4.9-5.9-4.9c-31.3,2.2-52.8-25.3-85.7-24.3
		C73.2,608,44.7,581,40.9,555.7c-3.8-23.2,13.5-49.1,45.8-62.5c21-8.6,41.5-15.1,55-35.6c5.4-8.1,17.3-12.4,27-9.7
		c16.7,4.3,16.2-5.4,17.8-17.3c5.9-52.3,43.7-78.7,94.9-69.6c8.6,1.6,19.4,16.7,27.5,0.5c4.9-9.7,6.5-20.5,7-31.3
		c0.5-7-3.2-14-4.3-21c-3.8-30.2,2.2-61.5,30.2-71.7c25.9-9.7,30.7-25.9,37.2-47.4c16.2-52.3,57.7-82.5,110-83
		c58.8-0.5,85.7,19.4,107.3,80.3c2.7,7,4.9,9.7,12.9,9.7c48-0.5,67.9,15.1,81.4,62.5c2.2,7.5,2.2,15.1,11.9,19.4
		c42.1,18.3,46.4,29.1,30.2,71.2c-3.2,9.2-4.3,15.1,4.9,19.9c8.6,4.3,12.9,21,25.9,12.9c24.8-15.1,50.1-17.3,77.6-12.9
		c10.8,1.6,21.6-1.1,14-18.9c-21-49.1-7-86.3,41-111.6c16.7-8.6,40.4-10.8,31.3-39.9c-0.5-2.2,2.2-8.1,4.9-9.2
		c22.1-10.2,14.6-28.6,14-45.8c-1.6-52.8,22.6-88.4,68.5-87.9c23.7,0.5,35-7.5,47.4-24.3c12.4-16.7,29.7-33.4,51.8-16.2
		c10.8,8.1,15.1,6.5,24.8,1.1c27.5-15.6,56.6-22.6,87.9-13.5c49.6,14.6,64.2,59.3,31.8,100.3c-6.5,7.5-13.5,14.6-21,21
		c-19.4,16.7-18.9,31.8,2.2,45.8c35.6,23.7,41.5,58.8,15.1,93.8c-10.8,14.6-25.9,26.4-43.1,38.8c23.7,9.2,42.1,20.5,51.2,41.5
		c6.5,14,11.9,27,24.8,37.2c8.6,7,11.3,18.9,10.2,29.7c-1.1,16.7,5.9,19.9,21,26.4c21,9.7,38.8,10.8,59.3,3.8
		c6.5-2.2,14,3.2,20.5,3.2c30.2,0.5,58.2,16.2,90.6,3.2c65.2-25.3,112.1,5.4,114.3,72.2c5.4-0.5,10.2-1.6,15.6-2.2
		c18.3-1.6,37.2-2.2,45.8,18.3c8.1,19.9-2.7,32.4-19.9,40.4c-9.2,4.3-6.5,11.3-5.4,18.3c3.8,24.8-8.1,41.5-29.7,51.8
		c-33.4,15.6-66.9,13.5-99.2-1.6c-12.4-5.4-20.5-8.6-32.4,3.2c-15.6,15.1-36.1,19.4-57.2,7c-6.5-4.3-11.9-7-21.6-2.2
		c-57.2,28.6-89,20.5-126.2-30.2C1217.9,665.1,1217.9,665.1,1143,647.9z"/>
	<linearGradient id="SVGID_2_" gradientUnits="userSpaceOnUse" x1="930.2169" y1="751.5967" x2="1589.7026" y2="751.5967">
		<stop  offset="0.3933" style="stop-color:#FFFFFF"/>
		<stop  offset="0.4782" style="stop-color:#F9FAFC"/>
		<stop  offset="0.5933" style="stop-color:#E8EDF3"/>
		<stop  offset="0.7258" style="stop-color:#CBD8E4"/>
		<stop  offset="0.8699" style="stop-color:#A4BAD0"/>
		<stop  offset="1" style="stop-color:#7A9ABB"/>
	</linearGradient>
	<path fill="url(#SVGID_2_)" d="M1107.9,880.8c-39.9,43.4-79,36.5-99.4-14.8c-3.5-9.1-8.2-13.5-18.2-15.2
		c-45.1-7.8-67.7-69-57.7-104.6c7.4-26.9,31.3-43,59.5-39.5c10.9,1.3,16.1,0.9,19.1-11.7c9.1-39.1,24.7-50.4,66-49.9
		c14.3,0,23.4-2.6,30-17.4c11.3-24.7,41.2-33.9,66.4-21.7c9.5,4.8,17.4,8.7,27.3,0.4c3.5-3,10-4.8,14.3-3.5
		c11.7,3.9,14.3-2.6,18.7-11.3c19.5-42.1,53-63.8,99.4-63.8c46,0,79.4,32.6,79.4,78.6c0,17.4-0.9,29.1,23.4,20
		c17.8-6.5,36.5,7.8,41.2,28.6c2.2,8.7,4.8,13.9,13.5,16.9c11.7,3.9,19.5,13.9,20.8,25.6c1.3,16.1,10,18.7,23.4,16.5
		c0.9,0,1.3,0,2.2,0c27.3,0,44.3,10,50.8,29.1c5.6,16.5-3,38.6-23,51.7c-11.7,7.4-18.7,16.1-24.7,27.8
		c-11.7,22.1-36.9,25.6-55.1,37.8c-16.9,11.3-23.9,36.9-48.6,42.1c-23.9,5.2-47.7,5.6-69-8.2c-8.7-5.6-12.2-3.9-15.6,4.8
		c-5.2,12.2-11.3,23.4-19.5,33.4c-49.9,61.2-118.5,49.5-174.1,10.4C1135.7,926.8,1118.8,907.7,1107.9,880.8z"/>
</g>
</svg>
