<?xml version="1.0" encoding="utf-8"?>
<!-- Generator: Adobe Illustrator 18.1.0, SVG Export Plug-In . SVG Version: 6.00 Build 0)  -->
<!DOCTYPE svg PUBLIC "-//W3C//DTD SVG 1.1//EN" "http://www.w3.org/Graphics/SVG/1.1/DTD/svg11.dtd">
<svg version="1.1" id="Layer_1" xmlns="http://www.w3.org/2000/svg" xmlns:xlink="http://www.w3.org/1999/xlink" x="0px" y="0px"
	 viewBox="33.2 -491.7 1580 1600" enable-background="new 33.2 -491.7 1580 1600" xml:space="preserve">
<linearGradient id="SVGID_1_" gradientUnits="userSpaceOnUse" x1="-951.861" y1="744.4827" x2="-202.7898" y2="744.4827" gradientTransform="matrix(1 0 0 -1 983.5928 796)">
	<stop  offset="0.3118" style="stop-color:#C0BCAB"/>
	<stop  offset="0.745" style="stop-color:#688D64"/>
</linearGradient>
<path opacity="0.96" fill="url(#SVGID_1_)" d="M390.5,263.3H351c-84.7,0-319.3-17.3-319.3-17.3c0-28.3-1-3.9,60.5-117.7L187.4,31
	c0.7-0.5,60.9-37.1,61.5-37.7c65-70.6,80.1-83,155.1-153.5h19c127,89.4,35.1,65,136.1,127l75.2,112.1
	c86.8,59.3,129.2,140.6,146.2,157.8C791.4,247.6,480,263.3,390.5,263.3z"/>
<linearGradient id="SVGID_2_" gradientUnits="userSpaceOnUse" x1="-92.6689" y1="684.993" x2="436.877" y2="684.993" gradientTransform="matrix(1 0 0 -1 1.772896e-07 796)">
	<stop  offset="0" style="stop-color:#B9C68E"/>
	<stop  offset="0.5657" style="stop-color:#737197"/>
</linearGradient>
<path fill="url(#SVGID_2_)" d="M161.5,317.6h-27.9c-59.8,0-225.3-16.8-225.3-16.8c0-27.6-9.8-54.4,33.6-165.4l73-80.2
	c0.5-0.5,34.8-34.6,35.2-35.2c67-85.4,51.5-79.1,120.9-115.5h13.4c89.7,87.2,55.8,93.1,127,153.6l43.8,83.7
	c61.3,57.9,69.5,133.1,81.5,149.9C444.4,302.3,224.6,317.6,161.5,317.6z"/>
<linearGradient id="SVGID_3_" gradientUnits="userSpaceOnUse" x1="18.5503" y1="650.3" x2="548.0961" y2="650.3" gradientTransform="matrix(1 0 0 -1 1.772896e-07 796)">
	<stop  offset="0" style="stop-color:#B9C68E"/>
	<stop  offset="0.5657" style="stop-color:#737197"/>
</linearGradient>
<path fill="url(#SVGID_3_)" d="M272.7,352.2h-27.9c-59.8,0-225.3-16.8-225.3-16.8c0-27.6-9.8-54.4,33.6-165.4l73-80.2
	c0.5-0.5,34.8-34.6,35.2-35.2c67-85.4,51.5-79.1,120.9-115.5h13.4c89.7,87.2,55.8,93.1,127,153.6l43.8,83.7
	c61.3,57.9,69.5,133.1,81.5,149.9C555.6,337,335.8,352.2,272.7,352.2z"/>
<linearGradient id="SVGID_4_" gradientUnits="userSpaceOnUse" x1="421.9659" y1="663.3" x2="780.0881" y2="663.3" gradientTransform="matrix(1 0 0 -1 1.772896e-07 796)">
	<stop  offset="0" style="stop-color:#B9998E"/>
	<stop  offset="0.6731" style="stop-color:#815148"/>
</linearGradient>
<path fill="url(#SVGID_4_)" d="M594.9,281.3h-18.7c-40.2,0-151.4-12.1-151.4-12.1c0-19.8-12.8-5.5,16.4-85.4l40.7-83.6
	c30,32.6,51.8-1.2,52-1.7c21.3-52,31.9-64.8,67.5-114.3h9c60.3,62.7,16.7,45.6,64.6,89.1l24,85.6c63,51,73,91.7,81,103.7
	C785.1,270.3,637.3,281.3,594.9,281.3z"/>
<linearGradient id="SVGID_5_" gradientUnits="userSpaceOnUse" x1="274.9862" y1="615.0898" x2="582.1979" y2="615.0898" gradientTransform="matrix(-1 0 0 -1 402.938 796)">
	<stop  offset="0" style="stop-color:#B9998E"/>
	<stop  offset="0" style="stop-color:#81606B"/>
</linearGradient>
<path fill="url(#SVGID_5_)" d="M-20.4,308.3h16.1c34.5,0,129.9-10.4,129.9-10.4c0-17,11-4.7-14.1-73.2L76.6,153
	c-25.7,27.9-44.4-1-44.6-1.5c-18.3-44.6-27.4-55.6-57.9-98h-7.7c-51.7,53.8-14.3,39.1-55.4,76.4l-20.6,73.4
	c-54,43.7-62.6,78.7-69.5,89C-183.5,298.8-56.8,308.3-20.4,308.3z"/>
<linearGradient id="SVGID_6_" gradientUnits="userSpaceOnUse" x1="274.2881" y1="536.5686" x2="712.2467" y2="536.5686" gradientTransform="matrix(1 0 0 -1 1.772896e-07 796)">
	<stop  offset="0" style="stop-color:#B9998E"/>
	<stop  offset="0.6731" style="stop-color:#815148"/>
</linearGradient>
<path fill="url(#SVGID_6_)" d="M485.8,408h-22.9c-49.2,0-185.2-12.1-185.2-12.1c0-19.8-15.6-5.5,20.1-85.4l49.8-83.6
	c36.7,32.6,63.4-1.2,63.6-1.7c26.1-52,39-64.8,82.5-114.3h11c73.7,62.7,20.4,45.6,79,89.1l29.3,85.6c77.1,51,89.3,91.7,99.1,103.7
	C718.5,397,537.7,408,485.8,408z"/>
<linearGradient id="SVGID_7_" gradientUnits="userSpaceOnUse" x1="76.6088" y1="576.1186" x2="721.8508" y2="576.1186" gradientTransform="matrix(1 0 0 -1 1.772896e-07 796)">
	<stop  offset="0.255" style="stop-color:#688D64"/>
	<stop  offset="0.6882" style="stop-color:#1C886F"/>
</linearGradient>
<path fill="url(#SVGID_7_)" d="M385.6,489.7h-34c-73,0-275-22-275-22c0-36-0.9-5,52.1-150l82-124c0.6-0.7,52.5-47.2,53-48
	c56-90,69-105.7,133.6-195.6h16.4C523.1,64,443.9,32.9,530.9,111.9l64.8,142.8c74.8,75.6,111.3,179.1,125.9,201
	C731,469.7,462.7,489.7,385.6,489.7z"/>
<linearGradient id="SVGID_8_" gradientUnits="userSpaceOnUse" x1="-346.638" y1="473.2001" x2="159.8769" y2="473.2001" gradientTransform="matrix(-1 0 0 -1 71.4982 796)">
	<stop  offset="0.3118" style="stop-color:#5842AB"/>
	<stop  offset="0.745" style="stop-color:#688D64"/>
</linearGradient>
<path opacity="0.96" fill="url(#SVGID_8_)" d="M-88.2,507.9c11.5-17.2,40.1-98.4,98.8-157.8L61.5,238c68.3-62,6.1-37.6,92-127h12.9
	c50.7,70.6,60.9,82.9,104.9,153.5c0.4,0.6,41.1,37.1,41.6,37.7l64.4,97.3c41.6,113.8,40.9,89.5,40.9,117.7
	c0,0-158.6,17.3-215.9,17.3h-26.7C115,534.6-95.6,518.9-88.2,507.9z"/>
<linearGradient id="SVGID_9_" gradientUnits="userSpaceOnUse" x1="69.9515" y1="421.95" x2="599.4974" y2="421.95" gradientTransform="matrix(1 0 0 -1 1.772896e-07 796)">
	<stop  offset="0" style="stop-color:#B9C68E"/>
	<stop  offset="0.5657" style="stop-color:#737144"/>
</linearGradient>
<path fill="url(#SVGID_9_)" d="M324.1,580.6h-27.9c-59.8,0-225.3-16.8-225.3-16.8c0-27.6-9.8-54.4,33.6-165.4l73-80.2
	c0.5-0.5,34.8-34.6,35.2-35.2c67-85.4,51.5-79.1,120.9-115.5H347c89.7,87.2,55.8,93.1,127,153.6l43.8,83.7
	c61.3,57.9,69.5,133.1,81.5,149.9C607,565.3,387.2,580.6,324.1,580.6z"/>
<linearGradient id="SVGID_10_" gradientUnits="userSpaceOnUse" x1="336.2515" y1="443.75" x2="865.8025" y2="443.75" gradientTransform="matrix(1 0 0 -1 1.772896e-07 796)">
	<stop  offset="0" style="stop-color:#B9C68E"/>
	<stop  offset="0.5657" style="stop-color:#737144"/>
</linearGradient>
<path fill="url(#SVGID_10_)" d="M590.4,558.8h-27.9c-59.8,0-225.3-16.8-225.3-16.8c0-27.6-9.8-54.4,33.6-165.4l73-80.2
	c0.5-0.5,34.8-34.6,35.2-35.2c67-85.4,51.5-79.1,120.9-115.5h13.4c89.7,87.2,55.8,93.1,127,153.6l43.8,83.7
	c61.3,57.9,69.5,133.1,81.5,149.9C873.4,543.5,653.6,558.8,590.4,558.8z"/>
<path fill="#AAD2D9" d="M1876.8,3183c-208.5,0-417,0-625.5,0.1c-3.7,0-4.6-0.8-4.6-4.6c0.1-698.5,0.1-1397,0.1-2095.5
	c207.8,0,415.6,0,623.4,0c6.6,0,6.6,0,6.6,6.4c0,148,0,295.9,0,443.9C1876.8,2083.2,1876.8,2633.1,1876.8,3183z M1330.9,1354.1
	c1.4,1.2,3.1,0.9,4.8,0.9c56.8,0,113.6,0,170.4-0.1c1.2,0,3,1.3,3.6-1.1c0.4-19.9-15.8-33.8-35-29.7c-7.5,1.6-13.4,5.7-17.7,12.1
	c-0.8,1.1-1.3,3.1-3.2,2.5c-1.8-0.6-3-2-2.9-4.2c0.1-0.8,0-1.7,0-2.5c-0.6-10.9-9.8-18.6-20.7-17.3c-2.4,0.3-3.9-0.2-5.7-2
	c-7.7-8-17.1-11.8-28.3-11c-15.1,1.1-25.3,9.2-31.1,23c-0.9,2.2-1.9,2.8-4.4,2.7c-10.1-0.5-18.7,3.3-24.8,11.3
	C1332.6,1343.1,1329.3,1348,1330.9,1354.1z M1576,3021.6c1,2,2.9,1.4,4.4,1.4c63.9,0,127.8,0,191.7,0c1.7,0,3.8,0.5,4.7-1.8
	c-1.2-7.4-4.6-10.8-11.8-11c-3.4-0.1-5.7-0.9-7.9-3.8c-4.5-5.9-12.3-5.9-17.1-0.4c-1.7,2-2.5,1.3-3.9,0.1c-3.1-2.7-6.6-4.6-10.9-3.6
	c-2,0.5-2.2-0.5-2-2.2c1.9-11.3-7.7-22.7-22-21c-2.2,0.3-3.2-0.1-4.2-2.1c-2.9-5.6-6.4-6.7-11.8-3.8c-2.1,1.1-3.1,1.3-4.3-0.8
	c-3.4-5.9-8.9-7.4-15-6.2c-7.3,1.3-15.3,1.9-17.2,11.5c-0.5,2.7-1.6,3.1-4.1,1.7c-11-6.4-20.7,2.8-22.6,11.8c-0.6,2.7,1.2,6.6-1.1,8
	c-2.4,1.5-5.5-1.4-8.4-1.9c-7.3-1.2-18.2,1.4-19.6,6.6c-1.8,6.5-5.6,8.2-11.3,9.5C1578.2,3014.3,1574.1,3016.4,1576,3021.6z
	 M1349,1202.6c1,2,2.8,1.4,4.4,1.4c65.3,0,130.6,0,195.8,0c1.8,0,3.8,0.5,4.6-1.9c1.3-17.2-17.4-28.1-30-22.5
	c-2.9,1.3-3.7,0.3-4.7-2.5c-4.9-13.9-21.3-19.5-31.3-10.2c-4.3,4-7.5,4.9-12,1.5c-0.3-0.2-0.6-0.3-0.9-0.4c-4.3-0.6-6-3.2-7.4-7.3
	c-5.2-15-20.6-25.9-38.3-23.9c-13.6,1.5-23,8.7-29.3,20.5c-1,1.9-1.5,3.8-4.6,3.5c-13.7-1.3-24.4,4-31.8,15.4
	c-2.9,4.5-5.4,8.7-10.2,11.6c-3.8,2.3-5.2,6.7-5.9,11.1C1346.9,1200.6,1347.3,1201.9,1349,1202.6z M1556.6,3133.5
	c2.1-4.7,1.1-8-3.3-11c-5.1-3.5-10.8-4.2-16.7-3c-2.8,0.6-3.4,0.1-3.4-2.7c-0.1-6-1.9-11.5-6.8-15.5c-7.7-6.5-16.6-6.1-25.5-3.7
	c-4.8,1.3-9.2,4.7-13.6-1.4c-1.2-1.7-4-2.2-4.4-5.1c-1.2-7.3-5.6-11.6-12.8-12.6c-7.3-1.1-13.7,1.1-17.9,7.3c-1.9,2.8-3,2.8-5.7,1.3
	c-9.7-5.3-25-2-31.5,6.9c-2.2,3-3,2.6-5.2,0c-4.9-5.8-11.4-8.6-19.1-7.3c-8.1,1.4-12.1,7.2-13.6,14.7c-0.6,3.1-1.8,3.9-4.6,3.6
	c-2.6-0.3-5.8,0-6.9,2.1c-3.7,7.1-8.4,5.1-13.6,2.3c-1.3-0.7-2.9-0.9-4.3-1.1c-8.6-1.1-19.1,0.1-22.8,9.8c-0.8,2-2.1,1.7-3.6,1.3
	c-3.3-0.8-6.7-0.5-9.7,1c-5.7,2.8-6.9,9.4-2.6,13.1c1.1,2.2,3.2,1.4,4.9,1.4c79.3,0,158.6,0,238,0
	C1553.5,3135,1555.6,3135.8,1556.6,3133.5z M1270.8,2018.1c1.9,1.5,4.2,0.9,6.3,0.9c44.7,0,89.3,0,134,0c81.7,0,163.3,0,245-0.1
	c1.5,0,3.6,1.2,4.6-1.1c0.6-5.1-1.9-8.7-6-11.2c-1.6-1-2.7-1.7-3-4c-1.1-8.3-7.9-10.7-14.4-5.2c-3.3,2.8-9,2.4-9.9,0.8
	c-2.9-5.2-6.5-9.4-11.1-12.9c-0.3-0.2-0.2-0.9-0.4-1.4c-1.9-6.9-7-9.7-13.7-7.2c-1.7,0.6-2.9,0.7-4.6-0.1
	c-12.5-6.4-24.3-0.4-26.8,13.4c-0.3,1.6-0.6,3-2.6,3c-5.4,0-9.4,2.5-12.7,6.7c-2,2.6-4.4,2.9-6.7-0.5c-4.2-6-9.8-7.7-16.6-5
	c-2.7,1-3.5,0.5-4.9-1.8c-6.3-10.5-16.6-13.7-27.9-8.8c-1.9,0.8-3,1.1-4.9-0.2c-4.8-3.4-9.7-3.1-14.3,0.3c-3.6,2.7-7.3,1.6-9.3-2.6
	c-6.6-14.3-20.9-18.2-33.9-9.2c-1.9,1.3-3,1.5-5.2,0.6c-6.1-2.6-12.3-2.4-17.1,2.7c-2.3,2.4-4.7,3.4-7.7,3.9
	c-5.9,1-9.9,4.5-12.2,9.9c-1.8,4.1-5.3,4.8-8.4,1.5c-7.5-8.3-13.5-7.8-19.7,1.7c-2,3.1-5.6,2.9-8.4,3.4c-2.1,0.4-1.4-2.9-1.9-4.5
	c-2.4-6.9-7.2-11.3-14.3-12.6c-7.4-1.4-14,0.9-18.4,7.3c-1.9,2.7-3.8,3.6-7,3.5c-5.5-0.3-9.3,2.6-10.5,7.2c-1.5,5.7-5.9,7.7-11.1,5
	c-4.6-2.4-9-1.8-12,2.3c-1.6,2.1-3.3,3.3-5.8,4.1C1271.9,2009.3,1269.5,2013.6,1270.8,2018.1z M1555.9,1499.9
	c8.1-3.6,11.5-8.3,10.3-14.4c-1-5.3-4.9-9.5-9.6-10.3c-6.2-1-11,1.6-14.2,7.8c-2.1,4.1-10.5,5.3-13.5,2c-3.9-4.3-8.6-6.8-14.5-6.8
	c-2.8,0-4-1-5-3.7c-3.2-8.5-11.6-11.6-19.5-7.1c-2.9,1.7-4.2,1-6-1.4c-3.7-4.9-8.8-7.8-14.9-7.9c-3.2,0-4.2-1.3-5-4.1
	c-4-12.4-14.9-20.9-27.6-20.7c-12.3,0.2-22.7,6.2-28,18.9c-1.1,2.7-2.1,3.4-5,2.7c-9.5-2.1-17.3,1.1-23.3,8.8
	c-0.7,0.9-1.6,2.8-2.3,2.2c-3-2.7-7.7-0.7-10.4-4.8c-4-6.3-13.7-5.4-16.8,1.3c-1.2,2.7-1.9,5.2-5.7,4.7c-2.7-0.3-5,1.9-8.2,0.5
	c-10.9-4.8-18.8-2.4-25.7,7.8c-1.5,2.2-3,2.8-5.4,2.3c-11.9-2.1-21.8,2-29.3,11.1c-4.4,5.3-8,11.4-5.8,19c1.4,1.3,3.1,1,4.8,1
	c91.5,0,182.9,0,274.4,0.1c4.3,0,6.3-1.3,5.8-5.7C1555.7,1502.2,1555.9,1501,1555.9,1499.9z M1853.6,1389c-0.2-0.4-0.6-0.9-0.6-1.3
	c-2.1-21.9-24.7-38.4-49.3-29.2c-3.2,1.2-3.9,0.3-4.8-2.4c-2.9-8.5-9.2-13.5-17.9-14.8c-3.7-0.5-5.2-1.9-6.8-5.1
	c-8.3-16.4-21.9-25.2-40.1-24.8c-20.9,0.4-36.8,14.8-41.3,35.6c-0.5,2.3-1.3,3.7-3.9,4.3c-10.9,2.3-15.1,7.3-16,18.5
	c-0.2,2.2-0.4,3.6-3.2,2.9c-5.2-1.4-10.5-1.8-15.8-0.3c-2.9,0.8-2.8-1-3.1-2.9c-1.5-13-14.2-19.5-25.5-12.9
	c-2.7,1.6-4.6,1.6-7.3,0.3c-17.4-8.3-35.5-4.2-48.1,10.6c-1.8,2.1-3.7,3.1-6.5,2.4c-8.1-2-15.8-0.1-22.4,4.4
	c-5.9,4-11.9,8.5-12.2,16.9c1.9,1.6,4.1,1,6.3,1c104.1,0,208.2,0,312.4,0c1.7,0,3.3,0.1,5-0.1
	C1854.3,1391.7,1855.2,1390.8,1853.6,1389z M1489.9,1752.1c1.4,1.2,3.1,0.9,4.8,0.9c121.4,0,242.9,0,364.3-0.1c1.2,0,3,1.2,3.7-1
	c-1.2-4.5-4.7-6.6-8.5-8.5c-3.9-2-8.9,0.4-12-1.3c-3.1-1.8-4.1-7.1-7.7-9.4c-6.1-3.8-12.5-3.9-19-1.2c-0.3-0.5-0.6-0.8-0.6-1.1
	c-1.5-10.3-6.2-15.8-14.6-17.2c-8.3-1.4-14.9,2.3-19.5,11.4c-2.4,4.6-5.1,0.5-7.7,0.5c-2.9,0-2.1-2.1-1.8-4
	c2.4-14.8-5.4-28.1-18.9-32.3c-13.6-4.2-27.4,2.2-33.9,15.8c-0.8,1.7-1.6,3.3-3.9,3.3c-7,0-12,3.7-15.9,9c-1.5,2-2.7,1.7-4.6,0.8
	c-9-3.9-17.4-1.4-22.7,6.5c-3.7,5.6-9,5.4-12.2-0.5c-1.5-2.6-2.9-5.3-5.7-6.8c-2.6-1.4-4.1-3.6-5.6-6.1c-8.6-14.2-28-14.9-37.6-1.4
	c-0.6,0.8-0.9,2.2-1.6,2.5c-7.2,2.2-13.5,5.2-19.1,10.7c-1.9,1.9-7.4-1.5-11.4-1.9c-2.1-0.2-1.9-3.2-2.6-5
	c-5.2-14.1-19.4-21.6-33.6-18.3c-14.1,3.3-24,18.3-21.3,32.2c1,5.1,3.4,9.3,5.7,13.7c-4.3,1.6-4.3,1.6-7.2-1.5
	c-5.6-6-13.4-7.5-20.5-4.1C1492.4,1740.7,1488.6,1746.9,1489.9,1752.1z M1619.9,2141.4c-3-7.9-8.4-11.6-16.3-11.3
	c-2.7,0.1-3.6-0.8-4.1-3.5c-1.1-5.8-5-9.1-10.7-9.5c-3.6-0.3-7.4-0.6-10.9,0.9c-2.2,0.9-3.3,0.3-4.2-1.8c-2.1-5.1-6-6.2-11-5.1
	c-1.6,0.4-2.9,0.8-4.7-0.3c-5.1-3.2-9.7-2-12.2,3.6c-1.3,2.8-2.3,3.1-5.1,2.3c-10.1-3-19.5-2.1-27.3,5.8c-1.4,1.4-2.3,1.2-3.8,0.3
	c-6.3-4.1-13-4.9-19.9-1.5c-2.4,1.2-3.8,0.7-5.4-1.5c-3.8-5.3-9-8.9-15.7-9.6c-2.4-0.2-3-1.5-3.3-3.5c-0.4-2.6-1.4-5.3-4-5.8
	c-3.9-0.8-2.6-2.5-1.6-4.7c2.6-5.9,2.2-11.8-1.8-17c-3.6-4.7-8.9-5.7-14.4-4.5c-3.1,0.7-3.6-0.2-3.8-3c-0.7-8.7-5.9-14.7-13.8-16.1
	c-5.7-1-10.5,1-14.3,5.3c-3.4,3.8-2.5,7.6-0.1,11.4c1.7,2.7-0.6,2.6-2.1,2.9c-3.9,0.8-7,2.7-8.1,6.6c-0.7,2.8-2.4,3.7-4.8,4
	c-4.5,0.6-8.7,2-12.8,4c-9,4.5-13.8,11.2-12,21.7c0.3,2.1,0.2,3.4-2.8,3c-7.6-0.9-14.7-0.2-19.4,7.1c-1.1,1.8-2.6,0.8-4,0.6
	c-8.5-0.9-13.4,2.7-14.5,11.1c-0.3,2.2-1,2.9-3.2,2.4c-4.7-1-8.2,1.1-10.6,4.9c-1.5,2.3-2.3,2.1-4,0.4c-3.2-3.2-7.1-4.7-11.3-2.2
	c-2.6,1.6-3.8,1.6-5.5-1.4c-2.8-4.9-7.1-5.9-11.4-3.7c-6.7,3.5-10.4,14-7,20.8c1,2.1,1.3,3.2-0.7,5c-2.9,2.6-3.2,6.3-2,9.7
	c1.1,3.3,4,5,7.5,4.8c3.8-0.2,6.5,0.7,8.6,4.2c1.1,2,3.6,2.7,6.1,2.8c4.6,0.2,8.7-1.4,11.9-4.3c3.2-2.9,4.6-3.1,5.3,1.6
	c1.3,8.4,6.8,12.3,14.9,13.9c5.5,1.1,10.6,0.3,15.7-1.4c8.3-2.8,14.5-8.4,20-16.5c1.7,6.5,5.4,9.7,10.8,11.1
	c5.4,1.4,10.9,1.9,16.2-0.1c3.6-1.4,5.6-1.2,8.1,2.3c4.5,6.3,15.1,8.1,18.9,2.9c3.5-4.8,7.1-4.2,11.9-5.1c6.7-1.2,12.2-0.4,18.5,1.2
	c7.5,1.9,14.7-0.7,20-7c3.5,6.2,5.7,8.5,9.8,9.1c9.5,1.3,18-1.4,24.3-8.8c2.7-3.1,4.2-5.4,8.5-2.7c2.2,1.4,4.9,0.7,7.2-0.4
	c2.1-1,3.5-0.6,5.1,1.1c4.4,4.5,10.2,5.3,16,2.7c4-1.8,7.1-4.7,10.2-8.5c2.8,9.4,9.9,12.3,17.9,12.4c8.6,0,17.2-1.8,23.6-8
	c3.8-3.7,6.4-7.2,12.7-4.1c3.3,1.6,7.1-1.8,10.9-3c0.1,7.6,3.6,12.2,10.8,13.9c5.9,1.4,11.8,0.8,15.3-4.4c2.5-3.8,4.9-6.7,9.6-7.2
	c0.8-0.1,1.6-0.7,2.1-1.3c2.1-2.6,4.9-3.5,8.1-4.1c3.5-0.6,5.9-3.1,6.7-6.7c0.8-3.7-1.1-6.4-3.9-8.6c-1.2-0.9-2.7-1.5-3.5-2.7
	c-4.2-6.2-10.1-6.5-16.4-4.5c-2.3,0.7-3.4,0.5-5-1.4C1633,2135.1,1627.9,2134.8,1619.9,2141.4z M1598.1,2844.6
	c10.3,7.6,10.3,7.6,24,4.8c1.9-0.4,2.2,0.6,2.9,1.8c2.8,4.2,7,5.5,11.1,2.8c2.2-1.4,3.4-1.4,5.5,0.2c5,3.8,10,3.9,15.1,0.3
	c1.7-1.2,2.9-0.8,4.5-0.2c9.8,3.2,20.1,0.1,26.4-8c0.8-1.1,1.4-2.4,3.1-1.7c2.4,0.9,4.6,0.4,6.7-0.8c1.1-0.6,1.7-0.2,2.5,0.7
	c7.6,8.6,14.6,9.8,23.8,4c1.8-1.1,2.7-1.1,4.2,0.4c3.7,3.6,8.4,4,13.1,3c3-0.7,4.7-0.2,7,1.8c9,7.7,21.6,6.8,28.9-2.1
	c1.6-1.9,2.7-2.3,5-1.3c5.6,2.3,11.1,3,15-3.1c0.2-0.4,0.8-0.9,1.1-0.9c5.8,0.4,9.8-4.7,15.9-4.5c6.6,0.2,12-4.8,12.6-9.5
	c0.6-4.4-2.5-9.1-8.5-11.6c-3.8-1.6-7.7-2.8-10.2-6.6c-1-1.5-3.1-2.2-5-1.8c-3.1,0.8-3.1-1-3.3-3.2c-1.1-9.6-8.2-14.6-17.6-12.9
	c-1.6,0.3-3.6,3.2-5.1,0.1c-0.8-1.7-1.1-3.8-1.3-5.8c-0.1-1.3,0.6-2.6,0.8-3.9c0.7-5.5-0.4-11.3-5.6-13.3c-4.9-1.8-5.7-4.9-6.9-8.8
	c-3-9.7-10.6-15.3-20.4-15.4c-10.9-0.1-15.9,3.6-19.9,14.9c-0.5,1.3-0.9,1.8-2.4,1.8c-9-0.1-12.7,2.8-15.1,11.6
	c-0.4,1.4-0.3,2.8-2.2,3.6c-7.8,3.4-8.6,5.4-5.6,13.2c0.6,1.7,0.8,2.8-0.9,3.7c-1.6,0.8-2.4,3.9-4.8,2.4c-4.5-2.8-9.2-3.2-14.4-2.4
	c-2,0.3-4-0.2-2.6-3.5c3.9-9.1,1.3-16-7.6-20.7c-3.1-1.6-7.5-2.1-5.8-7.4c0.1-0.5-0.4-1.5-0.9-1.7c-4.1-1.9-2.7-5.4-2.6-8.5
	c0.3-9.9-4.2-16.4-12.7-16.3c-4.4,0-6.4-1.5-8.8-4.5c-2.3-3.1-5.6-6.1-9.6-3c-2,1.5-2.9,1.2-4.6,0.2c-5.1-2.9-10.5-4.2-16.3-2.5
	c-9.3,2.7-12,11-5.9,18.6c1.1,1.4,2.5,2.7,3.9,3.9c3.7,3.1,3.6,5.8-0.4,8.5c-6.6,4.4-7.7,10.8-2.8,17.4c2.1,2.8,4.8,4.9,8,7.2
	c-4.4,1.7-7.7,3.8-9.5,7.7c-1.2,2.6-2.3,5.1-4.6,6.9c-1.6,1.3-2.1,3.4-1.9,5.5c0.2,3-1.1,3.6-3.9,4.9c-3.9,1.7-7.2,2-11,0.7
	c-1.2-0.4-2.6,0.6-3.8,0.6c-5.6,0-10.8,3-16.8,0.6c-12.1-4.8-20.7,1-21.2,13.4c-1-0.1-1.9-0.3-2.9-0.4c-3.4-0.3-6.9-0.4-8.5,3.4
	c-1.5,3.7,0.5,6,3.7,7.5c1.7,0.8,1.2,2.1,1,3.4c-0.7,4.6,1.5,7.7,5.5,9.6c6.2,2.9,12.3,2.4,18.4-0.3c2.3-1.1,3.8-1.6,6,0.6
	c2.9,2.9,6.7,3.6,10.6,1.3c1.3-0.8,2.3-1.3,4-0.4C1585.4,2855.4,1591.2,2853.9,1598.1,2844.6z M1546.5,2513.9
	c-7-4.8-14.3-6.5-22.2-5.9c-7.5,0.6-11.8,3.8-13.3,11.1c-0.6,2.7-1.9,2.9-4.1,3c-7.3,0.3-8.8,1.5-9.9,8.3c-0.4,2.6-1.5,2.6-3.3,1.8
	c-3-1.2-6-1.3-8.4,1.1c-1.9,1.9-3.3,1.5-4.9-0.3c-2.6-3-6-3.8-9.9-3.9c-3.7-0.2-6.9,4-9.5,2.8c-2.9-1.3-4-5.9-7.5-7.7
	c-10.2-5.3-20.4-4.6-30.1,0.5c-4.8,2.5-8.6,6.7-14.7,5.5c-0.5-0.1-1.6,0.2-1.8,0.7c-3.7,6.7-9.9,6-16.1,5.6c-0.5,0-1,0.2-1.4,0.4
	c-4.7,2.9-9.5,4.9-15.4,2.9c-2.1-0.7-4.9,0.5-7.1,1.7c-5,2.7-5.6,8.8-1.1,12.3c3.8,3,8.2,4.4,13.1,3.9c1.3-0.1,2.5-0.7,3.5,0.8
	c4,5.8,9.9,6.9,16.3,6.4c2.1-0.2,3.7,0.2,5.1,2.1c4.3,5.8,10.8,7.4,17,5.4c6.2-2,12.2-4.2,18.9-4c0.8,0,1.6-0.4,2.4-0.7
	c1-0.4,1.9-0.3,2.8,0.4c7.2,5.9,14.2,4,21.1-0.5c1.6-1,2.6-1.4,4.3,0c8,6.9,16.7,6.8,25.5,2c2.4-1.3,3.9-1.6,6,0.5
	c7.1,6.9,28,7.7,34.4-2.5c1.1-1.8,2.3-1.2,3.8-0.6c4.8,2,9.5,1.7,13.6-1.7c1.4-1.1,2.8-1.6,4.6-1.4c5.4,0.6,10.3-0.3,14.1-4.7
	c0.4-0.5,1.4-1.1,1.6-1c3.8,2.5,9.1,2,12.2,5.9c4.6,5.8,12.1,8.5,19.2,6.3c2.5-0.8,4.2-0.6,6.4,0.7c5.7,3.4,12.4,2.6,16.8-2.3
	c2.3-2.6,4.3-2.8,7.3-1.6c3.6,1.4,7.6,1.5,11.3,0c2.3-0.9,3.9-0.8,5.9,0.6c3.6,2.6,7.9,3.3,11.8,1.1c5-2.7,9.4,0.1,12.2,2.6
	c5.6,4.8,11.2,6,18,4.6c5.9-1.2,11-4.4,16.7-6.3c3.9-1.3,6.4-5.4,7.8-9.3c2.2-6.4-3.7-13.3-11.5-13.5c-3.8-0.1-7.5,0.1-10.8-2.7
	c-1.3-1-3.5-1.2-5.2-1.3c-2.6,0-3.3-1.2-3.8-3.6c-2.2-11.4-12.3-15.4-21.8-8.7c-1.2,0.8-2.1,2-3.8,2.2c-5.2,0.6-10.4,3-15.5-0.7
	c-1-0.7-3.3-0.8-4.3-0.1c-5.2,3.3-10.1,2.5-15.2-0.2c-1.9-1-11-12.7-10.6-14.9c1.4-9-4.4-14.5-13.3-12.7c-0.7,0.1-1.3,0.3-1.9,0.5
	c-1.8,0.6-2.9,1-3-1.9c-0.1-4.3-1.4-8.3-6.2-9.9c-4.7-1.6-8.5,0.1-11.6,3.5c-1.3,1.4-2.1,2.2-4,0.5c-6.2-5.4-13-4-19.5-0.6
	C1550.3,2500.1,1547.8,2506.4,1546.5,2513.9z M1375.3,2743.6c4.5,4.7,8.4,6.1,12.6,3.5c2.3-1.4,3.5-1.1,5.5,0.3
	c6.6,4.7,18.5,3.3,22.4-3.5c2.8-4.9,4.7-7.9,11.2-6.3c2.4,0.6,3.7,0.7,5.1,2.9c5,7.8,16,10.7,21.7,2.5c0.7-1.1,1.5-1.8,2.9-1.1
	c2.6,1.3,5.2,0.5,7.8-0.2c1.6-0.4,2.4-0.9,2.8,1.6c1.3,8.4,4.5,10.8,13.2,10.8c6.4,0,12.9-4,19.2,0.4c5-2.4,10.1-0.6,15.2-0.9
	c3.3-0.2,6.5-1.3,10-1.2c4.4,0.2,11-7.8,10.8-12c-0.5-8.2-11.5-14.8-19.1-11.3c-1.7,0.8-2.7,0.3-4.3,0c-4-1-5.9-3.6-7.8-6.7
	c-1.5-2.4-3.9-3.4-6.8-3.6c-3.2-0.2-6.2,0.4-9.2,1.9c-4.4,2.2-7.5,1.1-9.4-3.2c-3-7-10.7-7.5-15.7-11.7c-0.1-0.1-0.3-0.1-0.5,0
	c-3.6,0.7-5-0.9-6-4.5c-3.2-11.4-11.9-14.6-21.8-8.2c-3.5,2.2-5.5-2.2-8.7-1.3c-1,0.3-0.6-2.6-0.6-3.9c-0.3-6.2-2.7-9.7-8.3-11.7
	c-3.3-1.2-7.4-1.1-7-6.5c0.1-1.3-1.6-2.3-2.9-2.4c-3.5-0.1-3.7-2.2-3.8-5c-0.3-8.3-6.2-12.4-14-9.9c-2.1,0.7-3.3,0.8-4.5-1.3
	c-0.6-1.1-1.8-1.5-3-1.4c-2.6,0.3-3.2-1.2-4-3.3c-3.9-10.5-15-14.8-24.4-9.7c-8,4.4-13.8,15.2-11.9,24c1,4.6,0.8,5.9-4.5,6.2
	c-8.1,0.5-15.8,12.7-11.3,17.9c3.2,3.8,1.9,6.4,0.9,9.9c-0.6,2-1.2,2.4-3.4,2.2c-8.4-1-15.7,4.3-17.8,12.6c-0.2,1-8.7,7.4-9.6,7.1
	c-0.6-0.2-1-0.9-1.4-1.3c-7.3-7.1-20.2-3.8-22.5,6c-0.6,2.7-1.7,4.2-4,5.7c-4,2.5-6,8.9-4.4,13.4c1.6,4.2,4.9,5.6,9.2,5.1
	c1.9-0.2,3,0.5,4.1,2.1c4.8,7.1,13.2,8.2,20.3,3.1c2.6-1.8,6.5-2.4,9.7-1.5c1.1,0.3,2.7,0.7,3.4,0.2c4.3-3.4,7.6-1.1,11,1.6
	c0.5,0.4,1.2,0.4,1.9,0.6c7.4,2.1,13.8-0.1,19.4-4.9c1.3-1.1,2.1-2,4.1-0.6C1357.6,2753.8,1366.6,2752.8,1375.3,2743.6z
	 M1553.8,1844c0.1-13.7-8.3-23.7-21.4-25.7c-11-1.7-22.9,6-26.5,17c-0.5,1.5,0.1,4.1-2.6,4c-2.6,0-3.4-2.1-4.1-4.3
	c-5.2-14.2-19.2-20.4-33.1-14.5c-2.7,1.1-3.6,0.6-5-1.7c-6.6-10.5-16.2-15.8-28.6-14.6c-11.9,1.1-20.3,7.5-25.2,18.6
	c-1,2.2-0.7,6.3-5.3,4.6c-2.6-0.9-5.5,0.5-8-1.9c-5.8-5.4-10.8-6.3-16.7-3.3c-5.6,2.8-7.7,7.8-6.7,15.7c0.7,5.5-3,8.8-8.2,7.5
	c-14.6-3.6-27.4,9.2-23.8,23.6c3.2,12.7,17.1,18.4,29,11.8c1.7-0.9,2.9-2.3,5.1-0.1c11.9,12.1,24.4,14.4,39.9,7.4
	c2.1-1,3.7-0.7,5.6,0.2c11.3,5,21.7,2.4,29.2-7.4c1.7-2.3,3.2-3.4,6.2-2.5c4.3,1.3,8.7,1,12.6-1.1c2.8-1.5,4.2-0.7,6.1,1.6
	c7.4,8.9,18.9,12.2,29.3,7.8c4.5-1.9,6.6-0.8,9.6,2.3c12.3,12.7,32.2,11.3,42.7-2.9c1.5-2.1,3.1-3.2,5.7-3c5.2,0.3,9.5-1.7,12.8-5.6
	c1.7-2,2.4-2.3,4.5-0.2c4.9,4.8,13.4,5.3,18.4,1.6c5.1-3.8,7.1-9.7,5.4-15.4c-2-6.5-6.4-10-13.1-10.4c-2-0.1-4.1,0.7-5.5-2.1
	c-4.6-8.6-8.9-9.3-16.8-3.2c-3.2,2.5-7.1,1.5-10.6,1.4C1552.5,1849.2,1554.3,1845.6,1553.8,1844z M1629,1545
	c-16.4,0-27.4,10.5-28.1,25.8c-0.1,2.7-0.7,4.5-3.3,6c-9.9,5.7-13.6,16.2-9.4,26c4,9.6,13.8,14.1,24.8,11.3c2.4-0.6,3.5-0.7,4.1,2.2
	c0.7,3.6,2.1,7,4,10.2c13.3,22.5,43.5,26.2,62.1,7.6c2.2-2.2,4-3.7,7.7-2.4c13.8,4.7,26.5-1.5,31.8-15.3c1.1-2.7,2.1-3.3,4.7-2.1
	c4.3,1.9,8.9,3,13.6,2.3c17-2.7,24.5-14.8,24.5-27.6c0-14.8-11.1-25.6-26.3-26.9c-2.2-0.2-3.7-0.8-5-2.6
	c-7.2-10.1-17.4-12.8-29.1-11.2c-3,0.4-4-0.2-5.2-2.7c-10.8-23-40.1-27.4-55.9-7.6C1639.1,1544,1635.4,1547.9,1629,1545z
	 M1421.4,2312.3c2.8,7.5,8.3,11.6,15.7,12.6c10.5,1.4,19.9-0.9,26.9-9.6c1.1-1.4,1.9-2.6,3.9-0.6c3.6,3.6,7.8,3.3,11.9,0.9
	c1.6-0.9,2.7-1.3,4.4-0.1c4.5,3,9.3,3.2,14.2,0.7c1.1-0.6,2-1.2,3.5,0c7.2,5.9,12.3,6.3,19.7,1.2c2.8-1.9,4.3-1.9,6.6,0.4
	c8.2,8.2,32.1,7.5,38.2-4.7c1.1-2.3,2.6-1.9,4.5-1.6c5.8,1,11.3-0.5,16.2-3.5c6.8-4.2,9.9-10.4,8-15.6c-2.9-8.4-10.7-13.4-18.9-12.2
	c-1.6,0.3-3.1,1-4.9,0.4c-4.3-1.3-8.4-0.9-12.5,1.3c-3.5,1.8-7.3-0.4-7.3-4.1c0.1-11.6-12.9-23.3-26.1-17.2c-1.3,0.6-2.3,1.2-3-0.9
	c-1.6-4.7-5.8-5.4-9.8-5.2c-4.4,0.2-8.2,2.5-9.7,6.8c-1.1,3.1-3,3.9-5.8,4.4c-10.5,2-13.4,6-11.4,16.7c0.7,3.7-2.3,3.2-3.8,3.9
	c-2.4,1.1-1.9-1.3-2.2-2.6c-1.6-8.2-7.4-12.5-15.9-11.5c-2.1,0.2-4.3,0.7-6.4,1.2c-1.2,0.3-2,0.2-3-0.9c-5.7-6.4-13.1-6-17.4,1.3
	c-1.8,3.1-3.5,2.9-6.4,2.2c-7.5-1.8-14.5-1.5-21.3,3.4c-3.7,2.7-9.2-0.3-13.6,1.8c-0.1,0.1-0.8-0.9-1.1-1.5
	c-3.5-7.5-16.3-7-21.7-2.5c-6.9,5.8-13.2,12.3-21.5,16.1c-1.7,0.8-2.6,2.5-3.4,4.2c-3.1,7,4,12,3.7,18.6c-0.1,2.8,2.7,4.8,5.4,6.1
	c3.6,1.7,7.3,2.2,11.2,1.3c5.2-1.2,9.7-3.6,13.3-7.5c1.6-1.8,2.9-2.1,5.1-1.2c5.5,2.1,11.1,2.1,16.3-1.2c1.2-0.7,2.1-1.4,3.5-0.3
	C1411.7,2317.2,1416.5,2316.4,1421.4,2312.3z M1701.4,1244c34,0,67.9,0,101.9,0c5.7,0,5.7-0.1,4.3-5.6c-3-12-13.7-20.4-26.4-20.3
	c-3.9,0-5.8-0.3-4.8-5.1c0.9-4.7,0.3-9.6-0.6-14.4c-3.7-19.8-21.8-36.3-40.8-37.7c-26.3-2-44.6,13.7-50.3,32.5
	c-1,3.4-2.4,4.7-6.2,4.7c-14.8,0.2-26.3,6.7-33.9,19.3c-2,3.3-3.5,3.7-7.1,2.2c-17.2-7.1-35.9,1.2-42.5,18.6c-2,5.2-1.7,5.7,3.8,5.7
	C1633.1,1244,1667.2,1244,1701.4,1244z M1327.5,2920.5c2.5,6.2,6.4,10.6,11.3,14.1c12.8,9.1,28.6,11.8,40.1-2.4
	c1.9-2.4,3.3-5,4.5-7.7c0.9-2,1.6-2.4,3.6-1.1c4.9,3.2,10.3,3.1,15.9,1.9c5.7-1.2,7.3-7.1,11.2-9.7c4.2-2.8,10-3.6,12.7-8.7
	c1.4-2.7,3.1-4.7,5.7-6.4c4.7-3,6.6-8,5.3-11.9c-1.4-4.4-5.4-6.6-11.7-6.7c-0.2,0-0.3,0-0.5,0c-3,0.5-5-0.1-5.4-3.8
	c-0.3-2.7-2.1-5-4.8-5.9c-2-0.7-2.7-1.9-3.1-3.9c-1.1-4.8-5.4-8.1-9.5-6.6c-5.6,2.1-5.4-0.6-5.4-4.6c0-10.6-7.7-18.1-18.3-18.1
	c-10.7,0-18.4,5-22.9,14.7c-0.9,2-1.6,3.5-4.3,2.6c-0.9-0.3-2.5,0.1-3.3,0.8c-2.2,1.9-4,1-6.3-0.1c-5.9-2.8-12.8-0.7-15.3,5
	c-1.5,3.4-3.5,4.1-6.9,4c-9.5-0.1-13.1,2.6-15.2,11.5c-0.7,2.9-1.9,3-4.4,2.7c-6.5-0.7-11.9,3-13.7,9.1c-2.3,8.3,2.9,22.4,13.3,24.1
	c2.3,0.4,3.3,1.4,4.2,3.5C1309.4,2928.9,1318.3,2930.5,1327.5,2920.5z M1658.2,2375.3c1.7,2.5,2.8,5,5.1,6.5
	c7.9,5.3,27.7,4.5,34-2.4c3.2-3.5,5.6-5.2,10.4-3.8c1.5,0.5,2.9,0.6,4.2,1.7c2.7,2.2,6.1,4,9.1,1.4c4.5-4,7.5-3,11.2,1.1
	c3.2,3.7,9.9,5,11.6,2.2c3.4-5.6,8-2.8,11.4-1.7c6.2,1.9,12.6,0.6,18.9,2.1c2.2,0.5,5.1,0.2,7.7,0.9c4.7,1.2,9.5,0.8,12.6-2.6
	c3.2-3.5,6.8-3.3,10.6-3.7c1.7-0.1,3.4,0.1,5-0.1c4.7-0.7,6.4-3.9,4.7-8.3c-0.5-1.2-0.9-2.4-0.9-3.8c0-8.6-4.8-11.3-12.2-6.7
	c-2.2,1.3-3.7,1.7-5.7-0.2c-1.2-1.1-3-1.6-4.7-1.3c-1.8,0.4-2.7-0.4-3.8-1.6c-6.5-7.7-13-7.6-19.4,0c-0.6,0.7-1,1.9-2.2,1.6
	c-1.3-0.3-0.8-1.6-1-2.5c-1.3-5.6-4.1-7.9-8.6-6.4c-3.2,1.1-5,0.9-6.6-2.3c-0.9-1.8-3.2-2.5-5.3-2.3c-4.3,0.4-7.4-1.1-11.3-3.2
	c-5.6-3.1-6.9-8.6-10.4-12.7c-2.1-2.5-3.7-4.6-7.1-4.2c-2.2,0.3-3.3-0.2-4.7-2.2c-3.4-5.3-13.4-7.1-17.8-2.9
	c-4.7,4.5-10.6,4.4-16,5.2c-6.4,0.9-11.7,5.5-9.5,10.5c1.9,4.1,1,5.9-2.4,8.2c-1.7,1.2-3,1.7-4.8,1.2c-3.2-1-6.1-0.2-8,2.4
	c-1.6,2.1-2.9,2-5,0.9c-4.1-2.1-8.1-1.9-11.6,1.4c-1.4,1.3-2.3,1.1-3.8,0c-9.1-7-16.2-4.5-18.9,6.6c-0.5,2-1.3,2.9-3,3.4
	c-2.3,0.7-2.4-1.2-3-2.4c-2.7-4.8-5.6-5.8-10.7-3.7c-3.5,1.4-10,13.9-9.3,17.7c0.2,1.2,0.7,2.2,1.9,2.7c1.1,0.5,1.8,1.2,2.2,2.4
	c2.9,7.3,8.3,9.2,14.8,4.9c4.6-3,10.4,2.2,14.5-2.5c0.4,0.5,0.8,1,1.3,1.5c6,6,12.1,6.2,18.9,0.6c0.9-0.8,1.6-1.7,3-0.8
	C1649,2381.6,1653.6,2379.6,1658.2,2375.3z M1417.3,1659.1c26.5,0,53,0,79.4,0c5.4,0,6-0.7,4-5.8c-5.7-14.6-16.3-23.1-31.6-25.8
	c-2.9-0.5-4.2-1.6-5.1-4.3c-3.5-10.2-10.3-17.9-19.5-23.2c-23.4-13.4-52.2-3.4-62.8,21.8c-1.4,3.3-2.8,4-6.2,3.3
	c-19.3-4.2-37.9,8.6-41.3,28.1c-0.9,5.2-0.3,6,5.3,6C1365.3,1659.1,1391.3,1659.1,1417.3,1659.1z M1758.3,1914
	c9.3,0,15.6-5,17.9-13.1c0.5-1.9,0.6-3.7,2.5-5.1c4.2-3.3,5.1-7.6,3-11.5c-2.4-4.5-6.5-5.2-10.8-4c-4.8,1.4-9.1-1.3-13.8-0.6
	c-1.4,0.2-1.8-1.3-2.3-2.3c-4.2-9.2-11.6-12.9-21.3-12.3c-2.3,0.1-3.7-0.7-4.9-2.6c-6.4-9.8-15.7-13.4-26.8-11.2
	c-11.1,2.2-17.6,9.7-19.8,20.7c-0.6,3.1-1.3,4.1-4.8,3.4c-8.3-1.7-15.7,3.1-17.9,11.3c-2.1,7.5,1.8,15,9.6,18.1
	c1.9,0.8,3.3,1.5,4.2,3.7c5,12.5,18.9,15.6,28.9,6.6c1.8-1.6,2.6-2.3,4.6,0c7.2,8,16.9,7.5,23.5-0.9c1.5-1.9,2.7-2.6,5-1.7
	c1,0.4,2.8,0.7,3.4,0.2c5.7-5.4,10.8-2.4,16.1,0.7C1756,1914.1,1757.9,1913.9,1758.3,1914z M1419.9,2397.1
	c-13.4-0.1-21.3,8.7-19.9,21.1c0.3,2.7,0.1,3.9-3,4c-2.8,0.1-5.4,1.5-6.3,4.2c-1,3.3-2.7,3.1-5.5,2.8c-8.4-1.1-12.5,3.2-11.4,11.7
	c0.3,2.7,1.1,5.3,3,7.3c3.3,3.3,7.3,5.8,8.7,10.8c0.3,1,2.3,2,3.7,2.3c7.6,1.5,15.2,2.5,21.8-3c1.3-1.1,2.2-0.6,3.7-0.4
	c6.6,0.8,12.7,3.1,18.9,5c2.6,0.8,5.2-0.7,7.4-2.3c1.4-1.1,2.7-1.5,4.5-0.5c7.4,4.1,14.5,2.7,20.9-2.3c1.6-1.3,2.8-1.1,4.5-0.5
	c4.9,1.9,9.2,1,12.4-3.4c0.8-1.1,1.8-1.8,3-2.5c4.4-2.5,5.7-5.6,3.3-9.8c-1.2-2.2-1.4-4-1-6.5c1-5.8-1.4-9-7-10.9
	c-2.6-0.9-5.4-1.4-7.9-0.6c-4,1.2-6.1,0.5-7-3.9c-0.7-3.4-3.3-6.4-6.9-6.3c-5.3,0-7.6-2.3-9.9-6.9c-2.8-5.6-6.7-6-12.5-2.3
	c-1.8,1.1-2.4-0.1-3.2-1C1429.9,2398.7,1424.5,2397.4,1419.9,2397.1z M1751.4,2112.1c7.5,0.1,11.3-3,12.2-9.8
	c0.3-2.1,0.8-3.2,3.1-3.7c3.4-0.7,4.9-3.1,5-6.5c0.1-3.4-1.8-5.4-4.7-6.3c-2.6-0.8-3.6-2.3-4.4-4.7c-1.6-5-4.4-8.6-10.4-8.1
	c-2,0.2-2.9-0.5-3.3-2.6c-2.3-9.8-10.5-16-20.2-15.3c-10,0.7-17.7,7.6-18.7,17.4c-0.4,3.5-1.4,3-3.6,1.5c-3.5-2.3-7.1-2.5-10.7,0.1
	c-3.2,2.3-3.1,5.7-2.9,9.1c0.2,3.2-0.1,5.6-3.5,7.3c-4.2,2.1-5.7,6.4-6.1,10.8c-0.7,8.4,8.3,16.8,15.2,13.9c3-1.3,4.2-0.6,6.1,1.5
	c6.7,7.4,18.3,6.7,23.7-1.6c1.8-2.8,2.8-5,6.4-2c1.7,1.5,4.5,1.3,6-0.4c2.6-2.8,5-3.1,8.2-1.2
	C1749.6,2112.2,1750.9,2112,1751.4,2112.1z M1325.5,2285c-3.1,0-6,0.5-7.8,3.3c-0.9,1.3-2.1,2-3.6,2.5c-5.4,2.3-6.8,5.3-5.2,11.6
	c1.5,6,6.2,10.6,11,9.5c4.1-1,8.4-1.4,12.4-2.7c6.2-2.1,7.5-6.6,5.4-16.8C1336.7,2287.9,1331.8,2284.9,1325.5,2285z M1751.2,2322
	c0.2,5.2,3.4,8.6,8.4,9c1.1,0.1,2.3-0.2,3.3,0.6c2.5,2.1,5.4,3.5,7.9,0.7c3-3.4,5.7-7.1,5.8-12c0-1.2-1.1-1.9-2.1-2.6
	c-5.3-4.1-10.5-8.4-16.9-1.9c-0.3,0.3-1,0.1-1.5,0.2C1752.2,2316.3,1751.7,2319.3,1751.2,2322z"/>
<path fill="#FAFEFE" d="M1876.8,3183c0-549.9,0-1099.8,0-1649.7c0-148,0-295.9,0-443.9c0-6.4,0-6.4-6.6-6.4
	c-207.8,0-415.6,0-623.4,0c0.2-0.3-0.5-1,0.5-1c1.3,0,2.7,0,4,0c207.3,0,414.7,0,622-0.1c3.7,0,4.6,0.8,4.6,4.6
	c-0.1,697.3-0.1,1394.7-0.2,2092C1877.7,3180,1878.9,3181.9,1876.8,3183z"/>
<path fill="#FAFEFE" d="M1598.1,2844.6c-6.9,9.4-12.8,10.9-23.4,5.6c-1.8-0.9-2.8-0.4-4,0.4c-3.9,2.3-7.7,1.5-10.6-1.3
	c-2.2-2.2-3.7-1.6-6-0.6c-6,2.8-12.2,3.2-18.4,0.3c-4-1.9-6.2-5-5.5-9.6c0.2-1.3,0.7-2.6-1-3.4c-3.2-1.5-5.2-3.8-3.7-7.5
	c1.6-3.8,5.1-3.7,8.5-3.4c1,0.1,1.9,0.3,2.9,0.4c0.4-12.4,9.1-18.1,21.2-13.4c6,2.4,11.2-0.5,16.8-0.6c1.2,0,2.6-1,3.8-0.6
	c3.8,1.3,7.1,1.1,11-0.7c2.8-1.2,4.1-1.8,3.9-4.9c-0.2-2,0.3-4.2,1.9-5.5c2.4-1.9,3.4-4.3,4.6-6.9c1.7-3.9,5.1-6,9.5-7.7
	c-3.2-2.3-6-4.5-8-7.2c-4.9-6.5-3.8-13,2.8-17.4c3.9-2.6,4-5.4,0.4-8.5c-1.4-1.2-2.7-2.5-3.9-3.9c-6-7.6-3.3-15.9,5.9-18.6
	c5.8-1.7,11.2-0.4,16.3,2.5c1.8,1,2.6,1.3,4.6-0.2c4.1-3.2,7.3-0.1,9.6,3c2.3,3.1,4.4,4.6,8.8,4.5c8.5-0.1,13,6.5,12.7,16.3
	c-0.1,3.2-1.5,6.6,2.6,8.5c0.5,0.2,1,1.3,0.9,1.7c-1.7,5.4,2.7,5.8,5.8,7.4c8.9,4.7,11.5,11.6,7.6,20.7c-1.4,3.3,0.6,3.8,2.6,3.5
	c5.1-0.8,9.8-0.4,14.4,2.4c2.4,1.5,3.2-1.6,4.8-2.4c1.7-0.9,1.5-2,0.9-3.7c-3-7.8-2.2-9.8,5.6-13.2c1.8-0.8,1.8-2.2,2.2-3.6
	c2.5-8.8,6.2-11.7,15.1-11.6c1.5,0,1.9-0.5,2.4-1.8c4-11.3,9-15,19.9-14.9c9.7,0.1,17.4,5.7,20.4,15.4c1.2,4,2.1,7,6.9,8.8
	c5.2,1.9,6.3,7.7,5.6,13.3c-0.2,1.3-0.9,2.6-0.8,3.9c0.1,2,0.4,4,1.3,5.8c1.5,3,3.5,0.2,5.1-0.1c9.5-1.7,16.5,3.2,17.6,12.9
	c0.3,2.2,0.2,4,3.3,3.2c1.8-0.5,4,0.3,5,1.8c2.5,3.8,6.3,5,10.2,6.6c6,2.5,9.2,7.3,8.5,11.6c-0.7,4.7-6,9.7-12.6,9.5
	c-6.1-0.2-10.1,4.9-15.9,4.5c-0.4,0-0.9,0.5-1.1,0.9c-3.9,6.1-9.4,5.4-15,3.1c-2.3-0.9-3.4-0.5-5,1.3c-7.3,8.8-20,9.8-28.9,2.1
	c-2.3-2-4.1-2.4-7-1.8c-4.6,1-9.4,0.6-13.1-3c-1.4-1.4-2.4-1.5-4.2-0.4c-9.3,5.8-16.3,4.6-23.8-4c-0.8-0.9-1.4-1.3-2.5-0.7
	c-2.1,1.2-4.4,1.6-6.7,0.8c-1.7-0.6-2.2,0.7-3.1,1.7c-6.3,8.1-16.6,11.2-26.4,8c-1.6-0.5-2.8-1-4.5,0.2c-5.1,3.6-10.2,3.5-15.1-0.3
	c-2.1-1.6-3.3-1.7-5.5-0.2c-4.1,2.7-8.3,1.5-11.1-2.8c-0.8-1.1-1-2.2-2.9-1.8C1608.4,2852.2,1608.4,2852.2,1598.1,2844.6z"/>
<path fill="#FAFEFE" d="M1546.5,2513.9c1.3-7.5,3.8-13.8,10.5-17.2c6.6-3.4,13.3-4.8,19.5,0.6c1.9,1.6,2.7,0.9,4-0.5
	c3.1-3.5,6.9-5.1,11.6-3.5c4.8,1.6,6.1,5.6,6.2,9.9c0.1,2.9,1.2,2.5,3,1.9c0.6-0.2,1.3-0.4,1.9-0.5c8.9-1.8,14.7,3.7,13.3,12.7
	c-0.3,2.2,8.7,14,10.6,14.9c5.2,2.6,10,3.4,15.2,0.2c1.1-0.7,3.3-0.6,4.3,0.1c5.1,3.7,10.3,1.3,15.5,0.7c1.7-0.2,2.6-1.3,3.8-2.2
	c9.5-6.7,19.6-2.7,21.8,8.7c0.4,2.3,1.2,3.5,3.8,3.6c1.8,0,4,0.2,5.2,1.3c3.3,2.7,7,2.5,10.8,2.7c7.8,0.3,13.7,7.1,11.5,13.5
	c-1.4,4-3.9,8-7.8,9.3c-5.6,1.9-10.8,5-16.7,6.3c-6.7,1.4-12.4,0.2-18-4.6c-2.8-2.4-7.2-5.2-12.2-2.6c-3.9,2.1-8.2,1.4-11.8-1.1
	c-2-1.4-3.6-1.5-5.9-0.6c-3.6,1.4-7.6,1.3-11.3,0c-3-1.1-5-1-7.3,1.6c-4.4,4.9-11.1,5.7-16.8,2.3c-2.2-1.3-3.9-1.5-6.4-0.7
	c-7.1,2.3-14.6-0.5-19.2-6.3c-3.1-3.9-8.4-3.5-12.2-5.9c-0.2-0.1-1.2,0.5-1.6,1c-3.7,4.4-8.7,5.3-14.1,4.7c-1.8-0.2-3.2,0.2-4.6,1.4
	c-4.1,3.4-8.8,3.7-13.6,1.7c-1.5-0.6-2.7-1.2-3.8,0.6c-6.4,10.2-27.4,9.4-34.4,2.5c-2.1-2.1-3.6-1.8-6-0.5c-8.8,4.8-17.5,4.9-25.5-2
	c-1.7-1.5-2.7-1.1-4.3,0c-6.9,4.5-14,6.4-21.1,0.5c-0.9-0.7-1.7-0.8-2.8-0.4c-0.8,0.3-1.6,0.8-2.4,0.7c-6.6-0.2-12.6,2-18.9,4
	c-6.2,2-12.7,0.5-17-5.4c-1.4-1.9-3-2.3-5.1-2.1c-6.4,0.5-12.4-0.6-16.3-6.4c-1-1.5-2.2-1-3.5-0.8c-4.9,0.5-9.3-0.9-13.1-3.9
	c-4.5-3.6-3.9-9.6,1.1-12.3c2.3-1.2,5-2.4,7.1-1.7c5.9,1.9,10.6,0,15.4-2.9c0.4-0.3,1-0.5,1.4-0.4c6.2,0.4,12.4,1.2,16.1-5.6
	c0.2-0.4,1.2-0.8,1.8-0.7c6.1,1.2,10-3,14.7-5.5c9.7-5.1,20-5.8,30.1-0.5c3.4,1.8,4.5,6.4,7.5,7.7c2.7,1.2,5.8-3,9.5-2.8
	c3.8,0.2,7.3,1,9.9,3.9c1.6,1.8,3,2.2,4.9,0.3c2.4-2.4,5.4-2.3,8.4-1.1c1.9,0.8,2.9,0.8,3.3-1.8c1.1-6.9,2.6-8.1,9.9-8.3
	c2.2-0.1,3.5-0.3,4.1-3c1.5-7.3,5.8-10.5,13.3-11.1C1532.2,2507.4,1539.5,2509,1546.5,2513.9z"/>
<path fill="#FAFEFE" d="M1375.3,2743.6c-8.8,9.2-17.7,10.3-28.3,2.9c-2-1.4-2.8-0.5-4.1,0.6c-5.7,4.8-12,7-19.4,4.9
	c-0.6-0.2-1.4-0.2-1.9-0.6c-3.4-2.6-6.6-5-11-1.6c-0.7,0.5-2.3,0.1-3.4-0.2c-3.2-0.9-7.1-0.3-9.7,1.5c-7.2,5.2-15.6,4-20.3-3.1
	c-1.1-1.6-2.2-2.3-4.1-2.1c-4.3,0.5-7.7-0.9-9.2-5.1c-1.7-4.5,0.3-10.9,4.4-13.4c2.3-1.4,3.3-3,4-5.7c2.4-9.8,15.2-13.1,22.5-6
	c0.5,0.5,0.9,1.1,1.4,1.3c0.9,0.3,9.3-6.2,9.6-7.1c2.2-8.3,9.4-13.6,17.8-12.6c2.2,0.2,2.7-0.1,3.4-2.2c1.1-3.5,2.4-6-0.9-9.9
	c-4.4-5.2,3.3-17.4,11.3-17.9c5.2-0.3,5.4-1.6,4.5-6.2c-1.9-8.9,3.9-19.7,11.9-24c9.4-5.1,20.5-0.9,24.4,9.7c0.8,2.1,1.4,3.6,4,3.3
	c1.2-0.1,2.4,0.3,3,1.4c1.1,2,2.3,2,4.5,1.3c7.8-2.5,13.6,1.6,14,9.9c0.1,2.8,0.3,4.8,3.8,5c1.3,0,3,1,2.9,2.4
	c-0.4,5.4,3.7,5.3,7,6.5c5.7,2.1,8,5.6,8.3,11.7c0.1,1.4-0.4,4.2,0.6,3.9c3.3-0.9,5.3,3.5,8.7,1.3c9.9-6.4,18.6-3.2,21.8,8.2
	c1,3.6,2.4,5.1,6,4.5c0.2,0,0.4,0,0.5,0c5,4.2,12.7,4.7,15.7,11.7c1.8,4.3,5,5.5,9.4,3.2c2.9-1.5,5.9-2.1,9.2-1.9
	c2.9,0.1,5.3,1.2,6.8,3.6c1.9,3.1,3.8,5.8,7.8,6.7c1.6,0.4,2.6,0.8,4.3,0c7.5-3.6,18.6,3,19.1,11.3c0.3,4.2-6.4,12.1-10.8,12
	c-3.5-0.1-6.8,1-10,1.2c-5.1,0.3-10.2-1.6-15.2,0.9c-6.3-4.5-12.8-0.5-19.2-0.4c-8.7,0-11.9-2.4-13.2-10.8c-0.4-2.5-1.2-2.1-2.8-1.6
	c-2.6,0.7-5.2,1.5-7.8,0.2c-1.4-0.7-2.2,0-2.9,1.1c-5.6,8.2-16.7,5.4-21.7-2.5c-1.4-2.2-2.7-2.3-5.1-2.9c-6.4-1.6-8.3,1.4-11.2,6.3
	c-3.9,6.8-15.8,8.2-22.4,3.5c-2-1.5-3.2-1.8-5.5-0.3C1383.8,2749.6,1379.8,2748.3,1375.3,2743.6z"/>
<path fill="#FAFEFE" d="M1553.8,1844c0.5,1.6-1.3,5.2,1,5.3c3.4,0.1,7.3,1.1,10.6-1.4c7.8-6.2,12.2-5.5,16.8,3.2
	c1.5,2.7,3.5,1.9,5.5,2.1c6.7,0.4,11.1,3.9,13.1,10.4c1.8,5.7-0.3,11.6-5.4,15.4c-5,3.8-13.5,3.3-18.4-1.6c-2.1-2.1-2.8-1.8-4.5,0.2
	c-3.3,3.9-7.6,5.9-12.8,5.6c-2.7-0.2-4.2,0.9-5.7,3c-10.5,14.2-30.4,15.5-42.7,2.9c-3-3.1-5.2-4.2-9.6-2.3
	c-10.4,4.4-21.9,1.1-29.3-7.8c-1.9-2.3-3.3-3.1-6.1-1.6c-4,2.1-8.3,2.4-12.6,1.1c-2.9-0.9-4.5,0.2-6.2,2.5
	c-7.5,9.8-18,12.4-29.2,7.4c-1.9-0.9-3.5-1.1-5.6-0.2c-15.5,7-28,4.8-39.9-7.4c-2.2-2.2-3.4-0.8-5.1,0.1c-11.9,6.6-25.8,0.9-29-11.8
	c-3.6-14.5,9.2-27.2,23.8-23.6c5.3,1.3,8.9-2,8.2-7.5c-1-7.9,1.1-12.8,6.7-15.7c5.8-3,10.9-2.1,16.7,3.3c2.5,2.4,5.4,0.9,8,1.9
	c4.6,1.7,4.3-2.5,5.3-4.6c4.9-11.1,13.3-17.4,25.2-18.6c12.4-1.2,22,4.1,28.6,14.6c1.4,2.3,2.4,2.8,5,1.7
	c13.9-5.9,27.9,0.3,33.1,14.5c0.8,2.2,1.5,4.2,4.1,4.3c2.7,0,2.1-2.5,2.6-4c3.6-11,15.5-18.7,26.5-17
	C1545.5,1820.3,1553.9,1830.3,1553.8,1844z"/>
<path fill="#FAFEFE" d="M1656.5,1354.6c-1.2-5.2,2.6-11.4,8.7-14.4c7.1-3.4,14.9-1.8,20.5,4.1c2.8,3,2.8,3,7.2,1.5
	c-2.3-4.4-4.7-8.6-5.7-13.7c-2.7-13.9,7.2-28.8,21.3-32.2c14.2-3.4,28.4,4.2,33.6,18.3c0.7,1.8,0.4,4.8,2.6,5
	c4,0.3,9.5,3.8,11.4,1.9c5.6-5.5,12-8.5,19.1-10.7c0.7-0.2,1-1.6,1.6-2.5c9.6-13.5,29-12.9,37.6,1.4c1.5,2.5,3,4.7,5.6,6.1
	c2.7,1.5,4.2,4.2,5.7,6.8c3.3,5.9,8.5,6.2,12.2,0.5c5.3-8,13.7-10.4,22.7-6.5c1.9,0.8,3.1,1.2,4.6-0.8c4-5.2,8.9-9,15.9-9
	c2.2,0,3-1.6,3.9-3.3c6.5-13.6,20.3-20,33.9-15.8c13.5,4.2,21.3,17.4,18.9,32.3c-0.3,1.9-1.1,4,1.8,4c2.5,0,5.3,4.1,7.7-0.5
	c4.7-9,11.2-12.7,19.5-11.4c8.4,1.4,13.1,6.9,14.6,17.2c0,0.3,0.3,0.6,0.6,1.1c6.5-2.7,12.9-2.6,19,1.2c3.7,2.3,4.6,7.6,7.7,9.4
	c3,1.7,8-0.6,12,1.3c3.8,1.9,7.3,4.1,8.5,8.5c-80.5,0-160.9,0-241.4,0.1C1744.2,1354.5,1700.3,1354.6,1656.5,1354.6z"/>
<path fill="#FAFEFE" d="M1629,1545c6.4,2.9,10.1-1,14.9-7c15.8-19.7,45.1-15.3,55.9,7.6c1.2,2.6,2.2,3.2,5.2,2.7
	c11.6-1.6,21.9,1.1,29.1,11.2c1.3,1.8,2.8,2.5,5,2.6c15.2,1.3,26.2,12.1,26.3,26.9c0,12.8-7.5,24.9-24.5,27.6
	c-4.7,0.7-9.3-0.3-13.6-2.3c-2.6-1.2-3.6-0.6-4.7,2.1c-5.4,13.8-18.1,19.9-31.8,15.3c-3.7-1.3-5.4,0.2-7.7,2.4
	c-18.5,18.6-48.8,14.8-62.1-7.6c-1.9-3.2-3.3-6.6-4-10.2c-0.6-2.9-1.7-2.8-4.1-2.2c-11,2.8-20.8-1.7-24.8-11.3
	c-4.1-9.8-0.4-20.4,9.4-26c2.6-1.5,3.2-3.3,3.3-6C1601.6,1555.4,1612.6,1545,1629,1545z"/>
<path fill="#FAFEFE" d="M1270.8,2018.1c-1.3-4.5,1.1-8.7,6.3-10.4c2.5-0.8,4.2-2,5.8-4.1c3-4.1,7.4-4.7,12-2.3
	c5.2,2.7,9.6,0.8,11.1-5c1.2-4.7,5-7.5,10.5-7.2c3.2,0.2,5.1-0.8,7-3.5c4.4-6.4,11-8.6,18.4-7.3c7,1.3,11.8,5.7,14.3,12.6
	c0.6,1.6-0.2,4.9,1.9,4.5c2.9-0.5,6.4-0.4,8.4-3.4c6.2-9.5,12.2-10,19.7-1.7c3,3.3,6.6,2.7,8.4-1.5c2.3-5.4,6.3-8.9,12.2-9.9
	c3-0.5,5.4-1.5,7.7-3.9c4.8-5,11-5.3,17.1-2.7c2.2,1,3.4,0.7,5.2-0.6c13-9.1,27.3-5.1,33.9,9.2c2,4.2,5.7,5.3,9.3,2.6
	c4.6-3.4,9.5-3.7,14.3-0.3c1.9,1.3,3,1,4.9,0.2c11.4-4.9,21.6-1.7,27.9,8.8c1.4,2.3,2.2,2.8,4.9,1.8c6.9-2.7,12.5-1,16.6,5
	c2.4,3.4,4.7,3.1,6.7,0.5c3.3-4.2,7.3-6.7,12.7-6.7c2,0,2.3-1.3,2.6-3c2.5-13.9,14.3-19.8,26.8-13.4c1.7,0.9,2.8,0.8,4.6,0.1
	c6.7-2.5,11.8,0.3,13.7,7.2c0.1,0.5,0.1,1.2,0.4,1.4c4.7,3.5,8.2,7.7,11.1,12.9c0.9,1.6,6.6,2.1,9.9-0.8c6.4-5.5,13.2-3.1,14.4,5.2
	c0.3,2.2,1.4,3,3,4c4.1,2.5,6.6,6,6,11.2c-1.7,0-3.3,0.1-5,0.1c-91.1,0-182.2,0-273.4,0C1345.1,2017.9,1308,2018,1270.8,2018.1z"/>
<path opacity="0.76" fill="#FAFEFE" d="M276.3,270c-6,5-11.8,6-18,1.2c-1.7-1.3-2.9-0.5-4.3,0.4c-6.4,3.9-13.2,4-19.9,1.5
	c-2.7-1.1-4.3-0.7-6.2,1.5c-4.4,4.8-9.9,7.6-16.2,9.2c-4.8,1.1-9.3,0.5-13.7-1.6c-3.3-1.6-6.7-4-6.6-7.4c0.4-8.1-8.4-14.2-4.5-22.7
	c1-2.1,2.1-4.2,4.2-5.1c10.1-4.6,17.8-12.7,26.3-19.7c6.5-5.5,22.2-6,26.5,3.1c0.4,0.7,1.2,2,1.3,1.8c5.4-2.4,12.2,1.1,16.6-2.2
	c8.3-6,16.9-6.4,26-4.2c3.5,0.9,5.5,1.1,7.8-2.7c5.3-8.9,14.3-9.4,21.2-1.6c1.2,1.3,2.2,1.5,3.7,1.1c2.6-0.6,5.1-1.1,7.8-1.5
	c10.4-1.1,17.5,4,19.4,14c0.2,1.6-0.2,4.5,2.7,3.2c1.8-0.9,5.5-0.2,4.6-4.8c-2.4-13.1,1.1-18,13.9-20.4c3.4-0.6,5.7-1.7,7.1-5.4
	c1.8-5.3,6.5-8.1,11.8-8.3c4.9-0.1,10,0.6,12,6.4c0.9,2.6,2.1,1.8,3.7,1.1c16.1-7.4,32,6.8,31.9,21c0,4.5,4.6,7.3,8.9,5
	c5-2.7,10-3.1,15.3-1.6c2.2,0.6,4-0.2,6-0.5c9.9-1.6,19.5,4.6,23.1,14.9c2.2,6.5-1.6,13.9-9.8,19.1c-6.1,3.8-12.7,5.6-19.8,4.3
	c-2.3-0.4-4.2-0.9-5.5,2c-7.4,15-36.6,15.9-46.6,5.7c-2.8-2.8-4.8-2.8-8.1-0.5c-9,6.4-15.3,5.7-24.1-1.5c-1.8-1.5-2.9-0.7-4.3,0
	c-6,2.9-11.8,2.8-17.3-0.9c-2.1-1.5-3.4-1-5.4,0.1c-5,2.8-10.1,3.3-14.5-1.1c-2.3-2.3-3.4-0.9-4.8,0.7c-8.5,10.6-20,13.4-32.8,11.7
	C286.4,284.2,279.7,279.1,276.3,270z"/>
<path fill="#FAFEFE" d="M1701.4,1244c-34.1,0-68.3,0-102.4,0c-5.5,0-5.7-0.4-3.8-5.7c6.6-17.4,25.2-25.7,42.5-18.6
	c3.5,1.5,5,1.1,7.1-2.2c7.6-12.6,19.1-19.2,33.9-19.3c3.7,0,5.1-1.3,6.2-4.7c5.7-18.7,24-34.5,50.3-32.5c19,1.4,37,17.9,40.8,37.7
	c0.9,4.8,1.5,9.7,0.6,14.4c-1,4.8,0.9,5.1,4.8,5.1c12.7-0.1,23.4,8.3,26.4,20.3c1.4,5.5,1.3,5.6-4.3,5.6
	C1769.3,1244,1735.3,1244,1701.4,1244z"/>
<path fill="#FAFEFE" d="M1327.5,2920.5c-9.2,10-18.2,8.4-22.9-3.4c-0.8-2.1-1.9-3.1-4.2-3.5c-10.4-1.8-15.6-15.9-13.3-24.1
	c1.7-6.2,7.2-9.9,13.7-9.1c2.5,0.3,3.7,0.2,4.4-2.7c2.1-9,5.7-11.6,15.2-11.5c3.3,0,5.4-0.6,6.9-4c2.6-5.7,9.5-7.8,15.3-5
	c2.2,1.1,4,2,6.3,0.1c0.8-0.7,2.3-1.1,3.3-0.8c2.7,0.9,3.3-0.6,4.3-2.6c4.5-9.7,12.2-14.7,22.9-14.7c10.6,0,18.3,7.5,18.3,18.1
	c0,4-0.2,6.7,5.4,4.6c4.1-1.5,8.4,1.8,9.5,6.6c0.5,2,1.1,3.2,3.1,3.9c2.7,0.9,4.5,3.2,4.8,5.9c0.3,3.7,2.3,4.3,5.4,3.8
	c0.2,0,0.3,0,0.5,0c6.3,0,10.2,2.3,11.7,6.7c1.3,3.8-0.7,8.9-5.3,11.9c-2.7,1.7-4.3,3.7-5.7,6.4c-2.7,5.1-8.5,5.9-12.7,8.7
	c-3.9,2.6-5.5,8.5-11.2,9.7c-5.5,1.2-11,1.3-15.9-1.9c-2-1.3-2.8-0.9-3.6,1.1c-1.2,2.8-2.6,5.4-4.5,7.7
	c-11.5,14.1-27.3,11.4-40.1,2.4C1333.9,2931.1,1330,2926.7,1327.5,2920.5z"/>
<path fill="#FAFEFE" d="M1658.2,2375.3c-4.6,4.3-9.2,6.3-14.7,2.6c-1.3-0.9-2,0-3,0.8c-6.8,5.6-12.9,5.4-18.9-0.6
	c-0.5-0.5-0.9-1-1.3-1.5c-4.1,4.7-9.9-0.5-14.5,2.5c-6.5,4.3-12,2.4-14.8-4.9c-0.5-1.2-1.1-1.9-2.2-2.4c-1.2-0.5-1.7-1.5-1.9-2.7
	c-0.7-3.8,5.8-16.2,9.3-17.7c5.1-2.1,8.1-1,10.7,3.7c0.7,1.2,0.8,3.1,3,2.4c1.8-0.5,2.6-1.4,3-3.4c2.7-11.1,9.8-13.6,18.9-6.6
	c1.5,1.1,2.4,1.3,3.8,0c3.5-3.2,7.5-3.4,11.6-1.4c2.1,1,3.4,1.2,5-0.9c1.9-2.6,4.8-3.4,8-2.4c1.9,0.6,3.1,0,4.8-1.2
	c3.4-2.3,4.3-4,2.4-8.2c-2.3-5,3.1-9.6,9.5-10.5c5.5-0.8,11.3-0.7,16-5.2c4.4-4.2,14.4-2.4,17.8,2.9c1.3,2.1,2.5,2.5,4.7,2.2
	c3.4-0.5,5,1.7,7.1,4.2c3.5,4.1,4.7,9.6,10.4,12.7c3.9,2.1,7,3.6,11.3,3.2c2-0.2,4.4,0.6,5.3,2.3c1.6,3.2,3.4,3.3,6.6,2.3
	c4.4-1.5,7.2,0.9,8.6,6.4c0.2,0.9-0.3,2.2,1,2.5c1.2,0.3,1.6-0.9,2.2-1.6c6.5-7.6,13-7.6,19.4,0c1.1,1.3,2,2,3.8,1.6
	c1.7-0.4,3.5,0.1,4.7,1.3c2,1.9,3.5,1.5,5.7,0.2c7.4-4.5,12.1-1.8,12.2,6.7c0,1.4,0.4,2.6,0.9,3.8c1.7,4.4,0,7.5-4.7,8.3
	c-1.6,0.3-3.3,0-5,0.1c-3.8,0.3-7.4,0.2-10.6,3.7c-3.1,3.4-8,3.8-12.6,2.6c-2.5-0.7-5.4-0.3-7.7-0.9c-6.2-1.5-12.6-0.2-18.9-2.1
	c-3.4-1-8-3.9-11.4,1.7c-1.7,2.8-8.4,1.5-11.6-2.2c-3.6-4.1-6.7-5.1-11.2-1.1c-3,2.6-6.4,0.8-9.1-1.4c-1.3-1.1-2.7-1.3-4.2-1.7
	c-4.7-1.4-7.1,0.3-10.4,3.8c-6.3,6.9-26.1,7.7-34,2.4C1661,2380.2,1659.9,2377.8,1658.2,2375.3z"/>
<path fill="#FAFEFE" d="M1308.9,3133.5c-4.4-3.7-3.1-10.3,2.6-13.1c3.1-1.5,6.4-1.8,9.7-1c1.6,0.4,2.9,0.7,3.6-1.3
	c3.8-9.7,14.2-10.9,22.8-9.8c1.5,0.2,3.1,0.4,4.3,1.1c5.2,2.8,9.9,4.8,13.6-2.3c1.1-2.1,4.3-2.4,6.9-2.1c2.8,0.3,4-0.6,4.6-3.6
	c1.5-7.6,5.5-13.3,13.6-14.7c7.7-1.4,14.2,1.5,19.1,7.3c2.2,2.6,3,3,5.2,0c6.6-8.9,21.8-12.2,31.5-6.9c2.7,1.5,3.8,1.5,5.7-1.3
	c4.2-6.2,10.5-8.4,17.9-7.3c7.3,1.1,11.7,5.4,12.8,12.6c0.5,2.9,3.2,3.5,4.4,5.1c4.4,6.1,8.8,2.7,13.6,1.4c9-2.5,17.8-2.8,25.5,3.7
	c4.8,4,6.7,9.5,6.8,15.5c0,2.8,0.6,3.3,3.4,2.7c5.9-1.2,11.6-0.4,16.7,3c4.4,3,5.4,6.3,3.3,11c-1.5-0.1-3-0.2-4.5-0.2
	c-79.6,0-159.1,0-238.7,0C1311.9,3133.3,1310.4,3133.5,1308.9,3133.5z"/>
<path fill="#FAFEFE" d="M1417.3,1659.1c-26,0-52,0-77.9,0c-5.6,0-6.2-0.8-5.3-6c3.4-19.5,22-32.3,41.3-28.1c3.4,0.7,4.8,0,6.2-3.3
	c10.6-25.2,39.4-35.1,62.8-21.8c9.2,5.3,16,13,19.5,23.2c0.9,2.7,2.2,3.8,5.1,4.3c15.3,2.7,26,11.3,31.6,25.8c2,5.1,1.5,5.8-4,5.8
	C1470.2,1659.1,1443.7,1659.1,1417.3,1659.1z"/>
<path fill="#FAFEFE" d="M1576,3021.6c-1.9-5.2,2.2-7.3,5.5-8.1c5.7-1.3,9.5-3,11.3-9.5c1.4-5.1,12.3-7.8,19.6-6.6
	c2.9,0.5,6,3.4,8.4,1.9c2.3-1.4,0.6-5.2,1.1-8c1.9-9,11.6-18.1,22.6-11.8c2.5,1.5,3.6,1,4.1-1.7c1.8-9.6,9.9-10.2,17.2-11.5
	c6.2-1.1,11.7,0.3,15,6.2c1.2,2.1,2.2,2,4.3,0.8c5.4-3,8.8-1.8,11.8,3.8c1,2,2,2.4,4.2,2.1c14.4-1.7,24,9.7,22,21
	c-0.3,1.7-0.1,2.6,2,2.2c4.4-1,7.8,0.9,10.9,3.6c1.4,1.2,2.2,1.9,3.9-0.1c4.8-5.6,12.7-5.5,17.1,0.4c2.2,2.9,4.5,3.7,7.9,3.8
	c7.2,0.2,10.6,3.7,11.8,11c-64.8,0-129.6,0-194.3,0.1C1580.3,3021.3,1578.1,3021.5,1576,3021.6z"/>
<path fill="#FAFEFE" d="M1330.9,1354.1c-1.5-6.2,1.7-11,5-15.4c6.1-8.1,14.7-11.8,24.8-11.3c2.5,0.1,3.4-0.5,4.4-2.7
	c5.8-13.8,15.9-21.9,31.1-23c11.1-0.8,20.6,3,28.3,11c1.7,1.8,3.3,2.3,5.7,2c10.9-1.3,20.1,6.4,20.7,17.3c0,0.8,0.1,1.7,0,2.5
	c-0.1,2.2,1,3.6,2.9,4.2c2,0.6,2.5-1.3,3.2-2.5c4.3-6.4,10.2-10.5,17.7-12.1c19.2-4.1,35.4,9.8,35,29.7c-14.1,0-28.3,0.1-42.4,0.1
	C1421.7,1354.1,1376.3,1354.1,1330.9,1354.1z"/>
<path fill="#FAFEFE" d="M1455.2,1780.2c-0.5-0.1-2.3,0.1-3.7-0.6c-5.3-3-10.4-6.1-16.1-0.7c-0.6,0.5-2.3,0.2-3.4-0.2
	c-2.3-0.9-3.6-0.1-5,1.7c-6.6,8.4-16.3,8.9-23.5,0.9c-2-2.2-2.8-1.6-4.6,0c-10.1,9.1-24,5.9-28.9-6.6c-0.9-2.2-2.2-3-4.2-3.7
	c-7.7-3.1-11.6-10.6-9.6-18.1c2.2-8.2,9.6-13,17.9-11.3c3.5,0.7,4.1-0.3,4.8-3.4c2.2-11,8.7-18.5,19.8-20.7s20.4,1.4,26.8,11.2
	c1.2,1.9,2.6,2.7,4.9,2.6c9.8-0.6,17.2,3,21.3,12.3c0.5,1,0.9,2.5,2.3,2.3c4.6-0.7,9,2,13.8,0.6c4.2-1.3,8.4-0.5,10.8,4
	c2.1,3.9,1.2,8.2-3,11.5c-1.9,1.5-2,3.3-2.5,5.1C1470.9,1775.2,1464.5,1780.2,1455.2,1780.2z"/>
<path fill="#FAFEFE" d="M787.9,525.9c-0.6-3.1-0.7-6.2-3-8.8c-5-5.7-6-13.2-3.5-19.9c2.8-7.8,7.8-9.2,12.8-6.9
	c5.7,2.4,10.9-2.3,16.3-1c1.7,0.3,2.1-2.3,2.7-4c4.8-16.1,13.6-22.4,25.2-21.3c2.7,0.2,4.4-1.2,5.8-4.5c7.6-17,18.5-23.2,31.7-19.4
	c13.1,3.8,20.8,16.8,23.4,35.9c0.8,5.4,1.5,7.1,5.7,5.9c9.8-2.9,18.5,5.4,21.1,19.6c2.4,13-2.2,26-11.3,31.4c-2.4,1.2-3.9,2.6-5,6.4
	c-5.8,21.7-22.2,27.2-34.1,11.4c-2.1-2.8-3.1-3.8-5.4,0c-8.5,13.9-20,13-27.8-1.6c-1.7-3.1-3.2-4.5-5.9-2.9c-1.3,0.7-3.3,1.2-4,0.3
	c-6.7-9.4-12.8-4-19,1.2c-1.7,1.2-3.8,0.9-4.4,1C798.1,548.6,790.5,540,787.9,525.9z"/>
<path fill="#FAFEFE" d="M1419.9,2397.1c4.5,0.4,10,1.6,14.3,5.8c0.9,0.8,1.4,2.1,3.2,1c5.8-3.6,9.7-3.3,12.5,2.3
	c2.3,4.6,4.6,6.9,9.9,6.9c3.6,0,6.2,2.9,6.9,6.3c0.9,4.4,3,5,7,3.9c2.5-0.7,5.3-0.2,7.9,0.6c5.6,1.9,7.9,5.2,7,10.9
	c-0.4,2.4-0.2,4.3,1,6.5c2.4,4.3,1.1,7.4-3.3,9.8c-1.2,0.7-2.2,1.4-3,2.5c-3.2,4.4-7.5,5.3-12.4,3.4c-1.7-0.7-2.9-0.8-4.5,0.5
	c-6.4,5-13.5,6.3-20.9,2.3c-1.8-1-3.1-0.6-4.5,0.5c-2.2,1.6-4.9,3.1-7.4,2.3c-6.3-1.9-12.3-4.2-18.9-5c-1.5-0.2-2.3-0.7-3.7,0.4
	c-6.6,5.5-14.2,4.6-21.8,3c-1.4-0.3-3.4-1.2-3.7-2.3c-1.4-5-5.4-7.5-8.7-10.8c-1.9-1.9-2.7-4.6-3-7.3c-1.1-8.5,3-12.8,11.4-11.7
	c2.8,0.4,4.5,0.5,5.5-2.8c0.8-2.8,3.5-4.1,6.3-4.2c3.1-0.1,3.3-1.2,3-4C1398.7,2405.7,1406.6,2397,1419.9,2397.1z"/>
<path fill="#FAFEFE" d="M1751.4,2112.1c-0.4-0.1-1.8,0.1-2.7-0.4c-3.2-1.8-5.6-1.5-8.2,1.2c-1.5,1.6-4.3,1.8-6,0.4
	c-3.5-3-4.5-0.8-6.4,2c-5.5,8.3-17,9-23.7,1.6c-1.9-2.1-3.1-2.8-6.1-1.5c-6.9,2.9-15.9-5.5-15.2-13.9c0.4-4.5,1.9-8.7,6.1-10.8
	c3.4-1.7,3.7-4.1,3.5-7.3c-0.2-3.3-0.3-6.7,2.9-9.1c3.5-2.6,7.1-2.4,10.7-0.1c2.1,1.4,3.2,1.9,3.6-1.5c1-9.8,8.7-16.8,18.7-17.4
	c9.7-0.6,18,5.5,20.2,15.3c0.5,2.1,1.3,2.8,3.3,2.6c6-0.6,8.8,3.1,10.4,8.1c0.8,2.4,1.8,4,4.4,4.7c2.9,0.9,4.8,2.9,4.7,6.3
	c-0.1,3.4-1.7,5.9-5,6.5c-2.3,0.4-2.8,1.5-3.1,3.7C1762.7,2109.1,1758.9,2112.2,1751.4,2112.1z"/>
<path fill="#FAFEFE" d="M1325.5,2285c6.3-0.1,11.2,2.9,12.1,7.4c2.1,10.2,0.9,14.7-5.4,16.8c-4,1.3-8.2,1.8-12.4,2.7
	c-4.7,1.1-9.4-3.5-11-9.5c-1.6-6.2-0.2-9.3,5.2-11.6c1.4-0.6,2.7-1.2,3.6-2.5C1319.5,2285.4,1322.4,2284.9,1325.5,2285z"/>
<path fill="#8CC7D2" d="M1308.9,3133.5c1.5-0.1,3-0.3,4.5-0.3c79.6,0,159.1,0,238.7,0c1.5,0,3,0.1,4.5,0.2c-1,2.3-3.1,1.5-4.8,1.5
	c-79.3,0-158.6,0-238,0C1312.1,3135,1310,3135.8,1308.9,3133.5z"/>
<path fill="#8CC7D2" d="M1349,1202.6c2.5-0.1,5-0.3,7.5-0.3c63.8,0,127.6,0,191.4,0c2,0,4-0.1,6-0.2c-0.8,2.4-2.8,1.9-4.6,1.9
	c-65.3,0-130.6,0-195.8,0C1351.8,1204,1349.9,1204.6,1349,1202.6z"/>
<path fill="#8CC7D2" d="M1576,3021.6c2.2-0.1,4.3-0.4,6.5-0.4c64.8,0,129.6-0.1,194.3-0.1c-0.9,2.3-2.9,1.8-4.7,1.8
	c-63.9,0-127.8,0-191.7,0C1578.9,3023,1577,3023.6,1576,3021.6z"/>
<path fill="#FAFEFE" d="M1751.2,2322c0.5-2.7,0.9-5.7,4.9-6c0.5,0,1.2,0.1,1.5-0.2c6.5-6.5,11.7-2.2,16.9,1.9
	c0.9,0.7,2.1,1.4,2.1,2.6c-0.1,4.9-2.8,8.6-5.8,12c-2.5,2.8-5.4,1.5-7.9-0.7c-1-0.9-2.2-0.6-3.3-0.6
	C1754.7,2330.7,1751.4,2327.2,1751.2,2322z"/>
<path fill="#8CC7D2" d="M1270.8,2018.1c37.1-0.1,74.3-0.1,111.4-0.2c91.1,0,182.2,0,273.4,0c1.7,0,3.3,0,5-0.1
	c-1,2.4-3.1,1.1-4.6,1.1c-81.7,0.1-163.3,0.1-245,0.1c-44.7,0-89.3,0-134,0C1275,2019,1272.7,2019.6,1270.8,2018.1z"/>
<path fill="#8CC7D2" d="M1489.9,1752.1c43.8,0,87.6-0.1,131.4-0.1c80.5,0,160.9-0.1,241.4-0.1c-0.7,2.2-2.5,1-3.7,1
	c-121.4,0.1-242.9,0.1-364.3,0.1C1493,1753,1491.3,1753.4,1489.9,1752.1z"/>
<path fill="#8CC7D2" d="M1528.8,1391c48.8,0,97.6-0.1,146.4-0.1c57.5,0,114.9,0,172.4-0.1c2,0,4.8,1.4,6-1.8
	c1.6,1.8,0.7,2.7-1.2,2.9c-1.6,0.2-3.3,0.1-5,0.1c-104.1,0-208.2,0-312.4,0C1532.9,1392,1530.7,1392.6,1528.8,1391z"/>
<path fill="#8CC7D2" d="M1270.8,1508.1c41.8-0.1,83.6-0.1,125.4-0.1c50,0,100,0,149.9,0c7.3,0,7.3,0,8.8-7c0.1-0.4,0.6-0.7,0.9-1.1
	c0,1.2-0.2,2.3-0.1,3.5c0.5,4.4-1.6,5.7-5.8,5.7c-91.5-0.1-182.9-0.1-274.4-0.1C1273.9,1509,1272.2,1509.3,1270.8,1508.1z"/>
<path fill="#8CC7D2" d="M1330.9,1354.1c45.4,0,90.9-0.1,136.3-0.1c14.1,0,28.3-0.1,42.4-0.1c-0.6,2.3-2.5,1.1-3.6,1.1
	c-56.8,0.1-113.6,0.1-170.4,0.1C1334,1355,1332.3,1355.4,1330.9,1354.1z"/>
<g opacity="0.81">
	<path opacity="0.92" fill="#FAFEFE" d="M383.1,283.5c-1.6-0.7-2.1-2-1.8-3.7c0.7-4.4,2.1-8.8,5.9-11.1c4.8-2.9,7.3-7.1,10.2-11.6
		c7.3-11.4,18.1-16.8,31.8-15.4c3.1,0.3,3.6-1.6,4.6-3.5c6.3-11.8,15.7-18.9,29.3-20.5c17.7-2,33.1,8.9,38.3,23.9
		c1.4,4,3.1,6.7,7.4,7.3c0.3,0,0.7,0.2,0.9,0.4c4.5,3.4,7.7,2.5,12-1.5c10.1-9.3,26.5-3.8,31.3,10.2c1,2.8,1.8,3.8,4.7,2.5
		c12.6-5.6,31.3,5.3,30,22.5c-2,0.1-4,0.2-6,0.2c-63.8,0-127.6,0-191.4,0C388,283.2,385.5,283.4,383.1,283.5z"/>
	<path opacity="0.76" fill="#FAFEFE" d="M364.4,283.5c-1.6-0.7-2.1-2-1.8-3.7c0.7-4.4,2.1-8.8,5.9-11.1c4.8-2.9,7.3-7.1,10.2-11.6
		c7.3-11.4,18.1-16.8,31.8-15.4c3.1,0.3,3.6-1.6,4.6-3.5c6.3-11.8,15.7-18.9,29.3-20.5c17.7-2,33.1,8.9,38.3,23.9
		c1.4,4,3.1,6.7,7.4,7.3c0.3,0,0.7,0.2,0.9,0.4c4.5,3.4,7.7,2.5,12-1.5c10.1-9.3,26.5-3.8,31.3,10.2c1,2.8,1.8,3.8,4.7,2.5
		c12.6-5.6,31.3,5.3,30,22.5c-2,0.1-4,0.2-6,0.2c-63.8,0-127.6,0-191.4,0C369.3,283.2,366.8,283.4,364.4,283.5z"/>
</g>
<linearGradient id="SVGID_11_" gradientUnits="userSpaceOnUse" x1="-41.6136" y1="421.95" x2="316.5085" y2="421.95" gradientTransform="matrix(1 0 0 -1 1.772896e-07 796)">
	<stop  offset="0" style="stop-color:#B9998E"/>
	<stop  offset="0.6731" style="stop-color:#815148"/>
</linearGradient>
<path fill="url(#SVGID_11_)" d="M131.3,522.6h-18.7c-40.2,0-151.4-12.1-151.4-12.1c0-19.8-12.8-5.5,16.4-85.4l40.7-83.6
	c30,32.6,51.8-1.2,52-1.7c21.3-52,31.9-64.8,67.5-114.3h9c60.3,62.7,16.7,45.6,64.6,89.1l24,85.6c63,51,73,91.7,81,103.7
	C321.5,511.6,173.7,522.6,131.3,522.6z"/>
<linearGradient id="SVGID_12_" gradientUnits="userSpaceOnUse" x1="61.8381" y1="345.8" x2="369.0498" y2="345.8" gradientTransform="matrix(-1 0 0 -1 402.938 796)">
	<stop  offset="0" style="stop-color:#B9998E"/>
	<stop  offset="0" style="stop-color:#81606B"/>
</linearGradient>
<path fill="url(#SVGID_12_)" d="M192.7,577.6h16.1c34.5,0,129.9-10.4,129.9-10.4c0-17,11-4.7-14.1-73.2l-34.9-71.7
	c-25.7,27.9-44.4-1-44.6-1.5c-18.3-44.6-27.4-55.6-57.9-98h-7.7c-51.7,53.8-14.3,39.1-55.4,76.4l-20.6,73.4
	c-54,43.7-62.6,78.7-69.5,89C29.6,568.1,156.3,577.6,192.7,577.6z"/>
<linearGradient id="SVGID_13_" gradientUnits="userSpaceOnUse" x1="-192.9899" y1="568.784" x2="231.894" y2="568.784" gradientTransform="matrix(-1 0 0 1 139.9029 0)">
	<stop  offset="0" style="stop-color:#E3F1ED"/>
	<stop  offset="0.577" style="stop-color:#C2C7D8"/>
	<stop  offset="0.9534" style="stop-color:#9BA4BD"/>
</linearGradient>
<path fill="url(#SVGID_13_)" d="M-21.8,574.9c2.9,0.1,3.9-0.9,4.4-3.8c1.2-6.3,5.4-9.8,11.5-10.2c4-0.2,8-0.5,11.8,1
	c2.4,1,3.6,0.3,4.5-1.9c2.2-5.5,6.5-6.8,11.9-5.5c1.7,0.4,3.2,0.9,5.1-0.3c5.5-3.5,10.5-2.2,13.2,3.9c1.4,3,2.5,3.3,5.5,2.5
	c10.9-3.2,21-2.3,29.4,6.3c1.6,1.6,2.5,1.4,4.1,0.3c6.8-4.4,14-5.2,21.5-1.6c2.7,1.3,4.1,0.8,5.8-1.6c4.1-5.8,9.7-9.6,16.9-10.4
	c2.6-0.2,3.2-1.6,3.6-3.8c0.3-2.7,1.4-5.6,4.3-6.3c4.2-0.9,2.8-2.7,1.7-5.1c-2.8-6.5-2.4-12.7,1.9-18.3c3.9-5.1,9.6-6.1,15.5-4.9
	c3.3,0.8,3.9-0.2,4.1-3.2c0.8-9.4,6.4-15.9,14.9-17.4c6.1-1.1,11.3,1.1,15.4,5.7c3.7,4.1,2.7,8.2,0.1,12.3c-1.8,2.8,0.5,2.8,2.3,3.1
	c4.2,0.9,7.7,2.9,8.7,7.1c0.8,3,2.5,4,5.2,4.3c4.9,0.6,9.4,2.2,13.8,4.3c9.7,4.9,14.8,12.2,12.9,23.4c-0.3,2.2-0.2,3.7,3,3.2
	c8.2-1.1,16-0.2,20.9,7.7c1.2,1.8,2.8,0.8,4.3,0.6c9.2-0.9,14.5,3,15.6,12c0.3,2.4,1.1,3.1,3.5,2.6c5.1-1.1,8.8,1.2,11.4,5.3
	c1.5,2.5,2.5,2.3,4.3,0.4c3.5-3.5,7.7-5.1,12.2-2.4c2.9,1.7,4.1,1.7,5.9-1.5c2.9-5.3,7.7-6.4,12.3-4c7.2,3.8,11.2,15.1,7.5,22.4
	c-1.1,2.3-1.4,3.5,0.8,5.4c3,2.7,3.5,6.7,2.2,10.5c-1.3,3.6-4.4,5.4-8.1,5.2c-4.1-0.3-7.1,0.8-9.3,4.5c-1.2,2-3.9,2.9-6.6,3
	c-5,0.3-9.4-1.4-12.8-4.6c-3.5-3.1-5-3.3-5.7,1.7c-1.5,9.1-7.4,13.3-16.1,15c-5.9,1.2-11.4,0.3-16.9-1.5c-9-3-15.6-9.1-21.6-17.8
	c-1.8,7-5.8,10.5-11.6,12c-5.8,1.5-11.8,2-17.5-0.1c-3.8-1.5-6-1.3-8.7,2.5c-4.9,6.8-16.3,8.7-20.4,3.1c-3.7-5.2-7.5-4.5-12.8-5.5
	c-7.2-1.4-13.2-0.4-20,1.3c-8.1,2-15.9-0.8-21.6-7.5c-3.9,6.8-6.3,9.3-10.6,9.8c-10.4,1.3-19.5-1.5-26.2-9.5
	c-2.9-3.5-4.6-5.8-9.2-2.9c-2.3,1.5-5.3,0.8-7.8-0.4c-2.3-1.1-3.7-0.6-5.5,1.2c-4.6,4.9-11,5.7-17.3,2.9c-4.3-1.9-7.7-5.1-11-9.2
	c-3,10.1-10.7,13.4-19.3,13.4c-9.3,0.1-18.5-1.9-25.5-8.6c-4.2-4-7-7.8-13.7-4.4c-3.6,1.8-7.7-1.9-11.8-3.2
	c-0.1,8.2-3.9,13.3-11.6,15c-6.4,1.5-12.7,0.9-16.5-4.7c-2.8-4.1-5.3-7.2-10.4-7.8c-0.8-0.1-1.7-0.8-2.3-1.4
	c-2.3-2.9-5.3-3.9-8.7-4.4c-3.8-0.6-6.4-3.3-7.2-7.2c-0.8-4,1.3-6.9,4.2-9.3c1.2-1,2.9-1.6,3.8-2.9c4.6-6.7,10.9-7,17.7-4.9
	c2.5,0.8,3.7,0.4,5.4-1.5c6.9-8.1,12.4-8.4,21-1.3C-36.5,578.3-30.7,574.2-21.8,574.9z"/>
<linearGradient id="SVGID_14_" gradientUnits="userSpaceOnUse" x1="-77.0045" y1="525.3648" x2="316.9793" y2="525.3648" gradientTransform="matrix(-1 0 0 1 139.9029 0)">
	<stop  offset="0" style="stop-color:#E3F1ED"/>
	<stop  offset="0.577" style="stop-color:#FFFFFF;stop-opacity:0.17"/>
</linearGradient>
<path fill="url(#SVGID_14_)" d="M-112,531c2.7,0.1,3.6-0.8,4.1-3.5c1.1-5.8,5-9.1,10.7-9.5c3.7-0.2,7.4-0.5,10.9,0.9
	c2.2,0.9,3.3,0.3,4.2-1.8c2-5.1,6-6.3,11-5.1c1.6,0.4,3,0.8,4.7-0.3c5.1-3.2,9.7-2,12.2,3.6c1.3,2.8,2.3,3.1,5.1,2.3
	c10.1-3,19.5-2.1,27.3,5.8c1.5,1.5,2.3,1.3,3.8,0.3c6.3-4.1,13-4.8,19.9-1.5c2.5,1.2,3.8,0.7,5.4-1.5c3.8-5.4,9-8.9,15.7-9.6
	c2.4-0.2,3-1.5,3.3-3.5c0.3-2.5,1.3-5.2,4-5.8c3.9-0.8,2.6-2.5,1.6-4.7c-2.6-6-2.2-11.8,1.8-17c3.6-4.7,8.9-5.7,14.4-4.5
	c3.1,0.7,3.6-0.2,3.8-3c0.7-8.7,5.9-14.7,13.8-16.1c5.7-1,10.5,1,14.3,5.3c3.4,3.8,2.5,7.6,0.1,11.4c-1.7,2.6,0.5,2.6,2.1,2.9
	c3.9,0.8,7.1,2.7,8.1,6.6c0.7,2.8,2.3,3.7,4.8,4c4.5,0.6,8.7,2,12.8,4c9,4.5,13.7,11.3,12,21.7c-0.3,2-0.2,3.4,2.8,3
	c7.6-1,14.8-0.2,19.4,7.1c1.1,1.7,2.6,0.7,4,0.6c8.5-0.8,13.4,2.8,14.5,11.1c0.3,2.2,1,2.9,3.2,2.4c4.7-1,8.2,1.1,10.6,4.9
	c1.4,2.3,2.3,2.1,4,0.4c3.2-3.2,7.1-4.7,11.3-2.2c2.7,1.6,3.8,1.6,5.5-1.4c2.7-4.9,7.1-5.9,11.4-3.7c6.7,3.5,10.4,14,7,20.8
	c-1,2.1-1.3,3.2,0.7,5c2.8,2.5,3.2,6.2,2,9.7c-1.2,3.3-4.1,5-7.5,4.8c-3.8-0.3-6.6,0.7-8.6,4.2c-1.1,1.9-3.6,2.7-6.1,2.8
	c-4.6,0.3-8.7-1.3-11.9-4.3c-3.2-2.9-4.6-3.1-5.3,1.6c-1.4,8.4-6.9,12.3-14.9,13.9c-5.5,1.1-10.6,0.3-15.7-1.4
	c-8.3-2.8-14.5-8.4-20-16.5c-1.7,6.5-5.4,9.7-10.8,11.1c-5.4,1.4-10.9,1.9-16.2-0.1c-3.5-1.4-5.6-1.2-8.1,2.3
	c-4.5,6.3-15.1,8.1-18.9,2.9c-3.4-4.8-7-4.2-11.9-5.1c-6.7-1.3-12.2-0.4-18.5,1.2c-7.5,1.9-14.7-0.7-20-7c-3.6,6.3-5.8,8.6-9.8,9.1
	c-9.6,1.2-18.1-1.4-24.3-8.8c-2.7-3.2-4.3-5.4-8.5-2.7c-2.1,1.4-4.9,0.7-7.2-0.4c-2.1-1-3.4-0.6-5.1,1.1c-4.3,4.5-10.2,5.3-16,2.7
	c-4-1.8-7.1-4.7-10.2-8.5c-2.8,9.4-9.9,12.4-17.9,12.4c-8.6,0.1-17.2-1.8-23.6-8c-3.9-3.7-6.5-7.2-12.7-4.1c-3.3,1.7-7.1-1.8-10.9-3
	c-0.1,7.6-3.6,12.3-10.8,13.9c-5.9,1.4-11.8,0.8-15.3-4.4c-2.6-3.8-4.9-6.7-9.6-7.2c-0.7-0.1-1.6-0.7-2.1-1.3
	c-2.1-2.7-4.9-3.6-8.1-4.1c-3.5-0.6-5.9-3.1-6.7-6.7c-0.7-3.7,1.2-6.4,3.9-8.6c1.1-0.9,2.7-1.5,3.5-2.7c4.3-6.2,10.1-6.5,16.4-4.5
	c2.3,0.7,3.4,0.4,5-1.4c6.4-7.5,11.5-7.8,19.5-1.2C-125.6,534.2-120.2,530.4-112,531z"/>
<linearGradient id="SVGID_15_" gradientUnits="userSpaceOnUse" x1="-83.2564" y1="505.7933" x2="368.8376" y2="505.7933" gradientTransform="matrix(-1 0 0 1 139.9029 0)">
	<stop  offset="0.2022" style="stop-color:#D2D2CD"/>
	<stop  offset="0.5" style="stop-color:#C2C7D8"/>
	<stop  offset="0.7528" style="stop-color:#8E9292"/>
	<stop  offset="1" style="stop-color:#9BA4BD"/>
</linearGradient>
<path fill="url(#SVGID_15_)" d="M-154.3,512.3c3.1,0.1,4.1-0.9,4.7-4c1.3-6.7,5.7-10.4,12.3-10.9c4.2-0.2,8.5-0.6,12.5,1
	c2.5,1,3.8,0.3,4.8-2.1c2.3-5.9,6.9-7.2,12.6-5.9c1.8,0.5,3.4,0.9,5.4-0.3c5.9-3.7,11.1-2.3,14,4.1c1.5,3.2,2.6,3.6,5.9,2.6
	c11.6-3.4,22.4-2.4,31.3,6.7c1.7,1.7,2.6,1.5,4.4,0.3c7.2-4.7,14.9-5.5,22.8-1.7c2.9,1.4,4.4,0.8,6.2-1.7c4.4-6.2,10.3-10.2,18-11
	c2.8-0.2,3.4-1.7,3.8-4c0.3-2.9,1.5-6,4.6-6.7c4.5-0.9,3-2.9,1.8-5.4c-3-6.9-2.5-13.5,2.1-19.5c4.1-5.4,10.2-6.5,16.5-5.2
	c3.6,0.8,4.1-0.2,4.4-3.4c0.8-10,6.8-16.9,15.8-18.5c6.5-1.1,12,1.1,16.4,6.1c3.9,4.4,2.9,8.7,0.1,13.1c-2,3,0.6,3,2.4,3.3
	c4.5,0.9,8.1,3.1,9.3,7.6c0.8,3.2,2.6,4.2,5.5,4.6c5.2,0.7,10,2.3,14.7,4.6c10.3,5.2,15.7,13,13.8,24.9c-0.3,2.3-0.2,3.9,3.2,3.4
	c8.7-1.1,17-0.2,22.3,8.1c1.3,2,3,0.8,4.6,0.7c9.8-0.9,15.4,3.2,16.6,12.7c0.3,2.5,1.1,3.3,3.7,2.8c5.4-1.1,9.4,1.3,12.2,5.6
	c1.6,2.6,2.6,2.4,4.6,0.5c3.7-3.7,8.1-5.4,13-2.5c3.1,1.8,4.4,1.8,6.3-1.6c3.1-5.6,8.1-6.8,13.1-4.2c7.7,4,11.9,16.1,8,23.9
	c-1.1,2.4-1.5,3.7,0.8,5.7c3.2,2.9,3.7,7.1,2.3,11.1c-1.4,3.8-4.7,5.7-8.6,5.5c-4.4-0.3-7.6,0.8-9.9,4.8c-1.3,2.2-4.1,3.1-7,3.2
	c-5.3,0.3-10-1.5-13.7-4.9c-3.7-3.3-5.3-3.6-6.1,1.8c-1.6,9.6-7.9,14.1-17.1,16c-6.3,1.3-12.2,0.3-18-1.6
	c-9.5-3.2-16.6-9.6-22.9-18.9c-2,7.5-6.2,11.1-12.4,12.7c-6.2,1.6-12.5,2.2-18.6-0.1c-4-1.6-6.4-1.4-9.3,2.6
	c-5.2,7.2-17.3,9.3-21.7,3.3c-3.9-5.5-8-4.8-13.7-5.9c-7.7-1.5-14-0.5-21.2,1.4c-8.6,2.2-16.9-0.8-22.9-8
	c-4.1,7.2-6.7,9.9-11.2,10.4c-11,1.4-20.8-1.6-27.9-10.1c-3.1-3.7-4.9-6.2-9.8-3.1c-2.4,1.6-5.6,0.8-8.3-0.5
	c-2.4-1.1-3.9-0.7-5.9,1.3c-4.9,5.2-11.7,6.1-18.4,3.1c-4.6-2.1-8.1-5.4-11.7-9.8c-3.2,10.8-11.4,14.2-20.5,14.2
	c-9.9,0.1-19.7-2.1-27.1-9.2c-4.5-4.2-7.5-8.3-14.6-4.7c-3.8,2-8.1-2.1-12.5-3.4c-0.1,8.7-4.1,14.1-12.4,16
	c-6.8,1.6-13.5,0.9-17.6-5c-3-4.4-5.6-7.7-11-8.3c-0.8-0.1-1.8-0.8-2.4-1.5c-2.4-3.1-5.6-4.1-9.3-4.7c-4-0.7-6.8-3.6-7.7-7.7
	c-0.8-4.2,1.4-7.3,4.5-9.9c1.3-1,3.1-1.7,4-3.1c4.9-7.1,11.6-7.5,18.8-5.2c2.6,0.8,3.9,0.5,5.7-1.6c7.3-8.6,13.2-9,22.4-1.4
	C-169.9,516-163.7,511.6-154.3,512.3z"/>
<path opacity="0.89" fill="#FAFEFE" d="M-205.3,557.6c3.1,0.1,4.1-0.9,4.7-4c1.3-6.7,5.7-10.4,12.3-10.9c4.2-0.2,8.5-0.6,12.5,1
	c2.5,1,3.8,0.3,4.8-2.1c2.3-5.9,6.9-7.2,12.6-5.9c1.8,0.5,3.4,0.9,5.4-0.3c5.9-3.7,11.1-2.3,14,4.1c1.5,3.2,2.6,3.6,5.9,2.6
	c11.6-3.4,22.4-2.4,31.3,6.7c1.7,1.7,2.6,1.5,4.4,0.3c7.2-4.7,14.9-5.5,22.8-1.7c2.9,1.4,4.4,0.8,6.2-1.7c4.4-6.2,10.3-10.2,18-11
	c2.8-0.2,3.4-1.7,3.8-4c0.3-2.9,1.5-6,4.6-6.7c4.5-0.9,3-2.9,1.8-5.4c-3-6.9-2.5-13.5,2.1-19.5c4.1-5.4,10.2-6.5,16.5-5.2
	c3.6,0.8,4.1-0.2,4.4-3.4c0.8-10,6.8-16.9,15.8-18.5c6.5-1.1,12,1.1,16.4,6.1c3.9,4.4,2.9,8.7,0.1,13.1c-2,3,0.6,3,2.4,3.3
	c4.5,0.9,8.1,3.1,9.3,7.6c0.8,3.2,2.6,4.2,5.5,4.6c5.2,0.7,10,2.3,14.7,4.6c10.3,5.2,15.7,13,13.8,24.9c-0.3,2.3-0.2,3.9,3.2,3.4
	c8.7-1.1,17-0.2,22.3,8.1c1.3,2,3,0.8,4.6,0.7c9.8-0.9,15.4,3.2,16.6,12.7c0.3,2.5,1.1,3.3,3.7,2.8c5.4-1.1,9.4,1.3,12.2,5.6
	c1.6,2.6,2.6,2.4,4.6,0.5c3.7-3.7,8.1-5.4,13-2.5c3.1,1.8,4.4,1.8,6.3-1.6c3.1-5.6,8.1-6.8,13.1-4.2c7.7,4,11.9,16.1,8,23.9
	c-1.1,2.4-1.5,3.7,0.8,5.7c3.2,2.9,3.7,7.1,2.3,11.1c-1.4,3.8-4.7,5.7-8.6,5.5c-4.4-0.3-7.6,0.8-9.9,4.8c-1.3,2.2-4.1,3.1-7,3.2
	c-5.3,0.3-10-1.5-13.7-4.9c-3.7-3.3-5.3-3.6-6.1,1.8c-1.6,9.6-7.9,14.1-17.1,16c-6.3,1.3-12.2,0.3-18-1.6
	c-9.5-3.2-16.6-9.6-22.9-18.9c-2,7.5-6.2,11.1-12.4,12.7c-6.2,1.6-12.5,2.2-18.6-0.1c-4-1.6-6.4-1.4-9.3,2.6
	c-5.2,7.2-17.3,9.3-21.7,3.3c-3.9-5.5-8-4.8-13.7-5.9c-7.7-1.5-14-0.5-21.2,1.4c-8.6,2.2-16.9-0.8-22.9-8
	c-4.1,7.2-6.7,9.9-11.2,10.4c-11,1.4-20.8-1.6-27.9-10.1c-3.1-3.7-4.9-6.2-9.8-3.1c-2.4,1.6-5.6,0.8-8.3-0.5
	c-2.4-1.1-3.9-0.7-5.9,1.3c-4.9,5.2-11.7,6.1-18.4,3.1c-4.6-2.1-8.1-5.4-11.7-9.8c-3.2,10.8-11.4,14.2-20.5,14.2
	c-9.9,0.1-19.7-2.1-27.1-9.2c-4.5-4.2-7.5-8.3-14.6-4.7c-3.8,2-8.1-2.1-12.5-3.4c-0.1,8.7-4.1,14.1-12.4,16
	c-6.8,1.6-13.5,0.9-17.6-5c-3-4.4-5.6-7.7-11-8.3c-0.8-0.1-1.8-0.8-2.4-1.5c-2.4-3.1-5.6-4.1-9.3-4.7c-4-0.7-6.8-3.6-7.7-7.7
	c-0.8-4.2,1.4-7.3,4.5-9.9c1.3-1,3.1-1.7,4-3.1c4.9-7.1,11.6-7.5,18.8-5.2c2.6,0.8,3.9,0.5,5.7-1.6c7.3-8.6,13.2-9,22.4-1.4
	C-221,561.2-214.8,556.9-205.3,557.6z"/>
<linearGradient id="SVGID_16_" gradientUnits="userSpaceOnUse" x1="463.307" y1="306.25" x2="901.2656" y2="306.25" gradientTransform="matrix(1 0 0 -1 1.772896e-07 796)">
	<stop  offset="0" style="stop-color:#B9998E"/>
	<stop  offset="0.6731" style="stop-color:#815148"/>
</linearGradient>
<path fill="url(#SVGID_16_)" d="M674.8,638.3h-22.9c-49.2,0-185.2-12.1-185.2-12.1c0-19.8-15.6-5.5,20.1-85.4l49.8-83.6
	c36.7,32.6,63.4-1.2,63.6-1.7c26.1-52,39-64.8,82.5-114.3h11c73.7,62.7,20.4,45.6,79,89.1l29.3,85.6c77.1,51,89.3,91.7,99.1,103.7
	C907.5,627.3,726.7,638.3,674.8,638.3z"/>
<path fill="#FAFEFE" d="M841.7,642.7c-26,0-52,0-77.9,0c-5.6,0-6.2-0.8-5.3-6c3.4-19.5,22-32.3,41.3-28.1c3.4,0.7,4.8,0,6.2-3.3
	c10.6-25.2,39.4-35.1,62.8-21.8c9.2,5.3,16,13,19.5,23.2c0.9,2.7,2.2,3.8,5.1,4.3c15.3,2.7,26,11.3,31.6,25.8c2,5.1,1.5,5.8-4,5.8
	C894.6,642.7,868.1,642.7,841.7,642.7z"/>
<linearGradient id="SVGID_17_" gradientUnits="userSpaceOnUse" x1="90.599" y1="352" x2="735.841" y2="352" gradientTransform="matrix(1 0 0 -1 1.772896e-07 796)">
	<stop  offset="0" style="stop-color:#688D64"/>
	<stop  offset="0.4887" style="stop-color:#234144"/>
</linearGradient>
<path fill="url(#SVGID_17_)" d="M399.6,713.8h-34c-73,0-275-22-275-22c0-36-0.9-5,52.1-150l82-124c0.6-0.7,52.5-47.2,53-48
	c56-90,69-105.7,133.6-195.6h16.4C537.1,288.1,457.9,257,544.9,336l64.8,142.8c74.8,75.6,111.3,179.1,125.9,201
	C745,693.8,476.7,713.8,399.6,713.8z"/>
<linearGradient id="SVGID_18_" gradientUnits="userSpaceOnUse" x1="94.3313" y1="658.5121" x2="488.3151" y2="658.5121" gradientTransform="matrix(-1 0 0 1 574.6464 0)">
	<stop  offset="0.1679" style="stop-color:#FFFFFF;stop-opacity:0.17"/>
	<stop  offset="0.3429" style="stop-color:#E3F1ED"/>
</linearGradient>
<path opacity="0.78" fill="url(#SVGID_18_)" d="M151.4,664.2c2.7,0.1,3.6-0.8,4.1-3.5c1.1-5.8,5-9.1,10.7-9.5
	c3.7-0.2,7.4-0.5,10.9,0.9c2.2,0.9,3.3,0.3,4.2-1.8c2-5.1,6-6.3,11-5.1c1.6,0.4,3,0.8,4.7-0.3c5.1-3.2,9.7-2,12.2,3.6
	c1.3,2.8,2.3,3.1,5.1,2.3c10.1-3,19.5-2.1,27.3,5.8c1.5,1.5,2.3,1.3,3.8,0.3c6.3-4.1,13-4.8,19.9-1.5c2.5,1.2,3.8,0.7,5.4-1.5
	c3.8-5.4,9-8.9,15.7-9.6c2.4-0.2,3-1.5,3.3-3.5c0.3-2.5,1.3-5.2,4-5.8c3.9-0.8,2.6-2.5,1.6-4.7c-2.6-6-2.2-11.8,1.8-17
	c3.6-4.7,8.9-5.7,14.4-4.5c3.1,0.7,3.6-0.2,3.8-3c0.7-8.7,5.9-14.7,13.8-16.1c5.7-1,10.5,1,14.3,5.3c3.4,3.8,2.5,7.6,0.1,11.4
	c-1.7,2.6,0.5,2.6,2.1,2.9c3.9,0.8,7.1,2.7,8.1,6.6c0.7,2.8,2.3,3.7,4.8,4c4.5,0.6,8.7,2,12.8,4c9,4.5,13.7,11.3,12,21.7
	c-0.3,2-0.2,3.4,2.8,3c7.6-1,14.8-0.2,19.4,7.1c1.1,1.7,2.6,0.7,4,0.6c8.5-0.8,13.4,2.8,14.5,11.1c0.3,2.2,1,2.9,3.2,2.4
	c4.7-1,8.2,1.1,10.6,4.9c1.4,2.3,2.3,2.1,4,0.4c3.2-3.2,7.1-4.7,11.3-2.2c2.7,1.6,3.8,1.6,5.5-1.4c2.7-4.9,7.1-5.9,11.4-3.7
	c6.7,3.5,10.4,14,7,20.8c-1,2.1-1.3,3.2,0.7,5c2.8,2.5,3.2,6.2,2,9.7c-1.2,3.3-4.1,5-7.5,4.8c-3.8-0.3-6.6,0.7-8.6,4.2
	c-1.1,1.9-3.6,2.7-6.1,2.8c-4.6,0.3-8.7-1.3-11.9-4.3c-3.2-2.9-4.6-3.1-5.3,1.6c-1.4,8.4-6.9,12.3-14.9,13.9
	c-5.5,1.1-10.6,0.3-15.7-1.4c-8.3-2.8-14.5-8.4-20-16.5c-1.7,6.5-5.4,9.7-10.8,11.1c-5.4,1.4-10.9,1.9-16.2-0.1
	c-3.5-1.4-5.6-1.2-8.1,2.3c-4.5,6.3-15.1,8.1-18.9,2.9c-3.4-4.8-7-4.2-11.9-5.1c-6.7-1.3-12.2-0.4-18.5,1.2c-7.5,1.9-14.7-0.7-20-7
	c-3.6,6.3-5.8,8.6-9.8,9.1c-9.6,1.2-18.1-1.4-24.3-8.8c-2.7-3.2-4.3-5.4-8.5-2.7c-2.1,1.4-4.9,0.7-7.2-0.4c-2.1-1-3.4-0.6-5.1,1.1
	c-4.3,4.5-10.2,5.3-16,2.7c-4-1.8-7.1-4.7-10.2-8.5c-2.8,9.4-9.9,12.4-17.9,12.4c-8.6,0.1-17.2-1.8-23.6-8
	c-3.9-3.7-6.5-7.2-12.7-4.1c-3.3,1.7-7.1-1.8-10.9-3c-0.1,7.6-3.6,12.3-10.8,13.9c-5.9,1.4-11.8,0.8-15.3-4.4
	c-2.6-3.8-4.9-6.7-9.6-7.2c-0.7-0.1-1.6-0.7-2.1-1.3c-2.1-2.7-4.9-3.6-8.1-4.1c-3.5-0.6-5.9-3.1-6.7-6.7c-0.7-3.7,1.2-6.4,3.9-8.6
	c1.1-0.9,2.7-1.5,3.5-2.7c4.3-6.2,10.1-6.5,16.4-4.5c2.3,0.7,3.4,0.4,5-1.4c6.4-7.5,11.5-7.8,19.5-1.2
	C137.8,667.4,143.2,663.6,151.4,664.2z"/>
<g>
	
		<linearGradient id="SVGID_19_" gradientUnits="userSpaceOnUse" x1="638.0934" y1="127.9501" x2="1037.8623" y2="127.9501" gradientTransform="matrix(-1 0 0 -1 1510.2089 796)">
		<stop  offset="0" style="stop-color:#B9C68E"/>
		<stop  offset="0.4887" style="stop-color:#7A6444"/>
	</linearGradient>
	<path fill="url(#SVGID_19_)" d="M680.3,751.1h21c45.1,0,170.1-6.8,170.1-6.8c0-11.1,7.4-21.8-25.4-66.5l-55-32.2
		c-0.4-0.2-26.3-13.9-26.6-14.2c-50.6-34.3-38.9-31.8-91.3-46.4H663c-67.7,35.1-42.1,37.4-95.9,61.7l-33,33.6
		c-46.3,23.3-52.5,53.5-61.6,60.2C466.6,744.9,632.6,751.1,680.3,751.1z"/>
	
		<linearGradient id="SVGID_20_" gradientUnits="userSpaceOnUse" x1="834.0045" y1="109.0501" x2="1229.1538" y2="109.0501" gradientTransform="matrix(-1 0 0 -1 1510.2089 796)">
		<stop  offset="0.5113" style="stop-color:#516717"/>
		<stop  offset="1" style="stop-color:#B99960"/>
	</linearGradient>
	<path fill="url(#SVGID_20_)" d="M486.6,751.1h20.8c44.6,0,168.1-5.2,168.1-5.2c0-8.6,7.3-16.9-25.1-51.4l-54.5-24.9
		c-0.4-0.2-25.9-10.8-26.3-10.9c-50-26.5-38.4-24.6-90.2-35.9h-10c-66.9,27.1-41.6,28.9-94.8,47.7l-32.6,26
		c-45.7,18-51.9,41.4-60.8,46.6C275.5,746.3,439.5,751.1,486.6,751.1z"/>
	
		<linearGradient id="SVGID_21_" gradientUnits="userSpaceOnUse" x1="668.8714" y1="152.7" x2="945.1718" y2="152.7" gradientTransform="matrix(1 0 0 -1 -717.3646 796)">
		<stop  offset="0" style="stop-color:#544500"/>
		<stop  offset="0.4887" style="stop-color:#516717"/>
	</linearGradient>
	<path fill="url(#SVGID_21_)" d="M84.2,719.6H69.6c-31.2,0-117.6-6.2-117.6-6.2c0-10.2-5.1-20.1,17.5-61.1l38.1-29.6
		c0.3-0.2,18.1-12.8,18.4-13c35-31.6,27-29.2,63.1-42.7h7c46.8,32.2,29.1,34.4,66.3,56.7l22.8,30.9c32,21.4,36.3,49.2,42.5,55.4
		C231.8,713.9,117.1,719.6,84.2,719.6z"/>
	
		<linearGradient id="SVGID_22_" gradientUnits="userSpaceOnUse" x1="802.4686" y1="86.1" x2="962.0182" y2="86.1" gradientTransform="matrix(1 0 0 -1 -717.3646 796)">
		<stop  offset="0" style="stop-color:#544500"/>
		<stop  offset="0.4887" style="stop-color:#516717"/>
	</linearGradient>
	<path fill="url(#SVGID_22_)" d="M161.6,743.7h-8.4c-18,0-67.8-2.8-67.8-2.8c0-4.5-3-8.9,10.1-27l22-13.1c0.2-0.1,10.5-5.7,10.6-5.8
		c20.2-14,15.5-12.9,36.4-18.9h4c27,14.3,16.8,15.2,38.3,25.1l13.2,13.7c18.4,9.5,20.9,21.8,24.6,24.5
		C246.8,741.2,180.6,743.7,161.6,743.7z"/>
</g>
<linearGradient id="SVGID_23_" gradientUnits="userSpaceOnUse" x1="-25.6541" y1="701.9314" x2="399.2298" y2="701.9314">
	<stop  offset="0" style="stop-color:#E3F1ED"/>
	<stop  offset="0.577" style="stop-color:#C2C7D8"/>
	<stop  offset="0.9534" style="stop-color:#9BA4BD"/>
</linearGradient>
<path fill="url(#SVGID_23_)" d="M347,720c8.6-7.1,14.1-6.8,21,1.3c1.7,1.9,2.9,2.3,5.4,1.5c6.8-2.2,13-1.8,17.7,4.9
	c0.9,1.3,2.6,1.9,3.8,2.9c2.9,2.4,5,5.3,4.2,9.3c-0.9,3.9-3.5,6.6-7.2,7.2c-3.5,0.5-6.5,1.5-8.7,4.4c-0.5,0.6-1.5,1.3-2.3,1.4
	c-5.1,0.5-7.5,3.7-10.4,7.8c-3.8,5.6-10.1,6.3-16.5,4.7c-7.8-1.7-11.5-6.8-11.6-15c-4.1,1.3-8.2,5.1-11.8,3.2
	c-6.7-3.3-9.5,0.4-13.7,4.4c-6.9,6.7-16.2,8.7-25.5,8.6c-8.6,0-16.3-3.2-19.3-13.4c-3.3,4.1-6.7,7.2-11,9.2
	c-6.3,2.8-12.6,1.9-17.3-2.9c-1.8-1.8-3.2-2.3-5.5-1.2c-2.5,1.2-5.5,1.9-7.8,0.4c-4.5-2.9-6.3-0.5-9.2,2.9
	c-6.7,8-15.9,10.8-26.2,9.5c-4.3-0.5-6.7-3-10.6-9.8c-5.7,6.8-13.5,9.6-21.6,7.5c-6.8-1.7-12.7-2.7-20-1.3c-5.3,1-9.2,0.3-12.8,5.5
	c-4.1,5.6-15.5,3.7-20.4-3.1c-2.7-3.8-5-4-8.7-2.5c-5.7,2.2-11.6,1.6-17.5,0.1c-5.8-1.5-9.8-5-11.6-12c-5.9,8.7-12.6,14.8-21.6,17.8
	c-5.5,1.8-11,2.7-16.9,1.5c-8.6-1.7-14.6-5.9-16.1-15c-0.8-5.1-2.3-4.9-5.7-1.7c-3.5,3.2-7.9,5-12.8,4.6c-2.7-0.1-5.4-1-6.6-3
	c-2.2-3.8-5.2-4.9-9.3-4.5c-3.7,0.2-6.8-1.6-8.1-5.2c-1.3-3.8-0.9-7.8,2.2-10.5c2.2-1.9,1.8-3.1,0.8-5.4c-3.7-7.3,0.3-18.7,7.5-22.4
	c4.6-2.4,9.4-1.3,12.3,4c1.8,3.2,3,3.2,5.9,1.5c4.5-2.7,8.7-1.1,12.2,2.4c1.8,1.8,2.8,2,4.3-0.4c2.6-4.1,6.4-6.4,11.4-5.3
	c2.4,0.5,3.1-0.2,3.5-2.6c1.2-9,6.5-12.8,15.6-12c1.5,0.1,3.1,1.2,4.3-0.6c5-7.9,12.7-8.7,20.9-7.7c3.2,0.4,3.3-1.1,3-3.2
	c-1.8-11.2,3.2-18.5,12.9-23.4c4.4-2.2,9-3.7,13.8-4.3c2.7-0.3,4.4-1.3,5.2-4.3c1.1-4.2,4.5-6.3,8.7-7.1c1.7-0.3,4.1-0.3,2.3-3.1
	c-2.6-4.1-3.6-8.2,0.1-12.3c4.1-4.6,9.3-6.8,15.4-5.7c8.5,1.5,14.1,8,14.9,17.4c0.2,3,0.8,4,4.1,3.2c5.9-1.3,11.6-0.2,15.5,4.9
	c4.3,5.6,4.7,11.9,1.9,18.3c-1.1,2.4-2.5,4.2,1.7,5.1c2.9,0.6,4,3.6,4.3,6.3c0.3,2.2,1,3.6,3.6,3.8c7.2,0.8,12.8,4.5,16.9,10.4
	c1.7,2.4,3.1,2.9,5.8,1.6c7.4-3.6,14.7-2.8,21.5,1.6c1.6,1.1,2.5,1.3,4.1-0.3c8.4-8.5,18.5-9.5,29.4-6.3c3,0.9,4.1,0.5,5.5-2.5
	c2.7-6,7.7-7.3,13.2-3.9c1.8,1.2,3.3,0.8,5.1,0.3c5.4-1.3,9.7,0,11.9,5.5c1,2.3,2.2,2.9,4.5,1.9c3.8-1.5,7.8-1.2,11.8-1
	c6.1,0.4,10.4,4,11.5,10.2c0.5,2.9,1.5,3.9,4.4,3.8C337.9,707.4,343.7,711.5,347,720z"/>
<path opacity="0.84" fill="#FAFEFE" d="M491,301.3c6.8-6.6,11.1-6.3,16.6,1.2c1.4,1.8,2.3,2.1,4.3,1.4c5.4-2,10.3-1.7,13.9,4.5
	c0.7,1.2,2,1.8,3,2.7c2.3,2.2,3.9,4.9,3.3,8.6c-0.7,3.6-2.7,6.1-5.7,6.7c-2.7,0.5-5.1,1.4-6.9,4.1c-0.4,0.6-1.2,1.2-1.8,1.3
	c-4,0.5-6,3.4-8.2,7.2c-3,5.2-8,5.8-13,4.4c-6.1-1.6-9.1-6.3-9.2-13.9c-3.2,1.2-6.5,4.7-9.3,3c-5.3-3.1-7.5,0.4-10.8,4.1
	c-5.4,6.2-12.8,8.1-20.1,8c-6.8,0-12.8-3-15.2-12.4c-2.6,3.8-5.3,6.7-8.7,8.5c-4.9,2.6-9.9,1.8-13.6-2.7c-1.4-1.7-2.6-2.1-4.3-1.1
	c-2,1.1-4.3,1.8-6.1,0.4c-3.6-2.7-4.9-0.5-7.2,2.7c-5.3,7.4-12.5,10-20.7,8.8c-3.4-0.5-5.3-2.8-8.3-9.1c-4.5,6.3-10.6,8.9-17,7
	c-5.4-1.6-10-2.5-15.7-1.2c-4.2,0.9-7.2,0.3-10.1,5.1c-3.2,5.2-12.2,3.4-16.1-2.9c-2.1-3.5-3.9-3.7-6.9-2.3c-4.5,2-9.2,1.5-13.8,0.1
	s-7.7-4.6-9.2-11.1c-4.7,8.1-9.9,13.7-17,16.5c-4.3,1.7-8.7,2.5-13.3,1.4c-6.8-1.6-11.5-5.5-12.7-13.9c-0.6-4.7-1.8-4.5-4.5-1.6
	c-2.7,3-6.2,4.6-10.1,4.3c-2.1-0.1-4.3-0.9-5.2-2.8c-1.7-3.5-4.1-4.5-7.3-4.2c-2.9,0.2-5.4-1.5-6.4-4.8c-1-3.5-0.7-7.2,1.7-9.7
	c1.7-1.8,1.4-2.9,0.6-5c-2.9-6.8,0.3-17.3,6-20.8c3.7-2.2,7.4-1.2,9.7,3.7c1.4,3,2.4,3,4.7,1.4c3.6-2.5,6.9-1,9.6,2.2
	c1.4,1.7,2.2,1.9,3.4-0.4c2-3.8,5-5.9,9-4.9c1.9,0.5,2.5-0.2,2.7-2.4c0.9-8.3,5.1-11.9,12.3-11.1c1.2,0.1,2.5,1.1,3.4-0.6
	c3.9-7.3,10-8.1,16.5-7.1c2.6,0.4,2.6-1,2.4-3c-1.4-10.4,2.6-17.2,10.2-21.7c3.5-2,7.1-3.4,10.9-4c2.1-0.3,3.5-1.2,4.1-4
	c0.9-3.9,3.6-5.8,6.9-6.6c1.4-0.3,3.2-0.3,1.8-2.9c-2-3.8-2.8-7.6,0.1-11.4c3.2-4.3,7.3-6.3,12.2-5.3c6.7,1.4,11.1,7.4,11.7,16.1
	c0.2,2.8,0.6,3.7,3.2,3c4.7-1.2,9.2-0.2,12.2,4.5c3.4,5.2,3.7,11,1.5,17c-0.9,2.2-2,3.9,1.4,4.7c2.3,0.6,3.1,3.3,3.4,5.8
	c0.3,2,0.8,3.3,2.8,3.5c5.7,0.7,10.1,4.2,13.3,9.6c1.4,2.2,2.5,2.7,4.6,1.5c5.9-3.3,11.6-2.6,16.9,1.5c1.3,1,2,1.2,3.2-0.3
	c6.6-7.9,14.6-8.8,23.2-5.8c2.4,0.8,3.2,0.5,4.3-2.3c2.1-5.6,6-6.8,10.4-3.6c1.4,1.1,2.6,0.7,4,0.3c4.3-1.2,7.7,0,9.4,5.1
	c0.8,2.1,1.7,2.7,3.6,1.8c3-1.4,6.1-1.1,9.3-0.9c4.8,0.4,8.2,3.7,9.1,9.5c0.4,2.7,1.2,3.6,3.5,3.5
	C483.9,289.6,488.4,293.4,491,301.3z"/>
<path fill="#FAFEFE" d="M678.9,749.8c0.6,1.9-1.6,6.1,1.3,6.2c4.3,0.1,9.2,1.3,13.4-1.6c9.8-7.2,15.4-6.4,21.2,3.7
	c1.9,3.1,4.4,2.2,6.9,2.4c8.5,0.5,14,4.5,16.5,12.1c2.3,6.6-0.4,13.5-6.8,17.9c-6.3,4.4-17,3.8-23.2-1.9c-2.6-2.4-3.5-2.1-5.7,0.2
	c-4.2,4.5-9.6,6.9-16.1,6.5c-3.4-0.2-5.3,1-7.2,3.5c-13.2,16.6-38.4,18.1-53.9,3.4c-3.8-3.6-6.6-4.9-12.1-2.7
	c-13.1,5.1-27.6,1.3-37-9.1c-2.4-2.7-4.2-3.6-7.7-1.9c-5,2.4-10.5,2.8-15.9,1.3c-3.7-1-5.7,0.2-7.8,2.9
	c-9.5,11.4-22.7,14.5-36.8,8.6c-2.4-1-4.4-1.3-7.1-0.2c-19.6,8.2-35.3,5.6-50.3-8.6c-2.8-2.6-4.3-0.9-6.4,0.1
	c-15,7.7-32.6,1-36.6-13.8c-4.5-16.9,11.6-31.7,30-27.5c6.7,1.5,11.2-2.3,10.3-8.7c-1.3-9.2,1.4-14.9,8.5-18.3
	c7.3-3.5,13.8-2.4,21.1,3.8c3.2,2.8,6.8,1,10.1,2.2c5.8,2,5.4-2.9,6.7-5.4c6.2-12.9,16.8-20.3,31.8-21.7c15.6-1.4,27.8,4.8,36.1,17
	c1.8,2.7,3,3.3,6.3,2c17.5-6.9,35.2,0.3,41.8,16.9c1,2.6,1.9,4.9,5.2,5c3.4,0,2.6-2.9,3.3-4.7c4.5-12.8,19.6-21.8,33.4-19.8
	C668.5,722.2,679.1,733.8,678.9,749.8z"/>
<path fill="#FAFEFE" d="M364.7,781.4c0.5-12.1,10-18.7,19.3-24.7c10.4-6.6,22.6-9.2,35.4-6.4c4.4,1,7.4-0.4,10.3-3.5
	c19.8-21.6,48.5-27.6,76-15.5c4.3,1.9,7.4,1.9,11.5-0.4c17.9-9.6,37.9-0.1,40.3,18.8c0.3,2.9,0.2,5.4,4.9,4.2
	c8.4-2.2,16.8-1.5,25,0.4c4.3,1,4.7-1,5.1-4.2c1.4-16.2,8.1-23.5,25.3-27c4.3-0.9,5.4-2.8,6.2-6.3c7-30.2,32.3-51.4,65.3-52
	c28.8-0.6,50.4,12.3,63.4,36.2c2.5,4.5,4.9,6.6,10.8,7.4c13.6,1.9,23.7,9.2,28.3,21.6c1.4,3.9,2.5,5.3,7.6,3.5
	c38.9-13.4,74.6,10.8,77.9,42.6c0,0.7,0.6,1.3,0.9,1.9c-1.9,4.8-6.3,2.6-9.5,2.6c-90.9,0.1-181.6,0-272.6,0.1
	C519,781.3,441.9,781.4,364.7,781.4z"/>
</svg>
