<?xml version="1.0" encoding="utf-8"?>
<!-- Generator: Adobe Illustrator 18.1.0, SVG Export Plug-In . SVG Version: 6.00 Build 0)  -->
<!DOCTYPE svg PUBLIC "-//W3C//DTD SVG 1.1//EN" "http://www.w3.org/Graphics/SVG/1.1/DTD/svg11.dtd">
<svg version="1.1" id="Layer_1" xmlns="http://www.w3.org/2000/svg" xmlns:xlink="http://www.w3.org/1999/xlink" x="0px" y="0px"
	 viewBox="0 0 1580 375.4" enable-background="new 0 0 1580 375.4" xml:space="preserve">
<g id="Layer_2">
</g>
<g id="Layer_4">
</g>
<g id="Layer_3">
</g>
<g>
	<rect x="-52.7" y="316" fill="#64492B" width="29.7" height="77.7"/>
	<path fill="#3D6317" d="M77.7,357.4c-8.6-4.5-24.2-10.9-24.4-18.1c4.1,3.3,19.7,5,27.2,3.4c-11.6-2.5-18.4-10-20.6-15.9
		c2.8,1.9,6.3,2.6,10.5,2.6c-8.6-3.6-14.6-8.3-17.1-14.9c4.4,1.8,9.4,2.1,14.3,1c-12.6-1.7-33.5-12.3-37.4-22.3
		c4.1,1.4,8.6,2.1,12.7,1.6c-6.9-2.5-11.3-5.4-13.7-10.3c6.6,2.8,14.5,4.2,22,3.6c-16.5-4.9-30.5-14.7-40.7-25.5
		c3.5,1.3,7.4,2.5,12.9,1.9c-5.8-2.2-11.3-5.5-13.5-8.3c4.2,2.5,9.3,3.5,14.9,3.6c-3-1-5.3-2.9-6.8-5.2c5,2.1,10.4,2.2,14.3,1.5
		c-13.7-4.1-31.3-13.6-41.4-24.8c-0.2-0.1-0.3-0.1-0.3-0.2c3.9,2.1,6.9,2.7,12.4,1.9c-7.5-1.4-14.3-5.3-18.1-10.3
		c4.6,3,8,4.2,13.5,3.6c-6-0.8-12.3-5.1-15.7-9.3c3.5,3.3,12.1,4.2,19,2.7c-16.2-1.6-28.6-11.8-38.8-20v-1c-0.2,0.1-0.5,0.3-0.6,0.4
		c-0.2-0.1-0.5-0.3-0.6-0.4v1c-10.2,8.2-22.6,18.4-38.8,20c6.9,1.6,15.6,0.7,19-2.7c-3.5,4.2-9.9,8.5-15.7,9.3
		c5.5,0.7,9-0.6,13.5-3.6c-3.8,4.9-10.5,8.8-18.1,10.3c5.5,0.8,8.5,0.1,12.4-1.9c0,0.1-0.2,0.2-0.3,0.2
		c-10.2,11.2-27.8,20.7-41.4,24.8c3.9,0.8,9.3,0.6,14.3-1.5c-1.4,2.2-3.8,4.2-6.8,5.2c5.5-0.1,10.7-1.3,14.9-3.6
		c-2.2,2.8-7.5,6.1-13.5,8.3c5.5,0.7,9.4-0.6,12.9-1.9c-10.2,10.8-24.2,20.6-40.7,25.5c7.5,0.6,15.6-0.8,22-3.6
		c-2.4,5-6.8,7.8-13.7,10.3c4.1,0.5,8.6-0.1,12.7-1.6c-3.8,10-24.7,20.6-37.4,22.3c4.9,1.1,9.9,0.8,14.3-1
		c-2.5,6.6-8.5,11.3-17.1,14.9c4.2,0,7.7-0.7,10.5-2.6c-2.2,5.9-9,13.5-20.6,15.9c7.5,1.6,23.1-0.1,27.2-3.4
		c-0.2,7.1-15.7,13.5-24.4,18.1c12.4-2.9,50.8-7,59.4-17.4c0,4.6-8.6,8.9-20.9,12.1c15.3-0.9,28.9-4.3,34-8.3
		c-0.9,2.4-7.1,5.6-15.4,6.9c16.2-1.1,26.9-2.8,35.2-12c0.9,4.5-1.7,9-8,13.2c13.8-1.8,25-2.2,31.3-12.8c6.1,10.6,17.5,11,31.3,12.8
		c-6.3-4.2-9-8.7-8-13.2c8.5,9.3,19.2,10.9,35.2,12c-8.3-1.3-14.5-4.5-15.4-6.9c5,3.9,18.7,7.4,34,8.3c-12.3-3.2-20.9-7.5-20.9-12.1
		C26.8,350.4,65.1,354.4,77.7,357.4z"/>
</g>
<polygon fill="#C1E7EF" points="3.7,336.2 3.7,378.5 254.3,378.5 "/>
<polygon fill="#D4EEF8" points="478.4,378.5 3.7,280.4 3.7,336.2 254.3,378.5 "/>
<polygon fill="#C1E7EF" points="641.2,378.5 3.7,221.2 3.7,280.4 478.4,378.5 "/>
<polygon fill="#D4EEF8" points="765.9,378.5 3.7,157.4 3.7,221.2 641.2,378.5 "/>
<linearGradient id="SVGID_1_" gradientUnits="userSpaceOnUse" x1="-161.5473" y1="516.7045" x2="523.6946" y2="662.3572" gradientTransform="matrix(1.1371 0 0 -1.1371 221.4285 905.1658)">
	<stop  offset="0" style="stop-color:#497692"/>
	<stop  offset="0.2583" style="stop-color:#98A7AD"/>
	<stop  offset="0.6113" style="stop-color:#F2B094"/>
	<stop  offset="0.6904" style="stop-color:#F3B491"/>
	<stop  offset="0.7965" style="stop-color:#F7BF8B"/>
	<stop  offset="0.9174" style="stop-color:#FDD07D"/>
	<stop  offset="0.9888" style="stop-color:#FFDC70"/>
</linearGradient>
<polygon fill="url(#SVGID_1_)" points="865.1,378.5 3.7,88.1 3.7,157.4 765.9,378.5 "/>
<linearGradient id="SVGID_2_" gradientUnits="userSpaceOnUse" x1="-154.4344" y1="544.2502" x2="587.1999" y2="701.8894" gradientTransform="matrix(1.1371 0 0 -1.1371 221.4285 905.1658)">
	<stop  offset="0" style="stop-color:#497692"/>
	<stop  offset="0.2583" style="stop-color:#98A7AD"/>
	<stop  offset="0.6113" style="stop-color:#F2B094"/>
	<stop  offset="0.6904" style="stop-color:#F3B491"/>
	<stop  offset="0.7965" style="stop-color:#F7BF8B"/>
	<stop  offset="0.9174" style="stop-color:#FDD07D"/>
	<stop  offset="0.9888" style="stop-color:#FFDC70"/>
</linearGradient>
<polygon fill="url(#SVGID_2_)" points="946.9,378.5 3.7,11.5 3.7,88.1 865.1,378.5 "/>
<linearGradient id="SVGID_3_" gradientUnits="userSpaceOnUse" x1="-147.1049" y1="577.1192" x2="638.915" y2="744.1928" gradientTransform="matrix(1.1371 0 0 -1.1371 221.4285 905.1658)">
	<stop  offset="0" style="stop-color:#497692"/>
	<stop  offset="0.2583" style="stop-color:#98A7AD"/>
	<stop  offset="0.6113" style="stop-color:#F2B094"/>
	<stop  offset="0.6904" style="stop-color:#F3B491"/>
	<stop  offset="0.7965" style="stop-color:#F7BF8B"/>
	<stop  offset="0.9174" style="stop-color:#FDD07D"/>
	<stop  offset="0.9888" style="stop-color:#FFDC70"/>
</linearGradient>
<polygon fill="url(#SVGID_3_)" points="1015.9,378.5 3.7,-74.4 3.7,11.5 946.9,378.5 "/>
<linearGradient id="SVGID_4_" gradientUnits="userSpaceOnUse" x1="-191.4844" y1="692.0083" x2="751.064" y2="692.0083" gradientTransform="matrix(1.1371 0 0 -1.1371 221.4285 905.1658)">
	<stop  offset="0" style="stop-color:#73A3D7"/>
	<stop  offset="1.694895e-02" style="stop-color:#7DABDB"/>
	<stop  offset="6.587209e-02" style="stop-color:#94BFE6"/>
	<stop  offset="9.516944e-02" style="stop-color:#9DC7EA"/>
	<stop  offset="0.3243" style="stop-color:#C1D2D8"/>
	<stop  offset="0.6058" style="stop-color:#E3DFC7"/>
	<stop  offset="0.8412" style="stop-color:#F7E6BC"/>
	<stop  offset="1" style="stop-color:#FFEAB7"/>
</linearGradient>
<polygon fill="url(#SVGID_4_)" points="1075.5,378.5 62.7,-142 3.7,-142 3.7,-74.4 1015.9,378.5 "/>
<linearGradient id="SVGID_5_" gradientUnits="userSpaceOnUse" x1="-72.8371" y1="606.6498" x2="730.3224" y2="777.3668" gradientTransform="matrix(1.1371 0 0 -1.1371 221.4285 905.1658)">
	<stop  offset="0" style="stop-color:#497692"/>
	<stop  offset="0.2583" style="stop-color:#98A7AD"/>
	<stop  offset="0.6113" style="stop-color:#F2B094"/>
	<stop  offset="0.6904" style="stop-color:#F3B491"/>
	<stop  offset="0.7965" style="stop-color:#F7BF8B"/>
	<stop  offset="0.9174" style="stop-color:#FDD07D"/>
	<stop  offset="0.9888" style="stop-color:#FFDC70"/>
</linearGradient>
<polygon fill="url(#SVGID_5_)" points="1127.9,378.5 247.6,-142 62.7,-142 1075.5,378.5 "/>
<linearGradient id="SVGID_6_" gradientUnits="userSpaceOnUse" x1="22.9951" y1="692.0083" x2="838.46" y2="692.0083" gradientTransform="matrix(1.1371 0 0 -1.1371 221.4285 905.1658)">
	<stop  offset="0" style="stop-color:#73A3D7"/>
	<stop  offset="1.694895e-02" style="stop-color:#7DABDB"/>
	<stop  offset="6.587209e-02" style="stop-color:#94BFE6"/>
	<stop  offset="9.516944e-02" style="stop-color:#9DC7EA"/>
	<stop  offset="0.3243" style="stop-color:#C1D2D8"/>
	<stop  offset="0.6058" style="stop-color:#E3DFC7"/>
	<stop  offset="0.8412" style="stop-color:#F7E6BC"/>
	<stop  offset="1" style="stop-color:#FFEAB7"/>
</linearGradient>
<polygon fill="url(#SVGID_6_)" points="1174.9,378.5 413,-142 247.6,-142 1127.9,378.5 "/>
<linearGradient id="SVGID_7_" gradientUnits="userSpaceOnUse" x1="230.3055" y1="629.9636" x2="814.1003" y2="754.0529" gradientTransform="matrix(1.1371 0 0 -1.1371 221.4285 905.1658)">
	<stop  offset="0" style="stop-color:#497692"/>
	<stop  offset="0.2583" style="stop-color:#98A7AD"/>
	<stop  offset="0.6113" style="stop-color:#F2B094"/>
	<stop  offset="0.6904" style="stop-color:#F3B491"/>
	<stop  offset="0.7965" style="stop-color:#F7BF8B"/>
	<stop  offset="0.9174" style="stop-color:#FDD07D"/>
	<stop  offset="0.9888" style="stop-color:#FFDC70"/>
</linearGradient>
<polygon fill="url(#SVGID_7_)" points="1217.5,378.5 563.3,-142 413,-142 1174.9,378.5 "/>
<linearGradient id="SVGID_8_" gradientUnits="userSpaceOnUse" x1="300.6708" y1="692.0083" x2="910.5063" y2="692.0083" gradientTransform="matrix(1.1371 0 0 -1.1371 221.4285 905.1658)">
	<stop  offset="0" style="stop-color:#73A3D7"/>
	<stop  offset="1.694895e-02" style="stop-color:#7DABDB"/>
	<stop  offset="6.587209e-02" style="stop-color:#94BFE6"/>
	<stop  offset="9.516944e-02" style="stop-color:#9DC7EA"/>
	<stop  offset="0.3243" style="stop-color:#C1D2D8"/>
	<stop  offset="0.6058" style="stop-color:#E3DFC7"/>
	<stop  offset="0.8412" style="stop-color:#F7E6BC"/>
	<stop  offset="1" style="stop-color:#FFEAB7"/>
</linearGradient>
<polygon fill="url(#SVGID_8_)" points="1256.8,378.5 701.7,-142 563.3,-142 1217.5,378.5 "/>
<linearGradient id="SVGID_9_" gradientUnits="userSpaceOnUse" x1="480.1494" y1="649.0027" x2="884.8002" y2="735.0139" gradientTransform="matrix(1.1371 0 0 -1.1371 221.4285 905.1658)">
	<stop  offset="0" style="stop-color:#497692"/>
	<stop  offset="0.2583" style="stop-color:#98A7AD"/>
	<stop  offset="0.6113" style="stop-color:#F2B094"/>
	<stop  offset="0.6904" style="stop-color:#F3B491"/>
	<stop  offset="0.7965" style="stop-color:#F7BF8B"/>
	<stop  offset="0.9174" style="stop-color:#FDD07D"/>
	<stop  offset="0.9888" style="stop-color:#FFDC70"/>
</linearGradient>
<polygon fill="url(#SVGID_9_)" points="1293.3,378.5 830.8,-142 701.7,-142 1256.8,378.5 "/>
<linearGradient id="SVGID_10_" gradientUnits="userSpaceOnUse" x1="535.8931" y1="692.0083" x2="973.011" y2="692.0083" gradientTransform="matrix(1.1371 0 0 -1.1371 221.4285 905.1658)">
	<stop  offset="0" style="stop-color:#73A3D7"/>
	<stop  offset="1.694895e-02" style="stop-color:#7DABDB"/>
	<stop  offset="6.587209e-02" style="stop-color:#94BFE6"/>
	<stop  offset="9.516944e-02" style="stop-color:#9DC7EA"/>
	<stop  offset="0.3243" style="stop-color:#C1D2D8"/>
	<stop  offset="0.6058" style="stop-color:#E3DFC7"/>
	<stop  offset="0.8412" style="stop-color:#F7E6BC"/>
	<stop  offset="1" style="stop-color:#FFEAB7"/>
</linearGradient>
<polygon fill="url(#SVGID_10_)" points="1327.9,378.5 952.5,-142 830.8,-142 1293.3,378.5 "/>
<linearGradient id="SVGID_11_" gradientUnits="userSpaceOnUse" x1="697.2316" y1="665.3842" x2="947.7447" y2="718.6324" gradientTransform="matrix(1.1371 0 0 -1.1371 221.4285 905.1658)">
	<stop  offset="0" style="stop-color:#497692"/>
	<stop  offset="0.2583" style="stop-color:#98A7AD"/>
	<stop  offset="0.6113" style="stop-color:#F2B094"/>
	<stop  offset="0.6904" style="stop-color:#F3B491"/>
	<stop  offset="0.7965" style="stop-color:#F7BF8B"/>
	<stop  offset="0.9174" style="stop-color:#FDD07D"/>
	<stop  offset="0.9888" style="stop-color:#FFDC70"/>
</linearGradient>
<polygon fill="url(#SVGID_11_)" points="1360.9,378.5 1068.7,-142 952.5,-142 1327.9,378.5 "/>
<linearGradient id="SVGID_12_" gradientUnits="userSpaceOnUse" x1="745.1178" y1="692.0083" x2="1029.9843" y2="692.0083" gradientTransform="matrix(1.1371 0 0 -1.1371 221.4285 905.1658)">
	<stop  offset="0" style="stop-color:#73A3D7"/>
	<stop  offset="1.694895e-02" style="stop-color:#7DABDB"/>
	<stop  offset="6.587209e-02" style="stop-color:#94BFE6"/>
	<stop  offset="9.516944e-02" style="stop-color:#9DC7EA"/>
	<stop  offset="0.3243" style="stop-color:#C1D2D8"/>
	<stop  offset="0.6058" style="stop-color:#E3DFC7"/>
	<stop  offset="0.8412" style="stop-color:#F7E6BC"/>
	<stop  offset="1" style="stop-color:#FFEAB7"/>
</linearGradient>
<polygon fill="url(#SVGID_12_)" points="1392.7,378.5 1180.7,-142 1068.7,-142 1360.9,378.5 "/>
<linearGradient id="SVGID_13_" gradientUnits="userSpaceOnUse" x1="894.7353" y1="680.1908" x2="1005.9294" y2="703.8258" gradientTransform="matrix(1.1371 0 0 -1.1371 221.4285 905.1658)">
	<stop  offset="0" style="stop-color:#497692"/>
	<stop  offset="0.2583" style="stop-color:#98A7AD"/>
	<stop  offset="0.6113" style="stop-color:#F2B094"/>
	<stop  offset="0.6904" style="stop-color:#F3B491"/>
	<stop  offset="0.7965" style="stop-color:#F7BF8B"/>
	<stop  offset="0.9174" style="stop-color:#FDD07D"/>
	<stop  offset="0.9888" style="stop-color:#FFDC70"/>
</linearGradient>
<polygon fill="url(#SVGID_13_)" points="1423.5,378.5 1289.7,-142 1180.7,-142 1392.7,378.5 "/>
<linearGradient id="SVGID_14_" gradientUnits="userSpaceOnUse" x1="939.4078" y1="692.0083" x2="1083.9153" y2="692.0083" gradientTransform="matrix(1.1371 0 0 -1.1371 221.4285 905.1658)">
	<stop  offset="0" style="stop-color:#73A3D7"/>
	<stop  offset="1.694895e-02" style="stop-color:#7DABDB"/>
	<stop  offset="6.587209e-02" style="stop-color:#94BFE6"/>
	<stop  offset="9.516944e-02" style="stop-color:#9DC7EA"/>
	<stop  offset="0.3243" style="stop-color:#C1D2D8"/>
	<stop  offset="0.6058" style="stop-color:#E3DFC7"/>
	<stop  offset="0.8412" style="stop-color:#F7E6BC"/>
	<stop  offset="1" style="stop-color:#FFEAB7"/>
</linearGradient>
<polygon fill="url(#SVGID_14_)" points="1454,378.5 1396.9,-142 1289.7,-142 1423.5,378.5 "/>
<linearGradient id="SVGID_15_" gradientUnits="userSpaceOnUse" x1="1036.8601" y1="684.5195" x2="1171.3605" y2="713.1085" gradientTransform="matrix(1.1371 0 0 -1.1371 221.4285 905.1658)">
	<stop  offset="0" style="stop-color:#497692"/>
	<stop  offset="0.2583" style="stop-color:#98A7AD"/>
	<stop  offset="0.6113" style="stop-color:#F2B094"/>
	<stop  offset="0.6904" style="stop-color:#F3B491"/>
	<stop  offset="0.7965" style="stop-color:#F7BF8B"/>
	<stop  offset="0.9174" style="stop-color:#FDD07D"/>
	<stop  offset="0.9888" style="stop-color:#FFDC70"/>
</linearGradient>
<polygon fill="url(#SVGID_15_)" points="1484.2,378.5 1503.2,-142 1396.9,-142 1454,378.5 "/>
<linearGradient id="SVGID_16_" gradientUnits="userSpaceOnUse" x1="1110.4659" y1="692.0083" x2="1191.3625" y2="692.0083" gradientTransform="matrix(1.1371 0 0 -1.1371 221.4285 905.1658)">
	<stop  offset="0" style="stop-color:#73A3D7"/>
	<stop  offset="1.694895e-02" style="stop-color:#7DABDB"/>
	<stop  offset="6.587209e-02" style="stop-color:#94BFE6"/>
	<stop  offset="9.516944e-02" style="stop-color:#9DC7EA"/>
	<stop  offset="0.3243" style="stop-color:#C1D2D8"/>
	<stop  offset="0.6058" style="stop-color:#E3DFC7"/>
	<stop  offset="0.8412" style="stop-color:#F7E6BC"/>
	<stop  offset="1" style="stop-color:#FFEAB7"/>
</linearGradient>
<polygon fill="url(#SVGID_16_)" points="1514.4,378.5 1576.2,42 1576.2,-142 1503.2,-142 1484.2,378.5 "/>
<polygon fill="#C1E7EF" points="1545,378.5 1576.2,284.7 1576.2,42 1514.4,378.5 "/>
<polygon fill="#D4EEF8" points="1576.2,378.5 1576.2,284.7 1545,378.5 "/>
<path fill="none" d="M1146.9,270.3c2-0.3,4.2-0.7,6.3-1C1151.1,269.6,1149.1,270,1146.9,270.3z"/>
<path fill="#8DC63F" d="M203.4,235c172.5-3.5,305.5,26.2,465.5,44.6c159.1,18.4,324.1,15.5,478-7.8c2-0.3,4.2-0.7,6.3-1
	c98.1-15.4,193.1-42.8,300.7-41.3c42.9,0.6,82.9,7.8,122.3,14.9v-22.2c-6.8-2.2-13.2-4.3-19.3-6.2c-89.9-28.3-256.9,8.9-373.5,10
	c-245,2.3-481.2,46.5-727.9,13.8c-131.6-17.4-272-40.2-409.6-32.3c-12,0.7-26.4,1.3-42.1,2.1v41.7C73.3,243,145.4,236.2,203.4,235z"
	/>
<polygon fill="#FEC661" points="216,210.2 203.7,209.3 213,224.6 223.4,249 243,235.7 226.7,217.7 "/>
<path fill="#009444" d="M1152.5,271.6c-2,0.3-4.2,0.7-6.3,1c-153.9,23.3-318.9,26.2-478,7.8c-159.9-18.4-293-50.3-465.5-46.8
	c-58,1.2-130,10.2-199.7,18.7v37.6c1.3-0.4,2.5-0.7,3.8-1c101.7-25.8,274.2-5.4,381,3.9c193.7,17,385.9,27.1,582,11.1
	c186-15.2,412.5-52.2,605.6-26v-32.6c-39.5-7.1-79.4-16.3-122.3-16.9C1345.7,226.8,1250.7,256.2,1152.5,271.6z"/>
<polygon fill="#FEC661" points="260.3,233.3 289.1,234.5 323.5,259.2 360.6,289.2 305.9,284.1 274.5,247 "/>
<path fill="#6EB244" d="M973.3,301.5c-196.2,16.1-388.4,5.9-582-11.1c-106.8-9.4-279.3-29.7-381-3.9c-1.3,0.3-2.5,0.7-3.8,1v90.9
	H1579v-103C1385.7,249.3,1159.3,286.3,973.3,301.5z"/>
<polygon fill="#FEC661" points="388.5,290.5 462.2,296.6 550,326.1 668.8,378.5 563.3,378.5 471.5,327.5 "/>
<g>
	<rect x="309.7" y="131.5" fill="#64492B" width="15.8" height="79.9"/>
	<path fill="#183A00" d="M336.6,159.8c17.6,6.4,36.5,5,53.4-1.6c-17.7-1-38.8-2.9-46.5-13.9c11.2,3.6,23.3,0.4,32.4-4.6
		c-12.9-2-23.8-7.9-26.9-15.6c9,3.4,19.3,2.5,26.5-2.1c-17.8-4.3-39.3-7.2-46.2-18.9c12.6,4.1,26.7,3.8,37.7-1.8
		c-9-4.2-21.8-7.6-26.8-13.8c5.9-0.4,10.3-3,15.2-3.7c-12.6-3.1-23.7-9-27.8-16.9c6.3,1.8,12.6,1.8,17.8,2.7
		c-9.8-4.7-21.6-8.6-27.8-15.7c-6.2,7.1-18,11-27.8,15.7c5.3-1,11.5-0.9,17.8-2.7c-4.1,7.8-15.3,13.7-27.8,16.9
		c5,0.7,9.2,3.2,15.2,3.7c-5.1,6.2-17.8,9.7-26.8,13.8c10.9,5.6,25.1,5.9,37.7,1.8c-6.9,11.8-28.4,14.6-46.2,18.9
		c7.2,4.6,17.5,5.5,26.5,2.1c-3.2,7.6-14.1,13.5-26.9,15.6c9,5,21.2,8.1,32.4,4.6c-7.5,11-28.6,12.9-46.5,13.9
		c16.9,6.6,35.8,8,53.4,1.6c-10.8,16.3-51.3,18.5-76.6,18.9c28.2,6.7,69.9,8.1,95.6-2.8c25.7,10.8,67.5,9.4,95.6,2.8
		C388,178.3,347.4,176.2,336.6,159.8z"/>
</g>
<g>
	<rect x="666" y="165" fill="#64492B" width="8.4" height="75.9"/>
	<g>
		<path fill="#77AA35" d="M722.8,220.9c-8.5-9.6-27.2-11.1-29.8-27.4c4.7,4.2,11.2,9.1,18.4,10c-4.2-1.9-8.3-5-9.6-9.1
			c5.8,2.9,10.4,3.9,20.1,4.5c-12.5-4.4-29.1-11.3-33.4-20.7c8.9,5,18.4,10.7,31.1,10.8c-14.2-5-23.9-9.4-34.5-18.7
			c11.9,6.1,23.2,10.4,48.2,7.5c-19.9-0.9-38.3-10.7-51.2-22.8c11.3,6.3,20.7,9.9,36,9.4c-13-2.6-25.1-9.7-33.2-16.9
			c14.1,6.4,19,9.1,36.4,9.4c-14.1-4.2-21.8-11-25.8-18.7c5.6,2.5,12.7,4.2,20,3c-15.5-4.3-29.5-11-31.8-21.8
			c10.6,6.3,19.9,10.5,34.1,12.4c-13.1-4.6-22.6-10.5-30-17.8c7.5,1.5,15.5,3.4,23.9,2.7c-14.9-3.1-33-7.9-36-16.5
			c8.3,5.1,18.9,7.1,31.9,6.6c-13.6-2.5-21.4-8.5-23.8-15c5.5,2.6,10.9,4.1,21.1,3.4c-13.5-2-33.1-9.6-34.8-22.4
			c-1.6,12.8-21.4,20.3-34.8,22.4c10.3,0.7,15.7-0.8,21.1-3.4c-2.5,6.5-10.3,12.5-23.8,15c13.1,0.6,23.8-1.4,31.9-6.6
			c-3,8.6-21.1,13.5-36,16.5c8.4,0.7,16.4-1.2,23.9-2.7c-7.4,7.5-16.9,13.2-30,17.8c14.2-2,23.5-6.2,34.1-12.4
			c-2.2,10.7-16.3,17.4-31.8,21.8c7.4,1.2,14.6-0.5,20-3c-4,7.7-11.8,14.5-25.8,18.7c17.4-0.2,22.3-2.9,36.4-9.4
			c-8.3,7.2-20.3,14.3-33.2,16.9c15.3,0.4,24.9-3.1,36-9.4c-12.9,12.1-31.3,21.9-51.2,22.8c25,2.9,36.3-1.3,48.2-7.5
			c-10.6,9.2-20.4,13.6-34.5,18.7c12.6-0.1,22.2-5.7,31.1-10.8c-4.4,9.3-21,16.3-33.4,20.7c9.8-0.6,14.3-1.6,20.1-4.5
			c-1.3,4.2-5.3,7.2-9.6,9.1c7.3-0.9,13.7-5.8,18.4-10c-2.7,16.2-21.2,17.7-29.8,27.4c18.6-2.6,33.2-6.9,47.2-19.1
			c-1.1,4.4-1.2,4.4-5.2,12.2c8.6-4.3,10.6-9.3,10.4-9.3c0,0,1.9,5,10.4,9.3c-3.9-7.8-4.1-7.8-5.2-12.2
			C689.5,214,704.1,218.3,722.8,220.9z"/>
	</g>
</g>
<g>
	<rect x="461.3" y="185.4" fill="#64492B" width="10.9" height="77.1"/>
	<g>
		<path fill="#77AA35" d="M534.7,242.2c-11-9.7-35.2-11.3-38.7-27.8c6.1,4.3,14.5,9.3,23.9,10.2c-5.5-1.9-10.7-5.1-12.4-9.3
			c7.5,2.9,13.5,4,26.1,4.6c-16.2-4.5-37.7-11.5-43.2-21c11.5,5.1,23.9,10.9,40.3,10.9c-18.4-5.1-31-9.6-44.7-19
			c15.4,6.2,30,10.6,62.4,7.7c-25.8-0.9-49.7-10.9-66.4-23.2c14.6,6.4,26.9,10,46.7,9.6c-16.8-2.7-32.6-9.8-43.1-17.2
			c18.2,6.5,24.7,9.3,47.2,9.5c-18.2-4.2-28.3-11.2-33.5-19c7.2,2.5,16.5,4.2,25.9,3c-20.1-4.4-38.2-11.2-41.2-22.2
			c13.7,6.4,25.8,10.6,44.2,12.6c-17-4.7-29.2-10.6-38.8-18.1c9.7,1.6,20.1,3.4,31,2.8c-19.3-3.2-42.8-8-46.7-16.8
			c10.7,5.2,24.5,7.2,41.4,6.7c-17.6-2.5-27.7-8.6-30.8-15.2c7.1,2.6,14.2,4.2,27.4,3.4c-17.5-2.1-42.9-9.7-45.1-22.8
			c-2,13-27.7,20.7-45.1,22.8c13.4,0.7,20.3-0.8,27.4-3.4c-3.3,6.6-13.4,12.7-30.8,15.2c17,0.6,30.8-1.4,41.4-6.7
			c-3.9,8.8-27.4,13.7-46.7,16.8c10.9,0.7,21.2-1.2,31-2.8c-9.6,7.6-21.9,13.5-38.8,18.1c18.4-2,30.5-6.3,44.2-12.6
			c-2.8,10.9-21.1,17.7-41.2,22.2c9.6,1.2,18.9-0.5,25.9-3c-5.2,7.8-15.3,14.7-33.5,19c22.5-0.2,28.9-3,47.2-9.5
			c-10.7,7.4-26.3,14.5-43.1,17.2c19.8,0.4,32.2-3.2,46.7-9.6c-16.7,12.3-40.6,22.3-66.4,23.2c32.4,2.9,47-1.3,62.4-7.7
			c-13.7,9.4-26.4,13.8-44.7,19c16.4-0.1,28.8-5.8,40.3-10.9c-5.7,9.4-27.2,16.6-43.2,21c12.7-0.6,18.6-1.6,26.1-4.6
			c-1.7,4.2-6.9,7.4-12.4,9.3c9.4-0.9,17.8-5.9,23.9-10.2c-3.5,16.5-27.5,18-38.7,27.8c24.1-2.7,43.1-7.1,61.2-19.4
			c-1.4,4.5-1.6,4.5-6.8,12.4c11.2-4.4,13.7-9.4,13.5-9.4c0,0,2.5,5.1,13.5,9.4c-5-8-5.3-7.9-6.8-12.4
			C491.8,235.1,510.7,239.5,534.7,242.2z"/>
	</g>
</g>
<g>
	<rect x="713.3" y="177.4" fill="#64492B" width="15.8" height="79.9"/>
	<path fill="#183A00" d="M740.2,205.8c17.6,6.4,36.5,5,53.4-1.6c-17.7-1-38.8-2.9-46.5-13.9c11.2,3.6,23.3,0.4,32.4-4.6
		c-12.9-2-23.8-7.9-26.9-15.6c9,3.4,19.3,2.5,26.5-2.1c-17.8-4.3-39.3-7.2-46.2-18.9c12.6,4.1,26.7,3.8,37.7-1.8
		c-9-4.2-21.8-7.6-26.8-13.8c5.9-0.4,10.3-3,15.2-3.7c-12.6-3.1-23.7-9-27.8-16.9c6.3,1.8,12.6,1.8,17.8,2.7
		c-9.8-4.7-21.6-8.6-27.8-15.7c-6.2,7.1-18,11-27.8,15.7c5.3-1,11.5-0.9,17.8-2.7c-4.1,7.8-15.3,13.7-27.8,16.9
		c5,0.7,9.2,3.2,15.2,3.7c-5.1,6.2-17.8,9.7-26.8,13.8c10.9,5.6,25.1,5.9,37.7,1.8c-6.9,11.8-28.4,14.6-46.2,18.9
		c7.2,4.6,17.5,5.5,26.5,2.1c-3.2,7.6-14.1,13.5-26.9,15.6c9,5,21.2,8.1,32.4,4.6c-7.5,11-28.6,12.9-46.5,13.9
		c16.9,6.6,35.8,8,53.4,1.6c-10.8,16.3-51.3,18.5-76.6,18.9c28.2,6.7,69.9,8.1,95.6-2.8c25.7,10.8,67.5,9.4,95.6,2.8
		C791.5,224.3,751,222.1,740.2,205.8z"/>
</g>
<g>
	<rect x="659.6" y="222.7" fill="#64492B" width="18.4" height="72.1"/>
</g>
<g>
	<rect x="260.7" y="153.3" fill="#64492B" width="9.3" height="64.7"/>
	<g>
		<path fill="#2D500A" d="M310.1,193.3c-2.1-3-6.9-6.9-5.7-12.4c1.1,2.3,6.9,2.3,10.2,0.3c-4-0.9-5.2-6.2-5-10.8
			c0.8,1.2,2.2,1.5,3.9,1c-2.8-2-4.5-5.2-4.4-10.2c1.7,1,3.9,0.7,6.3-0.9c-5.1,0.1-13.2-6-13.8-13.4c1.8,0.7,4.1,0.7,6.2-0.2
			c-3-1.2-5-2.9-5.5-6.5c3.2,1.4,6.9,1.6,10.9,0.1c-7.4-1.7-13.7-7.8-18.6-15c1.9,0.7,4.1,1.2,7.4,0c-3.2-1-5.9-3-7-4.9
			c2.3,1.4,5.2,1.7,8.5,1.1c-1.6-0.4-2.8-1.6-3.4-3.1c2.8,1,5.9,0.4,8.4-0.8c-7.4-1.1-17.4-6.5-23.5-14.3c-0.1,0-0.2-0.1-0.2-0.1
			c2.5,1.2,4.5,1.5,8.3,0.3c-5-0.3-9.3-2.7-11.6-6.1c3,2,5.3,2.6,9.2,1.6c-4-0.1-8.1-2.8-10.4-5.7c2.3,2.3,8.4,2.3,13.3,0.4
			c-11.2,0.6-19.8-6.6-27.7-12.7c0-0.2,0-0.4,0-0.7c-0.1,0.1-0.4,0.2-0.5,0.4c-0.1-0.1-0.4-0.2-0.5-0.4c0,0.2,0,0.4,0,0.7
			c-7.9,6-16.6,13.2-27.7,12.7c5.1,2,11,1.9,13.3-0.4c-2.3,2.9-6.4,5.7-10.4,5.7c3.9,1,6.2,0.4,9.2-1.6c-2.4,3.4-6.7,5.9-11.6,6.1
			c3.8,1.2,5.7,1,8.3-0.3c0,0.1-0.1,0.1-0.2,0.1c-6.2,7.7-16.1,13.1-23.5,14.3c2.4,1.2,5.6,1.8,8.4,0.8c-0.5,1.6-1.7,2.8-3.4,3.1
			c3.3,0.6,6.2,0.3,8.5-1.1c-1,2-3.9,3.9-7,4.9c3.3,1.2,5.5,0.6,7.4,0c-4.9,7.2-11.2,13.3-18.6,15c4,1.5,7.9,1.4,10.9-0.1
			c-0.5,3.6-2.4,5.3-5.5,6.5c2.2,0.9,4.4,0.9,6.2,0.2c-0.6,7.4-8.7,13.6-13.8,13.4c2.4,1.5,4.6,1.8,6.3,0.9c0.1,5-1.6,8.1-4.4,10.2
			c1.8,0.4,3.2,0.2,3.9-1c0.2,4.5-1,9.9-5,10.8c3.3,2,9.1,2,10.2-0.3c1.2,5.6-3.6,9.4-5.7,12.4c3.8-1.2,17.8-1.9,20.5-9.6
			c0.5,3.5-2.7,6.4-6.9,8.1c5.8,0.2,11-1.8,12.9-4.6c-0.2,1.8-2.4,3.9-5.6,4.5c6.4-0.1,10.6-1.1,13.8-7.8c0.6,3.4-0.4,6.7-2.7,9.7
			c5.6-1,10.1-1.2,12.7-9.1c2.7,7.9,7.3,8.1,12.7,9.1c-2.3-3-3.3-6.3-2.7-9.7c3.2,6.7,7.4,7.8,13.8,7.8c-3.2-0.6-5.5-2.8-5.6-4.5
			c1.8,2.7,7,4.8,12.9,4.6c-4.4-1.8-7.4-4.6-6.9-8.1C292.2,191.4,306.4,192,310.1,193.3z"/>
	</g>
</g>
<g>
	<rect x="308" y="159.1" fill="#64492B" width="9.3" height="64.7"/>
	<g>
		<path fill="#2D500A" d="M357.5,199.1c-2.1-3-6.9-6.9-5.7-12.4c1.1,2.3,6.9,2.3,10.2,0.3c-4-0.9-5.2-6.2-5-10.8
			c0.8,1.2,2.2,1.5,3.9,1c-2.8-2-4.5-5.2-4.4-10.2c1.7,1,3.9,0.7,6.3-0.9c-5.1,0.1-13.2-6-13.8-13.4c1.8,0.7,4.1,0.7,6.2-0.2
			c-3-1.2-5-2.9-5.5-6.5c3.2,1.4,6.9,1.6,10.9,0.1c-7.4-1.7-13.7-7.8-18.6-15c1.9,0.7,4.1,1.2,7.4,0c-3.2-1-5.9-3-7-4.9
			c2.3,1.4,5.2,1.7,8.5,1.1c-1.6-0.4-2.8-1.6-3.4-3.1c2.8,1,5.9,0.4,8.4-0.8c-7.4-1.1-17.4-6.5-23.5-14.3c-0.1,0-0.2-0.1-0.2-0.1
			c2.5,1.2,4.5,1.5,8.3,0.3c-5-0.3-9.3-2.7-11.6-6.1c3,2,5.3,2.6,9.2,1.6c-4-0.1-8.1-2.8-10.4-5.7c2.3,2.3,8.4,2.3,13.3,0.4
			c-11.2,0.6-19.8-6.6-27.7-12.7c0-0.2,0-0.4,0-0.7c-0.1,0.1-0.4,0.2-0.5,0.4c-0.1-0.1-0.4-0.2-0.5-0.4c0,0.2,0,0.4,0,0.7
			c-7.9,6-16.6,13.2-27.7,12.7c5.1,2,11,1.9,13.3-0.4c-2.3,2.9-6.4,5.7-10.4,5.7c3.9,1,6.2,0.4,9.2-1.6c-2.4,3.4-6.7,5.9-11.6,6.1
			c3.8,1.2,5.7,1,8.3-0.3c0,0.1-0.1,0.1-0.2,0.1c-6.2,7.7-16.1,13.1-23.5,14.3c2.4,1.2,5.6,1.8,8.4,0.8c-0.5,1.6-1.7,2.8-3.4,3.1
			c3.3,0.6,6.2,0.3,8.5-1.1c-1,2-3.9,3.9-7,4.9c3.3,1.2,5.5,0.6,7.4,0c-4.9,7.2-11.2,13.3-18.6,15c4,1.5,7.9,1.4,10.9-0.1
			c-0.5,3.6-2.4,5.3-5.5,6.5c2.2,0.9,4.4,0.9,6.2,0.2c-0.6,7.4-8.7,13.6-13.8,13.4c2.4,1.5,4.6,1.8,6.3,0.9c0.1,5-1.6,8.1-4.4,10.2
			c1.8,0.4,3.2,0.2,3.9-1c0.2,4.5-1,9.9-5,10.8c3.3,2,9.1,2,10.2-0.3c1.2,5.6-3.6,9.4-5.7,12.4c3.8-1.2,17.8-1.9,20.5-9.6
			c0.5,3.5-2.7,6.4-6.9,8.1c5.8,0.2,11-1.8,12.9-4.6c-0.2,1.8-2.4,3.9-5.6,4.5c6.4-0.1,10.6-1.1,13.8-7.8c0.6,3.4-0.4,6.7-2.7,9.7
			c5.6-1,10.1-1.2,12.7-9.1c2.7,7.9,7.3,8.1,12.7,9.1c-2.3-3-3.3-6.3-2.7-9.7c3.2,6.7,7.4,7.8,13.8,7.8c-3.2-0.6-5.5-2.8-5.6-4.5
			c1.8,2.7,7,4.8,12.9,4.6c-4.4-1.8-7.4-4.6-6.9-8.1C339.5,197.1,353.7,197.9,357.5,199.1z"/>
	</g>
</g>
<g>
	<rect x="95" y="153.9" fill="#64492B" width="10.7" height="68"/>
	<g>
		<path fill="#6A9A2F" d="M167.1,204c-10.9-8.6-34.4-9.9-37.9-24.5c6,3.8,14.2,8.2,23.4,9c-5.3-1.7-10.5-4.5-12.1-8.2
			c7.4,2.6,13.2,3.6,25.6,4c-15.9-3.9-37-10.2-42.5-18.5c11.2,4.5,23.4,9.6,39.5,9.7c-17.9-4.5-30.3-8.5-43.9-16.7
			c15.1,5.5,29.4,9.4,61.2,6.8c-25.2-0.7-48.7-9.5-64.9-20.4c14.3,5.7,26.4,8.8,45.9,8.5c-16.5-2.4-31.9-8.6-42.3-15.1
			c17.9,5.7,24.2,8.2,46.2,8.4c-17.9-3.7-27.7-9.8-32.9-16.7c7.1,2.2,16.2,3.7,25.5,2.7c-19.7-3.9-37.6-9.9-40.4-19.5
			c13.5,5.6,25.3,9.4,43.2,11.2c-16.7-4.2-28.8-9.4-38.2-16c9.6,1.3,19.7,3,30.3,2.4c-19-2.8-42-7.1-45.8-14.9
			c10.4,4.6,24.1,6.4,40.6,5.9c-17.3-2.2-27-7.6-30.3-13.5c6.9,2.3,13.8,3.6,26.9,3c-17.1-1.9-42.1-8.6-44.2-20.1
			c-2,11.5-27,18.2-44.2,20.1c13.1,0.7,20-0.7,26.9-3c-3.1,5.8-13.1,11.2-30.3,13.5c16.7,0.5,30.2-1.3,40.6-5.9
			c-3.9,7.7-26.9,12-45.8,14.9c10.7,0.6,20.8-1,30.3-2.4c-9.4,6.7-21.4,11.8-38.2,16c18.1-1.8,29.9-5.6,43.2-11.2
			c-2.8,9.6-20.6,15.6-40.4,19.5c9.4,1,18.4-0.4,25.5-2.7c-5,6.9-14.9,13-32.9,16.7c22-0.2,28.5-2.6,46.2-8.4
			c-10.4,6.5-25.8,12.8-42.3,15.1c19.5,0.4,31.6-2.8,45.9-8.5c-16.4,10.9-39.8,19.6-64.9,20.4c31.8,2.6,46.2-1.2,61.2-6.8
			c-12.7,8.3-25.2,12.2-43.2,16.7c16-0.1,28.3-5.1,39.5-9.7c-5.5,8.3-26.6,14.6-42.5,18.5c12.4-0.5,18.2-1.5,25.6-4
			c-1.7,3.7-6.8,6.5-12.1,8.2c9.3-0.7,17.5-5.1,23.4-9c-3.5,14.6-27,15.9-37.9,24.5c23.6-2.4,42.1-6.2,59.9-17.1
			c-1.4,3.9-1.6,3.9-6.6,10.9c10.9-3.9,13.4-8.3,13.4-8.3s2.5,4.5,13.4,8.3c-5-7-5.2-7-6.6-10.9C124.9,197.7,143.5,201.6,167.1,204z
			"/>
	</g>
</g>
<g>
	<rect x="518.6" y="157.2" fill="#64492B" width="19.2" height="88.7"/>
	<g>
		<path fill="#33560F" d="M607,230.8c-4.4-6.5-13.6-15.8-12.1-24.4c2.2,4.5,12.7,8.1,18.6,7.4c-7.5-4.5-10.4-14.1-10.6-21.6
			c1.6,2.6,4,3.8,7.3,4.4c-5.5-5.4-8.9-11.8-9.2-20c3.2,2.7,6.9,3.7,11,3c-9.2-3.8-23.8-18.5-25.5-30.9c3.2,2.1,6.9,3.3,10.4,3.1
			c-5.3-3.8-8.6-7.6-9.8-13.8c5.2,3.9,11.8,6.4,18.4,6.7c-13-7.9-23.8-21-32-34.7c3,1.8,6.6,3.6,11.8,3.3
			c-5.1-3.3-9.7-7.6-11.5-11.2c3.8,3.2,8.4,5,13.6,5.7c-2.7-1.5-4.6-4-5.6-6.9c4.5,2.9,9.5,3.7,13.3,3.1
			c-12.1-6.4-28-19.2-37.6-33.2c-0.2-0.1-0.4-0.1-0.4-0.3c3.9,2.7,6.9,3.6,12.5,2.9c-7.5-2.2-14.2-7.2-17.8-13.4
			c4.5,3.8,8,5.5,13.8,5c-6.1-1.4-12.4-6.9-15.8-12c3.5,4.1,12.4,5.6,19.9,4.2c-16.7-3-29.5-15.7-40.9-25.7c0-0.4,0-0.8,0-1.2
			c-0.2,0.2-0.5,0.4-0.6,0.6c-0.2-0.2-0.5-0.4-0.6-0.6c0,0.4,0,0.8,0,1.2c-11.4,9.9-24.1,22.7-40.9,25.7c7.5,1.5,16.4-0.1,19.9-4.2
			c-3.5,5.2-9.8,10.7-15.8,12c5.8,0.4,9.2-1.2,13.8-5c-3.6,6.1-10.3,11.1-17.8,13.4c5.7,0.6,8.6-0.3,12.5-2.9c0,0.1-0.1,0.2-0.4,0.3
			c-9.6,14-25.5,26.8-37.6,33.2c3.9,0.5,8.9-0.2,13.3-3.1c-1,2.9-3,5.4-5.6,6.9c5.2-0.7,9.8-2.4,13.6-5.7c-1.7,3.6-6.4,8-11.5,11.2
			c5.2,0.3,8.7-1.5,11.8-3.3c-8.1,13.8-19,26.8-32,34.7c6.7-0.2,13.2-2.7,18.4-6.7c-1.1,6.2-4.5,10.1-9.8,13.8
			c3.6,0.1,7.3-1,10.6-3.1c-1.7,12.4-16.3,27.2-25.5,30.9c4.1,0.7,8-0.3,11-3c-0.5,8.2-3.8,14.5-9.2,20c3.2-0.6,5.6-1.8,7.3-4.4
			c-0.1,7.4-3,17.1-10.6,21.6c5.8,0.8,16.4-2.9,18.6-7.4c1.5,8.5-7.8,17.8-12.1,24.4c7.4-5.3,32.9-13.6,37.7-26.6
			c0.6,5.6-5,11.3-12.7,16.2c10.3-2.4,19.5-7.2,22.7-12.2c-0.5,2.9-4.5,7.2-10.1,9.2c11.2-2.3,18.4-4.7,24-16.2
			c1,5.5-0.7,11-4.9,16.3c9.6-2.6,17.4-3.1,21.8-16.1c4.5,12.9,12.4,13.5,21.8,16.1c-4-5.3-5.7-10.8-4.9-16.3
			c5.6,11.6,12.9,13.9,24,16.2c-5.6-2-9.6-6.3-10.1-9.2c3.3,5,12.4,9.9,22.7,12.2c-7.9-4.9-13.5-10.7-12.7-16.2
			C574.2,217.2,599.7,225.5,607,230.8z"/>
	</g>
</g>
<g>
	<rect x="575.7" y="207.5" fill="#64492B" width="9.7" height="62.8"/>
	<g>
		<path fill="#48711E" d="M626.9,246.3c-2.2-2.9-7.2-6.7-5.9-12c1.1,2.3,7.2,2.3,10.6,0.3c-4.1-0.8-5.5-6.1-5.2-10.5
			c0.8,1.2,2.2,1.4,4.1,1c-2.9-2-4.7-5-4.6-9.8c1.8,1,4,0.6,6.6-0.8c-5.2,0.1-13.7-5.9-14.3-13c1.9,0.7,4.2,0.7,6.4-0.2
			c-3.2-1.1-5.1-2.9-5.6-6.3c3.3,1.4,7.2,1.5,11.4,0.1c-7.8-1.6-14.2-7.5-19.3-14.5c1.9,0.6,4.2,1.2,7.6,0c-3.2-1-6.2-2.9-7.3-4.8
			c2.4,1.4,5.3,1.7,8.9,1.1c-1.7-0.4-2.9-1.5-3.5-3.1c2.9,1,6.1,0.4,8.7-0.7c-7.6-1.1-18-6.3-24.4-13.8c-0.1,0-0.2-0.1-0.2-0.1
			c2.7,1.2,4.7,1.4,8.6,0.3c-5.1-0.3-9.6-2.6-12.1-6c3.2,1.9,5.5,2.6,9.5,1.5c-4.1,0-8.5-2.7-10.9-5.6c2.4,2.2,8.6,2.3,13.8,0.4
			c-11.5,0.5-20.5-6.4-28.8-12.2c0-0.2,0-0.4,0-0.7c-0.1,0.1-0.4,0.2-0.5,0.4c-0.1-0.1-0.4-0.2-0.5-0.4c0,0.2,0,0.4,0,0.7
			c-8.3,5.9-17.2,12.8-28.8,12.2c5.2,2,11.5,1.9,13.8-0.4c-2.4,2.8-6.7,5.5-10.9,5.6c4,1,6.4,0.4,9.5-1.5c-2.4,3.4-6.9,5.7-12.1,6
			c3.9,1.2,5.9,1,8.6-0.3c0,0.1-0.1,0.1-0.2,0.1c-6.4,7.5-16.7,12.7-24.4,13.8c2.5,1.2,5.8,1.7,8.7,0.7c-0.6,1.5-1.8,2.7-3.5,3.1
			c3.4,0.6,6.4,0.3,8.9-1.1c-1.1,1.9-4,3.7-7.3,4.8c3.4,1.2,5.7,0.6,7.6,0c-5.1,6.9-11.5,12.9-19.3,14.5c4.1,1.5,8.1,1.3,11.4-0.1
			c-0.5,3.5-2.4,5.2-5.6,6.3c2.3,0.9,4.5,0.9,6.4,0.2c-0.6,7.2-9.1,13.2-14.3,13c2.5,1.5,4.7,1.8,6.6,0.8c0.1,4.8-1.7,7.9-4.6,9.8
			c1.8,0.4,3.3,0.2,4.1-1c0.2,4.4-1.1,9.7-5.2,10.5c3.4,2,9.3,2,10.6-0.3c1.2,5.4-3.8,9.1-5.9,12c3.9-1.2,18.6-1.9,21.2-9.3
			c0.5,3.4-2.7,6.1-7.2,7.9c6.1,0.2,11.4-1.8,13.3-4.5c-0.2,1.7-2.5,3.9-5.8,4.4c6.7-0.1,10.9-1,14.3-7.5c0.6,3.3-0.4,6.5-2.8,9.4
			c5.7-1,10.4-1.2,13.2-8.9c2.8,7.7,7.5,7.8,13.2,8.9c-2.4-2.9-3.4-6.1-2.8-9.4c3.3,6.5,7.6,7.5,14.3,7.5c-3.3-0.6-5.6-2.7-5.8-4.4
			c1.8,2.6,7.3,4.7,13.3,4.5c-4.5-1.7-7.8-4.5-7.2-7.9C608.3,244.4,623,245,626.9,246.3z"/>
	</g>
</g>
<g>
	<rect x="644.3" y="201.5" fill="#64492B" width="8.3" height="48.7"/>
	<g>
		<path fill="#2D500A" d="M699.9,237.4c-8.4-6.1-26.6-7.2-29.2-17.6c4.6,2.8,10.9,5.9,18.1,6.4c-4.1-1.2-8.1-3.2-9.3-5.9
			c5.7,1.8,10.2,2.6,19.8,2.9c-12.3-2.8-28.5-7.3-32.8-13.3c8.6,3.2,18.1,6.9,30.5,6.9c-13.8-3.2-23.4-6.1-33.9-12
			c11.6,3.9,22.7,6.7,47.2,4.8c-19.4-0.5-37.6-6.9-50.1-14.6c11,4,20.4,6.4,35.4,6.1c-12.7-1.7-24.6-6.2-32.6-10.8
			c13.8,4.1,18.7,5.9,35.7,6c-13.8-2.7-21.4-7-25.4-12c5.5,1.6,12.5,2.7,19.7,1.9c-15.2-2.8-29-7.1-31.2-14c10.4,4,19.5,6.7,33.4,8
			c-12.9-3-22.2-6.7-29.5-11.5c7.4,1,15.2,2.2,23.4,1.7c-14.7-2-32.4-5.1-35.3-10.7c8,3.3,18.6,4.6,31.3,4.2
			c-13.3-1.6-20.9-5.5-23.4-9.7c5.3,1.7,10.7,2.6,20.7,2.2c-13.2-1.3-32.5-6.1-34.1-14.4c-1.6,8.2-20.9,13.1-34.1,14.4
			c10.1,0.5,15.4-0.5,20.7-2.2c-2.4,4.2-10.1,8-23.4,9.7c12.9,0.4,23.3-1,31.3-4.2c-3,5.6-20.7,8.6-35.3,10.7
			c8.3,0.4,16-0.7,23.4-1.7c-7.3,4.8-16.5,8.5-29.5,11.5c14-1.3,23.1-3.9,33.4-8c-2.2,6.9-15.9,11.2-31.2,14
			c7.3,0.7,14.2-0.4,19.7-1.9c-3.9,5-11.5,9.3-25.4,12c17-0.1,22-1.9,35.7-6c-8,4.6-19.9,9.1-32.6,10.8c15,0.3,24.4-2,35.4-6.1
			c-12.6,7.8-30.7,14.1-50.1,14.6c24.5,1.8,35.7-0.9,47.2-4.8c-10.3,5.9-19.9,8.7-33.9,12c12.4-0.1,21.8-3.7,30.5-6.9
			c-4.2,6-20.5,10.5-32.8,13.3c9.6-0.4,14.1-1,19.8-2.9c-1.3,2.7-5.2,4.6-9.3,5.9c7.2-0.6,13.5-3.7,18.1-6.4
			c-2.7,10.5-20.9,11.4-29.2,17.6c18.2-1.7,32.5-4.5,46.2-12.3c-1.1,2.9-1.2,2.9-5.1,7.8c8.4-2.8,10.3-6,10.3-6s1.9,3.2,10.3,6
			c-3.9-5-4-5-5.1-7.8C667.4,232.9,681.7,235.7,699.9,237.4z"/>
	</g>
</g>
<g>
	<rect x="1549.3" y="184.4" fill="#64492B" width="12.1" height="61.5"/>
	<g>
		<path fill="#48711E" d="M1613.4,222.4c-2.7-2.8-9-6.5-7.4-11.8c1.4,2.2,9,2.2,13.2,0.3c-5.2-0.8-6.8-5.9-6.4-10.3
			c1.1,1.1,2.8,1.3,5,0.9c-3.6-1.9-5.8-4.9-5.7-9.7c2.2,0.9,5,0.6,8.2-0.8c-6.6,0.1-17.1-5.7-17.9-12.7c2.4,0.7,5.3,0.7,8-0.2
			c-3.9-1.1-6.4-2.8-7.1-6.2c4.1,1.3,9,1.5,14.2,0.1c-9.6-1.6-17.8-7.4-24.1-14.2c2.5,0.6,5.3,1.1,9.6,0c-4.1-1-7.7-2.8-9.1-4.7
			c3,1.3,6.8,1.6,11,1c-2-0.4-3.6-1.5-4.4-3c3.6,0.9,7.7,0.4,10.9-0.7c-9.6-1-22.5-6.2-30.5-13.5c-0.2,0-0.3-0.1-0.3-0.1
			c3.3,1.2,5.8,1.4,10.7,0.3c-6.4-0.2-12.1-2.6-15.1-5.9c3.9,1.9,6.9,2.5,12,1.5c-5.2,0-10.5-2.7-13.5-5.4c3,2.2,10.9,2.2,17.3,0.3
			c-14.5,0.5-25.6-6.2-35.9-12c0-0.2,0-0.4,0-0.7c-0.2,0.1-0.5,0.2-0.6,0.4c-0.2-0.1-0.5-0.2-0.6-0.4c0,0.2,0,0.4,0,0.7
			c-10.2,5.7-21.5,12.5-35.9,12c6.6,1.9,14.3,1.9,17.3-0.3c-3,2.8-8.3,5.4-13.5,5.4c5,1,8,0.4,12-1.5c-3.1,3.3-8.6,5.6-15.1,5.9
			c4.9,1.1,7.4,0.9,10.7-0.3c0,0.1-0.2,0.1-0.3,0.1c-8,7.4-20.9,12.4-30.5,13.5c3.1,1.1,7.2,1.6,10.9,0.7c-0.6,1.5-2.2,2.6-4.4,3
			c4.2,0.6,8,0.3,11-1c-1.3,1.9-5,3.7-9.1,4.7c4.2,1.1,7.1,0.6,9.6,0c-6.3,6.8-14.5,12.6-24.1,14.2c5.2,1.5,10.2,1.3,14.2-0.1
			c-0.6,3.4-3.1,5.1-7.1,6.2c2.8,0.8,5.7,0.9,8,0.2c-0.8,7.1-11.3,12.9-17.9,12.7c3.1,1.4,6,1.7,8.2,0.8c0.2,4.8-2,7.7-5.7,9.7
			c2.4,0.4,4.1,0.2,5-0.9c0.3,4.3-1.3,9.4-6.4,10.3c4.2,1.9,11.8,1.9,13.2-0.3c1.6,5.3-4.7,8.9-7.4,11.8c4.9-1.2,23.1-1.9,26.6-9.1
			c0.6,3.3-3.5,6-9,7.7c7.5,0.2,14.3-1.8,16.7-4.4c-0.3,1.6-3.1,3.8-7.2,4.3c8.3-0.1,13.7-1,17.9-7.4c0.8,3.3-0.5,6.3-3.5,9.2
			c7.2-1,13.1-1.1,16.5-8.6c3.5,7.5,9.4,7.7,16.5,8.6c-3-2.8-4.2-5.9-3.5-9.2c4.1,6.4,9.6,7.4,17.9,7.4c-4.1-0.5-7.1-2.7-7.2-4.3
			c2.4,2.6,9.1,4.5,16.7,4.4c-5.7-1.6-9.6-4.4-9-7.7C1590.2,220.6,1608.6,221.2,1613.4,222.4z"/>
	</g>
</g>
<g>
	<rect x="1574.4" y="121.3" fill="#64492B" width="9.1" height="97.6"/>
	<g>
		<path fill="#48711E" d="M1622.4,181.6c-2-4.5-6.7-10.3-5.5-18.8c1.1,3.5,6.7,3.5,9.9,0.5c-3.9-1.3-5.1-9.4-4.8-16.3
			c0.8,1.8,2.1,2.1,3.8,1.4c-2.7-3.1-4.4-7.8-4.2-15.3c1.6,1.4,3.8,0.9,6.1-1.3c-4.9,0.2-12.8-9.1-13.4-20.2c1.8,1.1,4,1.1,6-0.4
			c-2.9-1.8-4.8-4.4-5.3-9.8c3.1,2.1,6.7,2.4,10.6,0.1c-7.2-2.5-13.3-11.7-18-22.5c1.9,0.9,4,1.8,7.2,0c-3.1-1.5-5.8-4.5-6.8-7.4
			c2.2,2.1,5.1,2.6,8.2,1.7c-1.5-0.6-2.7-2.4-3.3-4.7c2.7,1.4,5.8,0.6,8.1-1.2c-7.2-1.7-16.8-9.8-22.8-21.5c-0.1,0-0.2-0.1-0.2-0.2
			c2.5,1.9,4.4,2.2,8,0.5c-4.8-0.4-9.1-4.1-11.3-9.3c2.9,2.9,5.2,3.9,8.9,2.4c-3.9,0-7.9-4.2-10.1-8.6c2.2,3.4,8.1,3.5,12.9,0.5
			c-10.8,0.8-19.2-9.9-26.8-19c0-0.4,0-0.7,0-1.1c-0.1,0.2-0.4,0.4-0.5,0.6c-0.1-0.2-0.4-0.4-0.5-0.6c0,0.4,0,0.7,0,1.1
			c-7.6,9.1-16.1,19.8-26.8,19c4.9,3.1,10.7,2.9,12.9-0.5c-2.2,4.4-6.2,8.6-10.1,8.6c3.8,1.5,6,0.6,8.9-2.4
			c-2.4,5.2-6.5,8.8-11.3,9.3c3.6,1.8,5.5,1.4,8-0.5c0,0.1-0.1,0.2-0.2,0.2c-6,11.7-15.6,19.7-22.8,21.5c2.4,1.8,5.4,2.6,8.1,1.2
			c-0.5,2.4-1.6,4.1-3.3,4.7c3.2,0.9,6,0.5,8.2-1.7c-0.9,2.9-3.8,5.9-6.8,7.4c3.2,1.8,5.3,0.9,7.2,0c-4.7,10.9-10.8,20.1-18,22.5
			c3.9,2.4,7.6,2.1,10.6-0.1c-0.5,5.4-2.4,8.1-5.3,9.8c2.1,1.3,4.2,1.4,6,0.4c-0.6,11.2-8.5,20.5-13.4,20.2c2.4,2.2,4.5,2.7,6.1,1.3
			c0.1,7.6-1.5,12.3-4.2,15.3c1.8,0.7,3.1,0.4,3.8-1.4c0.2,6.8-0.9,15-4.8,16.3c3.2,3.1,8.8,3.1,9.9-0.5c1.2,8.4-3.5,14.2-5.5,18.8
			c3.6-1.9,17.3-2.9,19.9-14.4c0.5,5.2-2.6,9.6-6.7,12.3c5.6,0.4,10.7-2.8,12.5-7c-0.2,2.6-2.4,6-5.4,6.8
			c6.2-0.1,10.2-1.7,13.4-11.8c0.6,5.2-0.4,10-2.6,14.6c5.4-1.5,9.8-1.8,12.3-13.7c2.6,11.9,7.1,12.3,12.3,13.7
			c-2.2-4.5-3.2-9.4-2.6-14.6c3.1,10.1,7.2,11.7,13.4,11.8c-3.1-0.8-5.3-4.2-5.4-6.8c1.8,4.1,6.8,7.2,12.5,7
			c-4.2-2.6-7.2-7-6.7-12.3C1605,178.6,1618.7,179.7,1622.4,181.6z"/>
	</g>
</g>
<g>
	<rect x="322.3" y="178.8" fill="#64492B" width="18.3" height="60.5"/>
	<g>
		<path fill="#365F16" d="M406.8,229c-4.1-4.5-13-10.8-11.5-16.6c2.1,3.1,12.3,5.6,17.8,5c-7.2-3.1-9.9-9.7-10.1-14.7
			c1.6,1.8,3.9,2.6,6.9,3c-5.2-3.7-8.4-8-8.9-13.6c2.9,1.8,6.7,2.5,10.6,2c-8.9-2.6-22.8-12.7-24.4-21.1c3,1.5,6.6,2.3,10.1,2.1
			c-5.1-2.6-8.3-5.2-9.3-9.4c5,2.7,11.2,4.4,17.6,4.5c-12.4-5.4-22.7-14.3-30.6-23.7c2.9,1.2,6.3,2.5,11.3,2.3
			c-4.9-2.2-9.3-5.2-10.9-7.7c3.5,2.2,8,3.4,13,3.9c-2.5-1-4.5-2.7-5.3-4.7c4.2,2,9.1,2.5,12.7,2.1c-11.5-4.4-26.7-13.1-35.9-22.7
			c-0.2-0.1-0.4-0.1-0.4-0.2c3.8,1.8,6.6,2.4,12,2c-7.3-1.5-13.6-4.9-17-9.1c4.4,2.6,7.6,3.7,13.2,3.4c-5.8-1-11.8-4.7-15.2-8.2
			c3.3,2.8,11.9,3.9,19,2.9c-16-2-28.3-10.7-39.1-17.5c0-0.3,0-0.5,0-0.8c-0.2,0.1-0.4,0.3-0.6,0.4c-0.2-0.1-0.4-0.3-0.6-0.4
			c0,0.3,0,0.5,0,0.8c-10.9,6.8-23.1,15.4-39.1,17.5c7.2,1,15.7-0.1,19-2.9c-3.3,3.5-9.3,7.2-15.2,8.2c5.5,0.3,8.9-0.8,13.2-3.4
			c-3.5,4.2-9.8,7.6-17,9.1c5.5,0.4,8.3-0.2,12-2c0,0.1-0.1,0.1-0.4,0.2c-9.2,9.6-24.4,18.3-35.9,22.7c3.6,0.4,8.5-0.1,12.7-2.1
			c-1,2-2.9,3.7-5.3,4.7c5-0.5,9.3-1.7,13-3.9c-1.7,2.5-6.1,5.4-10.9,7.7c5,0.2,8.3-1,11.3-2.3c-7.8,9.4-18.2,18.3-30.6,23.7
			c6.4-0.1,12.6-1.8,17.6-4.5c-1.1,4.2-4.2,6.9-9.3,9.4c3.4,0.1,6.9-0.7,10.1-2.1c-1.6,8.5-15.5,18.6-24.4,21.1
			c4,0.4,7.6-0.2,10.6-2c-0.4,5.6-3.6,9.9-8.9,13.6c3-0.4,5.3-1.2,6.9-3c-0.1,5-2.9,11.7-10.1,14.7c5.6,0.5,15.7-2,17.8-5
			c1.5,5.8-7.4,12.1-11.5,16.6c7-3.6,31.4-9.3,36-18.1c0.6,3.8-4.7,7.8-12.3,11c9.8-1.6,18.6-5,21.7-8.3c-0.5,2-4.2,4.9-9.6,6.3
			c10.7-1.6,17.6-3.2,22.9-11c0.8,3.7-0.7,7.5-4.6,11.1c9.1-1.8,16.6-2.1,20.9-11c4.4,8.9,11.8,9.1,20.9,11
			c-3.9-3.7-5.5-7.4-4.6-11.1c5.3,7.9,12.3,9.4,22.9,11c-5.3-1.4-9.1-4.2-9.6-6.3c3,3.4,11.8,6.7,21.7,8.3
			c-7.5-3.4-12.9-7.2-12.3-11C375.3,219.7,399.7,225.4,406.8,229z"/>
	</g>
</g>
<g>
	<rect x="404.4" y="160.8" fill="#64492B" width="18.4" height="76"/>
	<path fill="#3B6015" d="M516.6,210.2c-22.5-7.4-57.2-7.3-65.7-24.3c8.6,4.2,21.7,8.8,34.6,8.9c-8.2-1.5-16.2-4.2-19.8-8.5
		c10.5,2.5,18.7,3.3,35.1,2.7c-23-2.8-52.2-9.1-59.8-19c13.8,5.1,31.1,10.4,50.8,9.3c-24.2-3.8-40.6-8-56.9-17.5
		c17.3,6.2,37,10.3,71.5,5.1c-29.2,1.1-59.9-8.4-77.2-21.2c15.3,6.5,29.6,10,50.2,8.7c-18.7-1.9-36.5-9.1-47.3-16.6
		c18.4,6.5,26.1,9.2,48.7,8.7c-19.8-3.6-31-10.6-37-18.7c6.9,2.5,16.2,4.1,24.7,2.7c-20-4-37.1-11.1-40.1-22.4
		c12.1,6.5,23.4,10.9,40.4,12.6c-16.4-4.5-27.8-10.6-36.3-18.4c8.2,1.6,17.1,3.4,26.1,2.6c-16.8-3-36.3-8.1-39.5-17.3
		c8.3,5.4,19.8,7.5,33.3,6.8c-14.5-2.5-22.8-8.8-25.5-15.7c5.5,2.8,11,4.3,21.1,3.5c-13.8-2.1-33.2-10.1-34.3-23.6
		c-1.1,13.5-20.6,21.6-34.3,23.6c10.1,0.8,15.6-0.7,21.1-3.5c-2.7,6.8-11,13.2-25.5,15.7c13.4,0.7,24.8-1.3,33.3-6.8
		c-3.1,9.1-22.6,14.2-39.5,17.3c9,0.8,17.9-1,26.1-2.6c-8.5,7.8-20,13.8-36.3,18.4c17-1.7,28.3-6,40.4-12.6
		c-3,11.3-20.1,18.4-40.1,22.4c8.6,1.5,17.8-0.1,24.7-2.7c-6,8-17,15.1-37,18.7c22.6,0.6,30.3-2.2,48.7-8.7
		c-10.9,7.5-28.6,14.6-47.3,16.6c20.6,1.3,34.9-2.2,50.2-8.7c-17.3,12.8-48,22.3-77.2,21.2c34.6,5.1,54.1,1.2,71.5-5.1
		c-16.4,9.4-32.7,13.7-56.9,17.5c19.7,1.1,37-4.2,50.8-9.3c-7.5,9.7-36.8,16.2-59.8,19c16.2,0.6,24.5-0.1,35.1-2.7
		c-3.6,4.2-11.6,7.1-19.8,8.5c12.9-0.1,25.9-4.7,34.6-8.9c-8.5,17-43.2,16.8-65.7,24.3c36.2,0.9,68.4-2.4,93.7-15
		c-2.4,4.6-2.4,4.6-10.9,12.8c17-4.2,20.1-9.7,20.1-9.7s3.1,5.4,20.1,9.7c-8.5-8.1-8.5-8.1-10.9-12.8
		C448.1,207.9,480.5,211.1,516.6,210.2z"/>
</g>
<g>
	<rect x="126.2" y="120.6" fill="#64492B" width="14.2" height="70.9"/>
	<path fill="#3B6015" d="M212.9,166.7c-17.4-6.9-44.2-6.8-50.7-22.7c6.7,3.9,16.7,8.3,26.7,8.3c-6.3-1.3-12.5-3.9-15.3-7.9
		c8.1,2.3,14.4,3.1,27.1,2.5c-17.7-2.6-40.3-8.6-46.1-17.6c10.7,4.8,24,9.7,39.2,8.6c-18.7-3.6-31.3-7.5-43.9-16.3
		c13.3,5.9,28.5,9.6,55.2,4.8c-22.6,1-46.2-7.8-59.6-19.7c11.8,6.1,22.8,9.4,38.7,8.1c-14.4-1.8-28.2-8.4-36.5-15.5
		c14.2,6.1,20.1,8.6,37.6,8.1c-15.3-3.4-23.9-9.9-28.5-17.4c5.3,2.3,12.5,3.8,19,2.5c-15.4-3.7-28.6-10.3-30.9-20.8
		c9.3,6.1,18.1,10.2,31.2,11.8c-12.6-4.2-21.5-9.8-28-17.1c6.3,1.5,13.2,3.2,20.1,2.4c-13-2.9-28-7.5-30.5-16.1
		c6.4,5,15.3,7,25.7,6.3c-11.2-2.3-17.6-8.3-19.7-14.6c4.2,2.6,8.5,4,16.3,3.2c-10.7-1.9-25.6-9.4-26.5-22
		c-0.8,12.6-15.9,20.1-26.5,22c7.8,0.8,12-0.7,16.3-3.2c-2.1,6.4-8.5,12.4-19.7,14.6c10.3,0.7,19.2-1.2,25.7-6.3
		c-2.4,8.6-17.5,13.2-30.5,16.1c6.9,0.8,13.8-1,20.1-2.4c-6.6,7.3-15.4,12.9-28,17.1c13.1-1.6,21.8-5.6,31.2-11.8
		c-2.3,10.5-15.5,17.1-30.9,20.8c6.7,1.4,13.7-0.1,19-2.5c-4.6,7.5-13.1,14-28.5,17.4c17.5,0.5,23.4-2,37.6-8.1
		c-8.4,7-22.1,13.7-36.5,15.5c15.9,1.2,26.9-2,38.7-8.1c-13.3,11.9-37,20.8-59.6,19.7c26.7,4.8,41.7,1.1,55.2-4.8
		c-12.6,8.9-25.2,12.7-43.9,16.3c15.2,1,28.5-3.9,39.2-8.6c-5.8,9.1-28.4,15.1-46.1,17.6c12.5,0.5,18.9-0.1,27.1-2.5
		c-2.8,3.9-9,6.6-15.3,7.9c9.9-0.1,20-4.3,26.7-8.3c-6.6,15.8-33.4,15.7-50.7,22.7c27.9,0.8,52.8-2.2,72.3-14
		c-1.8,4.3-1.8,4.3-8.4,11.9c13.1-3.9,15.5-9,15.5-9s2.4,5,15.5,9c-6.6-7.5-6.6-7.5-8.4-11.9C160.1,164.4,185.1,167.5,212.9,166.7z"
		/>
</g>
<g>
	<rect x="45.5" y="161.3" fill="#64492B" width="12.1" height="61.5"/>
	<g>
		<path fill="#598527" d="M109.5,199.2c-2.7-2.8-9-6.5-7.4-11.8c1.4,2.2,9,2.2,13.2,0.3c-5.2-0.8-6.8-5.9-6.4-10.3
			c1.1,1.1,2.8,1.3,5,0.9c-3.6-1.9-5.8-4.9-5.7-9.7c2.2,0.9,5,0.6,8.2-0.8c-6.6,0.1-17.1-5.7-17.9-12.7c2.4,0.7,5.3,0.7,8-0.2
			c-3.9-1.1-6.4-2.8-7.1-6.2c4.1,1.3,9,1.5,14.2,0.1c-9.6-1.6-17.8-7.4-24.1-14.2c2.5,0.6,5.3,1.1,9.6,0c-4.1-1-7.7-2.8-9.1-4.7
			c3,1.3,6.8,1.6,11,1c-2-0.4-3.6-1.5-4.4-3c3.6,0.9,7.7,0.4,10.9-0.7c-9.6-1-22.5-6.2-30.5-13.5c-0.2,0-0.3-0.1-0.3-0.1
			c3.3,1.2,5.8,1.4,10.7,0.3c-6.4-0.2-12.1-2.6-15.1-5.9c3.9,1.9,6.9,2.5,12,1.5c-5.2,0-10.5-2.7-13.5-5.4c3,2.2,10.9,2.2,17.3,0.3
			c-14.5,0.5-25.6-6.2-35.9-12c0-0.2,0-0.4,0-0.7c-0.2,0.1-0.5,0.2-0.6,0.4c-0.2-0.1-0.5-0.2-0.6-0.4c0,0.2,0,0.4,0,0.7
			c-10.2,5.7-21.5,12.5-35.9,12c6.6,1.9,14.3,1.9,17.3-0.3c-3,2.8-8.3,5.4-13.5,5.4c5,1,8,0.4,12-1.5c-3.1,3.3-8.6,5.6-15.1,5.9
			c4.9,1.1,7.4,0.9,10.7-0.3c0,0.1-0.2,0.1-0.3,0.1c-8,7.4-20.9,12.4-30.5,13.5c3.1,1.1,7.2,1.6,10.9,0.7c-0.6,1.5-2.2,2.6-4.4,3
			c4.2,0.6,8,0.3,11-1c-1.3,1.9-5,3.7-9.1,4.7c4.2,1.1,7.1,0.6,9.6,0c-6.3,6.8-14.5,12.6-24.1,14.2c5.2,1.5,10.2,1.3,14.2-0.1
			c-0.6,3.4-3.1,5.1-7.1,6.2c2.8,0.8,5.7,0.9,8,0.2c-0.8,7.1-11.3,12.9-17.9,12.7c3.1,1.4,6,1.7,8.2,0.8c0.2,4.8-2,7.7-5.7,9.7
			c2.4,0.4,4.1,0.2,5-0.9c0.3,4.3-1.3,9.4-6.4,10.3c4.2,1.9,11.8,1.9,13.2-0.3c1.6,5.3-4.7,8.9-7.4,11.8c4.9-1.2,23.1-1.9,26.6-9.1
			c0.6,3.3-3.5,6-9,7.7c7.5,0.2,14.3-1.8,16.7-4.4c-0.3,1.6-3.1,3.8-7.2,4.3c8.3-0.1,13.7-1,17.9-7.4c0.8,3.3-0.5,6.3-3.5,9.2
			c7.2-1,13.1-1.1,16.5-8.6c3.5,7.5,9.4,7.7,16.5,8.6c-3-2.8-4.2-5.9-3.5-9.2c4.1,6.4,9.6,7.4,17.9,7.4c-4.1-0.5-7.1-2.7-7.2-4.3
			c2.4,2.6,9.1,4.5,16.7,4.4c-5.7-1.6-9.6-4.4-9-7.7C86.4,197.4,104.8,198,109.5,199.2z"/>
	</g>
</g>
<g>
	<rect x="329.1" y="177.8" fill="#64492B" width="8.3" height="48.7"/>
	<path fill="#588426" d="M414.8,200.1c-17.8-4.7-45.4-4.6-52.1-15.2c6.8,2.7,17.1,5.6,27.4,5.6c-6.4-0.9-12.9-2.7-15.8-5.3
		c8.4,1.6,14.9,2,27.8,1.7c-18.2-1.7-41.4-5.8-47.3-11.9c10.9,3.2,24.6,6.5,40.3,5.9c-19.2-2.4-32.2-5-45.1-11
		c13.7,3.9,29.2,6.4,56.7,3.2c-23.2,0.7-47.4-5.3-61.2-13.3c12,4.1,23.4,6.3,39.8,5.5c-14.8-1.2-28.9-5.7-37.4-10.5
		c14.6,4.1,20.7,5.8,38.6,5.5c-15.8-2.3-24.5-6.7-29.2-11.7c5.6,1.5,12.7,2.6,19.7,1.7c-15.9-2.6-29.4-6.9-31.8-14
		c9.6,4.1,18.6,6.8,31.9,7.9c-13-2.9-22.1-6.7-28.9-11.6c6.4,1,13.6,2.1,20.6,1.6c-13.3-1.9-28.8-5-31.2-10.8
		c6.7,3.4,15.7,4.7,26.3,4.2c-11.5-1.5-18.1-5.6-20.3-9.9c4.4,1.7,8.7,2.7,16.6,2.2c-10.9-1.3-26.2-6.4-27.2-14.8
		c-1,8.5-16.3,13.5-27.2,14.8c8,0.5,12.4-0.5,16.6-2.2c-2.2,4.3-8.7,8.3-20.3,9.9c10.7,0.4,19.8-0.9,26.3-4.2
		c-2.4,5.8-17.8,8.9-31.2,10.8c7.2,0.5,14.2-0.7,20.6-1.6c-6.8,4.9-15.9,8.7-28.9,11.6c13.3-1.1,22.4-3.8,31.9-7.9
		c-2.4,7.1-15.9,11.6-31.8,14c6.8,1,14.1-0.1,19.7-1.7c-4.7,5-13.5,9.4-29.2,11.7c17.8,0.4,24-1.3,38.6-5.5
		c-8.6,4.8-22.7,9.2-37.4,10.5c16.3,0.8,27.7-1.4,39.8-5.5c-13.7,8-38,14-61.2,13.3c27.4,3.2,42.8,0.7,56.7-3.2
		c-12.9,5.9-26,8.6-45.1,11c15.7,0.7,29.2-2.6,40.3-5.9c-6.1,6.1-29.1,10.2-47.3,11.9c12.9,0.4,19.4-0.1,27.8-1.7
		c-2.9,2.6-9.2,4.4-15.8,5.3c10.2-0.1,20.5-2.9,27.4-5.6c-6.8,10.7-34.2,10.5-52.1,15.2c28.6,0.5,54.2-1.5,74.3-9.4
		c-1.8,2.9-1.8,2.9-8.6,8c13.5-2.7,16-6.1,16-6.1s2.4,3.4,16,6.1c-6.8-5.1-6.8-5.1-8.6-8C360.7,198.6,386.3,200.6,414.8,200.1z"/>
</g>
<g>
	<rect x="1496.2" y="200.3" fill="#64492B" width="8" height="49.5"/>
	<g>
		<path fill="#204100" d="M1550.1,236.9c-8.1-6.2-25.7-7.3-28.3-17.8c4.5,2.8,10.6,6,17.5,6.5c-4-1.3-7.9-3.3-9.1-5.9
			c5.5,1.9,9.9,2.6,19.2,3c-11.9-2.8-27.6-7.4-31.7-13.5c8.3,3.3,17.5,7,29.5,7.1c-13.4-3.3-22.7-6.2-32.8-12.2
			c11.3,4,22,6.8,45.7,4.9c-18.8-0.5-36.4-7-48.6-14.9c10.7,4.1,19.8,6.5,34.3,6.2c-12.3-1.7-23.9-6.3-31.6-11
			c13.4,4.2,18.1,5.9,34.6,6.1c-13.4-2.8-20.7-7.1-24.6-12.2c5.3,1.6,12.1,2.8,19,1.9c-14.7-2.8-28.1-7.2-30.2-14.2
			c10.1,4.1,18.9,6.8,32.3,8.1c-12.5-3-21.5-6.8-28.6-11.7c7.2,1,14.7,2.2,22.7,1.7c-14.2-2-31.4-5.2-34.2-10.9
			c7.8,3.3,18,4.7,30.3,4.3c-12.9-1.6-20.2-5.6-22.7-9.8c5.2,1.7,10.3,2.7,20.1,2.2c-12.8-1.3-31.5-6.2-33-14.6
			c-1.5,8.3-20.2,13.3-33,14.6c9.8,0.5,14.9-0.5,20.1-2.2c-2.4,4.2-9.8,8.2-22.7,9.8c12.5,0.4,22.6-1,30.3-4.3
			c-2.9,5.7-20.1,8.8-34.2,10.9c8,0.4,15.5-0.7,22.7-1.7c-7.1,4.8-16,8.6-28.6,11.7c13.5-1.3,22.3-4,32.3-8.1
			c-2.1,7-15.4,11.4-30.2,14.2c7.1,0.7,13.8-0.4,19-1.9c-3.8,5.1-11.2,9.4-24.6,12.2c16.5-0.1,21.3-1.9,34.6-6.1
			c-7.8,4.7-19.3,9.3-31.6,11c14.6,0.3,23.6-2.1,34.3-6.2c-12.2,8-29.7,14.4-48.6,14.9c23.7,1.9,34.6-0.9,45.7-4.9
			c-10,6-19.3,8.8-32.8,12.2c12-0.1,21.2-3.7,29.5-7.1c-4.1,6.1-19.9,10.6-31.7,13.5c9.3-0.4,13.6-1,19.2-3
			c-1.3,2.8-5.1,4.7-9.1,5.9c6.9-0.6,13.1-3.8,17.5-6.5c-2.6,10.6-20.2,11.6-28.3,17.8c17.6-1.7,31.5-4.5,44.8-12.5
			c-1.1,2.9-1.2,2.9-4.9,8c8.1-2.8,10-6.1,10-6.1s1.9,3.3,10,6.1c-3.8-5.1-3.9-5.1-4.9-8C1518.5,232.2,1532.4,235.1,1550.1,236.9z"
			/>
	</g>
</g>
<g>
	<rect x="1562.7" y="205" fill="#64492B" width="8" height="49.5"/>
	<g>
		<path fill="#204100" d="M1616.7,241.6c-8.1-6.2-25.7-7.3-28.3-17.8c4.5,2.8,10.6,6,17.5,6.5c-4-1.3-7.9-3.3-9.1-5.9
			c5.5,1.9,9.9,2.6,19.2,3c-11.9-2.8-27.6-7.4-31.7-13.5c8.3,3.3,17.5,7,29.5,7.1c-13.4-3.3-22.7-6.2-32.8-12.2
			c11.3,4,22,6.8,45.7,4.9c-18.8-0.5-36.4-7-48.6-14.9c10.7,4.1,19.8,6.5,34.3,6.2c-12.3-1.7-23.9-6.3-31.6-11
			c13.4,4.2,18.1,5.9,34.6,6.1c-13.4-2.8-20.7-7.1-24.6-12.2c5.3,1.6,12.1,2.8,19,1.9c-14.7-2.8-28.1-7.2-30.2-14.2
			c10.1,4.1,18.9,6.8,32.3,8.1c-12.5-3-21.5-6.8-28.6-11.7c7.2,1,14.7,2.2,22.7,1.7c-14.2-2-31.4-5.2-34.2-10.9
			c7.8,3.3,18,4.7,30.3,4.3c-12.9-1.6-20.2-5.6-22.7-9.8c5.2,1.7,10.3,2.7,20.1,2.2c-12.8-1.3-31.5-6.2-33-14.6
			c-1.5,8.3-20.2,13.3-33,14.6c9.8,0.5,14.9-0.5,20.1-2.2c-2.4,4.2-9.8,8.2-22.7,9.8c12.5,0.4,22.6-1,30.3-4.3
			c-2.9,5.7-20.1,8.8-34.2,10.9c8,0.4,15.5-0.7,22.7-1.7c-7.1,4.8-16,8.6-28.6,11.7c13.5-1.3,22.3-4,32.3-8.1
			c-2.1,7-15.4,11.4-30.2,14.2c7.1,0.7,13.8-0.4,19-1.9c-3.8,5.1-11.2,9.4-24.6,12.2c16.5-0.1,21.3-1.9,34.6-6.1
			c-7.8,4.7-19.3,9.3-31.6,11c14.6,0.3,23.6-2.1,34.3-6.2c-12.2,8-29.7,14.4-48.6,14.9c23.7,1.9,34.6-0.9,45.7-4.9
			c-10,6-19.3,8.8-32.8,12.2c12-0.1,21.2-3.7,29.5-7.1c-4.1,6.1-19.9,10.6-31.7,13.5c9.3-0.4,13.6-1,19.2-3
			c-1.3,2.8-5.1,4.7-9.1,5.9c6.9-0.6,13.1-3.8,17.5-6.5c-2.6,10.6-20.2,11.6-28.3,17.8c17.6-1.7,31.5-4.5,44.8-12.5
			c-1.1,2.9-1.2,2.9-4.9,8c8.1-2.8,10-6.1,10-6.1s1.9,3.3,10,6.1c-3.8-5.1-3.9-5.1-4.9-8C1585,237,1598.9,239.8,1616.7,241.6z"/>
	</g>
</g>
<g>
	<rect x="556.5" y="242.6" fill="#64492B" width="8.3" height="48.7"/>
	<g>
		<path fill="#204100" d="M612,278.5c-8.4-6.1-26.6-7.2-29.2-17.6c4.6,2.8,10.9,5.9,18.1,6.4c-4.1-1.2-8.1-3.2-9.3-5.9
			c5.7,1.8,10.2,2.6,19.8,2.9c-12.3-2.8-28.5-7.3-32.8-13.3c8.6,3.2,18.1,6.9,30.5,6.9c-13.8-3.2-23.4-6.1-33.9-12
			c11.6,3.9,22.7,6.7,47.2,4.8c-19.4-0.5-37.6-6.9-50.1-14.6c11,4,20.4,6.4,35.4,6.1c-12.7-1.7-24.6-6.2-32.6-10.8
			c13.8,4.1,18.7,5.9,35.7,6c-13.8-2.7-21.4-7-25.4-12c5.5,1.6,12.5,2.7,19.7,1.9c-15.2-2.8-29-7.1-31.2-14c10.4,4,19.5,6.7,33.4,8
			c-12.9-3-22.2-6.7-29.5-11.5c7.4,1,15.2,2.2,23.4,1.7c-14.7-2-32.4-5.1-35.3-10.7c8,3.3,18.6,4.6,31.3,4.2
			c-13.3-1.6-20.9-5.5-23.4-9.7c5.3,1.7,10.7,2.6,20.7,2.2c-13.2-1.3-32.5-6.1-34.1-14.4c-1.6,8.2-20.9,13.1-34.1,14.4
			c10.1,0.5,15.4-0.5,20.7-2.2c-2.4,4.2-10.1,8-23.4,9.7c12.9,0.4,23.3-1,31.3-4.2c-3,5.6-20.7,8.6-35.3,10.7
			c8.3,0.4,16-0.7,23.4-1.7c-7.3,4.8-16.5,8.5-29.5,11.5c14-1.3,23.1-3.9,33.4-8c-2.2,6.9-15.9,11.2-31.2,14
			c7.3,0.7,14.2-0.4,19.7-1.9c-3.9,5-11.5,9.3-25.4,12c17-0.1,22-1.9,35.7-6c-8,4.6-19.9,9.1-32.6,10.8c15,0.3,24.4-2,35.4-6.1
			c-12.6,7.8-30.7,14.1-50.1,14.6c24.5,1.8,35.7-0.9,47.2-4.8c-10.3,5.9-19.9,8.7-33.9,12c12.4-0.1,21.8-3.7,30.5-6.9
			c-4.2,6-20.5,10.5-32.8,13.3c9.6-0.4,14.1-1,19.8-2.9c-1.3,2.7-5.2,4.6-9.3,5.9c7.2-0.6,13.5-3.7,18.1-6.4
			c-2.7,10.5-20.9,11.4-29.2,17.6c18.2-1.7,32.5-4.5,46.2-12.3c-1.1,2.9-1.2,2.9-5.1,7.8c8.4-2.8,10.3-6,10.3-6s1.9,3.2,10.3,6
			c-3.9-5-4-5-5.1-7.8C579.4,274.1,593.7,276.9,612,278.5z"/>
	</g>
</g>
<g>
	<rect x="353" y="165.7" fill="#64492B" width="6.4" height="63.6"/>
	<g>
		<path fill="#204100" d="M396.3,212.6c-6.6-8-20.7-9.3-22.8-22.9c3.6,3.6,8.5,7.7,14.1,8.4c-3.3-1.6-6.3-4.2-7.3-7.6
			c4.5,2.4,8,3.3,15.4,3.8c-9.6-3.7-22.3-9.5-25.6-17.3c6.8,4.2,14.2,9,23.8,9c-10.8-4.2-18.3-7.9-26.5-15.7
			c9.1,5.2,17.7,8.7,36.9,6.3c-15.2-0.7-29.4-8.9-39.2-19.1c8.6,5.3,15.9,8.3,27.7,7.9c-9.9-2.2-19.2-8.1-25.5-14.1
			c10.8,5.3,14.7,7.6,27.9,7.8c-10.8-3.5-16.7-9.2-19.8-15.7c4.2,2,9.7,3.5,15.4,2.5c-11.9-3.7-22.6-9.3-24.4-18.2
			c8.1,5.3,15.3,8.8,26.1,10.5c-10.1-3.9-17.4-8.8-23.1-15c5.8,1.2,11.9,2.9,18.3,2.3c-11.4-2.6-25.2-6.7-27.7-13.9
			c6.3,4.3,14.4,6,24.5,5.5c-10.4-2-16.4-7.1-18.2-12.6c4.2,2.2,8.4,3.4,16.3,2.9c-10.3-1.7-25.5-8-26.7-18.8
			c-1.2,10.7-16.4,17-26.7,18.8c7.9,0.7,12-0.7,16.3-2.9c-1.9,5.4-7.9,10.5-18.2,12.6c10.1,0.5,18.2-1.2,24.5-5.5
			c-2.3,7.2-16.1,11.3-27.7,13.9c6.4,0.6,12.5-1,18.3-2.3c-5.7,6.2-13,11.1-23.1,15c10.9-1.7,18-5.2,26.1-10.5
			c-1.7,9-12.5,14.6-24.4,18.2c5.7,1,11.2-0.4,15.4-2.5c-3,6.4-9,12.1-19.8,15.7c13.2-0.2,17.1-2.5,27.9-7.8
			c-6.3,6.1-15.5,11.9-25.5,14.1c11.8,0.4,19-2.6,27.7-7.9c-9.8,10.2-24,18.4-39.2,19.1c19.2,2.4,27.8-1.1,36.9-6.3
			c-8.1,7.7-15.5,11.4-26.5,15.7c9.7-0.1,17-4.8,23.8-9c-3.3,7.8-16,13.7-25.6,17.3c7.5-0.4,11-1.4,15.5-3.8c-1,3.5-4.1,6.1-7.3,7.6
			c5.6-0.7,10.6-4.8,14.1-8.4c-2.1,13.6-16.3,14.8-22.8,22.9c14.2-2.2,25.5-5.9,36.2-15.9c-0.8,3.7-1,3.7-4,10.2
			c6.6-3.6,8.1-7.8,8-7.8c0,0,1.5,4.2,8,7.8c-3-6.6-3.2-6.5-4-10.2C371,206.7,382.1,210.3,396.3,212.6z"/>
	</g>
</g>
<g>
	<rect x="395.7" y="200.6" fill="#64492B" width="8.3" height="64.6"/>
	<g>
		<path fill="#204100" d="M451.8,248.2c-8.5-8.2-26.9-9.4-29.6-23.3c4.7,3.6,11,7.8,18.2,8.6c-4.2-1.6-8.2-4.2-9.4-7.7
			c5.8,2.5,10.4,3.3,20,3.9c-12.4-3.7-28.9-9.7-33.2-17.6c8.8,4.3,18.4,9.1,30.8,9.1c-14-4.3-23.7-8-34.3-15.9
			c11.8,5.3,23,8.8,47.8,6.4c-19.7-0.7-38.1-9.1-50.8-19.4c11.2,5.4,20.6,8.5,35.9,8c-12.9-2.2-24.8-8.3-33-14.4
			c14,5.4,19,7.7,36.2,8c-14-3.6-21.7-9.4-25.6-15.9c5.5,2.1,12.6,3.6,20,2.5c-15.4-3.7-29.2-9.4-31.6-18.5
			c10.5,5.4,19.8,8.9,33.8,10.6c-13.1-3.9-22.5-8.9-29.9-15.2c7.5,1.3,15.4,2.9,23.7,2.3c-14.8-2.7-32.7-6.8-35.9-14.1
			c8.2,4.4,18.7,6.1,31.8,5.6c-13.5-2.1-21.2-7.2-23.6-12.8c5.5,2.2,10.9,3.5,21.1,2.9c-13.4-1.7-33-8.2-34.6-19.1
			c-1.6,10.9-21.2,17.3-34.6,19.1c10.2,0.7,15.6-0.7,21.1-2.9c-2.5,5.5-10.2,10.7-23.6,12.8c13.1,0.5,23.6-1.2,31.8-5.6
			c-3,7.4-20.9,11.5-35.9,14.1c8.3,0.6,16.2-1,23.7-2.3c-7.4,6.3-16.8,11.3-29.9,15.2c14.2-1.7,23.3-5.3,33.8-10.6
			c-2.2,9.1-16.2,14.9-31.6,18.5c7.4,1,14.5-0.4,20-2.5c-3.9,6.5-11.6,12.3-25.6,15.9c17.1-0.2,22.2-2.5,36.2-8
			c-8.2,6.2-20.1,12.1-33,14.4c15.3,0.4,24.7-2.7,35.9-8c-12.7,10.3-31.1,18.7-50.8,19.4c24.8,2.5,36-1.1,47.8-6.4
			c-10.5,7.8-20.1,11.6-34.3,15.9c12.6-0.1,22-4.9,30.8-9.1c-4.2,8-20.8,13.9-33.2,17.6c9.7-0.4,14.3-1.4,20.1-3.9
			c-1.3,3.6-5.3,6.2-9.4,7.7c7.2-0.7,13.7-4.9,18.2-8.6c-2.7,13.8-21.1,15.1-29.6,23.3c18.4-2.2,33-5.9,46.9-16.2
			c-1.1,3.8-1.3,3.7-5.2,10.4c8.5-3.6,10.5-7.9,10.4-8c0,0,1.9,4.3,10.4,8c-3.9-6.7-4.1-6.6-5.2-10.4
			C419,242.2,433.4,245.9,451.8,248.2z"/>
	</g>
</g>
<g>
	<rect x="621.8" y="251.1" fill="#64492B" width="8.3" height="48.7"/>
	<path fill="#3B6015" d="M707.6,273.4c-17.8-4.7-45.4-4.6-52.1-15.2c6.8,2.7,17.1,5.6,27.4,5.6c-6.4-0.9-12.9-2.7-15.8-5.3
		c8.4,1.6,14.9,2,27.8,1.7c-18.2-1.7-41.4-5.8-47.3-11.9c10.9,3.2,24.6,6.5,40.3,5.9c-19.2-2.4-32.2-5-45.1-11
		c13.7,3.9,29.2,6.4,56.7,3.2c-23.2,0.7-47.4-5.3-61.2-13.3c12,4.1,23.4,6.3,39.8,5.5c-14.8-1.2-28.9-5.7-37.4-10.5
		c14.6,4.1,20.7,5.8,38.6,5.5c-15.8-2.3-24.5-6.7-29.2-11.7c5.6,1.5,12.7,2.6,19.7,1.7c-15.9-2.6-29.4-6.9-31.8-14
		c9.6,4.1,18.6,6.8,31.9,7.9c-13-2.9-22.1-6.7-28.9-11.6c6.4,1,13.6,2.1,20.6,1.6c-13.3-1.9-28.8-5-31.2-10.8
		c6.7,3.4,15.7,4.7,26.3,4.2c-11.5-1.5-18.1-5.6-20.3-9.9c4.4,1.7,8.7,2.7,16.6,2.2c-10.9-1.3-26.2-6.4-27.2-14.8
		c-1,8.5-16.3,13.5-27.2,14.8c8,0.5,12.4-0.5,16.6-2.2c-2.2,4.3-8.7,8.3-20.3,9.9c10.7,0.4,19.8-0.9,26.3-4.2
		c-2.4,5.8-17.8,8.9-31.2,10.8c7.2,0.5,14.2-0.7,20.6-1.6c-6.8,4.9-15.9,8.7-28.9,11.6c13.3-1.1,22.4-3.8,31.9-7.9
		c-2.4,7.1-15.9,11.6-31.8,14c6.8,1,14.1-0.1,19.7-1.7c-4.7,5-13.5,9.4-29.2,11.7c17.8,0.4,24-1.3,38.6-5.5
		c-8.6,4.8-22.7,9.2-37.4,10.5c16.3,0.8,27.7-1.4,39.8-5.5c-13.7,8-38,14-61.2,13.3c27.4,3.2,42.8,0.7,56.7-3.2
		c-12.9,5.9-26,8.6-45.1,11c15.7,0.7,29.2-2.6,40.3-5.9c-6.1,6.1-29.1,10.2-47.3,11.9c12.9,0.4,19.4-0.1,27.8-1.7
		c-2.9,2.6-9.2,4.4-15.8,5.3c10.2-0.1,20.5-2.9,27.4-5.6c-6.8,10.7-34.2,10.5-52.1,15.2c28.6,0.5,54.2-1.5,74.3-9.4
		c-1.8,2.9-1.8,2.9-8.6,8c13.5-2.7,16-6.1,16-6.1s2.4,3.4,16,6.1c-6.8-5.1-6.8-5.1-8.6-8C653.3,272,678.9,274,707.6,273.4z"/>
</g>
<g>
	<rect x="416.6" y="151.3" fill="#64492B" width="28.6" height="95.2"/>
	<path fill="#48711E" d="M541.9,202c-8.4-5.6-23.3-13.4-23.4-22.1c3.9,4.2,18.9,6.1,26.2,4.2c-11.3-3-17.7-12.1-19.9-19.5
		c2.7,2.3,5.9,3.1,10.1,3.1c-8.4-4.5-14.1-10.2-16.5-18.3c4.4,2.2,9.1,2.6,13.8,1.2c-12.1-2.1-32.3-15-35.9-27.4
		c3.9,1.8,8.3,2.6,12.3,1.9c-6.7-3.1-10.9-6.6-13.2-12.7c6.3,3.4,13.8,5.1,21.2,4.4c-15.9-6-29.4-18.1-39.2-31.2
		c3.3,1.5,7.2,3.1,12.4,2.3c-5.7-2.8-10.8-6.7-13-10.2c4.1,3,9,4.3,14.3,4.5c-2.8-1.2-5.2-3.6-6.6-6.4c4.9,2.5,9.9,2.8,13.7,1.8
		c-13.1-5-30.1-16.7-39.8-30.4c-0.2-0.1-0.4-0.1-0.4-0.3c3.8,2.5,6.7,3.3,12,2.3c-7.3-1.8-13.8-6.5-17.5-12.6
		c4.4,3.7,7.6,5.2,13,4.4c-5.7-1-11.9-6.3-15.2-11.4c3.3,4,11.6,5.2,18.3,3.2c-15.5-2-27.5-14.5-37.4-24.5V7.3
		c-0.2,0.2-0.4,0.4-0.6,0.6c-0.2-0.2-0.4-0.4-0.6-0.6v1.2c-9.8,10-21.8,22.5-37.4,24.5c6.7,2,15,0.8,18.3-3.2
		c-3.3,5.1-9.5,10.4-15.2,11.4c5.3,0.8,8.7-0.7,13-4.4c-3.6,6.1-10.1,10.8-17.5,12.6c5.3,1,8.1,0.2,12-2.3c0,0.1-0.1,0.2-0.4,0.3
		c-9.8,13.8-26.7,25.5-39.8,30.4c3.8,1,8.9,0.7,13.7-1.8c-1.3,2.8-3.6,5.1-6.6,6.4c5.3-0.2,10.2-1.5,14.3-4.5
		c-2.1,3.5-7.3,7.5-13,10.2c5.2,0.8,9.1-0.7,12.4-2.3C374.4,99,360.9,111,345,117c7.3,0.7,14.9-1,21.2-4.4
		c-2.2,6.1-6.6,9.6-13.2,12.7c4,0.6,8.4-0.1,12.3-1.9c-3.6,12.3-23.8,25.2-35.9,27.4c4.7,1.3,9.6,1,13.8-1.2
		c-2.4,8.1-8.1,13.9-16.5,18.3c4.1,0,7.4-0.9,10.1-3.1c-2.2,7.3-8.6,16.5-19.9,19.5c7.3,1.9,22.2-0.1,26.2-4.2
		c-0.1,8.7-15,16.5-23.4,22.1c12-3.6,48.9-8.6,57.1-21.4c0,5.6-8.4,10.9-20.1,14.8c14.7-1.1,27.8-5.3,32.6-10.1
		c-1,2.9-6.9,6.9-14.8,8.4c15.5-1.3,25.8-3.4,34-14.8c0.8,5.6-1.7,11-7.8,16.2c13.2-2.2,24.1-2.6,30.1-15.7
		c5.9,13,16.7,13.5,30.1,15.7c-6.1-5.2-8.6-10.6-7.8-16.2c8.1,11.4,18.4,13.4,34,14.8c-7.9-1.5-13.8-5.5-14.8-8.4
		c4.9,4.8,18,9,32.6,10.1c-11.8-3.9-20.1-9.2-20.1-14.8C493,193.5,529.9,198.4,541.9,202z"/>
</g>
<g>
	<rect x="-6.6" y="147.2" fill="#64492B" width="19.1" height="77.7"/>
	<path fill="#3D6317" d="M77,188.6c-5.5-4.5-15.5-10.9-15.6-18.1c2.6,3.3,12.6,5,17.4,3.4c-7.5-2.5-11.8-10-13.2-15.9
		c1.8,1.9,4,2.6,6.8,2.6c-5.5-3.6-9.4-8.3-11-14.9c2.8,1.8,6,2.1,9.2,1c-8.1-1.7-21.5-12.3-24-22.3c2.6,1.4,5.5,2.1,8.2,1.6
		c-4.4-2.5-7.3-5.4-8.8-10.3c4.2,2.8,9.3,4.2,14.1,3.6c-10.6-4.9-19.6-14.7-26.1-25.5c2.2,1.3,4.7,2.5,8.3,1.9
		c-3.7-2.2-7.3-5.5-8.7-8.3c2.7,2.5,5.9,3.5,9.6,3.6c-1.9-1-3.4-2.9-4.3-5.2c3.2,2.1,6.7,2.2,9.2,1.5c-8.8-4.1-20.1-13.6-26.5-24.8
		c-0.1-0.1-0.2-0.1-0.2-0.2c2.5,2.1,4.4,2.7,8,1.9c-4.8-1.4-9.2-5.3-11.6-10.3c2.9,3,5.1,4.2,8.7,3.6c-3.8-0.8-7.9-5.1-10.1-9.3
		c2.2,3.3,7.8,4.2,12.2,2.7C18,49.1,10.1,38.9,3.5,30.7v-1c-0.1,0.1-0.3,0.3-0.4,0.4C3,30,2.8,29.9,2.7,29.7v1
		c-6.6,8.2-14.5,18.4-24.9,20c4.4,1.6,10,0.7,12.2-2.7c-2.2,4.2-6.4,8.5-10.1,9.3c3.5,0.7,5.7-0.6,8.7-3.6
		c-2.4,4.9-6.8,8.8-11.6,10.3c3.5,0.8,5.4,0.1,8-1.9c0,0.1-0.1,0.2-0.2,0.2c-6.6,11.2-17.8,20.7-26.5,24.8c2.5,0.8,5.9,0.6,9.2-1.5
		c-0.9,2.2-2.4,4.2-4.3,5.2c3.5-0.1,6.9-1.3,9.5-3.6c-1.4,2.8-4.8,6.1-8.7,8.3c3.5,0.7,6-0.6,8.3-1.9c-6.6,10.8-15.5,20.6-26.1,25.5
		c4.8,0.6,10-0.8,14.1-3.6c-1.5,5-4.3,7.8-8.8,10.3c2.6,0.5,5.5-0.1,8.2-1.6c-2.4,10-15.8,20.6-24,22.3c3.1,1.1,6.4,0.8,9.2-1
		c-1.6,6.6-5.4,11.3-11,14.9c2.7,0,4.9-0.7,6.8-2.6c-1.4,5.9-5.7,13.5-13.2,15.9c4.8,1.6,14.8-0.1,17.4-3.4
		c-0.1,7.1-10.1,13.5-15.6,18.1c8-2.9,32.6-7,38.1-17.4c0,4.6-5.5,8.9-13.4,12.1c9.8-0.9,18.5-4.3,21.8-8.3
		c-0.6,2.4-4.5,5.6-9.9,6.9c10.4-1.1,17.2-2.8,22.6-12c0.6,4.5-1.1,9-5.1,13.2c8.9-1.8,16-2.2,20.1-12.8c3.9,10.6,11.2,11,20.1,12.8
		c-4-4.2-5.7-8.7-5.1-13.2c5.4,9.3,12.3,10.9,22.6,12c-5.3-1.3-9.3-4.5-9.9-6.9c3.2,3.9,12,7.4,21.8,8.3
		c-7.9-3.2-13.4-7.5-13.4-12.1C44.3,181.6,68.9,185.7,77,188.6z"/>
</g>
<g>
	<rect x="139.3" y="149.7" fill="#64492B" width="18.3" height="60.5"/>
	<g>
		<path fill="#48711E" d="M201.4,192.1c-4.1-4.5-13-10.8-11.5-16.6c2.1,3.1,12.3,5.6,17.8,5c-7.2-3.1-9.9-9.7-10.1-14.7
			c1.6,1.8,3.9,2.6,6.9,3c-5.2-3.7-8.4-8-8.9-13.6c2.9,1.8,6.7,2.5,10.6,2c-8.9-2.6-22.8-12.7-24.4-21.1c3,1.5,6.6,2.3,10.1,2.1
			c-5.1-2.6-8.3-5.2-9.3-9.4c5,2.7,11.2,4.4,17.6,4.5c-12.4-5.4-22.7-14.3-30.6-23.7c2.9,1.2,6.3,2.5,11.3,2.3
			c-4.9-2.2-9.3-5.2-10.9-7.7c3.5,2.2,8,3.4,13,3.9c-2.5-1-4.5-2.7-5.3-4.7c4.2,2,9.1,2.5,12.7,2.1c-11.5-4.4-26.7-13.1-35.9-22.7
			c-0.2-0.1-0.4-0.1-0.4-0.2c3.8,1.8,6.6,2.4,12,2c-7.3-1.5-13.6-4.9-17-9.1c4.4,2.6,7.6,3.7,13.2,3.4c-5.8-1-11.8-4.7-15.2-8.2
			c3.3,2.8,11.9,3.9,19,2.9c-16-2-28.3-10.7-39.1-17.5c0-0.3,0-0.5,0-0.8c-0.2,0.1-0.4,0.3-0.6,0.4c-0.2-0.1-0.4-0.3-0.6-0.4
			c0,0.3,0,0.5,0,0.8C115,63,102.9,71.6,86.9,73.7c7.2,1,15.7-0.1,19-2.9c-3.3,3.5-9.3,7.2-15.2,8.2c5.5,0.3,8.9-0.8,13.2-3.4
			c-3.5,4.2-9.8,7.6-17,9.1c5.5,0.4,8.3-0.2,12-2c0,0.1-0.1,0.1-0.4,0.2c-9.2,9.6-24.4,18.3-35.9,22.7c3.6,0.4,8.5-0.1,12.7-2.1
			c-1,2-2.9,3.7-5.3,4.7c5-0.5,9.3-1.7,13-3.9c-1.7,2.5-6.1,5.4-10.9,7.7c5,0.2,8.3-1,11.3-2.3c-7.8,9.4-18.2,18.3-30.6,23.7
			c6.4-0.1,12.6-1.8,17.6-4.5c-1.1,4.2-4.2,6.9-9.3,9.4c3.4,0.1,6.9-0.7,10.1-2.1c-1.6,8.5-15.5,18.6-24.4,21.1
			c4,0.4,7.6-0.2,10.6-2c-0.4,5.6-3.6,9.9-8.9,13.6c3-0.4,5.3-1.2,6.9-3c-0.1,5-2.9,11.7-10.1,14.7c5.6,0.5,15.7-2,17.8-5
			c1.5,5.8-7.4,12.1-11.5,16.6c7-3.6,31.4-9.3,36-18.1c0.6,3.8-4.7,7.8-12.3,11c9.8-1.6,18.6-5,21.7-8.3c-0.5,2-4.2,4.9-9.6,6.3
			c10.7-1.6,17.6-3.2,22.9-11c0.8,3.7-0.7,7.5-4.6,11.1c9.1-1.8,16.6-2.1,20.9-11c4.4,8.9,11.8,9.1,20.9,11
			c-3.9-3.7-5.5-7.4-4.6-11.1c5.3,7.9,12.3,9.4,22.9,11c-5.3-1.4-9.1-4.2-9.6-6.3c3,3.4,11.8,6.7,21.7,8.3
			c-7.5-3.4-12.9-7.2-12.3-11C170,182.8,194.4,188.5,201.4,192.1z"/>
	</g>
</g>
<g>
	<rect x="1512.7" y="245.9" fill="#64492B" width="9.1" height="61.5"/>
	<g>
		<path fill="#48711E" d="M1560.7,283.9c-2-2.8-6.7-6.5-5.5-11.8c1.1,2.2,6.7,2.2,9.9,0.3c-3.9-0.8-5.1-5.9-4.8-10.3
			c0.8,1.1,2.1,1.3,3.8,0.9c-2.7-1.9-4.4-4.9-4.2-9.7c1.6,0.9,3.8,0.6,6.1-0.8c-4.9,0.1-12.8-5.7-13.4-12.7c1.8,0.7,4,0.7,6-0.2
			c-2.9-1.1-4.8-2.8-5.3-6.2c3.1,1.3,6.7,1.5,10.6,0.1c-7.2-1.6-13.3-7.4-18-14.2c1.9,0.6,4,1.1,7.2,0c-3.1-1-5.8-2.8-6.8-4.7
			c2.2,1.3,5.1,1.6,8.2,1c-1.5-0.4-2.7-1.5-3.3-3c2.7,0.9,5.8,0.4,8.1-0.7c-7.2-1-16.8-6.2-22.8-13.5c-0.1,0-0.2-0.1-0.2-0.1
			c2.5,1.2,4.4,1.4,8,0.3c-4.8-0.2-9.1-2.6-11.3-5.9c2.9,1.9,5.2,2.5,8.9,1.5c-3.9,0-7.9-2.7-10.1-5.4c2.2,2.2,8.1,2.2,12.9,0.3
			c-10.8,0.5-19.2-6.2-26.8-12c0-0.2,0-0.4,0-0.7c-0.1,0.1-0.4,0.2-0.5,0.4c-0.1-0.1-0.4-0.2-0.5-0.4c0,0.2,0,0.4,0,0.7
			c-7.6,5.7-16.1,12.5-26.8,12c4.9,1.9,10.7,1.9,12.9-0.3c-2.2,2.8-6.2,5.4-10.1,5.4c3.8,1,6,0.4,8.9-1.5c-2.4,3.3-6.5,5.6-11.3,5.9
			c3.6,1.1,5.5,0.9,8-0.3c0,0.1-0.1,0.1-0.2,0.1c-6,7.4-15.6,12.4-22.8,13.5c2.4,1.1,5.4,1.6,8.1,0.7c-0.5,1.5-1.6,2.6-3.3,3
			c3.2,0.6,6,0.3,8.2-1c-0.9,1.9-3.8,3.7-6.8,4.7c3.2,1.1,5.3,0.6,7.2,0c-4.7,6.8-10.8,12.6-18,14.2c3.9,1.5,7.6,1.3,10.6-0.1
			c-0.5,3.4-2.4,5.1-5.3,6.2c2.1,0.8,4.2,0.9,6,0.2c-0.6,7.1-8.5,12.9-13.4,12.7c2.4,1.4,4.5,1.7,6.1,0.8c0.1,4.8-1.5,7.7-4.2,9.7
			c1.8,0.4,3.1,0.2,3.8-0.9c0.2,4.3-0.9,9.4-4.8,10.3c3.2,1.9,8.8,1.9,9.9-0.3c1.2,5.3-3.5,8.9-5.5,11.8c3.6-1.2,17.3-1.9,19.9-9.1
			c0.5,3.3-2.6,6-6.7,7.7c5.6,0.2,10.7-1.8,12.5-4.4c-0.2,1.6-2.4,3.8-5.4,4.3c6.2-0.1,10.2-1,13.4-7.4c0.6,3.3-0.4,6.3-2.6,9.2
			c5.4-1,9.8-1.1,12.3-8.6c2.6,7.5,7.1,7.7,12.3,8.6c-2.2-2.8-3.2-5.9-2.6-9.2c3.1,6.4,7.2,7.4,13.4,7.4c-3.1-0.5-5.3-2.7-5.4-4.3
			c1.8,2.6,6.8,4.5,12.5,4.4c-4.2-1.6-7.2-4.4-6.7-7.7C1543.3,282.1,1557.1,282.7,1560.7,283.9z"/>
	</g>
</g>
<g>
	<rect x="1561.5" y="292.8" fill="#64492B" width="13.8" height="72.1"/>
	<path fill="#3B6015" d="M1645.5,339.6c-16.8-7.1-42.8-6.9-49.1-23.1c6.5,4,16.2,8.4,25.9,8.5c-6.1-1.3-12.1-4-14.8-8
		c7.9,2.4,14,3.1,26.2,2.5c-17.2-2.6-39-8.7-44.7-17.9c10.3,4.8,23.3,9.9,38,8.8c-18.1-3.6-30.3-7.6-42.6-16.6
		c12.9,5.9,27.6,9.7,53.5,4.8c-21.9,1-44.8-8-57.7-20.1c11.4,6.2,22.1,9.5,37.5,8.3c-14-1.9-27.3-8.6-35.4-15.8
		c13.8,6.2,19.5,8.8,36.4,8.3c-14.8-3.4-23.2-10.1-27.6-17.7c5.2,2.4,12.1,3.9,18.5,2.5c-14.9-3.8-27.7-10.5-30-21.2
		c9.1,6.2,17.5,10.3,30.2,12c-12.2-4.2-20.8-10-27.2-17.4c6.1,1.5,12.8,3.3,19.5,2.5c-12.6-2.9-27.2-7.7-29.5-16.4
		c6.2,5.1,14.8,7.1,24.9,6.4c-10.8-2.4-17-8.4-19-14.9c4.1,2.6,8.2,4.1,15.8,3.3c-10.3-1.9-24.8-9.6-25.6-22.4
		c-0.8,12.8-15.4,20.4-25.6,22.4c7.5,0.8,11.6-0.7,15.8-3.3c-2,6.5-8.2,12.6-19,14.9c10,0.7,18.6-1.3,24.9-6.4
		c-2.4,8.7-16.9,13.5-29.5,16.4c6.7,0.8,13.4-1,19.5-2.5c-6.3,7.4-14.9,13.2-27.2,17.4c12.7-1.6,21.2-5.7,30.2-12
		c-2.2,10.7-15,17.4-30,21.2c6.5,1.4,13.3-0.1,18.5-2.5c-4.5,7.6-12.7,14.3-27.6,17.7c16.9,0.5,22.7-2,36.4-8.3
		c-8.1,7.1-21.4,13.9-35.4,15.8c15.4,1.3,26.1-2.1,37.5-8.3c-12.9,12.1-35.9,21.1-57.7,20.1c25.9,4.9,40.4,1.1,53.5-4.8
		c-12.2,9-24.5,12.9-42.6,16.6c14.7,1,27.6-4,38-8.8c-5.6,9.3-27.5,15.4-44.7,17.9c12.1,0.5,18.3-0.1,26.2-2.5
		c-2.7,4-8.7,6.7-14.8,8c9.6-0.1,19.4-4.4,25.9-8.5c-6.3,16.1-32.3,15.9-49.1,23.1c27,0.8,51.1-2.2,70.1-14.2
		c-1.8,4.4-1.8,4.4-8.1,12.1c12.7-4,15-9.1,15-9.1s2.4,5.1,15,9.1c-6.3-7.7-6.3-7.7-8.1-12.1
		C1594.3,337.4,1618.6,340.4,1645.5,339.6z"/>
</g>
<g>
	<rect x="390.5" y="219.3" fill="#64492B" width="9.3" height="60.5"/>
	<g>
		<path fill="#48711E" d="M440,256.6c-2.1-2.8-6.9-6.4-5.7-11.6c1.1,2.2,6.9,2.2,10.2,0.3c-4-0.8-5.2-5.9-5-10.1
			c0.8,1.1,2.2,1.3,3.9,0.9c-2.8-1.9-4.5-4.8-4.4-9.5c1.7,0.9,3.9,0.6,6.3-0.8c-5.1,0.1-13.2-5.6-13.8-12.5c1.8,0.7,4.1,0.7,6.2-0.2
			c-3-1.1-5-2.7-5.5-6.1c3.2,1.3,6.9,1.5,10.9,0.1c-7.4-1.5-13.7-7.2-18.6-14c1.9,0.6,4.1,1.1,7.4,0c-3.2-1-5.9-2.8-7-4.6
			c2.3,1.3,5.2,1.6,8.5,1c-1.6-0.4-2.8-1.5-3.4-2.9c2.8,0.9,5.9,0.4,8.4-0.7c-7.4-1-17.4-6.1-23.5-13.3c-0.1,0-0.2-0.1-0.2-0.1
			c2.5,1.2,4.5,1.4,8.3,0.3c-5-0.2-9.3-2.6-11.6-5.8c3,1.8,5.3,2.4,9.2,1.5c-4,0-8.1-2.6-10.4-5.3c2.3,2.1,8.4,2.2,13.3,0.3
			c-11.2,0.5-19.8-6.1-27.7-11.8c0-0.2,0-0.4,0-0.7c-0.1,0.1-0.4,0.2-0.5,0.4c-0.1-0.1-0.4-0.2-0.5-0.4c0,0.2,0,0.4,0,0.7
			c-7.9,5.6-16.6,12.3-27.7,11.8c5.1,1.9,11,1.8,13.3-0.3c-2.3,2.7-6.4,5.3-10.4,5.3c3.9,1,6.2,0.4,9.2-1.5
			c-2.4,3.2-6.7,5.5-11.6,5.8c3.8,1.1,5.7,0.9,8.3-0.3c0,0.1-0.1,0.1-0.2,0.1c-6.2,7.2-16.1,12.2-23.5,13.3c2.4,1.1,5.6,1.6,8.4,0.7
			c-0.5,1.5-1.7,2.6-3.4,2.9c3.3,0.6,6.2,0.3,8.5-1c-1,1.8-3.9,3.7-6.9,4.6c3.3,1.1,5.5,0.6,7.4,0c-4.9,6.7-11.2,12.4-18.6,14
			c4,1.5,7.9,1.3,10.9-0.1c-0.5,3.4-2.4,5-5.5,6.1c2.2,0.8,4.4,0.9,6.2,0.2c-0.6,6.9-8.7,12.7-13.8,12.5c2.4,1.4,4.6,1.7,6.3,0.8
			c0.1,4.7-1.6,7.6-4.4,9.5c1.8,0.4,3.2,0.2,3.9-0.9c0.2,4.2-1,9.3-5,10.1c3.3,1.9,9.1,1.9,10.2-0.3c1.2,5.2-3.6,8.8-5.7,11.6
			c3.8-1.2,17.8-1.8,20.5-8.9c0.5,3.2-2.7,5.9-6.9,7.6c5.8,0.2,11-1.8,12.9-4.3c-0.2,1.6-2.4,3.7-5.6,4.2c6.4-0.1,10.6-1,13.8-7.3
			c0.6,3.2-0.4,6.2-2.7,9.1c5.6-1,10.1-1.1,12.7-8.5c2.7,7.4,7.3,7.6,12.7,8.5c-2.3-2.8-3.3-5.9-2.7-9.1c3.2,6.3,7.4,7.2,13.8,7.3
			c-3.2-0.5-5.5-2.6-5.6-4.2c1.8,2.6,7,4.5,12.9,4.3c-4.4-1.6-7.4-4.3-6.9-7.6C422.1,254.8,436.3,255.4,440,256.6z"/>
	</g>
</g>
<g>
	<rect x="698.2" y="217.5" fill="#64492B" width="6.2" height="39.9"/>
	<g>
		<path fill="#48711E" d="M730.9,242c-1.3-1.8-4.6-4.2-3.8-7.7c0.7,1.5,4.5,1.5,6.7,0.1c-2.7-0.5-3.4-3.9-3.3-6.7
			c0.5,0.7,1.5,0.9,2.5,0.6c-1.8-1.2-3-3.2-2.9-6.2c1.1,0.6,2.5,0.4,4.1-0.5c-3.4,0.1-8.7-3.7-9.1-8.3c1.2,0.4,2.7,0.4,4.1-0.1
			c-2.1-0.7-3.3-1.8-3.5-4c2.1,0.9,4.6,1,7.3,0c-4.9-1-9.1-4.8-12.3-9.2c1.2,0.4,2.7,0.7,4.9,0c-2.1-0.7-3.9-1.8-4.6-3
			c1.6,0.9,3.4,1,5.6,0.7c-1.1-0.2-1.8-1-2.2-2c1.8,0.6,3.9,0.3,5.6-0.5c-4.9-0.7-11.4-4-15.5-8.8c-0.1,0-0.1-0.1-0.1-0.1
			c1.7,0.7,2.9,0.9,5.5,0.1c-3.3-0.1-6.1-1.7-7.6-3.8c1.9,1.2,3.5,1.6,6.1,1c-2.7,0-5.3-1.8-6.9-3.5c1.6,1.4,5.5,1.5,8.9,0.2
			c-7.4,0.4-13.1-4.1-18.3-7.8c0-0.1,0-0.3,0-0.4c-0.1,0.1-0.2,0.1-0.4,0.2c-0.1-0.1-0.2-0.1-0.4-0.2c0,0.1,0,0.3,0,0.4
			c-5.2,3.7-10.9,8.1-18.3,7.8c3.4,1.2,7.3,1.2,8.9-0.2c-1.6,1.8-4.2,3.5-6.9,3.5c2.5,0.7,4.1,0.2,6.1-1c-1.6,2.1-4.5,3.7-7.6,3.8
			c2.5,0.7,3.8,0.6,5.5-0.1c0,0.1,0,0.1-0.1,0.1c-4.1,4.8-10.7,8-15.5,8.8c1.6,0.7,3.6,1.1,5.6,0.5c-0.4,1-1.2,1.7-2.2,2
			c2.2,0.4,4,0.2,5.6-0.7c-0.7,1.2-2.5,2.4-4.6,3c2.2,0.7,3.6,0.4,4.9,0c-3.2,4.5-7.4,8.2-12.3,9.2c2.7,1,5.2,0.9,7.3,0
			c-0.4,2.2-1.6,3.3-3.5,4c1.5,0.6,2.9,0.6,4.1,0.1c-0.4,4.5-5.7,8.3-9.1,8.3c1.6,1,3,1.1,4.1,0.5c0.1,3.1-1.1,5-2.9,6.2
			c1.2,0.3,2.1,0.1,2.5-0.6c0.1,2.8-0.7,6.1-3.3,6.7c2.2,1.2,5.9,1.2,6.7-0.1c0.7,3.4-2.4,5.8-3.8,7.7c2.4-0.7,11.8-1.2,13.6-5.9
			c0.4,2.1-1.7,3.9-4.6,5c3.9,0.1,7.3-1.2,8.5-2.9c-0.1,1.1-1.6,2.4-3.8,2.8c4.2-0.1,7-0.7,9.1-4.8c0.4,2.1-0.2,4.1-1.7,6
			c3.6-0.6,6.7-0.7,8.4-5.6c1.8,4.8,4.7,5,8.4,5.6c-1.5-1.8-2.2-3.9-1.7-6c2.1,4.2,4.9,4.8,9.1,4.8c-2.1-0.4-3.5-1.8-3.8-2.8
			c1.2,1.7,4.6,3,8.5,2.9c-2.8-1.1-5-2.9-4.6-5C719.1,240.9,728.4,241.3,730.9,242z"/>
	</g>
</g>
<g>
	<rect x="60.8" y="212.2" fill="#64492B" width="37.1" height="123.7"/>
	<path fill="#5F8D2A" d="M223.5,278.1c-10.8-7.2-30.2-17.4-30.5-28.7c5.1,5.4,24.5,8,34,5.5c-14.7-3.9-23.1-15.8-25.7-25.3
		c3.4,2.9,7.8,4.1,13.1,4.1c-10.8-5.8-18.2-13.2-21.4-23.8c5.6,2.9,11.9,3.4,18,1.6c-15.8-2.7-41.9-19.5-46.6-35.5
		c5.1,2.3,10.7,3.3,15.9,2.5c-8.6-4-14.2-8.6-17.1-16.5c8.3,4.4,18.1,6.6,27.5,5.7c-20.6-7.8-38.2-23.5-50.8-40.6
		c4.4,2,9.2,4,16.1,3c-7.3-3.6-14.1-8.8-16.9-13.3c5.3,3.9,11.6,5.6,18.6,5.9c-3.6-1.5-6.8-4.7-8.5-8.3c6.2,3.3,12.9,3.6,17.7,2.3
		c-17-6.5-39.1-21.6-51.7-39.5c-0.2-0.1-0.5-0.2-0.5-0.4c5,3.3,8.7,4.2,15.5,3c-9.5-2.3-18-8.4-22.7-16.3c5.6,4.8,9.9,6.7,16.9,5.7
		c-7.4-1.3-15.4-8.2-19.7-14.8c4.2,5.2,15,6.7,23.8,4.2C108.5,56.3,92.9,40,80.1,27v-1.5c-0.2,0.2-0.5,0.5-0.7,0.7
		c-0.2-0.2-0.5-0.5-0.7-0.7V27C65.9,40,50.4,56.3,30.1,58.8c8.7,2.6,19.4,1,23.8-4.2C49.6,61.2,41.7,68,34.3,69.4
		c6.9,1,11.3-0.9,16.9-5.7C46.4,71.5,38,77.7,28.6,80c6.9,1.2,10.7,0.3,15.5-3c0,0.1-0.1,0.3-0.5,0.4c-12.7,17.8-34.7,33-51.7,39.5
		c4.9,1.2,11.5,0.9,17.7-2.3c-1.7,3.6-4.7,6.7-8.5,8.3c6.9-0.2,13.2-2,18.6-5.9c-2.7,4.5-9.5,9.7-16.9,13.3c6.8,1,11.8-1,16.1-3
		C6.2,144.3-11.4,160-31.9,167.8c9.5,0.9,19.3-1.3,27.5-5.7c-2.9,7.9-8.5,12.4-17.1,16.5c5.1,0.8,10.8-0.2,15.9-2.5
		c-4.7,16-30.8,32.8-46.6,35.5c6.1,1.8,12.4,1.2,18-1.6c-3.2,10.5-10.6,18-21.4,23.8c5.3,0,9.7-1.2,13.1-4.1
		c-2.8,9.5-11.2,21.4-25.7,25.3c9.5,2.5,28.9-0.1,34-5.5c-0.2,11.3-19.5,21.4-30.5,28.7c15.5-4.7,63.5-11,74.1-27.7
		c0,7.3-10.9,14.2-26.2,19.3c19-1.5,36-6.9,42.3-13.1c-1.2,3.8-8.9,8.9-19.3,11c20.1-1.8,33.5-4.4,44-19.2
		c1.1,7.2-2.2,14.3-10.1,21.1c17.2-2.9,31.3-3.4,39.1-20.3c7.8,16.9,21.8,17.5,39.1,20.3c-7.9-6.7-11.2-13.8-10.1-21.1
		c10.6,14.8,23.9,17.4,44,19.2c-10.3-2-18-7.2-19.3-11c6.3,6.2,23.4,11.7,42.3,13.1c-15.3-5.1-26.2-12-26.2-19.3
		C160.1,267.1,208,273.4,223.5,278.1z"/>
</g>
<g>
	<rect x="467.6" y="217.3" fill="#64492B" width="10.3" height="71"/>
	<g>
		<path fill="#2D500A" d="M521.8,261.1c-2.3-3.3-7.6-7.5-6.3-13.6c1.2,2.6,7.5,2.6,11.2,0.3c-4.4-1-5.7-6.9-5.5-11.8
			c0.8,1.3,2.3,1.6,4.2,1.1c-3-2.2-5-5.7-4.9-11.1c1.8,1,4.2,0.7,6.9-1c-5.6,0.2-14.4-6.6-15.2-14.7c2.1,0.8,4.5,0.7,6.8-0.2
			c-3.4-1.2-5.5-3.2-5.9-7.2c3.4,1.5,7.6,1.8,12,0.1c-8.1-1.8-15-8.5-20.4-16.5c2.1,0.7,4.5,1.3,8.1,0c-3.4-1.2-6.6-3.3-7.6-5.4
			c2.5,1.5,5.7,1.9,9.3,1.2c-1.7-0.4-3-1.8-3.6-3.4c3,1.1,6.4,0.4,9.2-0.9c-8.1-1.2-18.9-7.2-25.8-15.7c-0.1,0-0.2-0.1-0.2-0.1
			c2.8,1.3,5,1.6,9.1,0.3c-5.5-0.3-10.2-3-12.9-6.7c3.3,2.1,5.8,2.9,10.1,1.8c-4.4-0.1-9-3.1-11.5-6.3c2.5,2.5,9.1,2.6,14.7,0.4
			c-12.3,0.6-21.7-7.2-30.5-13.8c0-0.3,0-0.5,0-0.8c-0.1,0.1-0.4,0.3-0.5,0.4c-0.1-0.1-0.4-0.3-0.5-0.4c0,0.3,0,0.5,0,0.8
			c-8.7,6.6-18.2,14.5-30.5,13.8c5.6,2.2,12.1,2.1,14.7-0.4c-2.5,3.2-7.2,6.2-11.5,6.3c4.2,1.1,6.8,0.4,10.1-1.8
			c-2.7,3.8-7.4,6.4-12.9,6.7c4.1,1.3,6.3,1,9.1-0.3c0,0.1-0.1,0.1-0.2,0.1c-6.8,8.5-17.7,14.4-25.8,15.7c2.7,1.3,6.2,1.9,9.2,0.9
			c-0.6,1.8-1.9,3.1-3.6,3.4c3.6,0.7,6.8,0.4,9.3-1.2c-1.1,2.1-4.2,4.2-7.6,5.4c3.6,1.3,5.9,0.7,8.1,0c-5.3,7.9-12.3,14.6-20.4,16.5
			c4.4,1.7,8.6,1.5,12-0.1c-0.5,3.9-2.5,5.9-5.9,7.2c2.4,1,4.7,1,6.8,0.2c-0.7,8.1-9.6,14.9-15.2,14.7c2.7,1.6,5.1,2,6.9,1
			c0.1,5.5-1.7,8.9-4.9,11.1c1.9,0.5,3.4,0.2,4.2-1.1c0.2,5-1.1,10.9-5.5,11.8c3.5,2.3,9.9,2.3,11.2-0.3c1.3,6.1-4,10.3-6.3,13.6
			c4.1-1.4,19.7-2.1,22.6-10.5c0.6,3.8-2.9,7-7.6,8.9c6.4,0.2,12.1-2,14.1-5c-0.2,1.9-2.7,4.4-6.2,5c7-0.1,11.6-1.2,15.2-8.6
			c0.7,3.7-0.4,7.3-2.9,10.6c6.1-1.1,11-1.3,14.1-10c2.9,8.6,7.9,8.9,14.1,10c-2.5-3.3-3.5-6.9-2.9-10.6c3.5,7.4,8.1,8.5,15.2,8.6
			c-3.5-0.7-5.9-3.1-6.2-5c1.9,3,7.6,5.3,14.1,5c-4.7-1.9-8.1-5.1-7.6-8.9C502.1,258.9,517.7,259.7,521.8,261.1z"/>
	</g>
</g>
<g>
	<rect x="95.7" y="291.5" fill="#64492B" width="21.5" height="127.1"/>
	<g>
		<path fill="#204100" d="M240.6,385.2c-21.8-16.1-69.4-18.6-76.3-45.8c12,7.2,28.5,15.4,47.1,16.8c-10.8-3.1-21-8.3-24.5-15.3
			c14.9,4.8,26.6,6.7,51.6,7.5c-31.8-7.3-74.4-19-85.4-34.6c22.6,8.5,47.2,17.9,79.4,18.1c-36.2-8.5-61.2-15.8-88.1-31.2
			c30.3,10.3,59.2,17.5,123.2,12.6c-50.7-1.4-97.9-17.8-130.7-38.2c28.8,10.5,53.1,16.6,92.2,15.8c-33.1-4.4-64.1-16.2-85.1-28.2
			c36,10.8,48.8,15.3,93.1,15.7c-36-6.9-55.8-18.4-66-31.2c14.2,4.1,32.4,6.9,51.3,5c-39.7-7.2-75.5-18.5-81.2-36.4
			c27.1,10.5,50.8,17.5,87.1,20.8c-33.6-7.8-57.8-17.5-76.7-29.9c19.3,2.6,39.7,5.6,61.2,4.5c-38.1-5.3-84.3-13.2-92.1-27.7
			c21,8.6,48.3,11.9,81.7,11c-34.7-4.2-54.5-14.3-60.9-25.1c14,4.3,27.8,6.9,54.1,5.6c-34.5-3.4-84.8-16.1-88.9-37.5
			c-4.1,21.4-54.5,34.1-88.9,37.5c26.2,1.2,40.2-1.3,54.1-5.6c-6.4,10.9-26.2,21-60.9,25.1c33.4,1,60.8-2.4,81.7-11
			c-7.8,14.5-54,22.5-92.1,27.7c21.5,1.2,41.9-2,61.2-4.5c-18.9,12.4-43.1,22.2-76.7,29.9c36.3-3.4,60.1-10.4,87.1-20.8
			c-5.7,17.9-41.5,29.2-81.2,36.4c18.9,2,37.1-0.9,51.3-5c-10.3,12.9-30,24.3-66,31.2c44.3-0.4,57.1-4.9,93.1-15.7
			c-21,12.1-51.9,23.8-85.1,28.2c39.1,0.8,63.5-5.3,92.2-15.8c-32.8,20.3-80,36.8-130.7,38.2c63.9,4.8,92.8-2.3,123.2-12.6
			c-26.9,15.4-51.9,22.7-88.1,31.2c32.3-0.1,56.8-9.6,79.4-18.1c-11,15.6-53.6,27.4-85.4,34.6c25-1,36.6-2.7,51.6-7.5
			c-3.4,6.9-13.7,12.1-24.5,15.3c18.6-1.5,35.1-9.7,47.1-16.8c-7,27.2-54.6,29.8-76.4,45.8c47.6-4.5,84.8-11.7,120.5-32
			c-2.8,7.4-3.3,7.3-13.2,20.4c21.8-7.2,26.9-15.6,26.8-15.6c-0.1,0.1,5,8.4,26.8,15.6c-9.9-13.1-10.4-13-13.2-20.4
			C155.7,373.6,193,380.8,240.6,385.2z"/>
	</g>
</g>
</svg>
