<?xml version="1.0" encoding="utf-8"?>
<!-- Generator: Adobe Illustrator 18.1.0, SVG Export Plug-In . SVG Version: 6.00 Build 0)  -->
<!DOCTYPE svg PUBLIC "-//W3C//DTD SVG 1.1//EN" "http://www.w3.org/Graphics/SVG/1.1/DTD/svg11.dtd">
<svg version="1.1" id="Layer_1" xmlns="http://www.w3.org/2000/svg" xmlns:xlink="http://www.w3.org/1999/xlink" x="0px" y="0px"
	 viewBox="1080.1 0 499.9 491.8" enable-background="new 1080.1 0 499.9 491.8" xml:space="preserve">
<g>
	
		<linearGradient id="SVGID_1_" gradientUnits="userSpaceOnUse" x1="125.3194" y1="871.8927" x2="125.3194" y2="1019.3395" gradientTransform="matrix(2.9797 2.9797 -2.9797 2.9797 3753.324 -2927.5105)">
		<stop  offset="0" style="stop-color:#CFF5FF;stop-opacity:8.000000e-02"/>
		<stop  offset="0.3995" style="stop-color:#CFF5FF;stop-opacity:0.54"/>
		<stop  offset="0.8327" style="stop-color:#E5FAFF;stop-opacity:0.77"/>
		<stop  offset="0.8438" style="stop-color:#E8FBFF;stop-opacity:0.7202"/>
		<stop  offset="0.9336" style="stop-color:#F9FEFF;stop-opacity:0.3177"/>
		<stop  offset="1" style="stop-color:#FFFFFF;stop-opacity:2.000000e-02"/>
	</linearGradient>
	<path opacity="0.99" fill="url(#SVGID_1_)" enable-background="new    " d="M1528.8,43.8L1528.8,43.8
		c-8.2-8.2-114.4,93.7-122.6,101.9l-10,9.8l-306.8,297.5c-8.2,8.2-8.2,21.9,0,30.1l0,0c8.2,8.2,21.9,8.2,30.1,0l298.7-307l15-16
		C1441.5,151.9,1537,52.1,1528.8,43.8z"/>
	
		<linearGradient id="SVGID_2_" gradientUnits="userSpaceOnUse" x1="125.3981" y1="866.7929" x2="125.3981" y2="877.1778" gradientTransform="matrix(2.9797 2.9797 -2.9797 2.9797 3753.324 -2927.5105)">
		<stop  offset="6.094547e-02" style="stop-color:#CFF5FF;stop-opacity:0.1"/>
		<stop  offset="0.5345" style="stop-color:#E5FAFF;stop-opacity:0"/>
		<stop  offset="0.5654" style="stop-color:#E8FBFF;stop-opacity:0"/>
		<stop  offset="0.8152" style="stop-color:#F9FEFF;stop-opacity:0"/>
		<stop  offset="1" style="stop-color:#FFFFFF;stop-opacity:0"/>
	</linearGradient>
	<path opacity="0.99" fill="url(#SVGID_2_)" enable-background="new    " d="M1544.3,28.8L1544.3,28.8c-5.9-5.9-28.7,9.6-34.6,15.4
		l3.5-5.5c-5.9,5.9-5.9,15.3,0,21.1l0,0c5.9,5.9,15.3,5.9,21.1,0l-1.6,0.9C1538.5,55.1,1550,34.5,1544.3,28.8z"/>
	
		<linearGradient id="SVGID_3_" gradientUnits="userSpaceOnUse" x1="125.4767" y1="861.6758" x2="125.4767" y2="872.0607" gradientTransform="matrix(2.9797 2.9797 -2.9797 2.9797 3753.324 -2927.5105)">
		<stop  offset="6.094547e-02" style="stop-color:#CFF5FF;stop-opacity:0.1"/>
		<stop  offset="0.5345" style="stop-color:#E5FAFF;stop-opacity:0"/>
		<stop  offset="0.5654" style="stop-color:#E8FBFF;stop-opacity:0"/>
		<stop  offset="0.8152" style="stop-color:#F9FEFF;stop-opacity:0"/>
		<stop  offset="1" style="stop-color:#FFFFFF;stop-opacity:0"/>
	</linearGradient>
	<path opacity="0.99" fill="url(#SVGID_3_)" enable-background="new    " d="M1559.8,13.8L1559.8,13.8c-5.9-5.9-28.7,9.6-34.6,15.4
		l3.5-5.5c-5.9,5.9-5.9,15.3,0,21.1l0,0c5.9,5.9,15.3,5.9,21.1,0l-1.6,0.9C1554,40.1,1565.5,19.5,1559.8,13.8z"/>
	
		<linearGradient id="SVGID_4_" gradientUnits="userSpaceOnUse" x1="125.5553" y1="856.5587" x2="125.5553" y2="866.9436" gradientTransform="matrix(2.9797 2.9797 -2.9797 2.9797 3753.324 -2927.5105)">
		<stop  offset="6.094547e-02" style="stop-color:#CFF5FF;stop-opacity:0.1"/>
		<stop  offset="0.5345" style="stop-color:#E5FAFF;stop-opacity:0"/>
		<stop  offset="0.5654" style="stop-color:#E8FBFF;stop-opacity:0"/>
		<stop  offset="0.8152" style="stop-color:#F9FEFF;stop-opacity:0"/>
		<stop  offset="1" style="stop-color:#FFFFFF;stop-opacity:0"/>
	</linearGradient>
	<path opacity="0.99" fill="url(#SVGID_4_)" enable-background="new    " d="M1575.2-1.2L1575.2-1.2c-5.9-5.9-28.7,9.6-34.6,15.4
		l3.5-5.5c-5.9,5.9-5.9,15.3,0,21.1l0,0c5.9,5.9,15.3,5.9,21.1,0l-1.6,0.9C1569.5,25.1,1580.9,4.5,1575.2-1.2z"/>
	
		<radialGradient id="SVGID_5_" cx="169.6872" cy="816.3383" r="5.7463" gradientTransform="matrix(4.1802 -0.5307 0.5986 4.7165 -91.1547 -3294.5002)" gradientUnits="userSpaceOnUse">
		<stop  offset="0" style="stop-color:#FFFFFF;stop-opacity:0.75"/>
		<stop  offset="0.2188" style="stop-color:#F9FEFF;stop-opacity:0.75"/>
		<stop  offset="0.5146" style="stop-color:#E8FBFF;stop-opacity:0.75"/>
		<stop  offset="0.5512" style="stop-color:#E5FAFF;stop-opacity:0.75"/>
		<stop  offset="0.9029" style="stop-color:#CFF5FF;stop-opacity:0.75"/>
	</radialGradient>
	<polygon fill="url(#SVGID_5_)" points="1118.9,484.9 1111,478.1 1109.9,483 1107.7,479.2 1102.8,486.8 1101.7,478.6 1091.8,484.6 
		1094.8,475.1 1088.3,476.2 1094.6,468.8 1089.9,467.9 1094,465.5 1085.8,460 1093.2,459.2 1088,450.7 1098.1,453.7 1096.8,445.2 
		1104.4,451.8 1105.5,448 1107.4,451.5 1113.2,443 1114,451.5 1122.2,446.6 1119.5,455.3 1127.4,454 1120.8,462.2 1125.8,463.3 
		1122.2,465.2 1129.9,470.1 1120.3,471.5 1126,481.1 1117.8,478.3 	"/>
</g>
</svg>
