<?xml version="1.0" encoding="utf-8"?>
<!-- Generator: Adobe Illustrator 18.1.0, SVG Export Plug-In . SVG Version: 6.00 Build 0)  -->
<!DOCTYPE svg PUBLIC "-//W3C//DTD SVG 1.1//EN" "http://www.w3.org/Graphics/SVG/1.1/DTD/svg11.dtd">
<svg version="1.1" xmlns="http://www.w3.org/2000/svg" xmlns:xlink="http://www.w3.org/1999/xlink" x="0px" y="0px"
	 viewBox="0 0 12.4 188.9" enable-background="new 0 0 12.4 188.9" xml:space="preserve">
<g id="Layer_1">
</g>
<g id="Layer_2">
	<g>
		
			<linearGradient id="SVGID_1_" gradientUnits="userSpaceOnUse" x1="6.1" y1="-57.6" x2="6.1" y2="-218.1" gradientTransform="matrix(1 0 0 -1 0 -28)">
			<stop  offset="0" style="stop-color:#CFF5FF;stop-opacity:8.000000e-02"/>
			<stop  offset="0.3149" style="stop-color:#CFF5FF;stop-opacity:0.54"/>
			<stop  offset="0.8327" style="stop-color:#E5FAFF;stop-opacity:0.77"/>
			<stop  offset="0.8438" style="stop-color:#E8FBFF;stop-opacity:0.7202"/>
			<stop  offset="0.9336" style="stop-color:#F9FEFF;stop-opacity:0.3177"/>
			<stop  offset="1" style="stop-color:#FFFFFF;stop-opacity:2.000000e-02"/>
		</linearGradient>
		<path opacity="0.99" fill="url(#SVGID_1_)" enable-background="new    " d="M6.1,29.6L6.1,29.6c-3,0-5.5,2.5-5.5,5.5v149.5
			c0,3,2.5,5.5,5.5,5.5l0,0c3,0,5.5-2.5,5.5-5.5V35.1C11.6,32.1,9.1,29.6,6.1,29.6z"/>
		
			<linearGradient id="SVGID_2_" gradientUnits="userSpaceOnUse" x1="6.3" y1="-49.0307" x2="6.3" y2="-67.4773" gradientTransform="matrix(1 0 0 -1 0 -28)">
			<stop  offset="6.094547e-02" style="stop-color:#CFF5FF;stop-opacity:0.1"/>
			<stop  offset="0.5345" style="stop-color:#E5FAFF;stop-opacity:0"/>
			<stop  offset="0.5654" style="stop-color:#E8FBFF;stop-opacity:0"/>
			<stop  offset="0.8152" style="stop-color:#F9FEFF;stop-opacity:0"/>
			<stop  offset="1" style="stop-color:#FFFFFF;stop-opacity:0"/>
		</linearGradient>
		<path opacity="0.99" fill="url(#SVGID_2_)" enable-background="new    " d="M6.3,21L6.3,21C2.8,21,0,23.8,0,27.3v5.9
			c0,3.5,2.8,6.3,6.3,6.3l0,0c3.5,0,6.3-2.8,6.3-6.3v-5.9C12.6,23.9,9.7,21,6.3,21z"/>
		
			<linearGradient id="SVGID_3_" gradientUnits="userSpaceOnUse" x1="6.3" y1="-38.2" x2="6.3" y2="-56.6467" gradientTransform="matrix(1 0 0 -1 0 -28)">
			<stop  offset="5.584343e-02" style="stop-color:#CFF5FF;stop-opacity:0.1"/>
			<stop  offset="0.3149" style="stop-color:#CFF5FF;stop-opacity:6.000000e-02"/>
			<stop  offset="0.5345" style="stop-color:#E5FAFF;stop-opacity:0"/>
			<stop  offset="0.5654" style="stop-color:#E8FBFF;stop-opacity:0"/>
			<stop  offset="0.8152" style="stop-color:#F9FEFF;stop-opacity:0"/>
			<stop  offset="1" style="stop-color:#FFFFFF;stop-opacity:0"/>
		</linearGradient>
		<path opacity="0.99" fill="url(#SVGID_3_)" enable-background="new    " d="M6.3,10.2L6.3,10.2C2.8,10.2,0,13,0,16.5v5.9
			c0,3.5,2.8,6.3,6.3,6.3l0,0c3.5,0,6.3-2.8,6.3-6.3v-5.9C12.6,13,9.7,10.2,6.3,10.2z"/>
		
			<linearGradient id="SVGID_4_" gradientUnits="userSpaceOnUse" x1="6.3" y1="-28" x2="6.3" y2="-46.4467" gradientTransform="matrix(1 0 0 -1 0 -28)">
			<stop  offset="1.000000e-02" style="stop-color:#CFF5FF;stop-opacity:6.000000e-02"/>
			<stop  offset="5.584343e-02" style="stop-color:#CFF5FF;stop-opacity:4.000000e-02"/>
			<stop  offset="1" style="stop-color:#FFFFFF;stop-opacity:0"/>
		</linearGradient>
		<path opacity="0.99" fill="url(#SVGID_4_)" enable-background="new    " d="M6.3,0L6.3,0C2.8,0,0,2.8,0,6.3v5.9
			c0,3.5,2.8,6.3,6.3,6.3l0,0c3.5,0,6.3-2.8,6.3-6.3V6.3C12.6,2.8,9.7,0,6.3,0z"/>
		
			<radialGradient id="SVGID_5_" cx="102.0361" cy="66.8813" r="6.255" gradientTransform="matrix(0.6124 -0.7905 -0.8919 -0.691 3.2486 309.5746)" gradientUnits="userSpaceOnUse">
			<stop  offset="0" style="stop-color:#FFFFFF;stop-opacity:0.75"/>
			<stop  offset="0.2188" style="stop-color:#F9FEFF;stop-opacity:0.75"/>
			<stop  offset="0.5146" style="stop-color:#E8FBFF;stop-opacity:0.75"/>
			<stop  offset="0.5512" style="stop-color:#E5FAFF;stop-opacity:0.75"/>
			<stop  offset="0.9029" style="stop-color:#CFF5FF;stop-opacity:0.75"/>
		</radialGradient>
		<polygon fill="url(#SVGID_5_)" points="11.8,184 9.1,184.2 9.8,185.3 8.7,185 9.2,187.3 7.5,186 6.8,188.9 5.6,186.6 4.6,188 
			4.4,185.5 3.4,186.2 3.7,185 1.2,185.5 2.4,184 -0.1,183.4 2.3,182.1 0.5,180.8 3.1,180.6 2.6,179.7 3.6,180 3.1,177.4 4.8,178.8 
			5.4,176.4 6.5,178.5 7.7,176.8 8,179.5 9.1,178.8 8.8,179.8 11.1,179.3 9.6,181.3 12.4,182 10.4,183 		"/>
	</g>
</g>
</svg>
