<?xml version="1.0" encoding="utf-8"?>
<!-- Generator: Adobe Illustrator 18.1.0, SVG Export Plug-In . SVG Version: 6.00 Build 0)  -->
<!DOCTYPE svg PUBLIC "-//W3C//DTD SVG 1.1//EN" "http://www.w3.org/Graphics/SVG/1.1/DTD/svg11.dtd">
<svg version="1.1" id="Layer_1" xmlns="http://www.w3.org/2000/svg" xmlns:xlink="http://www.w3.org/1999/xlink" x="0px" y="0px"
	 viewBox="1080.1 0 499.9 491.8" enable-background="new 1080.1 0 499.9 491.8" xml:space="preserve">
<g id="Layer_1_1_">
</g>
<g id="Layer_2">
	<g>
		
			<linearGradient id="SVGID_1_" gradientUnits="userSpaceOnUse" x1="58.2873" y1="1039.3597" x2="58.2873" y2="1199.8597" gradientTransform="matrix(2.9797 2.9797 -2.9797 2.9797 3510.0408 -2356.5476)">
			<stop  offset="0" style="stop-color:#CFF5FF;stop-opacity:8.000000e-02"/>
			<stop  offset="0.3149" style="stop-color:#CFF5FF;stop-opacity:0.54"/>
			<stop  offset="0.8327" style="stop-color:#E5FAFF;stop-opacity:0.77"/>
			<stop  offset="0.8438" style="stop-color:#E8FBFF;stop-opacity:0.7202"/>
			<stop  offset="0.9336" style="stop-color:#F9FEFF;stop-opacity:0.3177"/>
			<stop  offset="1" style="stop-color:#FFFFFF;stop-opacity:2.000000e-02"/>
		</linearGradient>
		<path opacity="0.99" fill="url(#SVGID_1_)" enable-background="new    " d="M586.8,914.1L586.8,914.1c-8.9-8.9-23.8-8.9-32.8,0
			l-445.5,445.5c-8.9,8.9-8.9,23.8,0,32.8l0,0c8.9,8.9,23.8,8.9,32.8,0l445.5-445.5C595.7,937.9,595.7,923,586.8,914.1z"/>
		
			<linearGradient id="SVGID_2_" gradientUnits="userSpaceOnUse" x1="58.4873" y1="1030.7904" x2="58.4873" y2="1049.2369" gradientTransform="matrix(2.9797 2.9797 -2.9797 2.9797 3510.0408 -2356.5476)">
			<stop  offset="6.094547e-02" style="stop-color:#CFF5FF;stop-opacity:0.1"/>
			<stop  offset="0.5345" style="stop-color:#E5FAFF;stop-opacity:0"/>
			<stop  offset="0.5654" style="stop-color:#E8FBFF;stop-opacity:0"/>
			<stop  offset="0.8152" style="stop-color:#F9FEFF;stop-opacity:0"/>
			<stop  offset="1" style="stop-color:#FFFFFF;stop-opacity:0"/>
		</linearGradient>
		<path opacity="0.99" fill="url(#SVGID_2_)" enable-background="new    " d="M613,889L613,889c-10.4-10.4-27.1-10.4-37.5,0
			l-17.6,17.6c-10.4,10.4-10.4,27.1,0,37.5l0,0c10.4,10.4,27.1,10.4,37.5,0l17.6-17.6C623.1,916.4,623.1,899.2,613,889z"/>
		
			<linearGradient id="SVGID_3_" gradientUnits="userSpaceOnUse" x1="58.4873" y1="1019.9597" x2="58.4873" y2="1038.4064" gradientTransform="matrix(2.9797 2.9797 -2.9797 2.9797 3510.0408 -2356.5476)">
			<stop  offset="5.584343e-02" style="stop-color:#CFF5FF;stop-opacity:0.1"/>
			<stop  offset="0.3149" style="stop-color:#CFF5FF;stop-opacity:6.000000e-02"/>
			<stop  offset="0.5345" style="stop-color:#E5FAFF;stop-opacity:0"/>
			<stop  offset="0.5654" style="stop-color:#E8FBFF;stop-opacity:0"/>
			<stop  offset="0.8152" style="stop-color:#F9FEFF;stop-opacity:0"/>
			<stop  offset="1" style="stop-color:#FFFFFF;stop-opacity:0"/>
		</linearGradient>
		<path opacity="0.99" fill="url(#SVGID_3_)" enable-background="new    " d="M645.2,856.9L645.2,856.9c-10.4-10.4-27.1-10.4-37.5,0
			l-17.6,17.6c-10.4,10.4-10.4,27.1,0,37.5l0,0c10.4,10.4,27.1,10.4,37.5,0l17.6-17.6C655.6,884,655.3,867,645.2,856.9z"/>
		
			<linearGradient id="SVGID_4_" gradientUnits="userSpaceOnUse" x1="58.4873" y1="1009.7597" x2="58.4873" y2="1028.2064" gradientTransform="matrix(2.9797 2.9797 -2.9797 2.9797 3510.0408 -2356.5476)">
			<stop  offset="1.000000e-02" style="stop-color:#CFF5FF;stop-opacity:6.000000e-02"/>
			<stop  offset="5.584343e-02" style="stop-color:#CFF5FF;stop-opacity:4.000000e-02"/>
			<stop  offset="1" style="stop-color:#FFFFFF;stop-opacity:0"/>
		</linearGradient>
		<path opacity="0.99" fill="url(#SVGID_4_)" enable-background="new    " d="M675.6,826.5L675.6,826.5c-10.4-10.4-27.1-10.4-37.5,0
			L620.5,844c-10.4,10.4-10.4,27.1,0,37.5l0,0c10.4,10.4,27.1,10.4,37.5,0l17.6-17.6C686,853.6,685.7,836.6,675.6,826.5z"/>
		
			<radialGradient id="SVGID_5_" cx="-12.8512" cy="866.5156" r="6.255" gradientTransform="matrix(4.1802 -0.5307 0.5986 4.7165 -334.4379 -2723.5374)" gradientUnits="userSpaceOnUse">
			<stop  offset="0" style="stop-color:#FFFFFF;stop-opacity:0.75"/>
			<stop  offset="0.2188" style="stop-color:#F9FEFF;stop-opacity:0.75"/>
			<stop  offset="0.5146" style="stop-color:#E8FBFF;stop-opacity:0.75"/>
			<stop  offset="0.5512" style="stop-color:#E5FAFF;stop-opacity:0.75"/>
			<stop  offset="0.9029" style="stop-color:#CFF5FF;stop-opacity:0.75"/>
		</radialGradient>
		<polygon fill="url(#SVGID_5_)" points="143.7,1391.1 135.1,1383.7 133.9,1389 131.5,1384.8 126.1,1393.2 124.9,1384.3 
			114.2,1390.8 117.5,1380.4 110.3,1381.6 117.2,1373.5 112.1,1372.6 116.6,1370 107.7,1364 115.7,1363.1 110,1353.9 121.1,1357.1 
			119.6,1347.9 127.9,1355.1 129.1,1350.9 131.2,1354.8 137.5,1345.5 138.3,1354.8 147.3,1349.4 144.3,1358.9 152.9,1357.4 
			145.8,1366.4 151.2,1367.6 147.3,1369.7 155.6,1375 145.2,1376.5 151.5,1386.9 142.5,1384 		"/>
	</g>
</g>
<g>
	
		<linearGradient id="SVGID_6_" gradientUnits="userSpaceOnUse" x1="125.7405" y1="872.3138" x2="125.7405" y2="1019.7606" gradientTransform="matrix(2.9797 2.9797 -2.9797 2.9797 3753.324 -2927.5105)">
		<stop  offset="0" style="stop-color:#CFF5FF;stop-opacity:8.000000e-02"/>
		<stop  offset="0.3995" style="stop-color:#CFF5FF;stop-opacity:0.54"/>
		<stop  offset="0.8327" style="stop-color:#E5FAFF;stop-opacity:0.77"/>
		<stop  offset="0.8438" style="stop-color:#E8FBFF;stop-opacity:0.7202"/>
		<stop  offset="0.9336" style="stop-color:#F9FEFF;stop-opacity:0.3177"/>
		<stop  offset="1" style="stop-color:#FFFFFF;stop-opacity:2.000000e-02"/>
	</linearGradient>
	<path opacity="0.99" fill="url(#SVGID_6_)" enable-background="new    " d="M1528.8,46.3L1528.8,46.3
		c-8.2-8.2-114.4,93.7-122.6,101.9l-10,9.8l-306.8,297.5c-8.2,8.2-8.2,21.9,0,30.1l0,0c8.2,8.2,21.9,8.2,30.1,0l298.7-307l15-16
		C1441.5,154.5,1537,54.6,1528.8,46.3z"/>
	
		<linearGradient id="SVGID_7_" gradientUnits="userSpaceOnUse" x1="125.8192" y1="867.214" x2="125.8192" y2="877.5989" gradientTransform="matrix(2.9797 2.9797 -2.9797 2.9797 3753.324 -2927.5105)">
		<stop  offset="6.094547e-02" style="stop-color:#CFF5FF;stop-opacity:0.1"/>
		<stop  offset="0.5345" style="stop-color:#E5FAFF;stop-opacity:0"/>
		<stop  offset="0.5654" style="stop-color:#E8FBFF;stop-opacity:0"/>
		<stop  offset="0.8152" style="stop-color:#F9FEFF;stop-opacity:0"/>
		<stop  offset="1" style="stop-color:#FFFFFF;stop-opacity:0"/>
	</linearGradient>
	<path opacity="0.99" fill="url(#SVGID_7_)" enable-background="new    " d="M1544.3,31.3L1544.3,31.3c-5.9-5.9-28.7,9.6-34.6,15.4
		l3.5-5.5c-5.9,5.9-5.9,15.3,0,21.1l0,0c5.9,5.9,15.3,5.9,21.1,0l-1.6,0.9C1538.5,57.6,1550,37,1544.3,31.3z"/>
	
		<linearGradient id="SVGID_8_" gradientUnits="userSpaceOnUse" x1="125.8978" y1="862.0969" x2="125.8978" y2="872.4818" gradientTransform="matrix(2.9797 2.9797 -2.9797 2.9797 3753.324 -2927.5105)">
		<stop  offset="6.094547e-02" style="stop-color:#CFF5FF;stop-opacity:0.1"/>
		<stop  offset="0.5345" style="stop-color:#E5FAFF;stop-opacity:0"/>
		<stop  offset="0.5654" style="stop-color:#E8FBFF;stop-opacity:0"/>
		<stop  offset="0.8152" style="stop-color:#F9FEFF;stop-opacity:0"/>
		<stop  offset="1" style="stop-color:#FFFFFF;stop-opacity:0"/>
	</linearGradient>
	<path opacity="0.99" fill="url(#SVGID_8_)" enable-background="new    " d="M1559.8,16.3L1559.8,16.3c-5.9-5.9-28.7,9.6-34.6,15.4
		l3.5-5.5c-5.9,5.9-5.9,15.3,0,21.1l0,0c5.9,5.9,15.3,5.9,21.1,0l-1.6,0.9C1554,42.6,1565.5,22,1559.8,16.3z"/>
	
		<linearGradient id="SVGID_9_" gradientUnits="userSpaceOnUse" x1="125.9764" y1="856.9798" x2="125.9764" y2="867.3647" gradientTransform="matrix(2.9797 2.9797 -2.9797 2.9797 3753.324 -2927.5105)">
		<stop  offset="6.094547e-02" style="stop-color:#CFF5FF;stop-opacity:0.1"/>
		<stop  offset="0.5345" style="stop-color:#E5FAFF;stop-opacity:0"/>
		<stop  offset="0.5654" style="stop-color:#E8FBFF;stop-opacity:0"/>
		<stop  offset="0.8152" style="stop-color:#F9FEFF;stop-opacity:0"/>
		<stop  offset="1" style="stop-color:#FFFFFF;stop-opacity:0"/>
	</linearGradient>
	<path opacity="0.99" fill="url(#SVGID_9_)" enable-background="new    " d="M1575.2,1.3L1575.2,1.3c-5.9-5.9-28.7,9.6-34.6,15.4
		l3.5-5.5c-5.9,5.9-5.9,15.3,0,21.1l0,0c5.9,5.9,15.3,5.9,21.1,0l-1.6,0.9C1569.5,27.6,1580.9,7,1575.2,1.3z"/>
	
		<radialGradient id="SVGID_10_" cx="169.6122" cy="816.8619" r="5.7463" gradientTransform="matrix(4.1802 -0.5307 0.5986 4.7165 -91.1547 -3294.5002)" gradientUnits="userSpaceOnUse">
		<stop  offset="0" style="stop-color:#FFFFFF;stop-opacity:0.75"/>
		<stop  offset="0.2188" style="stop-color:#F9FEFF;stop-opacity:0.75"/>
		<stop  offset="0.5146" style="stop-color:#E8FBFF;stop-opacity:0.75"/>
		<stop  offset="0.5512" style="stop-color:#E5FAFF;stop-opacity:0.75"/>
		<stop  offset="0.9029" style="stop-color:#CFF5FF;stop-opacity:0.75"/>
	</radialGradient>
	<polygon fill="url(#SVGID_10_)" points="1118.9,487.4 1111,480.6 1109.9,485.5 1107.7,481.7 1102.8,489.3 1101.7,481.1 
		1091.8,487.1 1094.8,477.6 1088.3,478.7 1094.6,471.3 1089.9,470.5 1094,468 1085.8,462.5 1093.2,461.7 1088,453.2 1098.1,456.2 
		1096.8,447.7 1104.4,454.3 1105.5,450.5 1107.4,454 1113.2,445.5 1114,454 1122.2,449.1 1119.5,457.9 1127.4,456.5 1120.8,464.7 
		1125.8,465.8 1122.2,467.7 1129.9,472.6 1120.3,474 1126,483.6 1117.8,480.9 	"/>
</g>
<g>
	
		<linearGradient id="SVGID_11_" gradientUnits="userSpaceOnUse" x1="86.6822" y1="1051.5576" x2="86.6822" y2="1199.0044" gradientTransform="matrix(1.891884e-10 -4.2139 4.2139 1.891884e-10 -3803.3601 1734.8154)">
		<stop  offset="0" style="stop-color:#CFF5FF;stop-opacity:8.000000e-02"/>
		<stop  offset="0.3995" style="stop-color:#CFF5FF;stop-opacity:0.54"/>
		<stop  offset="0.6723" style="stop-color:#A4FAFF;stop-opacity:0.77"/>
		<stop  offset="0.8072" style="stop-color:#45FFB9;stop-opacity:0.7202"/>
		<stop  offset="0.9336" style="stop-color:#F9FEFF;stop-opacity:0.3177"/>
		<stop  offset="1" style="stop-color:#FFFFFF;stop-opacity:2.000000e-02"/>
	</linearGradient>
	<path opacity="0.99" fill="url(#SVGID_11_)" enable-background="new    " d="M627.8,1369.5L627.8,1369.5
		c0,11.6,147.2,14.6,158.8,14.6l14,0.1l427.2,6.6c11.6,0,21.3-9.7,21.3-21.3l0,0c0-11.6-9.7-21.3-21.3-21.3l-428.3,5.9l-22,0.7
		C766,1354.9,627.8,1357.9,627.8,1369.5z"/>
	
		<linearGradient id="SVGID_12_" gradientUnits="userSpaceOnUse" x1="86.7608" y1="1046.4578" x2="86.7608" y2="1056.8427" gradientTransform="matrix(1.891884e-10 -4.2139 4.2139 1.891884e-10 -3803.3601 1734.8154)">
		<stop  offset="6.094547e-02" style="stop-color:#CFF5FF;stop-opacity:0.1"/>
		<stop  offset="0.5345" style="stop-color:#E5FAFF;stop-opacity:0"/>
		<stop  offset="0.5654" style="stop-color:#E8FBFF;stop-opacity:0"/>
		<stop  offset="0.8152" style="stop-color:#F9FEFF;stop-opacity:0"/>
		<stop  offset="1" style="stop-color:#FFFFFF;stop-opacity:0"/>
	</linearGradient>
	<path opacity="0.99" fill="url(#SVGID_12_)" enable-background="new    " d="M606.2,1369.2L606.2,1369.2c0,8.3,27,13.5,35.3,13.5
		l-6.4,1.4c8.3,0,14.9-6.6,14.9-14.9l0,0c0-8.3-6.6-14.9-14.9-14.9l1.8,0.5C628.9,1354.7,606.2,1361.2,606.2,1369.2z"/>
	
		<linearGradient id="SVGID_13_" gradientUnits="userSpaceOnUse" x1="86.8394" y1="1041.3407" x2="86.8394" y2="1051.7256" gradientTransform="matrix(1.891884e-10 -4.2139 4.2139 1.891884e-10 -3803.3601 1734.8154)">
		<stop  offset="6.094547e-02" style="stop-color:#CFF5FF;stop-opacity:0.1"/>
		<stop  offset="0.5345" style="stop-color:#E5FAFF;stop-opacity:0"/>
		<stop  offset="0.5654" style="stop-color:#E8FBFF;stop-opacity:0"/>
		<stop  offset="0.8152" style="stop-color:#F9FEFF;stop-opacity:0"/>
		<stop  offset="1" style="stop-color:#FFFFFF;stop-opacity:0"/>
	</linearGradient>
	<path opacity="0.99" fill="url(#SVGID_13_)" enable-background="new    " d="M584.6,1368.9L584.6,1368.9c0,8.3,27,13.5,35.3,13.5
		l-6.4,1.4c8.3,0,14.9-6.6,14.9-14.9l0,0c0-8.3-6.6-14.9-14.9-14.9l1.8,0.5C607.3,1354.4,584.6,1360.8,584.6,1368.9z"/>
	
		<linearGradient id="SVGID_14_" gradientUnits="userSpaceOnUse" x1="86.9181" y1="1036.2236" x2="86.9181" y2="1046.6085" gradientTransform="matrix(1.891884e-10 -4.2139 4.2139 1.891884e-10 -3803.3601 1734.8154)">
		<stop  offset="6.094547e-02" style="stop-color:#CFF5FF;stop-opacity:0.1"/>
		<stop  offset="0.5345" style="stop-color:#E5FAFF;stop-opacity:0"/>
		<stop  offset="0.5654" style="stop-color:#E8FBFF;stop-opacity:0"/>
		<stop  offset="0.8152" style="stop-color:#F9FEFF;stop-opacity:0"/>
		<stop  offset="1" style="stop-color:#FFFFFF;stop-opacity:0"/>
	</linearGradient>
	<path opacity="0.99" fill="url(#SVGID_14_)" enable-background="new    " d="M563.1,1368.6L563.1,1368.6c0,8.3,27,13.5,35.3,13.5
		l-6.4,1.4c8.3,0,14.9-6.6,14.9-14.9l0,0c0-8.3-6.6-14.9-14.9-14.9l1.8,0.5C585.7,1354.1,563.1,1360.5,563.1,1368.6z"/>
	
		<radialGradient id="SVGID_15_" cx="3.9906" cy="886.7894" r="5.7463" gradientTransform="matrix(-3.3311 -2.5806 2.9118 -3.7584 -1344.4042 4712.7734)" gradientUnits="userSpaceOnUse">
		<stop  offset="0" style="stop-color:#FFFFFF;stop-opacity:0.75"/>
		<stop  offset="0.2188" style="stop-color:#F9FEFF;stop-opacity:0.75"/>
		<stop  offset="0.5146" style="stop-color:#E8FBFF;stop-opacity:0.75"/>
		<stop  offset="0.5512" style="stop-color:#A9FAFF;stop-opacity:0.75"/>
		<stop  offset="0.9029" style="stop-color:#CFF5FF;stop-opacity:0.75"/>
	</radialGradient>
	<polygon fill="url(#SVGID_15_)" points="1229.5,1347.5 1230.2,1357.9 1234.5,1355.2 1233.3,1359.5 1242.2,1357.5 1237.2,1364.1 
		1248.4,1366.8 1239.5,1371.5 1245,1375.4 1235.3,1376.1 1238,1380 1233.3,1378.8 1235.3,1388.5 1229.5,1383.9 1227.2,1393.5 
		1222.1,1384.3 1217.1,1391.2 1216.3,1381.2 1212.8,1383.1 1214,1379.2 1203.9,1381.2 1209.3,1374.6 1200.1,1372.3 1208.2,1368 
		1201.6,1363.4 1212.1,1362.2 1209.3,1357.9 1213.2,1359.1 1211.3,1350.2 1219,1356 1221.7,1345.2 1225.6,1352.9 	"/>
</g>
<g>
	
		<linearGradient id="SVGID_16_" gradientUnits="userSpaceOnUse" x1="138.9868" y1="1001.9581" x2="138.9868" y2="1149.4049" gradientTransform="matrix(1.891884e-10 -4.2139 4.2139 1.891884e-10 -3594.354 1714.8513)">
		<stop  offset="0" style="stop-color:#CFF5FF;stop-opacity:8.000000e-02"/>
		<stop  offset="0.3995" style="stop-color:#CFF5FF;stop-opacity:0.54"/>
		<stop  offset="0.6042" style="stop-color:#E5D5FF;stop-opacity:0.77"/>
		<stop  offset="0.8603" style="stop-color:#E8B8FF;stop-opacity:0.7202"/>
		<stop  offset="0.9336" style="stop-color:#F9FEFF;stop-opacity:0.3177"/>
		<stop  offset="1" style="stop-color:#FFFFFF;stop-opacity:2.000000e-02"/>
	</linearGradient>
	<path opacity="0.99" fill="url(#SVGID_16_)" enable-background="new    " d="M627.8,1129.2L627.8,1129.2
		c0,11.6,147.2,14.6,158.8,14.6l14,0.1l427.2,6.6c11.6,0,21.3-9.7,21.3-21.3l0,0c0-11.6-9.7-21.3-21.3-21.3l-428.3,5.9l-22,0.7
		C766,1114.5,627.8,1117.6,627.8,1129.2z"/>
	
		<linearGradient id="SVGID_17_" gradientUnits="userSpaceOnUse" x1="139.0654" y1="996.8583" x2="139.0654" y2="1007.2432" gradientTransform="matrix(1.891884e-10 -4.2139 4.2139 1.891884e-10 -3594.354 1714.8513)">
		<stop  offset="6.094547e-02" style="stop-color:#CFF5FF;stop-opacity:0.1"/>
		<stop  offset="0.5345" style="stop-color:#E5FAFF;stop-opacity:0"/>
		<stop  offset="0.5654" style="stop-color:#E8FBFF;stop-opacity:0"/>
		<stop  offset="0.8152" style="stop-color:#F9FEFF;stop-opacity:0"/>
		<stop  offset="1" style="stop-color:#FFFFFF;stop-opacity:0"/>
	</linearGradient>
	<path opacity="0.99" fill="url(#SVGID_17_)" enable-background="new    " d="M606.2,1128.8L606.2,1128.8c0,8.3,27,13.5,35.3,13.5
		l-6.4,1.4c8.3,0,14.9-6.6,14.9-14.9l0,0c0-8.3-6.6-14.9-14.9-14.9l1.8,0.5C628.9,1114.4,606.2,1120.8,606.2,1128.8z"/>
	
		<linearGradient id="SVGID_18_" gradientUnits="userSpaceOnUse" x1="139.144" y1="991.7411" x2="139.144" y2="1002.126" gradientTransform="matrix(1.891884e-10 -4.2139 4.2139 1.891884e-10 -3594.354 1714.8513)">
		<stop  offset="6.094547e-02" style="stop-color:#CFF5FF;stop-opacity:0.1"/>
		<stop  offset="0.5345" style="stop-color:#E5FAFF;stop-opacity:0"/>
		<stop  offset="0.5654" style="stop-color:#E8FBFF;stop-opacity:0"/>
		<stop  offset="0.8152" style="stop-color:#F9FEFF;stop-opacity:0"/>
		<stop  offset="1" style="stop-color:#FFFFFF;stop-opacity:0"/>
	</linearGradient>
	<path opacity="0.99" fill="url(#SVGID_18_)" enable-background="new    " d="M584.6,1128.5L584.6,1128.5c0,8.3,27,13.5,35.3,13.5
		l-6.4,1.4c8.3,0,14.9-6.6,14.9-14.9l0,0c0-8.3-6.6-14.9-14.9-14.9l1.8,0.5C607.3,1114,584.6,1120.5,584.6,1128.5z"/>
	
		<linearGradient id="SVGID_19_" gradientUnits="userSpaceOnUse" x1="139.2227" y1="986.6241" x2="139.2227" y2="997.009" gradientTransform="matrix(1.891884e-10 -4.2139 4.2139 1.891884e-10 -3594.354 1714.8513)">
		<stop  offset="6.094547e-02" style="stop-color:#CFF5FF;stop-opacity:0.1"/>
		<stop  offset="0.5345" style="stop-color:#E5FAFF;stop-opacity:0"/>
		<stop  offset="0.5654" style="stop-color:#E8FBFF;stop-opacity:0"/>
		<stop  offset="0.8152" style="stop-color:#F9FEFF;stop-opacity:0"/>
		<stop  offset="1" style="stop-color:#FFFFFF;stop-opacity:0"/>
	</linearGradient>
	<path opacity="0.99" fill="url(#SVGID_19_)" enable-background="new    " d="M563.1,1128.2L563.1,1128.2c0,8.3,27,13.5,35.3,13.5
		l-6.4,1.4c8.3,0,14.9-6.6,14.9-14.9l0,0c0-8.3-6.6-14.9-14.9-14.9l1.8,0.5C585.7,1113.7,563.1,1120.1,563.1,1128.2z"/>
	
		<radialGradient id="SVGID_20_" cx="75.2361" cy="896.5146" r="5.7463" gradientTransform="matrix(-3.3311 -2.5806 2.9118 -3.7584 -1135.3982 4692.8091)" gradientUnits="userSpaceOnUse">
		<stop  offset="0" style="stop-color:#FFFFFF;stop-opacity:0.75"/>
		<stop  offset="0.2188" style="stop-color:#F9FEFF;stop-opacity:0.75"/>
		<stop  offset="0.5512" style="stop-color:#E5D1FF;stop-opacity:0.75"/>
		<stop  offset="0.9029" style="stop-color:#CFF5FF;stop-opacity:0.75"/>
	</radialGradient>
	<polygon fill="url(#SVGID_20_)" points="1229.5,1107.1 1230.2,1117.6 1234.5,1114.9 1233.3,1119.1 1242.2,1117.2 1237.2,1123.8 
		1248.4,1126.5 1239.5,1131.1 1245,1135 1235.3,1135.8 1238,1139.6 1233.3,1138.5 1235.3,1148.1 1229.5,1143.5 1227.2,1153.2 
		1222.1,1143.9 1217.1,1150.9 1216.3,1140.8 1212.8,1142.7 1214,1138.9 1203.9,1140.8 1209.3,1134.2 1200.1,1131.9 1208.2,1127.6 
		1201.6,1123 1212.1,1121.8 1209.3,1117.6 1213.2,1118.7 1211.3,1109.8 1219,1115.6 1221.7,1104.8 1225.6,1112.5 	"/>
</g>
<g>
	
		<linearGradient id="SVGID_21_" gradientUnits="userSpaceOnUse" x1="137.5623" y1="995.1707" x2="137.5623" y2="1142.6176" gradientTransform="matrix(1.891884e-10 -4.2139 4.2139 1.891884e-10 -3463.5447 1861.5914)">
		<stop  offset="0" style="stop-color:#CFF5FF;stop-opacity:8.000000e-02"/>
		<stop  offset="0.3995" style="stop-color:#CFF5FF;stop-opacity:0.54"/>
		<stop  offset="0.6281" style="stop-color:#E5FAB5;stop-opacity:0.77"/>
		<stop  offset="0.8678" style="stop-color:#E8FBB9;stop-opacity:0.7202"/>
		<stop  offset="0.9336" style="stop-color:#F9FEFF;stop-opacity:0.3177"/>
		<stop  offset="1" style="stop-color:#FFFFFF;stop-opacity:2.000000e-02"/>
	</linearGradient>
	<path opacity="0.99" fill="url(#SVGID_21_)" enable-background="new    " d="M730,1281.9L730,1281.9c0,11.6,147.2,14.6,158.8,14.6
		l14,0.1l427.2,6.6c11.6,0,21.3-9.7,21.3-21.3l0,0c0-11.6-9.7-21.3-21.3-21.3l-428.3,5.9l-22,0.7
		C868.2,1267.2,730,1270.3,730,1281.9z"/>
	
		<linearGradient id="SVGID_22_" gradientUnits="userSpaceOnUse" x1="137.6409" y1="990.0709" x2="137.6409" y2="1000.4558" gradientTransform="matrix(1.891884e-10 -4.2139 4.2139 1.891884e-10 -3463.5447 1861.5914)">
		<stop  offset="6.094547e-02" style="stop-color:#CFF5FF;stop-opacity:0.1"/>
		<stop  offset="0.5345" style="stop-color:#E5FAFF;stop-opacity:0"/>
		<stop  offset="0.5654" style="stop-color:#E8FBFF;stop-opacity:0"/>
		<stop  offset="0.8152" style="stop-color:#F9FEFF;stop-opacity:0"/>
		<stop  offset="1" style="stop-color:#FFFFFF;stop-opacity:0"/>
	</linearGradient>
	<path opacity="0.99" fill="url(#SVGID_22_)" enable-background="new    " d="M708.4,1281.6L708.4,1281.6c0,8.3,27,13.5,35.3,13.5
		l-6.4,1.4c8.3,0,14.9-6.6,14.9-14.9l0,0c0-8.3-6.6-14.9-14.9-14.9l1.8,0.5C731.1,1267.1,708.4,1273.5,708.4,1281.6z"/>
	
		<linearGradient id="SVGID_23_" gradientUnits="userSpaceOnUse" x1="137.7195" y1="984.9539" x2="137.7195" y2="995.3387" gradientTransform="matrix(1.891884e-10 -4.2139 4.2139 1.891884e-10 -3463.5447 1861.5914)">
		<stop  offset="6.094547e-02" style="stop-color:#CFF5FF;stop-opacity:0.1"/>
		<stop  offset="0.5345" style="stop-color:#E5FAFF;stop-opacity:0"/>
		<stop  offset="0.5654" style="stop-color:#E8FBFF;stop-opacity:0"/>
		<stop  offset="0.8152" style="stop-color:#F9FEFF;stop-opacity:0"/>
		<stop  offset="1" style="stop-color:#FFFFFF;stop-opacity:0"/>
	</linearGradient>
	<path opacity="0.99" fill="url(#SVGID_23_)" enable-background="new    " d="M686.8,1281.3L686.8,1281.3c0,8.3,27,13.5,35.3,13.5
		l-6.4,1.4c8.3,0,14.9-6.6,14.9-14.9l0,0c0-8.3-6.6-14.9-14.9-14.9l1.8,0.5C709.5,1266.8,686.8,1273.2,686.8,1281.3z"/>
	
		<linearGradient id="SVGID_24_" gradientUnits="userSpaceOnUse" x1="137.7982" y1="979.8367" x2="137.7982" y2="990.2216" gradientTransform="matrix(1.891884e-10 -4.2139 4.2139 1.891884e-10 -3463.5447 1861.5914)">
		<stop  offset="6.094547e-02" style="stop-color:#CFF5FF;stop-opacity:0.1"/>
		<stop  offset="0.5345" style="stop-color:#E5FAFF;stop-opacity:0"/>
		<stop  offset="0.5654" style="stop-color:#E8FBFF;stop-opacity:0"/>
		<stop  offset="0.8152" style="stop-color:#F9FEFF;stop-opacity:0"/>
		<stop  offset="1" style="stop-color:#FFFFFF;stop-opacity:0"/>
	</linearGradient>
	<path opacity="0.99" fill="url(#SVGID_24_)" enable-background="new    " d="M665.3,1280.9L665.3,1280.9c0,8.3,27,13.5,35.3,13.5
		l-6.4,1.4c8.3,0,14.9-6.6,14.9-14.9l0,0c0-8.3-6.6-14.9-14.9-14.9l1.8,0.5C687.9,1266.5,665.3,1272.9,665.3,1280.9z"/>
	
		<linearGradient id="SVGID_25_" gradientUnits="userSpaceOnUse" x1="935.9037" y1="1522.6923" x2="984.2933" y2="1522.6923" gradientTransform="matrix(4.489659e-11 -1 1 4.489659e-11 -195.2353 2241.8267)">
		<stop  offset="0" style="stop-color:#CFF5FF;stop-opacity:8.000000e-02"/>
		<stop  offset="0.3995" style="stop-color:#CFF5A0;stop-opacity:0.54"/>
		<stop  offset="0.6281" style="stop-color:#E5FAB5;stop-opacity:0.77"/>
		<stop  offset="0.8678" style="stop-color:#E8FBB9;stop-opacity:0.7202"/>
		<stop  offset="0.9336" style="stop-color:#F9FEFF;stop-opacity:0.3177"/>
		<stop  offset="1" style="stop-color:#FFFFFF;stop-opacity:2.000000e-02"/>
	</linearGradient>
	<polygon opacity="0.99" fill="url(#SVGID_25_)" enable-background="new    " points="1332.7,1259.9 1333.5,1270.3 1337.7,1267.6 
		1336.6,1271.9 1345.5,1269.9 1340.4,1276.5 1351.7,1279.2 1342.7,1283.9 1348.2,1287.7 1338.5,1288.5 1341.2,1292.4 1336.6,1291.2 
		1338.5,1300.9 1332.7,1296.2 1330.4,1305.9 1325.3,1296.6 1320.3,1303.6 1319.5,1293.5 1316,1295.5 1317.2,1291.6 1307.1,1293.5 
		1312.6,1287 1303.3,1284.6 1311.4,1280.4 1304.8,1275.7 1315.3,1274.6 1312.6,1270.3 1316.4,1271.5 1314.5,1262.6 1322.2,1268.4 
		1324.9,1257.5 1328.8,1265.3 	"/>
</g>
</svg>
