<?xml version="1.0" encoding="utf-8"?>
<!-- Generator: Adobe Illustrator 18.1.0, SVG Export Plug-In . SVG Version: 6.00 Build 0)  -->
<!DOCTYPE svg PUBLIC "-//W3C//DTD SVG 1.1//EN" "http://www.w3.org/Graphics/SVG/1.1/DTD/svg11.dtd">
<svg version="1.1" id="Layer_1" xmlns="http://www.w3.org/2000/svg" xmlns:xlink="http://www.w3.org/1999/xlink" x="0px" y="0px"
	 viewBox="-1259.3 157 1505.3 484" enable-background="new -1259.3 157 1505.3 484" xml:space="preserve">
<title>Layer 1</title>
<ellipse id="svg_3" fill="#0000FF" cx="-233.5" cy="395.3" rx="0" ry="11"/>
<ellipse id="svg_4" fill="#0000FF" cx="-232.5" cy="396.3" rx="0" ry="5"/>
<g>
	<g>
		<linearGradient id="SVGID_1_" gradientUnits="userSpaceOnUse" x1="-1259.3015" y1="337.8095" x2="245.9931" y2="337.8095">
			<stop  offset="0" style="stop-color:#326E84"/>
			<stop  offset="0.3146" style="stop-color:#627091"/>
			<stop  offset="0.7036" style="stop-color:#A4ACC3"/>
			<stop  offset="0.9783" style="stop-color:#ABA97F"/>
		</linearGradient>
		<rect x="-1259.3" y="157" fill="url(#SVGID_1_)" width="1505.3" height="361.6"/>
		
			<image overflow="visible" width="108" height="298" xlink:href="../../../../../../../../Desktop/red-white-lighthouse-md.png"  transform="matrix(0.9539 0 0 0.9539 128.5454 165.7634)">
		</image>
	</g>
	<g>
		<g>
			<linearGradient id="path6712_8_" gradientUnits="userSpaceOnUse" x1="-1267.3015" y1="397.5771" x2="-992.8557" y2="397.5771">
				<stop  offset="0" style="stop-color:#5080B1"/>
				<stop  offset="0.1178" style="stop-color:#477DAE"/>
				<stop  offset="0.3137" style="stop-color:#2D73A7"/>
				<stop  offset="0.5621" style="stop-color:#04649C"/>
				<stop  offset="0.5843" style="stop-color:#00639B"/>
				<stop  offset="1" style="stop-color:#004E8C"/>
			</linearGradient>
			<path id="path6712_7_" fill="url(#path6712_8_)" d="M-1000.7,429.5c-10,15.2-23.4,21.2-38.3,21.2c-18.9,0-36.1-12.2-46-35.2
				c-9.8,23.5-27.1,35.2-46.2,35.2c-18.9,0-36-12.4-45.9-35.4c-9.8,23.7-27.1,35.4-46.5,35.4c-14,0-26.8-5-36.4-18.5l-7.3-82.8
				c10,20.9,25.9,34.5,43.8,34.5c19.4,0,36.7-15,46.5-38.7c9.9,23,26.9,38.7,45.9,38.7c19.1,0,36.4-15,46.2-38.5
				c9.9,23,27.1,38.5,46,38.5c19.3,0,36.4-15.7,46.1-39.4L-1000.7,429.5z"/>
			<linearGradient id="svg_1_8_" gradientUnits="userSpaceOnUse" x1="-1083.0726" y1="396.8915" x2="-808.6266" y2="396.8915">
				<stop  offset="0" style="stop-color:#5080B1"/>
				<stop  offset="0.1178" style="stop-color:#477DAE"/>
				<stop  offset="0.3137" style="stop-color:#2D73A7"/>
				<stop  offset="0.5621" style="stop-color:#04649C"/>
				<stop  offset="0.5843" style="stop-color:#00639B"/>
				<stop  offset="1" style="stop-color:#004E8C"/>
			</linearGradient>
			<path id="svg_1_7_" fill="url(#svg_1_8_)" d="M-816.4,428.8c-10,15.2-23.4,21.2-38.3,21.2c-18.9,0-36.1-12.2-46-35.2
				c-9.8,23.5-27.1,35.2-46.2,35.2c-18.9,0-36-12.4-45.9-35.4c-9.8,23.7-27.1,35.4-46.5,35.4c-14,0-26.8-5-36.4-18.5l-7.3-82.8
				c10,20.9,25.9,34.5,43.8,34.5c19.4,0,36.7-15,46.5-38.7c9.9,23,26.9,38.7,45.9,38.7c19.1,0,36.4-15,46.2-38.5
				c9.9,23,27.1,38.5,46,38.5c19.3,0,36.4-15.7,46.1-39.4L-816.4,428.8z"/>
		</g>
		<g>
			<linearGradient id="path6712_9_" gradientUnits="userSpaceOnUse" x1="-898.2646" y1="397.9198" x2="-623.8187" y2="397.9198">
				<stop  offset="0" style="stop-color:#5080B1"/>
				<stop  offset="0.1178" style="stop-color:#477DAE"/>
				<stop  offset="0.3137" style="stop-color:#2D73A7"/>
				<stop  offset="0.5621" style="stop-color:#04649C"/>
				<stop  offset="0.5843" style="stop-color:#00639B"/>
				<stop  offset="1" style="stop-color:#004E8C"/>
			</linearGradient>
			<path id="path6712_6_" fill="url(#path6712_9_)" d="M-631.6,429.9c-10,15.2-23.4,21.2-38.3,21.2c-18.9,0-36.1-12.2-46-35.2
				c-9.8,23.5-27.1,35.2-46.2,35.2c-18.9,0-36-12.4-45.9-35.4c-9.8,23.7-27.1,35.4-46.5,35.4c-14,0-26.8-5-36.4-18.5l-7.3-82.8
				c10,20.9,25.9,34.5,43.8,34.5c19.4,0,36.7-15,46.5-38.7c9.9,23,26.9,38.7,45.9,38.7c19.1,0,36.4-15,46.2-38.5
				c9.9,23,27.1,38.5,46,38.5c19.3,0,36.4-15.7,46.1-39.4L-631.6,429.9z"/>
			<linearGradient id="svg_1_9_" gradientUnits="userSpaceOnUse" x1="-714.0358" y1="397.2343" x2="-439.5897" y2="397.2343">
				<stop  offset="0" style="stop-color:#5080B1"/>
				<stop  offset="0.1178" style="stop-color:#477DAE"/>
				<stop  offset="0.3137" style="stop-color:#2D73A7"/>
				<stop  offset="0.5621" style="stop-color:#04649C"/>
				<stop  offset="0.5843" style="stop-color:#00639B"/>
				<stop  offset="1" style="stop-color:#004E8C"/>
			</linearGradient>
			<path id="svg_1_6_" fill="url(#svg_1_9_)" d="M-447.4,429.2c-10,15.2-23.4,21.2-38.3,21.2c-18.9,0-36.1-12.2-46-35.2
				c-9.8,23.5-27.1,35.2-46.2,35.2c-18.9,0-36-12.4-45.9-35.4c-9.8,23.7-27.1,35.4-46.5,35.4c-14,0-26.8-5-36.4-18.5l-7.3-82.8
				c10,20.9,25.9,34.5,43.8,34.5c19.4,0,36.7-15,46.5-38.7c9.9,23,26.9,38.7,45.9,38.7c19.1,0,36.4-15,46.2-38.5
				c9.9,23,27.1,38.5,46,38.5c19.3,0,36.4-15.7,46.1-39.4L-447.4,429.2z"/>
		</g>
		<g>
			<linearGradient id="path6712_10_" gradientUnits="userSpaceOnUse" x1="-526.2274" y1="398.2625" x2="-251.7815" y2="398.2625">
				<stop  offset="0" style="stop-color:#5080B1"/>
				<stop  offset="0.1178" style="stop-color:#477DAE"/>
				<stop  offset="0.3137" style="stop-color:#2D73A7"/>
				<stop  offset="0.5621" style="stop-color:#04649C"/>
				<stop  offset="0.5843" style="stop-color:#00639B"/>
				<stop  offset="1" style="stop-color:#004E8C"/>
			</linearGradient>
			<path id="path6712_5_" fill="url(#path6712_10_)" d="M-259.6,430.2c-10,15.2-23.4,21.2-38.3,21.2c-18.9,0-36.1-12.2-46-35.2
				c-9.8,23.5-27.1,35.2-46.2,35.2c-18.9,0-36-12.4-45.9-35.4c-9.8,23.7-27.1,35.4-46.5,35.4c-14,0-26.8-5-36.4-18.5l-7.3-82.8
				c10,20.9,25.9,34.5,43.8,34.5c19.4,0,36.7-15,46.5-38.7c9.9,23,26.9,38.7,45.9,38.7c19.1,0,36.4-15,46.2-38.5
				c9.9,23,27.1,38.5,46,38.5c19.3,0,36.4-15.7,46.1-39.4L-259.6,430.2z"/>
			<linearGradient id="svg_1_10_" gradientUnits="userSpaceOnUse" x1="-341.9986" y1="397.5769" x2="-67.5525" y2="397.5769">
				<stop  offset="0" style="stop-color:#5080B1"/>
				<stop  offset="0.1178" style="stop-color:#477DAE"/>
				<stop  offset="0.3137" style="stop-color:#2D73A7"/>
				<stop  offset="0.5621" style="stop-color:#04649C"/>
				<stop  offset="0.5843" style="stop-color:#00639B"/>
				<stop  offset="1" style="stop-color:#004E8C"/>
			</linearGradient>
			<path id="svg_1_5_" fill="url(#svg_1_10_)" d="M-75.3,429.5c-10,15.2-23.4,21.2-38.3,21.2c-18.9,0-36.1-12.2-46-35.2
				c-9.8,23.5-27.1,35.2-46.2,35.2c-18.9,0-36-12.4-45.9-35.4c-9.8,23.7-27.1,35.4-46.5,35.4c-14,0-26.8-5-36.4-18.5l-7.3-82.8
				c10,20.9,25.9,34.5,43.8,34.5c19.4,0,36.7-15,46.5-38.7c9.9,23,26.9,38.7,45.9,38.7c19.1,0,36.4-15,46.2-38.5
				c9.9,23,27.1,38.5,46,38.5c19.3,0,36.4-15.7,46.1-39.4L-75.3,429.5z"/>
		</g>
		<g>
			<linearGradient id="path6712_11_" gradientUnits="userSpaceOnUse" x1="-163.1911" y1="398.6052" x2="111.2548" y2="398.6052">
				<stop  offset="0" style="stop-color:#5080B1"/>
				<stop  offset="0.1178" style="stop-color:#477DAE"/>
				<stop  offset="0.3137" style="stop-color:#2D73A7"/>
				<stop  offset="0.5621" style="stop-color:#04649C"/>
				<stop  offset="0.5843" style="stop-color:#00639B"/>
				<stop  offset="1" style="stop-color:#004E8C"/>
			</linearGradient>
			<path id="path6712_4_" fill="url(#path6712_11_)" d="M103.5,430.6c-10,15.2-23.4,21.2-38.3,21.2c-18.9,0-36.1-12.2-46-35.2
				c-9.8,23.5-27.1,35.2-46.2,35.2c-18.9,0-36-12.4-45.9-35.4c-9.8,23.7-27.1,35.4-46.5,35.4c-14,0-26.8-5-36.4-18.5l-7.3-82.8
				c10,20.9,25.9,34.5,43.8,34.5c19.4,0,36.7-15,46.5-38.7c9.9,23,26.9,38.7,45.9,38.7c19.1,0,36.4-15,46.2-38.5
				c9.9,23,27.1,38.5,46,38.5c19.3,0,36.4-15.7,46.1-39.4L103.5,430.6z"/>
			<linearGradient id="svg_1_11_" gradientUnits="userSpaceOnUse" x1="21.0377" y1="397.9196" x2="295.4838" y2="397.9196">
				<stop  offset="0" style="stop-color:#5080B1"/>
				<stop  offset="0.1178" style="stop-color:#477DAE"/>
				<stop  offset="0.3137" style="stop-color:#2D73A7"/>
				<stop  offset="0.5621" style="stop-color:#04649C"/>
				<stop  offset="0.5843" style="stop-color:#00639B"/>
				<stop  offset="1" style="stop-color:#004E8C"/>
			</linearGradient>
			<path id="svg_1_4_" fill="url(#svg_1_11_)" d="M287.7,429.9c-10,15.2-23.4,21.2-38.3,21.2c-18.9,0-36.1-12.2-46-35.2
				c-9.8,23.5-27.1,35.2-46.2,35.2c-18.9,0-36-12.4-45.9-35.4c-9.8,23.7-27.1,35.4-46.5,35.4c-14,0-26.8-5-36.4-18.5L21,349.8
				c10,20.9,25.9,34.5,43.8,34.5c19.4,0,36.7-15,46.5-38.7c9.9,23,26.9,38.7,45.9,38.7c19.1,0,36.4-15,46.2-38.5
				c9.9,23,27.1,38.5,46,38.5c19.3,0,36.4-15.7,46.1-39.4L287.7,429.9z"/>
		</g>
	</g>
	<g>
		<g>
			<linearGradient id="svg_2_8_" gradientUnits="userSpaceOnUse" x1="-1275.7117" y1="434.881" x2="-1002.2656" y2="434.881">
				<stop  offset="0" style="stop-color:#8AB1D5"/>
				<stop  offset="0.5" style="stop-color:#70A3CD"/>
				<stop  offset="0.5132" style="stop-color:#6EA2CC"/>
				<stop  offset="0.7127" style="stop-color:#4F97C5"/>
				<stop  offset="0.882" style="stop-color:#3C90C1"/>
				<stop  offset="1" style="stop-color:#358DBF"/>
			</linearGradient>
			<path id="svg_2_7_" fill="url(#svg_2_8_)" d="M-1010,468.3c-9.9,15.9-23.3,22.2-38.2,22.2c-18.8,0-36-12.7-45.8-36.8
				c-9.8,24.6-27,36.8-46.1,36.8c-18.8,0-35.8-13-45.7-37.1c-9.8,24.9-27,37.1-46.3,37.1c-13.9,0-26.7-5.2-36.3-19.4l-7.3-86.7
				c10,21.9,25.8,36.1,43.6,36.1c19.3,0,36.5-15.7,46.3-40.5c9.8,24.1,26.8,40.5,45.7,40.5c19.1,0,36.3-15.7,46.1-40.3
				c9.8,24.1,27,40.3,45.8,40.3c19.2,0,36.2-16.4,45.9-41.3L-1010,468.3z"/>
			<linearGradient id="svg_5_8_" gradientUnits="userSpaceOnUse" x1="-1091.7117" y1="433.881" x2="-818.2656" y2="433.881">
				<stop  offset="0" style="stop-color:#8AB1D5"/>
				<stop  offset="0.5" style="stop-color:#70A3CD"/>
				<stop  offset="0.5132" style="stop-color:#6EA2CC"/>
				<stop  offset="0.7127" style="stop-color:#4F97C5"/>
				<stop  offset="0.882" style="stop-color:#3C90C1"/>
				<stop  offset="1" style="stop-color:#358DBF"/>
			</linearGradient>
			<path id="svg_5_7_" fill="url(#svg_5_8_)" d="M-826,467.3c-9.9,15.9-23.3,22.2-38.2,22.2c-18.8,0-36-12.7-45.8-36.8
				c-9.8,24.6-27,36.8-46.1,36.8c-18.8,0-35.8-13-45.7-37.1c-9.8,24.9-27,37.1-46.3,37.1c-13.9,0-26.7-5.2-36.3-19.4l-7.3-86.7
				c10,21.9,25.8,36.1,43.6,36.1c19.3,0,36.5-15.7,46.3-40.5c9.8,24.1,26.8,40.5,45.7,40.5c19.1,0,36.3-15.7,46.1-40.3
				c9.8,24.1,27,40.3,45.8,40.3c19.2,0,36.2-16.4,45.9-41.3L-826,467.3z"/>
		</g>
		<g>
			<linearGradient id="svg_2_9_" gradientUnits="userSpaceOnUse" x1="-900.8422" y1="434.381" x2="-627.3961" y2="434.381">
				<stop  offset="0" style="stop-color:#8AB1D5"/>
				<stop  offset="0.5" style="stop-color:#70A3CD"/>
				<stop  offset="0.5132" style="stop-color:#6EA2CC"/>
				<stop  offset="0.7127" style="stop-color:#4F97C5"/>
				<stop  offset="0.882" style="stop-color:#3C90C1"/>
				<stop  offset="1" style="stop-color:#358DBF"/>
			</linearGradient>
			<path id="svg_2_6_" fill="url(#svg_2_9_)" d="M-635.2,467.8c-9.9,15.9-23.3,22.2-38.2,22.2c-18.8,0-36-12.7-45.8-36.8
				c-9.8,24.6-27,36.8-46.1,36.8c-18.8,0-35.8-13-45.7-37.1c-9.8,24.9-27,37.1-46.3,37.1c-13.9,0-26.7-5.2-36.3-19.4l-7.3-86.7
				c10,21.9,25.8,36.1,43.6,36.1c19.3,0,36.5-15.7,46.3-40.5c9.8,24.1,26.8,40.5,45.7,40.5c19.1,0,36.3-15.7,46.1-40.3
				c9.8,24.1,27,40.3,45.8,40.3c19.2,0,36.2-16.4,45.9-41.3L-635.2,467.8z"/>
			<linearGradient id="svg_5_9_" gradientUnits="userSpaceOnUse" x1="-716.8422" y1="433.381" x2="-443.3961" y2="433.381">
				<stop  offset="0" style="stop-color:#8AB1D5"/>
				<stop  offset="0.5" style="stop-color:#70A3CD"/>
				<stop  offset="0.5132" style="stop-color:#6EA2CC"/>
				<stop  offset="0.7127" style="stop-color:#4F97C5"/>
				<stop  offset="0.882" style="stop-color:#3C90C1"/>
				<stop  offset="1" style="stop-color:#358DBF"/>
			</linearGradient>
			<path id="svg_5_6_" fill="url(#svg_5_9_)" d="M-451.2,466.8c-9.9,15.9-23.3,22.2-38.2,22.2c-18.8,0-36-12.7-45.8-36.8
				c-9.8,24.6-27,36.8-46.1,36.8c-18.8,0-35.8-13-45.7-37.1c-9.8,24.9-27,37.1-46.3,37.1c-13.9,0-26.7-5.2-36.3-19.4l-7.3-86.7
				c10,21.9,25.8,36.1,43.6,36.1c19.3,0,36.5-15.7,46.3-40.5c9.8,24.1,26.8,40.5,45.7,40.5c19.1,0,36.3-15.7,46.1-40.3
				c9.8,24.1,27,40.3,45.8,40.3c19.2,0,36.2-16.4,45.9-41.3L-451.2,466.8z"/>
		</g>
		<g>
			<linearGradient id="svg_2_10_" gradientUnits="userSpaceOnUse" x1="-532.8422" y1="435.381" x2="-259.3961" y2="435.381">
				<stop  offset="0" style="stop-color:#8AB1D5"/>
				<stop  offset="0.5" style="stop-color:#70A3CD"/>
				<stop  offset="0.5132" style="stop-color:#6EA2CC"/>
				<stop  offset="0.7127" style="stop-color:#4F97C5"/>
				<stop  offset="0.882" style="stop-color:#3C90C1"/>
				<stop  offset="1" style="stop-color:#358DBF"/>
			</linearGradient>
			<path id="svg_2_5_" fill="url(#svg_2_10_)" d="M-267.2,468.8c-9.9,15.9-23.3,22.2-38.2,22.2c-18.8,0-36-12.7-45.8-36.8
				c-9.8,24.6-27,36.8-46.1,36.8c-18.8,0-35.8-13-45.7-37.1c-9.8,24.9-27,37.1-46.3,37.1c-13.9,0-26.7-5.2-36.3-19.4l-7.3-86.7
				c10,21.9,25.8,36.1,43.6,36.1c19.3,0,36.5-15.7,46.3-40.5c9.8,24.1,26.8,40.5,45.7,40.5c19.1,0,36.3-15.7,46.1-40.3
				c9.8,24.1,27,40.3,45.8,40.3c19.2,0,36.2-16.4,45.9-41.3L-267.2,468.8z"/>
			<linearGradient id="svg_5_10_" gradientUnits="userSpaceOnUse" x1="-348.8422" y1="434.381" x2="-75.3961" y2="434.381">
				<stop  offset="0" style="stop-color:#8AB1D5"/>
				<stop  offset="0.5" style="stop-color:#70A3CD"/>
				<stop  offset="0.5132" style="stop-color:#6EA2CC"/>
				<stop  offset="0.7127" style="stop-color:#4F97C5"/>
				<stop  offset="0.882" style="stop-color:#3C90C1"/>
				<stop  offset="1" style="stop-color:#358DBF"/>
			</linearGradient>
			<path id="svg_5_5_" fill="url(#svg_5_10_)" d="M-83.2,467.8c-9.9,15.9-23.3,22.2-38.2,22.2c-18.8,0-36-12.7-45.8-36.8
				c-9.8,24.6-27,36.8-46.1,36.8c-18.8,0-35.8-13-45.7-37.1c-9.8,24.9-27,37.1-46.3,37.1c-13.9,0-26.7-5.2-36.3-19.4l-7.3-86.7
				c10,21.9,25.8,36.1,43.6,36.1c19.3,0,36.5-15.7,46.3-40.5c9.8,24.1,26.8,40.5,45.7,40.5c19.1,0,36.3-15.7,46.1-40.3
				c9.8,24.1,27,40.3,45.8,40.3c19.2,0,36.2-16.4,45.9-41.3L-83.2,467.8z"/>
		</g>
		<g>
			<linearGradient id="svg_2_11_" gradientUnits="userSpaceOnUse" x1="-166.8422" y1="435.881" x2="106.6039" y2="435.881">
				<stop  offset="0" style="stop-color:#8AB1D5"/>
				<stop  offset="0.5" style="stop-color:#70A3CD"/>
				<stop  offset="0.5132" style="stop-color:#6EA2CC"/>
				<stop  offset="0.7127" style="stop-color:#4F97C5"/>
				<stop  offset="0.882" style="stop-color:#3C90C1"/>
				<stop  offset="1" style="stop-color:#358DBF"/>
			</linearGradient>
			<path id="svg_2_4_" fill="url(#svg_2_11_)" d="M98.8,469.3c-9.9,15.9-23.3,22.2-38.2,22.2c-18.8,0-36-12.7-45.8-36.8
				c-9.8,24.6-27,36.8-46.1,36.8c-18.8,0-35.8-13-45.7-37.1c-9.8,24.9-27,37.1-46.3,37.1c-13.9,0-26.7-5.2-36.3-19.4l-7.3-86.7
				c10,21.9,25.8,36.1,43.6,36.1c19.3,0,36.5-15.7,46.3-40.5c9.8,24.1,26.8,40.5,45.7,40.5c19.1,0,36.3-15.7,46.1-40.3
				c9.8,24.1,27,40.3,45.8,40.3c19.2,0,36.2-16.4,45.9-41.3L98.8,469.3z"/>
			<linearGradient id="svg_5_11_" gradientUnits="userSpaceOnUse" x1="17.1578" y1="434.881" x2="290.6039" y2="434.881">
				<stop  offset="0" style="stop-color:#8AB1D5"/>
				<stop  offset="0.5" style="stop-color:#70A3CD"/>
				<stop  offset="0.5132" style="stop-color:#6EA2CC"/>
				<stop  offset="0.7127" style="stop-color:#4F97C5"/>
				<stop  offset="0.882" style="stop-color:#3C90C1"/>
				<stop  offset="1" style="stop-color:#358DBF"/>
			</linearGradient>
			<path id="svg_5_4_" fill="url(#svg_5_11_)" d="M282.8,468.3c-9.9,15.9-23.3,22.2-38.2,22.2c-18.8,0-36-12.7-45.8-36.8
				c-9.8,24.6-27,36.8-46.1,36.8c-18.8,0-35.8-13-45.7-37.1c-9.8,24.9-27,37.1-46.3,37.1c-13.9,0-26.7-5.2-36.3-19.4l-7.3-86.7
				c10,21.9,25.8,36.1,43.6,36.1c19.3,0,36.5-15.7,46.3-40.5c9.8,24.1,26.8,40.5,45.7,40.5c19.1,0,36.3-15.7,46.1-40.3
				c9.8,24.1,27,40.3,45.8,40.3c19.2,0,36.2-16.4,45.9-41.3L282.8,468.3z"/>
		</g>
	</g>
	<g>
		<g>
			<linearGradient id="svg_9_8_" gradientUnits="userSpaceOnUse" x1="-1268.4233" y1="485.3639" x2="-993.9772" y2="485.3639">
				<stop  offset="0" style="stop-color:#D0E7EA"/>
				<stop  offset="0.5" style="stop-color:#A9D7DE"/>
				<stop  offset="0.7293" style="stop-color:#9FD2DA"/>
				<stop  offset="1" style="stop-color:#98CFD8"/>
			</linearGradient>
			<path id="svg_9_7_" fill="url(#svg_9_8_)" d="M-1001.8,519.7c-10,16.4-23.4,22.8-38.3,22.8c-18.9,0-36.1-13.1-46-37.8
				c-9.8,25.3-27.1,37.8-46.2,37.8c-18.9,0-36-13.4-45.9-38.1c-9.8,25.5-27.1,38.1-46.5,38.1c-14,0-26.8-5.4-36.4-19.9l-7.3-89
				c10,22.5,25.9,37,43.8,37c19.4,0,36.7-16.1,46.5-41.6c9.9,24.7,26.9,41.6,45.9,41.6c19.1,0,36.4-16.1,46.2-41.4
				c9.9,24.7,27.1,41.4,46,41.4c19.3,0,36.4-16.9,46.1-42.4L-1001.8,519.7z"/>
			<linearGradient id="svg_12_8_" gradientUnits="userSpaceOnUse" x1="-1084.965" y1="485.3621" x2="-810.5189" y2="485.3621">
				<stop  offset="0" style="stop-color:#D0E7EA"/>
				<stop  offset="0.5" style="stop-color:#A9D7DE"/>
				<stop  offset="0.7293" style="stop-color:#9FD2DA"/>
				<stop  offset="1" style="stop-color:#98CFD8"/>
			</linearGradient>
			<path id="svg_12_7_" fill="url(#svg_12_8_)" d="M-818.3,519.7c-10,16.4-23.4,22.8-38.3,22.8c-18.9,0-36.1-13.1-46-37.8
				c-9.8,25.3-27.1,37.8-46.2,37.8c-18.9,0-36-13.4-45.9-38.1c-9.8,25.5-27.1,38.1-46.5,38.1c-14,0-26.8-5.4-36.4-19.9l-7.3-89
				c10,22.5,25.9,37,43.8,37c19.4,0,36.7-16.1,46.5-41.6c9.9,24.7,26.9,41.6,45.9,41.6c19.1,0,36.4-16.1,46.2-41.4
				c9.9,24.7,27.1,41.4,46,41.4c19.3,0,36.4-16.9,46.1-42.4L-818.3,519.7z"/>
		</g>
		<g>
			<linearGradient id="svg_9_9_" gradientUnits="userSpaceOnUse" x1="-902.4233" y1="485.3648" x2="-627.9772" y2="485.3648">
				<stop  offset="0" style="stop-color:#D0E7EA"/>
				<stop  offset="0.5" style="stop-color:#A9D7DE"/>
				<stop  offset="0.7293" style="stop-color:#9FD2DA"/>
				<stop  offset="1" style="stop-color:#98CFD8"/>
			</linearGradient>
			<path id="svg_9_6_" fill="url(#svg_9_9_)" d="M-635.8,519.7c-10,16.4-23.4,22.8-38.3,22.8c-18.9,0-36.1-13.1-46-37.8
				c-9.8,25.3-27.1,37.8-46.2,37.8c-18.9,0-36-13.4-45.9-38.1c-9.8,25.5-27.1,38.1-46.5,38.1c-14,0-26.8-5.4-36.4-19.9l-7.3-89
				c10,22.5,25.9,37,43.8,37c19.4,0,36.7-16.1,46.5-41.6c9.9,24.7,26.9,41.6,45.9,41.6c19.1,0,36.4-16.1,46.2-41.4
				c9.9,24.7,27.1,41.4,46,41.4c19.3,0,36.4-16.9,46.1-42.4L-635.8,519.7z"/>
			<linearGradient id="svg_12_9_" gradientUnits="userSpaceOnUse" x1="-718.9649" y1="485.363" x2="-444.5188" y2="485.363">
				<stop  offset="0" style="stop-color:#D0E7EA"/>
				<stop  offset="0.5" style="stop-color:#A9D7DE"/>
				<stop  offset="0.7293" style="stop-color:#9FD2DA"/>
				<stop  offset="1" style="stop-color:#98CFD8"/>
			</linearGradient>
			<path id="svg_12_6_" fill="url(#svg_12_9_)" d="M-452.3,519.7c-10,16.4-23.4,22.8-38.3,22.8c-18.9,0-36.1-13.1-46-37.8
				c-9.8,25.3-27.1,37.8-46.2,37.8c-18.9,0-36-13.4-45.9-38.1c-9.8,25.5-27.1,38.1-46.5,38.1c-14,0-26.8-5.4-36.4-19.9l-7.3-89
				c10,22.5,25.9,37,43.8,37c19.4,0,36.7-16.1,46.5-41.6c9.9,24.7,26.9,41.6,45.9,41.6c19.1,0,36.4-16.1,46.2-41.4
				c9.9,24.7,27.1,41.4,46,41.4c19.3,0,36.4-16.9,46.1-42.4L-452.3,519.7z"/>
		</g>
		<g>
			<linearGradient id="svg_9_10_" gradientUnits="userSpaceOnUse" x1="-535.3281" y1="486.363" x2="-260.882" y2="486.363">
				<stop  offset="0" style="stop-color:#D0E7EA"/>
				<stop  offset="0.5" style="stop-color:#A9D7DE"/>
				<stop  offset="0.7293" style="stop-color:#9FD2DA"/>
				<stop  offset="1" style="stop-color:#98CFD8"/>
			</linearGradient>
			<path id="svg_9_5_" fill="url(#svg_9_10_)" d="M-268.7,520.7c-10,16.4-23.4,22.8-38.3,22.8c-18.9,0-36.1-13.1-46-37.8
				c-9.8,25.3-27.1,37.8-46.2,37.8c-18.9,0-36-13.4-45.9-38.1c-9.8,25.5-27.1,38.1-46.5,38.1c-14,0-26.8-5.4-36.4-19.9l-7.3-89
				c10,22.5,25.9,37,43.8,37c19.4,0,36.7-16.1,46.5-41.6c9.9,24.7,26.9,41.6,45.9,41.6c19.1,0,36.4-16.1,46.2-41.4
				c9.9,24.7,27.1,41.4,46,41.4c19.3,0,36.4-16.9,46.1-42.4L-268.7,520.7z"/>
			<linearGradient id="svg_12_10_" gradientUnits="userSpaceOnUse" x1="-351.8697" y1="486.3612" x2="-77.4236" y2="486.3612">
				<stop  offset="0" style="stop-color:#D0E7EA"/>
				<stop  offset="0.5" style="stop-color:#A9D7DE"/>
				<stop  offset="0.7293" style="stop-color:#9FD2DA"/>
				<stop  offset="1" style="stop-color:#98CFD8"/>
			</linearGradient>
			<path id="svg_12_5_" fill="url(#svg_12_10_)" d="M-85.2,520.7c-10,16.4-23.4,22.8-38.3,22.8c-18.9,0-36.1-13.1-46-37.8
				c-9.8,25.3-27.1,37.8-46.2,37.8c-18.9,0-36-13.4-45.9-38.1c-9.8,25.5-27.1,38.1-46.5,38.1c-14,0-26.8-5.4-36.4-19.9l-7.3-89
				c10,22.5,25.9,37,43.8,37c19.4,0,36.7-16.1,46.5-41.6c9.9,24.7,26.9,41.6,45.9,41.6c19.1,0,36.4-16.1,46.2-41.4
				c9.9,24.7,27.1,41.4,46,41.4c19.3,0,36.4-16.9,46.1-42.4L-85.2,520.7z"/>
		</g>
		<g>
			<linearGradient id="svg_9_11_" gradientUnits="userSpaceOnUse" x1="-169.8463" y1="486.3639" x2="104.5998" y2="486.3639">
				<stop  offset="0" style="stop-color:#D0E7EA"/>
				<stop  offset="0.5" style="stop-color:#A9D7DE"/>
				<stop  offset="0.7293" style="stop-color:#9FD2DA"/>
				<stop  offset="1" style="stop-color:#98CFD8"/>
			</linearGradient>
			<path id="svg_9_4_" fill="url(#svg_9_11_)" d="M96.8,520.7c-10,16.4-23.4,22.8-38.3,22.8c-18.9,0-36.1-13.1-46-37.8
				c-9.8,25.3-27.1,37.8-46.2,37.8c-18.9,0-36-13.4-45.9-38.1c-9.8,25.5-27.1,38.1-46.5,38.1c-14,0-26.8-5.4-36.4-19.9l-7.3-89
				c10,22.5,25.9,37,43.8,37c19.4,0,36.7-16.1,46.5-41.6c9.9,24.7,26.9,41.6,45.9,41.6c19.1,0,36.4-16.1,46.2-41.4
				c9.9,24.7,27.1,41.4,46,41.4c19.3,0,36.4-16.9,46.1-42.4L96.8,520.7z"/>
			<linearGradient id="svg_12_11_" gradientUnits="userSpaceOnUse" x1="13.6121" y1="486.3621" x2="288.0582" y2="486.3621">
				<stop  offset="0" style="stop-color:#D0E7EA"/>
				<stop  offset="0.5" style="stop-color:#A9D7DE"/>
				<stop  offset="0.7293" style="stop-color:#9FD2DA"/>
				<stop  offset="1" style="stop-color:#98CFD8"/>
			</linearGradient>
			<path id="svg_12_4_" fill="url(#svg_12_11_)" d="M280.3,520.7c-10,16.4-23.4,22.8-38.3,22.8c-18.9,0-36.1-13.1-46-37.8
				c-9.8,25.3-27.1,37.8-46.2,37.8c-18.9,0-36-13.4-45.9-38.1c-9.8,25.5-27.1,38.1-46.5,38.1c-14,0-26.8-5.4-36.4-19.9l-7.3-89
				c10,22.5,25.9,37,43.8,37c19.4,0,36.7-16.1,46.5-41.6c9.9,24.7,26.9,41.6,45.9,41.6c19.1,0,36.4-16.1,46.2-41.4
				c9.9,24.7,27.1,41.4,46,41.4c19.3,0,36.4-16.9,46.1-42.4L280.3,520.7z"/>
		</g>
	</g>
	<g>
		<g>
			<linearGradient id="path6712_12_" gradientUnits="userSpaceOnUse" x1="-1266.3015" y1="517.5909" x2="-991.8557" y2="517.5909">
				<stop  offset="0" style="stop-color:#77B2C6"/>
				<stop  offset="0.5" style="stop-color:#349AB4"/>
				<stop  offset="1" style="stop-color:#0089A6"/>
			</linearGradient>
			<path id="path6712" fill="url(#path6712_12_)" d="M-999.7,549.5c-10,15.2-23.4,21.2-38.3,21.2c-18.9,0-36.1-12.2-46-35.2
				c-9.8,23.5-27.1,35.2-46.2,35.2c-18.9,0-36-12.4-45.9-35.4c-9.8,23.7-27.1,35.4-46.5,35.4c-14,0-26.8-5-36.4-18.5l-7.3-82.8
				c10,20.9,25.9,34.5,43.8,34.5c19.4,0,36.7-15,46.5-38.7c9.9,23,26.9,38.7,45.9,38.7c19.1,0,36.4-15,46.2-38.5
				c9.9,23,27.1,38.5,46,38.5c19.3,0,36.4-15.7,46.1-39.4L-999.7,549.5z"/>
			<linearGradient id="svg_1_12_" gradientUnits="userSpaceOnUse" x1="-1082.0726" y1="516.9053" x2="-807.6266" y2="516.9053">
				<stop  offset="0" style="stop-color:#77B2C6"/>
				<stop  offset="0.5" style="stop-color:#349AB4"/>
				<stop  offset="1" style="stop-color:#0089A6"/>
			</linearGradient>
			<path id="svg_1" fill="url(#svg_1_12_)" d="M-815.4,548.9c-10,15.2-23.4,21.2-38.3,21.2c-18.9,0-36.1-12.2-46-35.2
				c-9.8,23.5-27.1,35.2-46.2,35.2c-18.9,0-36-12.4-45.9-35.4c-9.8,23.7-27.1,35.4-46.5,35.4c-14,0-26.8-5-36.4-18.5l-7.3-82.8
				c10,20.9,25.9,34.5,43.8,34.5c19.4,0,36.7-15,46.5-38.7c9.9,23,26.9,38.7,45.9,38.7c19.1,0,36.4-15,46.2-38.5
				c9.9,23,27.1,38.5,46,38.5c19.3,0,36.4-15.7,46.1-39.4L-815.4,548.9z"/>
		</g>
		<g>
			<linearGradient id="path6712_13_" gradientUnits="userSpaceOnUse" x1="-897.2646" y1="517.9336" x2="-622.8187" y2="517.9336">
				<stop  offset="0" style="stop-color:#77B2C6"/>
				<stop  offset="0.5" style="stop-color:#349AB4"/>
				<stop  offset="1" style="stop-color:#0089A6"/>
			</linearGradient>
			<path id="path6712_1_" fill="url(#path6712_13_)" d="M-630.6,549.9c-10,15.2-23.4,21.2-38.3,21.2c-18.9,0-36.1-12.2-46-35.2
				c-9.8,23.5-27.1,35.2-46.2,35.2c-18.9,0-36-12.4-45.9-35.4c-9.8,23.7-27.1,35.4-46.5,35.4c-14,0-26.8-5-36.4-18.5l-7.3-82.8
				c10,20.9,25.9,34.5,43.8,34.5c19.4,0,36.7-15,46.5-38.7c9.9,23,26.9,38.7,45.9,38.7c19.1,0,36.4-15,46.2-38.5
				c9.9,23,27.1,38.5,46,38.5c19.3,0,36.4-15.7,46.1-39.4L-630.6,549.9z"/>
			<linearGradient id="svg_1_13_" gradientUnits="userSpaceOnUse" x1="-713.0358" y1="517.248" x2="-438.5897" y2="517.248">
				<stop  offset="0" style="stop-color:#77B2C6"/>
				<stop  offset="0.5" style="stop-color:#349AB4"/>
				<stop  offset="1" style="stop-color:#0089A6"/>
			</linearGradient>
			<path id="svg_1_1_" fill="url(#svg_1_13_)" d="M-446.4,549.2c-10,15.2-23.4,21.2-38.3,21.2c-18.9,0-36.1-12.2-46-35.2
				c-9.8,23.5-27.1,35.2-46.2,35.2c-18.9,0-36-12.4-45.9-35.4c-9.8,23.7-27.1,35.4-46.5,35.4c-14,0-26.8-5-36.4-18.5l-7.3-82.8
				c10,20.9,25.9,34.5,43.8,34.5c19.4,0,36.7-15,46.5-38.7c9.9,23,26.9,38.7,45.9,38.7c19.1,0,36.4-15,46.2-38.5
				c9.9,23,27.1,38.5,46,38.5c19.3,0,36.4-15.7,46.1-39.4L-446.4,549.2z"/>
		</g>
		<g>
			<linearGradient id="path6712_14_" gradientUnits="userSpaceOnUse" x1="-525.2274" y1="518.2763" x2="-250.7815" y2="518.2763">
				<stop  offset="0" style="stop-color:#77B2C6"/>
				<stop  offset="0.5" style="stop-color:#349AB4"/>
				<stop  offset="1" style="stop-color:#0089A6"/>
			</linearGradient>
			<path id="path6712_2_" fill="url(#path6712_14_)" d="M-258.6,550.2c-10,15.2-23.4,21.2-38.3,21.2c-18.9,0-36.1-12.2-46-35.2
				c-9.8,23.5-27.1,35.2-46.2,35.2c-18.9,0-36-12.4-45.9-35.4c-9.8,23.7-27.1,35.4-46.5,35.4c-14,0-26.8-5-36.4-18.5l-7.3-82.8
				c10,20.9,25.9,34.5,43.8,34.5c19.4,0,36.7-15,46.5-38.7c9.9,23,26.9,38.7,45.9,38.7c19.1,0,36.4-15,46.2-38.5
				c9.9,23,27.1,38.5,46,38.5c19.3,0,36.4-15.7,46.1-39.4L-258.6,550.2z"/>
			<linearGradient id="svg_1_14_" gradientUnits="userSpaceOnUse" x1="-340.9986" y1="517.5908" x2="-66.5525" y2="517.5908">
				<stop  offset="0" style="stop-color:#77B2C6"/>
				<stop  offset="0.5" style="stop-color:#349AB4"/>
				<stop  offset="1" style="stop-color:#0089A6"/>
			</linearGradient>
			<path id="svg_1_2_" fill="url(#svg_1_14_)" d="M-74.3,549.5c-10,15.2-23.4,21.2-38.3,21.2c-18.9,0-36.1-12.2-46-35.2
				c-9.8,23.5-27.1,35.2-46.2,35.2c-18.9,0-36-12.4-45.9-35.4c-9.8,23.7-27.1,35.4-46.5,35.4c-14,0-26.8-5-36.4-18.5l-7.3-82.8
				c10,20.9,25.9,34.5,43.8,34.5c19.4,0,36.7-15,46.5-38.7c9.9,23,26.9,38.7,45.9,38.7c19.1,0,36.4-15,46.2-38.5
				c9.9,23,27.1,38.5,46,38.5c19.3,0,36.4-15.7,46.1-39.4L-74.3,549.5z"/>
		</g>
		<g>
			<linearGradient id="path6712_15_" gradientUnits="userSpaceOnUse" x1="-162.1911" y1="518.619" x2="112.2548" y2="518.619">
				<stop  offset="0" style="stop-color:#77B2C6"/>
				<stop  offset="0.5" style="stop-color:#349AB4"/>
				<stop  offset="1" style="stop-color:#0089A6"/>
			</linearGradient>
			<path id="path6712_3_" fill="url(#path6712_15_)" d="M104.5,550.6c-10,15.2-23.4,21.2-38.3,21.2c-18.9,0-36.1-12.2-46-35.2
				c-9.8,23.5-27.1,35.2-46.2,35.2c-18.9,0-36-12.4-45.9-35.4c-9.8,23.7-27.1,35.4-46.5,35.4c-14,0-26.8-5-36.4-18.5l-7.3-82.8
				c10,20.9,25.9,34.5,43.8,34.5c19.4,0,36.7-15,46.5-38.7c9.9,23,26.9,38.7,45.9,38.7c19.1,0,36.4-15,46.2-38.5
				c9.9,23,27.1,38.5,46,38.5c19.3,0,36.4-15.7,46.1-39.4L104.5,550.6z"/>
			<linearGradient id="svg_1_15_" gradientUnits="userSpaceOnUse" x1="22.0377" y1="517.9335" x2="296.4838" y2="517.9335">
				<stop  offset="0" style="stop-color:#77B2C6"/>
				<stop  offset="0.5" style="stop-color:#349AB4"/>
				<stop  offset="1" style="stop-color:#0089A6"/>
			</linearGradient>
			<path id="svg_1_3_" fill="url(#svg_1_15_)" d="M288.7,549.9c-10,15.2-23.4,21.2-38.3,21.2c-18.9,0-36.1-12.2-46-35.2
				c-9.8,23.5-27.1,35.2-46.2,35.2c-18.9,0-36-12.4-45.9-35.4c-9.8,23.7-27.1,35.4-46.5,35.4c-14,0-26.8-5-36.4-18.5L22,469.8
				c10,20.9,25.9,34.5,43.8,34.5c19.4,0,36.7-15,46.5-38.7c9.9,23,26.9,38.7,45.9,38.7c19.1,0,36.4-15,46.2-38.5
				c9.9,23,27.1,38.5,46,38.5c19.3,0,36.4-15.7,46.1-39.4L288.7,549.9z"/>
		</g>
	</g>
	<g>
		<g>
			<linearGradient id="svg_2_12_" gradientUnits="userSpaceOnUse" x1="-1282.9999" y1="558.8948" x2="-1009.5538" y2="558.8948">
				<stop  offset="0" style="stop-color:#5080B1"/>
				<stop  offset="0.1178" style="stop-color:#477DAE"/>
				<stop  offset="0.3137" style="stop-color:#2D73A7"/>
				<stop  offset="0.5621" style="stop-color:#04649C"/>
				<stop  offset="0.5843" style="stop-color:#00639B"/>
				<stop  offset="1" style="stop-color:#004E8C"/>
			</linearGradient>
			<path id="svg_2" fill="url(#svg_2_12_)" d="M-1017.3,592.4c-9.9,15.9-23.3,22.2-38.2,22.2c-18.8,0-36-12.7-45.8-36.8
				c-9.8,24.6-27,36.8-46.1,36.8c-18.8,0-35.8-13-45.7-37.1c-9.8,24.9-27,37.1-46.3,37.1c-13.9,0-26.7-5.2-36.3-19.4l-7.3-86.7
				c10,21.9,25.8,36.1,43.6,36.1c19.3,0,36.5-15.7,46.3-40.5c9.8,24.1,26.8,40.5,45.7,40.5c19.1,0,36.3-15.7,46.1-40.3
				c9.8,24.1,27,40.3,45.8,40.3c19.2,0,36.2-16.4,45.9-41.3L-1017.3,592.4z"/>
			<linearGradient id="svg_5_12_" gradientUnits="userSpaceOnUse" x1="-1098.9999" y1="557.8948" x2="-825.5538" y2="557.8948">
				<stop  offset="0" style="stop-color:#5080B1"/>
				<stop  offset="0.1178" style="stop-color:#477DAE"/>
				<stop  offset="0.3137" style="stop-color:#2D73A7"/>
				<stop  offset="0.5621" style="stop-color:#04649C"/>
				<stop  offset="0.5843" style="stop-color:#00639B"/>
				<stop  offset="1" style="stop-color:#004E8C"/>
			</linearGradient>
			<path id="svg_5" fill="url(#svg_5_12_)" d="M-833.3,591.4c-9.9,15.9-23.3,22.2-38.2,22.2c-18.8,0-36-12.7-45.8-36.8
				c-9.8,24.6-27,36.8-46.1,36.8c-18.8,0-35.8-13-45.7-37.1c-9.8,24.9-27,37.1-46.3,37.1c-13.9,0-26.7-5.2-36.3-19.4l-7.3-86.7
				c10,21.9,25.8,36.1,43.6,36.1c19.3,0,36.5-15.7,46.3-40.5c9.8,24.1,26.8,40.5,45.7,40.5c19.1,0,36.3-15.7,46.1-40.3
				c9.8,24.1,27,40.3,45.8,40.3c19.2,0,36.2-16.4,45.9-41.3L-833.3,591.4z"/>
		</g>
		<g>
			<linearGradient id="svg_2_13_" gradientUnits="userSpaceOnUse" x1="-908.1305" y1="558.3948" x2="-634.6844" y2="558.3948">
				<stop  offset="0" style="stop-color:#5080B1"/>
				<stop  offset="0.1178" style="stop-color:#477DAE"/>
				<stop  offset="0.3137" style="stop-color:#2D73A7"/>
				<stop  offset="0.5621" style="stop-color:#04649C"/>
				<stop  offset="0.5843" style="stop-color:#00639B"/>
				<stop  offset="1" style="stop-color:#004E8C"/>
			</linearGradient>
			<path id="svg_2_1_" fill="url(#svg_2_13_)" d="M-642.5,591.9c-9.9,15.9-23.3,22.2-38.2,22.2c-18.8,0-36-12.7-45.8-36.8
				c-9.8,24.6-27,36.8-46.1,36.8c-18.8,0-35.8-13-45.7-37.1c-9.8,24.9-27,37.1-46.3,37.1c-13.9,0-26.7-5.2-36.3-19.4l-7.3-86.7
				c10,21.9,25.8,36.1,43.6,36.1c19.3,0,36.5-15.7,46.3-40.5c9.8,24.1,26.8,40.5,45.7,40.5c19.1,0,36.3-15.7,46.1-40.3
				c9.8,24.1,27,40.3,45.8,40.3c19.2,0,36.2-16.4,45.9-41.3L-642.5,591.9z"/>
			<linearGradient id="svg_5_13_" gradientUnits="userSpaceOnUse" x1="-724.1304" y1="557.3948" x2="-450.6844" y2="557.3948">
				<stop  offset="0" style="stop-color:#5080B1"/>
				<stop  offset="0.1178" style="stop-color:#477DAE"/>
				<stop  offset="0.3137" style="stop-color:#2D73A7"/>
				<stop  offset="0.5621" style="stop-color:#04649C"/>
				<stop  offset="0.5843" style="stop-color:#00639B"/>
				<stop  offset="1" style="stop-color:#004E8C"/>
			</linearGradient>
			<path id="svg_5_1_" fill="url(#svg_5_13_)" d="M-458.5,590.9c-9.9,15.9-23.3,22.2-38.2,22.2c-18.8,0-36-12.7-45.8-36.8
				c-9.8,24.6-27,36.8-46.1,36.8c-18.8,0-35.8-13-45.7-37.1c-9.8,24.9-27,37.1-46.3,37.1c-13.9,0-26.7-5.2-36.3-19.4l-7.3-86.7
				c10,21.9,25.8,36.1,43.6,36.1c19.3,0,36.5-15.7,46.3-40.5c9.8,24.1,26.8,40.5,45.7,40.5c19.1,0,36.3-15.7,46.1-40.3
				c9.8,24.1,27,40.3,45.8,40.3c19.2,0,36.2-16.4,45.9-41.3L-458.5,590.9z"/>
		</g>
		<g>
			<linearGradient id="svg_2_14_" gradientUnits="userSpaceOnUse" x1="-540.1305" y1="559.3948" x2="-266.6844" y2="559.3948">
				<stop  offset="0" style="stop-color:#5080B1"/>
				<stop  offset="0.1178" style="stop-color:#477DAE"/>
				<stop  offset="0.3137" style="stop-color:#2D73A7"/>
				<stop  offset="0.5621" style="stop-color:#04649C"/>
				<stop  offset="0.5843" style="stop-color:#00639B"/>
				<stop  offset="1" style="stop-color:#004E8C"/>
			</linearGradient>
			<path id="svg_2_2_" fill="url(#svg_2_14_)" d="M-274.5,592.9c-9.9,15.9-23.3,22.2-38.2,22.2c-18.8,0-36-12.7-45.8-36.8
				c-9.8,24.6-27,36.8-46.1,36.8c-18.8,0-35.8-13-45.7-37.1c-9.8,24.9-27,37.1-46.3,37.1c-13.9,0-26.7-5.2-36.3-19.4l-7.3-86.7
				c10,21.9,25.8,36.1,43.6,36.1c19.3,0,36.5-15.7,46.3-40.5c9.8,24.1,26.8,40.5,45.7,40.5c19.1,0,36.3-15.7,46.1-40.3
				c9.8,24.1,27,40.3,45.8,40.3c19.2,0,36.2-16.4,45.9-41.3L-274.5,592.9z"/>
			<linearGradient id="svg_5_14_" gradientUnits="userSpaceOnUse" x1="-356.1305" y1="558.3948" x2="-82.6844" y2="558.3948">
				<stop  offset="0" style="stop-color:#5080B1"/>
				<stop  offset="0.1178" style="stop-color:#477DAE"/>
				<stop  offset="0.3137" style="stop-color:#2D73A7"/>
				<stop  offset="0.5621" style="stop-color:#04649C"/>
				<stop  offset="0.5843" style="stop-color:#00639B"/>
				<stop  offset="1" style="stop-color:#004E8C"/>
			</linearGradient>
			<path id="svg_5_2_" fill="url(#svg_5_14_)" d="M-90.5,591.9c-9.9,15.9-23.3,22.2-38.2,22.2c-18.8,0-36-12.7-45.8-36.8
				c-9.8,24.6-27,36.8-46.1,36.8c-18.8,0-35.8-13-45.7-37.1c-9.8,24.9-27,37.1-46.3,37.1c-13.9,0-26.7-5.2-36.3-19.4l-7.3-86.7
				c10,21.9,25.8,36.1,43.6,36.1c19.3,0,36.5-15.7,46.3-40.5c9.8,24.1,26.8,40.5,45.7,40.5c19.1,0,36.3-15.7,46.1-40.3
				c9.8,24.1,27,40.3,45.8,40.3c19.2,0,36.2-16.4,45.9-41.3L-90.5,591.9z"/>
		</g>
		<g>
			<linearGradient id="svg_2_15_" gradientUnits="userSpaceOnUse" x1="-174.1305" y1="559.8948" x2="99.3156" y2="559.8948">
				<stop  offset="0" style="stop-color:#5080B1"/>
				<stop  offset="0.1178" style="stop-color:#477DAE"/>
				<stop  offset="0.3137" style="stop-color:#2D73A7"/>
				<stop  offset="0.5621" style="stop-color:#04649C"/>
				<stop  offset="0.5843" style="stop-color:#00639B"/>
				<stop  offset="1" style="stop-color:#004E8C"/>
			</linearGradient>
			<path id="svg_2_3_" fill="url(#svg_2_15_)" d="M91.5,593.4c-9.9,15.9-23.3,22.2-38.2,22.2c-18.8,0-36-12.7-45.8-36.8
				c-9.8,24.6-27,36.8-46.1,36.8c-18.8,0-35.8-13-45.7-37.1c-9.8,24.9-27,37.1-46.3,37.1c-13.9,0-26.7-5.2-36.3-19.4l-7.3-86.7
				c10,21.9,25.8,36.1,43.6,36.1c19.3,0,36.5-15.7,46.3-40.5c9.8,24.1,26.8,40.5,45.7,40.5c19.1,0,36.3-15.7,46.1-40.3
				c9.8,24.1,27,40.3,45.8,40.3c19.2,0,36.2-16.4,45.9-41.3L91.5,593.4z"/>
			<linearGradient id="svg_5_15_" gradientUnits="userSpaceOnUse" x1="9.8696" y1="558.8948" x2="283.3156" y2="558.8948">
				<stop  offset="0" style="stop-color:#5080B1"/>
				<stop  offset="0.1178" style="stop-color:#477DAE"/>
				<stop  offset="0.3137" style="stop-color:#2D73A7"/>
				<stop  offset="0.5621" style="stop-color:#04649C"/>
				<stop  offset="0.5843" style="stop-color:#00639B"/>
				<stop  offset="1" style="stop-color:#004E8C"/>
			</linearGradient>
			<path id="svg_5_3_" fill="url(#svg_5_15_)" d="M275.5,592.4c-9.9,15.9-23.3,22.2-38.2,22.2c-18.8,0-36-12.7-45.8-36.8
				c-9.8,24.6-27,36.8-46.1,36.8c-18.8,0-35.8-13-45.7-37.1c-9.8,24.9-27,37.1-46.3,37.1c-13.9,0-26.7-5.2-36.3-19.4l-7.3-86.7
				c10,21.9,25.8,36.1,43.6,36.1c19.3,0,36.5-15.7,46.3-40.5c9.8,24.1,26.8,40.5,45.7,40.5c19.1,0,36.3-15.7,46.1-40.3
				c9.8,24.1,27,40.3,45.8,40.3c19.2,0,36.2-16.4,45.9-41.3L275.5,592.4z"/>
		</g>
	</g>
	<g>
		<g>
			<linearGradient id="svg_9_12_" gradientUnits="userSpaceOnUse" x1="-1275.7117" y1="615.3777" x2="-1001.2655" y2="615.3777">
				<stop  offset="0" style="stop-color:#B1DAE0"/>
				<stop  offset="0.5" style="stop-color:#82C7D1"/>
				<stop  offset="0.6217" style="stop-color:#75C3CE"/>
				<stop  offset="0.8445" style="stop-color:#62BCC9"/>
				<stop  offset="1" style="stop-color:#5BBAC7"/>
			</linearGradient>
			<path id="svg_9" fill="url(#svg_9_12_)" d="M-1009.1,649.7c-10,16.4-23.4,22.8-38.3,22.8c-18.9,0-36.1-13.1-46-37.8
				c-9.8,25.3-27.1,37.8-46.2,37.8c-18.9,0-36-13.4-45.9-38.1c-9.8,25.5-27.1,38.1-46.5,38.1c-14,0-26.8-5.4-36.4-19.9l-7.3-89
				c10,22.5,25.9,37,43.8,37c19.4,0,36.7-16.1,46.5-41.6c9.9,24.7,26.9,41.6,45.9,41.6c19.1,0,36.4-16.1,46.2-41.4
				c9.9,24.7,27.1,41.4,46,41.4c19.3,0,36.4-16.9,46.1-42.4L-1009.1,649.7z"/>
			<linearGradient id="svg_12_12_" gradientUnits="userSpaceOnUse" x1="-1092.2532" y1="615.3759" x2="-817.8071" y2="615.3759">
				<stop  offset="0" style="stop-color:#B1DAE0"/>
				<stop  offset="0.5" style="stop-color:#82C7D1"/>
				<stop  offset="0.6217" style="stop-color:#75C3CE"/>
				<stop  offset="0.8445" style="stop-color:#62BCC9"/>
				<stop  offset="1" style="stop-color:#5BBAC7"/>
			</linearGradient>
			<path id="svg_12" fill="url(#svg_12_12_)" d="M-825.6,649.7c-10,16.4-23.4,22.8-38.3,22.8c-18.9,0-36.1-13.1-46-37.8
				c-9.8,25.3-27.1,37.8-46.2,37.8c-18.9,0-36-13.4-45.9-38.1c-9.8,25.5-27.1,38.1-46.5,38.1c-14,0-26.8-5.4-36.4-19.9l-7.3-89
				c10,22.5,25.9,37,43.8,37c19.4,0,36.7-16.1,46.5-41.6c9.9,24.7,26.9,41.6,45.9,41.6c19.1,0,36.4-16.1,46.2-41.4
				c9.9,24.7,27.1,41.4,46,41.4c19.3,0,36.4-16.9,46.1-42.4L-825.6,649.7z"/>
		</g>
		<g>
			<linearGradient id="svg_9_13_" gradientUnits="userSpaceOnUse" x1="-909.7116" y1="615.3786" x2="-635.2655" y2="615.3786">
				<stop  offset="0" style="stop-color:#B1DAE0"/>
				<stop  offset="0.5" style="stop-color:#82C7D1"/>
				<stop  offset="0.6217" style="stop-color:#75C3CE"/>
				<stop  offset="0.8445" style="stop-color:#62BCC9"/>
				<stop  offset="1" style="stop-color:#5BBAC7"/>
			</linearGradient>
			<path id="svg_9_1_" fill="url(#svg_9_13_)" d="M-643.1,649.7c-10,16.4-23.4,22.8-38.3,22.8c-18.9,0-36.1-13.1-46-37.8
				c-9.8,25.3-27.1,37.8-46.2,37.8c-18.9,0-36-13.4-45.9-38.1c-9.8,25.5-27.1,38.1-46.5,38.1c-14,0-26.8-5.4-36.4-19.9l-7.3-89
				c10,22.5,25.9,37,43.8,37c19.4,0,36.7-16.1,46.5-41.6c9.9,24.7,26.9,41.6,45.9,41.6c19.1,0,36.4-16.1,46.2-41.4
				c9.9,24.7,27.1,41.4,46,41.4c19.3,0,36.4-16.9,46.1-42.4L-643.1,649.7z"/>
			<linearGradient id="svg_12_13_" gradientUnits="userSpaceOnUse" x1="-726.2532" y1="615.3768" x2="-451.8071" y2="615.3768">
				<stop  offset="0" style="stop-color:#B1DAE0"/>
				<stop  offset="0.5" style="stop-color:#82C7D1"/>
				<stop  offset="0.6217" style="stop-color:#75C3CE"/>
				<stop  offset="0.8445" style="stop-color:#62BCC9"/>
				<stop  offset="1" style="stop-color:#5BBAC7"/>
			</linearGradient>
			<path id="svg_12_1_" fill="url(#svg_12_13_)" d="M-459.6,649.7c-10,16.4-23.4,22.8-38.3,22.8c-18.9,0-36.1-13.1-46-37.8
				c-9.8,25.3-27.1,37.8-46.2,37.8c-18.9,0-36-13.4-45.9-38.1c-9.8,25.5-27.1,38.1-46.5,38.1c-14,0-26.8-5.4-36.4-19.9l-7.3-89
				c10,22.5,25.9,37,43.8,37c19.4,0,36.7-16.1,46.5-41.6c9.9,24.7,26.9,41.6,45.9,41.6c19.1,0,36.4-16.1,46.2-41.4
				c9.9,24.7,27.1,41.4,46,41.4c19.3,0,36.4-16.9,46.1-42.4L-459.6,649.7z"/>
		</g>
		<g>
			<linearGradient id="svg_9_14_" gradientUnits="userSpaceOnUse" x1="-542.6164" y1="616.3768" x2="-268.1703" y2="616.3768">
				<stop  offset="0" style="stop-color:#B1DAE0"/>
				<stop  offset="0.5" style="stop-color:#82C7D1"/>
				<stop  offset="0.6217" style="stop-color:#75C3CE"/>
				<stop  offset="0.8445" style="stop-color:#62BCC9"/>
				<stop  offset="1" style="stop-color:#5BBAC7"/>
			</linearGradient>
			<path id="svg_9_2_" fill="url(#svg_9_14_)" d="M-276,650.7c-10,16.4-23.4,22.8-38.3,22.8c-18.9,0-36.1-13.1-46-37.8
				c-9.8,25.3-27.1,37.8-46.2,37.8c-18.9,0-36-13.4-45.9-38.1c-9.8,25.5-27.1,38.1-46.5,38.1c-14,0-26.8-5.4-36.4-19.9l-7.3-89
				c10,22.5,25.9,37,43.8,37c19.4,0,36.7-16.1,46.5-41.6c9.9,24.7,26.9,41.6,45.9,41.6c19.1,0,36.4-16.1,46.2-41.4
				c9.9,24.7,27.1,41.4,46,41.4c19.3,0,36.4-16.9,46.1-42.4L-276,650.7z"/>
			<linearGradient id="svg_12_14_" gradientUnits="userSpaceOnUse" x1="-359.158" y1="616.375" x2="-84.7119" y2="616.375">
				<stop  offset="0" style="stop-color:#B1DAE0"/>
				<stop  offset="0.5" style="stop-color:#82C7D1"/>
				<stop  offset="0.6217" style="stop-color:#75C3CE"/>
				<stop  offset="0.8445" style="stop-color:#62BCC9"/>
				<stop  offset="1" style="stop-color:#5BBAC7"/>
			</linearGradient>
			<path id="svg_12_2_" fill="url(#svg_12_14_)" d="M-92.5,650.7c-10,16.4-23.4,22.8-38.3,22.8c-18.9,0-36.1-13.1-46-37.8
				c-9.8,25.3-27.1,37.8-46.2,37.8c-18.9,0-36-13.4-45.9-38.1c-9.8,25.5-27.1,38.1-46.5,38.1c-14,0-26.8-5.4-36.4-19.9l-7.3-89
				c10,22.5,25.9,37,43.8,37c19.4,0,36.7-16.1,46.5-41.6c9.9,24.7,26.9,41.6,45.9,41.6c19.1,0,36.4-16.1,46.2-41.4
				c9.9,24.7,27.1,41.4,46,41.4c19.3,0,36.4-16.9,46.1-42.4L-92.5,650.7z"/>
		</g>
		<g>
			<linearGradient id="svg_9_15_" gradientUnits="userSpaceOnUse" x1="-177.1346" y1="616.3777" x2="97.3115" y2="616.3777">
				<stop  offset="0" style="stop-color:#B1DAE0"/>
				<stop  offset="0.5" style="stop-color:#82C7D1"/>
				<stop  offset="0.6217" style="stop-color:#75C3CE"/>
				<stop  offset="0.8445" style="stop-color:#62BCC9"/>
				<stop  offset="1" style="stop-color:#5BBAC7"/>
			</linearGradient>
			<path id="svg_9_3_" fill="url(#svg_9_15_)" d="M89.5,650.7c-10,16.4-23.4,22.8-38.3,22.8c-18.9,0-36.1-13.1-46-37.8
				c-9.8,25.3-27.1,37.8-46.2,37.8c-18.9,0-36-13.4-45.9-38.1c-9.8,25.5-27.1,38.1-46.5,38.1c-14,0-26.8-5.4-36.4-19.9l-7.3-89
				c10,22.5,25.9,37,43.8,37c19.4,0,36.7-16.1,46.5-41.6c9.9,24.7,26.9,41.6,45.9,41.6c19.1,0,36.4-16.1,46.2-41.4
				c9.9,24.7,27.1,41.4,46,41.4c19.3,0,36.4-16.9,46.1-42.4L89.5,650.7z"/>
			<linearGradient id="svg_12_15_" gradientUnits="userSpaceOnUse" x1="6.3238" y1="616.3759" x2="280.7699" y2="616.3759">
				<stop  offset="0" style="stop-color:#B1DAE0"/>
				<stop  offset="0.5" style="stop-color:#82C7D1"/>
				<stop  offset="0.6217" style="stop-color:#75C3CE"/>
				<stop  offset="0.8445" style="stop-color:#62BCC9"/>
				<stop  offset="1" style="stop-color:#5BBAC7"/>
			</linearGradient>
			<path id="svg_12_3_" fill="url(#svg_12_15_)" d="M273,650.7c-10,16.4-23.4,22.8-38.3,22.8c-18.9,0-36.1-13.1-46-37.8
				c-9.8,25.3-27.1,37.8-46.2,37.8c-18.9,0-36-13.4-45.9-38.1c-9.8,25.5-27.1,38.1-46.5,38.1c-14,0-26.8-5.4-36.4-19.9l-7.3-89
				c10,22.5,25.9,37,43.8,37c19.4,0,36.7-16.1,46.5-41.6c9.9,24.7,26.9,41.6,45.9,41.6c19.1,0,36.4-16.1,46.2-41.4
				c9.9,24.7,27.1,41.4,46,41.4c19.3,0,36.4-16.9,46.1-42.4L273,650.7z"/>
		</g>
	</g>
</g>
</svg>
